<?xml version="1.0" standalone="no"?>
<!DOCTYPE svg PUBLIC "-//W3C//DTD SVG 1.1//EN" "http://www.w3.org/Graphics/SVG/1.1/DTD/svg11.dtd" >
<svg xmlns="http://www.w3.org/2000/svg">
<metadata>
Created by FontPrep 20130207 at Wed Sep 24 10:47:15 2014
 By 1
Copyright (c) 2014 by Intelligent Design - Kostas Bartsokas. All rights reserved.
</metadata>
<defs>
<font id="c5e1f6902d776e7e1ed6262bd857df8d" horiz-adv-x='1024' >
  <font-face 
    font-family="ZonaPro-Hairline"
    font-weight="250"
    font-stretch="normal"
    units-per-em="2048"
    panose-1="2 1 2 3 4 0 2 2 0 4"
    ascent="1690"
    descent="-358"
    x-height="1102"
    cap-height="1444"
    bbox="-449 -545 2515 2009"
    underline-thickness="40"
    underline-position="-231"
    unicode-range="U+0020-FB04"
  />
<missing-glyph horiz-adv-x="1024" 
 />
    <glyph glyph-name="f_igrave" unicode="f&#xec;" horiz-adv-x="1132" 
d="M311 1235v-133h635v-1102h-49v1055h-586v-1116q0 -152 -85 -234t-216 -82q-31 0 -80 4v49q45 -4 80 -4q108 0 180 70t72 197v1116h-217v47h217v133q0 159 90 237t234 78l370 -342h-65l-320 293q-115 1 -187 -69t-73 -197z" />
    <glyph glyph-name="f_f" unicode="ff" horiz-adv-x="1470" 
d="M1028 1171v-69h416v-47h-416v-1084q0 -151 -86 -233t-215 -82q-31 0 -80 4v49q45 -4 80 -4q109 0 181 70t71 196v1084h-668v-1116q0 -150 -86 -233t-215 -83q-31 0 -80 4v49q45 -4 80 -4q108 0 180 70t72 197v1116h-217v47h217v72q0 156 79 242t207 85q128 0 204 -22v-49
q-76 23 -189 22q-252 0 -252 -297v-53h668v94q0 354 301 354q112 1 188 -22v-49q-76 23 -200 23t-182 -84q-58 -83 -58 -247z" />
    <glyph glyph-name="f_i" unicode="fi" horiz-adv-x="1132" 
d="M311 1102h635v-1102h-49v1055h-586v-1116q0 -152 -85 -234t-216 -82q-31 0 -80 4v49q45 -4 80 -4q108 0 180 70t72 197v1116h-217v47h217v80q0 168 73 268t228 100q113 1 189 -22v-49q-76 23 -201 23t-182 -89q-57 -88 -58 -252v-59zM922 1350q-20 0 -34 13t-14 33t14 34
t34 14t33 -13t13 -33t-12 -34q-14 -14 -34 -14z" />
    <glyph glyph-name="f_l" unicode="fl" horiz-adv-x="1191" 
d="M262 1102q0 232 83 340t288 108t290 -92t85 -223v-1235h-50v1235q0 133 -87 200t-226 66q-197 0 -265 -94t-69 -305h416v-47h-416v-1116q0 -152 -85 -234t-216 -82q-31 0 -80 4v49q45 -4 80 -4q108 0 180 70t72 197v1116h-217v47h217z" />
    <glyph glyph-name="f_f_i" unicode="ffi" horiz-adv-x="1849" 
d="M1614 0v1055h-586v-1084q0 -151 -85 -233t-216 -82q-31 0 -80 4v49q45 -4 80 -4q109 0 181 70t71 196v1084h-668v-1116q0 -152 -85 -234t-216 -82q-31 0 -80 4v49q45 -4 80 -4q108 0 180 70t72 197v1116h-217v47h217v67q0 154 79 243t207 89t204 -22v-49q-76 23 -189 22
q-252 0 -252 -297v-53h668v76q0 373 301 372q113 0 188 -22v-49q-76 23 -202 23t-182 -87q-56 -86 -56 -254v-59h635v-1102h-49zM1638 1350q-20 0 -33 13t-13 33t12 34q14 14 34 14t34 -13t14 -33t-14 -34t-34 -14z" />
    <glyph glyph-name="f_f_l" unicode="ffl" horiz-adv-x="1908" 
d="M979 1235q-1 151 107 233t269 82t265 -83t104 -232v-1235h-49v1235q0 127 -88 197t-230 70t-236 -70q-93 -70 -93 -197v-133h416v-47h-416v-1084q0 -151 -85 -233t-216 -82q-31 0 -80 4v49q45 -4 80 -4q109 0 181 70t71 196v1084h-668v-1116q0 -152 -85 -234t-216 -82
q-31 0 -80 4v49q45 -4 80 -4q108 0 180 70t72 197v1116h-217v47h217v84q0 152 85 234t207 81q122 0 198 -22v-49q-76 22 -187 22t-183 -70t-71 -196v-84h668v133z" />
    <glyph glyph-name=".notdef" horiz-adv-x="1024" 
 />
    <glyph glyph-name=".null" horiz-adv-x="0" 
 />
    <glyph glyph-name="nonmarkingreturn" horiz-adv-x="681" 
 />
    <glyph glyph-name="space" unicode=" " horiz-adv-x="659" 
 />
    <glyph glyph-name="exclam" unicode="!" horiz-adv-x="354" 
d="M180 88q20 0 34 -13t13 -33q0 -20 -13 -34q-14 -14 -34 -14t-34 13q-13 13 -13 33t13 35q14 13 34 13zM190 348h-24l-12 1094h49z" />
    <glyph glyph-name="quotedbl" unicode="&#x22;" horiz-adv-x="495" 
d="M74 940l30 494h58l-60 -494h-28zM326 940l30 494h58l-60 -494h-28z" />
    <glyph glyph-name="numbersign" unicode="#" horiz-adv-x="1363" 
d="M850 479l86 506h-449l-88 -506h451zM1305 1028v-43h-322l-88 -506h342v-43h-350l-72 -418h-45l72 418h-451l-72 -418h-45l72 418h-285v43h293l86 506h-311v43h320l61 352h45l-61 -352h450l62 352h45l-62 -352h316z" />
    <glyph glyph-name="dollar" unicode="$" horiz-adv-x="1284" 
d="M1118 371q0 158 -188 241q-88 40 -262 84v-659q206 2 328 89t122 245zM616 1405q-200 1 -318 -89t-118 -227t125 -209q125 -73 311 -120v645zM668 -145h-52v131q-145 2 -242 26t-255 105l22 45q152 -76 244 -100t231 -25v672q-292 75 -390 161q-97 87 -97 215
q0 163 132 267t355 104v84h52v-86q272 -14 440 -108l-25 -46q-155 89 -415 103v-655q217 -53 349 -125q154 -86 153 -260q-1 -175 -137 -275t-365 -102v-131z" />
    <glyph glyph-name="percent" unicode="%" horiz-adv-x="1841" 
d="M1393 1436h51l-989 -1436h-52zM1384 39q133 0 223 94q89 94 89 255t-89 254t-223 93t-222 -93q-89 -93 -89 -254t89 -255t222 -94zM1384 780q154 0 255 -105t101 -287t-102 -288t-254 -106t-254 106t-102 288t101 286q101 106 255 106zM457 1405q-133 0 -223 -93
t-89 -254q0 -161 89 -255q88 -94 222 -94t223 94t89 255t-89 254t-222 93zM457 1450q154 0 255 -106t101 -286q0 -182 -102 -288t-254 -106t-254 106q-103 106 -103 288t102 286q102 106 255 106z" />
    <glyph glyph-name="ampersand" unicode="&#x26;" horiz-adv-x="1380" 
d="M594 45q184 0 377 178l-482 463q-324 -125 -323 -346q0 -123 106 -209t322 -86zM586 1393q-135 0 -215 -84q-80 -83 -80 -189t49 -185t162 -194q229 81 307 177t78 210t-83 190q-83 75 -218 75zM242 1126q0 118 94 216q94 100 251 100t253 -90t96 -220t-83 -238
t-312 -189l463 -449q121 121 266 348l41 -24q-137 -221 -273 -359l201 -190l-33 -33l-200 192q-209 -195 -412 -194q-242 0 -361 100t-119 234t79 228q78 93 260 165q-111 111 -161 198t-50 205z" />
    <glyph glyph-name="quotesingle" unicode="'" horiz-adv-x="333" 
d="M123 940l31 494h57l-59 -494h-29z" />
    <glyph glyph-name="parenleft" unicode="(" horiz-adv-x="765" 
d="M172 627q0 -262 140 -467t397 -338l-21 -43q-268 139 -419 355t-151 492t151 493q151 216 419 356l21 -43q-253 -131 -395 -337t-142 -468z" />
    <glyph glyph-name="parenright" unicode=")" horiz-adv-x="765" 
d="M594 627q0 262 -141 468t-396 337l21 43q268 -139 419 -355t151 -493q0 -276 -151 -493q-151 -216 -419 -355l-21 43q256 133 397 338q140 205 140 467z" />
    <glyph glyph-name="asterisk" unicode="*" horiz-adv-x="831" 
d="M733 922l-26 -45l-275 172l12 -324h-51l13 324l-275 -175l-25 48l287 149l-289 152l27 45l275 -174l-13 325h51l-12 -325l275 176l24 -47l-287 -152z" />
    <glyph glyph-name="plus" unicode="+" horiz-adv-x="1310" 
d="M1161 780v-41h-483v-483h-41v483h-483v41h483v484h41v-484h483z" />
    <glyph glyph-name="comma" unicode="," horiz-adv-x="284" 
d="M131 88q51 0 51 -68q0 -126 -57 -196t-131 -76l-10 29q57 8 104 67t47 150q-20 0 -34 13q-13 13 -13 33t13 34q14 14 30 14z" />
    <glyph glyph-name="hyphen" unicode="-" horiz-adv-x="835" 
d="M733 700v-43h-631v43h631z" />
    <glyph glyph-name="period" unicode="." horiz-adv-x="260" 
d="M174 41q0 -19 -13 -33t-33 -14t-35 13q-13 13 -13 33t13 34t33 14t35 -13q13 -14 13 -34z" />
    <glyph glyph-name="slash" unicode="/" horiz-adv-x="856" 
d="M-51 -262l907 1896h51l-907 -1896h-51z" />
    <glyph glyph-name="zero" unicode="0" horiz-adv-x="1495" 
d="M1350 720q0 314 -171 496t-428 183q-257 0 -429 -182q-172 -181 -172 -495t172 -496t429 -183q257 0 428 182q171 181 171 495zM752 1448q278 0 462 -196t184 -532t-184 -531q-186 -195 -463 -195t-464 195q-186 196 -187 532q0 335 187 531t465 196z" />
    <glyph glyph-name="one" unicode="1" horiz-adv-x="768" 
d="M498 1444v-1444h-52v1395l-356 -80l-10 47l366 82h52z" />
    <glyph glyph-name="two" unicode="2" horiz-adv-x="1277" 
d="M1163 49v-49h-1054v35q124 132 389 249t418 238q85 66 140 168q54 102 54 230q0 201 -142 341t-337 140t-335 -137t-140 -342v-33h-50v33q0 224 156 376t370 152t370 -154t157 -376q0 -130 -49 -234t-126 -172q-148 -130 -398 -242t-389 -223h966z" />
    <glyph glyph-name="three" unicode="3" horiz-adv-x="1251" 
d="M1167 444q1 -212 -153 -332t-412 -120q-156 0 -259 18t-218 70l20 45q109 -49 209 -67t248 -17q236 -1 376 107t140 296q0 152 -126 261t-359 112h-27l-10 21l453 557h-902v49h981v-33l-450 -553q217 0 353 -121t136 -293z" />
    <glyph glyph-name="four" unicode="4" horiz-adv-x="1314" 
d="M934 469v881l-764 -881h764zM985 469h242v-51h-242v-418h-51v418h-828l-14 35l858 991h35v-975z" />
    <glyph glyph-name="five" unicode="5" horiz-adv-x="1255" 
d="M664 924q238 0 374 -133t136 -345t-154 -334q-154 -120 -430 -120t-467 76l16 47q185 -74 445 -74q260 -1 400 107t140 300t-124 309t-328 117t-453 -92l-33 23v639h920v-49h-870v-551q76 28 200 54t228 26z" />
    <glyph glyph-name="six" unicode="6" horiz-adv-x="1361" 
d="M714 877q-210 0 -358 -109t-149 -275q0 -166 147 -308t332 -142q223 0 376 120q152 120 152 309t-145 297t-355 108zM1264 471q0 -213 -166 -345t-404 -132t-402 181q-163 181 -163 458q0 421 168 619t432 198q231 0 451 -145l-27 -43q-213 139 -439 139
q-226 -1 -380 -187q-156 -186 -156 -581q0 -33 2 -49q25 112 112 192q164 150 408 150t404 -121t160 -334z" />
    <glyph glyph-name="seven" unicode="7" horiz-adv-x="1165" 
d="M104 1444h990v-35l-729 -1409h-56l721 1395h-926v49z" />
    <glyph glyph-name="eight" unicode="8" horiz-adv-x="1302" 
d="M657 43q221 0 364 93q142 93 142 265q0 171 -138 267q-137 96 -367 96t-368 -95t-138 -267t142 -266q142 -93 363 -93zM657 1401q-184 0 -303 -75q-118 -75 -118 -217t114 -219t308 -77q192 0 307 77t115 219t-119 217q-120 75 -304 75zM657 1450q207 0 339 -87t132 -257
q0 -121 -76 -206t-196 -107q158 -31 257 -133t99 -257q0 -197 -156 -303t-399 -106t-399 106t-156 303q0 154 100 256t257 134q-119 23 -196 107t-77 206q0 170 132 257t339 87z" />
    <glyph glyph-name="nine" unicode="9" horiz-adv-x="1357" 
d="M680 1401q-220 0 -364 -114t-144 -309t146 -303t351 -108q206 0 348 109t142 282t-151 308q-152 135 -328 135zM680 518q-238 0 -398 121t-159 339q0 218 159 345t379 127q219 0 375 -137t189 -346q12 -90 12 -156q0 -424 -163 -621t-437 -196q-231 0 -451 145l27 43
q213 -139 424 -139q251 0 401 184t150 584q0 9 -1 25t-1 24q-30 -160 -178 -251t-328 -91z" />
    <glyph glyph-name="colon" unicode=":" horiz-adv-x="368" 
d="M176 88q20 0 34 -13t13 -33q0 -20 -13 -34q-14 -14 -34 -14t-34 13q-13 13 -13 33t13 35q14 13 34 13zM176 1001q-20 -1 -34 13t-13 34q0 20 13 34q14 14 34 14t34 -14t13 -33q1 -20 -13 -34t-34 -14z" />
    <glyph glyph-name="semicolon" unicode=";" horiz-adv-x="362" 
d="M174 88q51 0 51 -68q0 -122 -58 -194t-130 -78l-10 29q57 8 104 67t47 150q-20 0 -34 13q-13 13 -13 33t13 34q14 14 30 14zM176 1001q-20 -1 -34 13t-13 34q0 20 13 34q14 14 34 14t34 -14t13 -33q1 -20 -13 -34t-34 -14z" />
    <glyph glyph-name="less" unicode="&#x3c;" horiz-adv-x="1236" 
d="M1090 1208v-47l-914 -448l914 -447v-47l-977 479v31z" />
    <glyph glyph-name="equal" unicode="=" horiz-adv-x="1267" 
d="M150 1006h964v-43h-964v43zM150 365v43h964v-43h-964z" />
    <glyph glyph-name="greater" unicode="&#x3e;" horiz-adv-x="1239" 
d="M168 219v47l911 447l-911 448v47l977 -479v-31z" />
    <glyph glyph-name="question" unicode="?" horiz-adv-x="1105" 
d="M467 88q19 0 33 -13t14 -33t-13 -34t-33 -14t-35 13q-13 13 -13 33t13 35q14 13 34 13zM469 1450q244 0 388 -122t144 -335q0 -170 -134 -274t-367 -105l-8 -282h-39l-7 311l13 16h14q242 1 363 95t120 239q0 193 -133 303t-354 109q-139 -1 -232 -21t-202 -77l-21 41
q112 62 210 82t245 20z" />
    <glyph glyph-name="at" unicode="@" horiz-adv-x="1976" 
d="M1268 686q0 150 -98 251t-254 101t-286 -141t-130 -338q0 -157 96 -265t254 -108t288 148t130 352zM995 1483q373 0 636 -262t263 -633q0 -190 -128 -336t-306 -148q-112 0 -176 52t-63 145q0 20 8 74q-70 -109 -173 -173t-218 -65q-166 0 -277 122t-110 300
q0 215 144 372t335 156q127 1 226 -73t138 -193l35 223l51 -8q-111 -682 -110 -725q0 -164 190 -164q170 1 281 137t110 304q0 352 -250 602q-251 250 -605 250t-607 -251q-252 -251 -252 -605t252 -606t591 -252t576 208l29 -32q-252 -219 -590 -219q-373 0 -637 264
t-264 637t264 636t637 263z" />
    <glyph glyph-name="A" unicode="A" horiz-adv-x="1443" 
d="M721 1391l-404 -914h809zM1337 0l-192 432h-848l-191 -432h-53l645 1444h47l646 -1444h-54z" />
    <glyph glyph-name="B" unicode="B" horiz-adv-x="1419" 
d="M250 49h624q180 0 283 119t103 290t-102 295t-284 124h-624v-828zM250 1395v-469h541q84 0 135 70t51 168q0 97 -80 164t-197 67h-450zM1028 1159q0 -160 -108 -235q182 -18 286 -154t104 -319t-115 -317q-116 -134 -321 -134h-673v1444h499q136 0 232 -81t96 -204z" />
    <glyph glyph-name="C" unicode="C" horiz-adv-x="1579" 
d="M877 45q164 0 307 68t241 186l39 -35q-106 -126 -259 -198t-328 -72q-311 0 -533 213q-221 213 -221 514t221 515t533 214q173 0 327 -73t260 -199l-39 -35q-100 119 -242 187t-306 69q-291 0 -497 -199q-206 -198 -206 -478t206 -478t497 -199z" />
    <glyph glyph-name="D" unicode="D" horiz-adv-x="1478" 
d="M250 49h422q258 0 445 202q187 201 187 475t-197 472q-198 198 -478 197h-379v-1346zM1356 725q0 -295 -200 -510t-480 -215h-475v1444h428q301 0 514 -212t213 -507z" />
    <glyph glyph-name="E" unicode="E" horiz-adv-x="1292" 
d="M250 49h930v-49h-979v1444h936v-49h-887v-670h760v-49h-760v-627z" />
    <glyph glyph-name="F" unicode="F" horiz-adv-x="1261" 
d="M1153 1395h-903v-764h790v-49h-790v-582h-49v1444h952v-49z" />
    <glyph glyph-name="G" unicode="G" horiz-adv-x="1646" 
d="M844 664h659v-461q-260 -209 -622 -209q-313 0 -536 213q-222 213 -222 514t222 514t553 213t552 -205l-35 -39q-209 193 -518 193t-516 -199q-207 -200 -207 -478t207 -476t519 -199q312 0 554 184v385h-610v50z" />
    <glyph glyph-name="H" unicode="H" horiz-adv-x="1480" 
d="M1231 1444h49v-1444h-49v618h-981v-618h-49v1444h49v-776h981v776z" />
    <glyph glyph-name="I" unicode="I" horiz-adv-x="452" 
d="M252 1444v-1444h-51v1444h51z" />
    <glyph glyph-name="J" unicode="J" horiz-adv-x="1251" 
d="M1024 1444h49v-854q0 -274 -128 -435t-380 -161q-184 0 -323 117t-170 295l49 6q31 -158 155 -262t289 -105q227 -1 343 147t116 398v854z" />
    <glyph glyph-name="K" unicode="K" horiz-adv-x="1392" 
d="M250 0h-49v1444h49v-1016l948 1016h68l-648 -694l666 -750h-72l-630 713l-332 -357v-356z" />
    <glyph glyph-name="L" unicode="L" horiz-adv-x="1206" 
d="M250 49h862v-49h-911v1444h49v-1395z" />
    <glyph glyph-name="M" unicode="M" horiz-adv-x="1789" 
d="M1589 1444v-1444h-49v1329l-645 -1071l-645 1071v-1329h-49v1444h39l655 -1088l655 1088h39z" />
    <glyph glyph-name="N" unicode="N" horiz-adv-x="1570" 
d="M1321 1444h49v-1444h-39l-1081 1352v-1352h-49v1444h39l1081 -1352v1352z" />
    <glyph glyph-name="O" unicode="O" horiz-adv-x="1761" 
d="M881 45q293 0 499 198q206 199 207 479q0 280 -207 478q-206 198 -498 199q-292 0 -500 -199q-208 -198 -208 -478t207 -478t500 -199zM882 1450q314 0 535 -214t221 -515t-221 -514t-535 -213t-537 213q-222 213 -222 514t222 515q223 214 537 214z" />
    <glyph glyph-name="P" unicode="P" horiz-adv-x="1337" 
d="M250 561h444q230 1 362 105t132 325q0 176 -106 290t-337 114h-495v-834zM201 1444h544q256 0 375 -128t119 -325q0 -247 -145 -363t-400 -116h-444v-512h-49v1444z" />
    <glyph glyph-name="Q" unicode="Q" horiz-adv-x="1761" 
d="M881 45q225 0 405 123l-123 104l31 37l133 -112q121 94 191 231t69 293q0 281 -207 479q-206 198 -498 199q-292 0 -500 -199q-208 -198 -208 -478t207 -478t500 -199zM881 -6q-313 0 -536 213q-222 213 -222 514t222 515q223 214 537 214t535 -214t221 -515
q0 -166 -72 -311t-200 -248l158 -131l-31 -37l-166 139q-197 -139 -446 -139z" />
    <glyph glyph-name="R" unicode="R" horiz-adv-x="1361" 
d="M250 1395v-834h444q230 1 362 105t132 325q0 176 -106 290t-337 114h-495zM694 512h-444v-512h-49v1444h544q256 0 375 -128t119 -325q0 -379 -354 -461l393 -530h-64l-383 520q-57 -8 -137 -8z" />
    <glyph glyph-name="S" unicode="S" horiz-adv-x="1296" 
d="M666 -14q-174 0 -274 24t-269 107l22 45q162 -80 258 -103t284 -23q187 0 311 88q124 87 124 248t-193 242q-86 37 -225 73q-140 36 -206 55q-182 52 -262 123q-103 91 -103 220q0 165 131 265t352 100q124 0 266 -30t230 -81l-25 -45q-84 47 -219 76t-252 29
q-200 0 -316 -87t-116 -229t151 -219q125 -63 292 -104q165 -41 241 -68q76 -28 153 -70q153 -84 153 -259q0 -177 -138 -277t-370 -100z" />
    <glyph glyph-name="T" unicode="T" horiz-adv-x="1351" 
d="M1239 1444v-49h-534v-1395h-52v1395h-530v49h1116z" />
    <glyph glyph-name="U" unicode="U" horiz-adv-x="1544" 
d="M1343 1444v-864q1 -254 -151 -420t-421 -166t-420 165t-150 421v864h49v-864q0 -233 137 -384t383 -151t385 152t139 383v864h49z" />
    <glyph glyph-name="V" unicode="V" horiz-adv-x="1556" 
d="M784 82l635 1362h56l-672 -1444h-35l-672 1444h56z" />
    <glyph glyph-name="W" unicode="W" horiz-adv-x="2287" 
d="M2195 1444l-542 -1444h-37l-483 1352l-484 -1352h-37l-542 1444h53l506 -1354l483 1354h41l481 -1354l508 1354h53z" />
    <glyph glyph-name="X" unicode="X" horiz-adv-x="1423" 
d="M719 760l559 684h63l-591 -723l591 -721h-63l-559 682l-559 -682h-64l590 721l-590 723h64z" />
    <glyph glyph-name="Y" unicode="Y" horiz-adv-x="1314" 
d="M684 0h-51v502l-576 942h60l540 -893l541 893h62l-576 -942v-502z" />
    <glyph glyph-name="Z" unicode="Z" horiz-adv-x="1320" 
d="M1206 1444v-25l-1024 -1370h1041v-49h-1119v25l1022 1370h-960v49h1040z" />
    <glyph glyph-name="bracketleft" unicode="[" horiz-adv-x="561" 
d="M520 1395h-274v-1614h274v-41h-319v1696h319v-41z" />
    <glyph glyph-name="backslash" unicode="\" horiz-adv-x="829" 
d="M860 -262l-907 1896h51l907 -1896h-51z" />
    <glyph glyph-name="bracketright" unicode="]" horiz-adv-x="595" 
d="M76 -219h274v1614h-274v41h319v-1696h-319v41z" />
    <glyph glyph-name="asciicircum" unicode="^" horiz-adv-x="872" 
d="M137 1004h-57l344 440h35l344 -440h-58l-305 389z" />
    <glyph glyph-name="underscore" unicode="_" horiz-adv-x="1181" 
d="M1188 -63v-43h-1194v43h1194z" />
    <glyph glyph-name="grave" unicode="`" horiz-adv-x="886" 
d="M557 1554l-332 308l66 6l325 -314h-59z" />
    <glyph glyph-name="a" unicode="a" 
d="M686 1073q-219 -1 -374 -151q-154 -150 -154 -364t154 -364t374 -151q283 0 449 162v700q-168 168 -449 168zM1135 1102h47v-1102h-47v139q-179 -145 -433 -145t-424 165t-169 399q0 234 170 399t407 165q131 0 250 -41t199 -112v133z" />
    <glyph glyph-name="b" unicode="b" 
d="M680 43q219 0 374 151q154 150 154 364t-154 365q-155 151 -374 150q-283 0 -449 -162v-702q170 -166 449 -166zM664 1122q254 0 424 -165t169 -399q0 -234 -170 -399t-407 -165q-281 0 -449 151v-145h-47v1544h47v-569q179 147 433 147z" />
    <glyph glyph-name="c" unicode="c" horiz-adv-x="1210" 
d="M702 -6q-242 0 -418 165q-175 165 -175 399t175 400q175 164 418 164t402 -180l-37 -33q-143 164 -365 164t-384 -150q-160 -151 -160 -365t160 -364t382 -151q222 0 367 172l35 -37q-158 -184 -400 -184z" />
    <glyph glyph-name="d" unicode="d" 
d="M686 43q279 0 449 166v702q-168 162 -449 162q-219 -1 -374 -151q-154 -150 -154 -364t154 -364t374 -151zM1135 1544h47v-1544h-47v145q-168 -152 -449 -151q-238 0 -408 165t-169 399q0 234 170 400q171 164 423 164t433 -147v569z" />
    <glyph glyph-name="e" unicode="e" horiz-adv-x="1310" 
d="M666 1073q-216 0 -358 -141t-150 -352h991q-10 221 -139 357t-344 136zM1198 532h-1040q12 -217 156 -353t354 -136q289 0 442 193l41 -31q-78 -99 -204 -155t-279 -56q-244 0 -402 163t-158 401t158 400q158 164 402 164t387 -158t143 -411v-21z" />
    <glyph glyph-name="f" unicode="f" horiz-adv-x="753" 
d="M311 1102h416v-47h-416v-1116q0 -242 -207 -304q-47 -12 -86 -12t-88 4v49q45 -4 80 -4q113 0 183 66t69 201v1116h-217v47h217v35q0 414 301 413q113 1 189 -22v-49q-76 23 -201 23t-182 -90q-57 -89 -58 -277v-33z" />
    <glyph glyph-name="g" unicode="g" horiz-adv-x="1363" 
d="M156 558q0 -214 154 -364t374 -151q283 0 449 162v700q-168 168 -449 168q-219 0 -374 -150q-154 -151 -154 -365zM1133 1102h47v-993q0 -211 -133 -349t-381 -137q-114 0 -160 5t-66 7q-20 3 -56 11t-69 15t-90 28l13 47q132 -39 206 -51t222 -13q231 0 349 125t118 291
v51q-179 -145 -433 -145t-424 165t-170 399t170 399t408 165q131 0 250 -41t199 -112v133z" />
    <glyph glyph-name="h" unicode="h" horiz-adv-x="1308" 
d="M680 1122q207 0 341 -127t134 -356v-639h-47v639q0 205 -122 319t-306 115q-268 0 -449 -162v-911h-47v1544h47v-581q164 159 449 159z" />
    <glyph glyph-name="i" unicode="i" horiz-adv-x="421" 
d="M211 1350q-20 0 -34 13q-13 13 -13 33t13 34t33 14t34 -13t14 -33t-13 -35q-14 -13 -34 -13zM186 0v1102h50v-1102h-50z" />
    <glyph glyph-name="j" unicode="j" horiz-adv-x="417" 
d="M207 1350q-20 0 -34 13q-13 13 -13 33t13 34t33 14t34 -13t14 -33t-13 -35q-14 -13 -34 -13zM184 -61v1163h49v-1163q0 -152 -85 -234t-216 -82q-31 0 -79 4v49q45 -4 79 -4q109 0 181 70q71 70 71 197z" />
    <glyph glyph-name="k" unicode="k" horiz-adv-x="1255" 
d="M233 0h-49v1544h49v-1263l885 821h74l-453 -418l451 -684h-60l-428 649l-469 -434v-215z" />
    <glyph glyph-name="l" unicode="l" horiz-adv-x="417" 
d="M184 0v1544h49v-1544h-49z" />
    <glyph glyph-name="m" unicode="m" horiz-adv-x="2060" 
d="M1432 1122q207 0 341 -127t134 -356v-639h-47v639q0 205 -121 319t-307 115q-229 0 -394 -176q55 -111 56 -258v-639h-47v639q0 203 -110 319t-278 115q-256 0 -428 -162v-911h-47v1102h47v-139q156 159 413 159t374 -188q142 188 414 188z" />
    <glyph glyph-name="n" unicode="n" horiz-adv-x="1312" 
d="M680 1122q207 0 341 -127t134 -356v-639h-47v639q0 205 -121 319t-307 115q-268 0 -449 -162v-911h-47v1102h47v-139q164 159 449 159z" />
    <glyph glyph-name="o" unicode="o" horiz-adv-x="1411" 
d="M705 43q227 0 388 151q161 150 161 364t-161 365t-388 151t-389 -151q-160 -151 -160 -365t161 -364t388 -151zM705 1122q249 0 423 -165t174 -399t-174 -399q-176 -165 -424 -165t-422 165q-176 165 -176 399t176 400q176 164 423 164z" />
    <glyph glyph-name="p" unicode="p" horiz-adv-x="1370" 
d="M680 43q219 0 374 151q154 150 154 364t-154 365q-155 151 -374 150q-281 0 -449 -168v-700q162 -162 449 -162zM680 1122q238 0 408 -165t169 -399q0 -234 -170 -400q-171 -164 -425 -164t-431 145v-497h-47v1460h47v-133q80 73 199 113t250 40z" />
    <glyph glyph-name="q" unicode="q" horiz-adv-x="1370" 
d="M162 558q0 -214 154 -364t374 -151q283 0 449 162v700q-168 168 -449 168q-219 0 -374 -150q-154 -151 -154 -365zM1139 1102h47v-1460h-47v497q-179 -145 -433 -145t-424 165t-169 399q0 234 170 399t407 165q131 0 250 -41t199 -112v133z" />
    <glyph glyph-name="r" unicode="r" horiz-adv-x="886" 
d="M231 1102v-277q49 137 147 217t216 80q120 0 221 -49l-20 -45q-90 45 -185 45q-164 0 -272 -140t-107 -349v-584h-47v1102h47z" />
    <glyph glyph-name="s" unicode="s" horiz-adv-x="1101" 
d="M564 43q196 0 289 74t93 179q0 106 -102 162t-300 96t-306 106t-109 183q0 119 115 199t302 80t382 -82l-17 -45q-164 78 -383 78q-147 -1 -248 -67q-102 -66 -102 -164t93 -150t298 -92t316 -106t111 -195t-106 -217q-105 -88 -320 -88t-461 98l20 45q239 -94 435 -94z
" />
    <glyph glyph-name="t" unicode="t" horiz-adv-x="790" 
d="M750 1055h-445v-719q0 -150 69 -222q68 -72 182 -71q114 0 189 23v-50q-75 -22 -197 -22t-207 82t-85 233v746h-209v47h209v442h49v-442h445v-47z" />
    <glyph glyph-name="u" unicode="u" horiz-adv-x="1333" 
d="M1102 1102h47v-1102h-47v154q-170 -160 -469 -160q-205 0 -340 127t-135 356v625h47v-625q0 -205 121 -319t307 -115q283 0 469 162v897z" />
    <glyph glyph-name="v" unicode="v" horiz-adv-x="1239" 
d="M1122 1102h58l-543 -1102h-33l-545 1102h58l504 -1026z" />
    <glyph glyph-name="w" unicode="w" horiz-adv-x="1736" 
d="M1645 1102h53l-432 -1102h-35l-363 1010l-360 -1010h-35l-434 1102h53l397 -1014l359 1014h41l360 -1014z" />
    <glyph glyph-name="x" unicode="x" horiz-adv-x="1185" 
d="M598 514l-457 -514h-65l489 551l-489 551h65l457 -514l457 514h65l-489 -551l489 -551h-65z" />
    <glyph glyph-name="y" unicode="y" horiz-adv-x="1241" 
d="M92 -377v49h23q201 0 345 80t202 248h-68l-520 1102h55l496 -1053h55l426 1053h53l-469 -1161q-131 -317 -581 -318h-17z" />
    <glyph glyph-name="z" unicode="z" horiz-adv-x="1212" 
d="M1120 47v-47h-1007v37l927 1018h-899v47h981v-29l-932 -1026h930z" />
    <glyph glyph-name="braceleft" unicode="{" horiz-adv-x="761" 
d="M700 1442v-45q-138 0 -206 -37t-68 -164v-221q0 -197 -33 -286t-133 -111q102 -20 134 -102t32 -275v-262q0 -125 69 -163t205 -38v-45q-78 0 -126 7q-129 19 -170 105q-24 51 -23 134v262q0 164 -11 219q-10 54 -28 72q-52 52 -123 59q-71 6 -151 6v41q173 0 219 32
q23 15 39 26t26 39t20 58t9 222v221q0 164 96 209q79 37 223 37z" />
    <glyph glyph-name="bar" unicode="|" horiz-adv-x="503" 
d="M215 -262v1896h45v-1896h-45z" />
    <glyph glyph-name="braceright" unicode="}" horiz-adv-x="753" 
d="M68 1397v45q144 0 208 -30t88 -82t23 -134v-221q0 -190 9 -221q10 -31 20 -59t26 -39t39 -26q49 -32 219 -32v-41q-80 0 -131 -4q-51 -3 -88 -23t-54 -37q-40 -40 -40 -292v-262q0 -163 -96 -208q-49 -24 -97 -31t-126 -7v45q138 0 206 38t68 163v262q0 195 32 275
t134 102q-102 22 -134 110t-32 287v221q0 127 -68 164t-206 37z" />
    <glyph glyph-name="asciitilde" unicode="~" horiz-adv-x="935" 
d="M307 721q63 0 174 -50t164 -50t94 42t54 121l47 -8q-18 -102 -70 -153t-118 -51t-181 50t-164 50q-135 0 -168 -166l-47 6q35 209 215 209z" />
    <glyph glyph-name="exclamdown" unicode="&#xa1;" horiz-adv-x="372" 
d="M180 1354q-20 0 -34 13q-13 13 -13 33t13 34q14 14 34 14t34 -13t13 -33q0 -20 -13 -35q-14 -13 -34 -13zM166 1094h24l13 -1094h-49z" />
    <glyph glyph-name="cent" unicode="&#xa2;" horiz-adv-x="1177" 
d="M123 754q0 -166 100 -297t260 -187l205 1000q-240 0 -402 -150t-163 -366zM672 240q215 0 360 172l35 -37q-158 -184 -395 -185q-78 0 -150 19l-43 -209h-51l45 221q-176 59 -288 205q-111 146 -111 322q0 178 92 310t232 195t300 64l31 145h51l-30 -149
q188 -27 319 -174l-37 -33q-117 133 -293 158l-207 -1008q70 -16 140 -16z" />
    <glyph glyph-name="sterling" unicode="&#xa3;" horiz-adv-x="1308" 
d="M1237 49v-49h-1149v35l231 14q-43 301 -65 580h-143v49h141q-8 90 -8 176q0 306 140 452t380 146q141 0 261 -71t187 -189l-43 -25q-61 109 -169 172t-236 64q-238 1 -354 -147t-117 -402q0 -84 8 -176h674v-49h-670q23 -236 68 -580h864z" />
    <glyph glyph-name="KB" unicode="&#xa4;" horiz-adv-x="1992" 
d="M461 -311q0 8 8 8t8 -8t-8 -8t-8 8zM1700 -311q0 8 8 8t8 -8t-8 -8t-8 8zM905 -231h8v-86h-8v86zM1493 -231h8v-86h-8v86zM500 -231h8v-86h-8v86zM1552 184h-30v-22h28q14 0 15 10q-1 12 -13 12zM838 -231h8v-78h41v-8h-49v86zM770 -231h8v-78h41v-8h-49v86zM643 -240
h-27v9h62v-9h-27v-77h-8v77zM1210 -240h-26v9h61v-9h-26v-77h-9v77zM1473 -293q0 -25 -25 -24q-23 0 -31 18l6 4q5 -14 23 -14t18 16q0 11 -20 19t-21 22q0 23 23 23q16 0 22 -15l-6 -4q-6 10 -18 10t-12 -12t20 -19t21 -24zM1829 -291h14q25 4 25 28t-25 23h-14v-51z
M698 -231h54v-9h-45v-36h41v-9h-41v-24h45v-8h-54v86zM1350 -231h53v-9h-45v-36h41v-9h-41v-24h45v-8h-53v86zM1028 -231h53v-9h-45v-36h41v-9h-41v-24h45v-8h-53v86zM981 -291v8h29v-22q-12 -12 -32 -12t-34 12q-12 13 -12 31t13 31q31 31 63 -1l-7 -6q-10 12 -25 12
q-16 0 -26 -11t-10 -25t11 -24t26 -11l24 8v10h-20zM1569 -291v8h28v-22q-12 -12 -32 -12t-33 12q-12 13 -12 31t13 31q32 32 62 -1l-6 -6q-10 12 -25 12q-16 0 -26 -11t-10 -25t11 -24t26 -11l24 8v10h-20zM1774 -291v8h28v-22q-12 -12 -32 -12q-43 0 -46 43q0 18 14 31
q31 30 62 -1l-6 -6q-8 12 -24 12t-27 -11q-10 -11 -10 -25t11 -24t25 -11l25 8v10h-20zM1522 84h22q31 0 31 21t-37 22h-16v-43zM590 -231h8v-86h-8l-51 73v-73h-9v86h9l51 -72v72zM1677 -231h9v-86h-9l-51 73v-73h-8v86h8l51 -72v72zM1159 -231h8v-86h-8l-51 73v-73h-8v86
h8l51 -72v72zM297 -305l25 76h8l-29 -86h-8l-19 71l-16 -71h-8l-29 86h8l25 -76l16 76h9zM174 -305l25 76h8l-29 -86h-8l-18 71l-17 -71h-8l-29 86h8l25 -76l16 76h9zM424 -305l25 76h8l-29 -86h-8l-19 71l-16 -71h-8l-29 86h8l25 -76l16 76h9zM1288 -309q14 0 25 10
q10 11 10 25t-10 24t-25 10h-16v-69h16zM1829 -299v-18h-8v86h22q13 -1 23 -11t10 -28t-18 -25l20 -22h-12l-17 18h-20zM1311 88h14q16 0 28 13q11 13 11 33t-12 32q-12 14 -29 14h-12v-92zM223 88h15q16 0 27 13t11 33t-12 32q-12 14 -28 14h-13v-92zM1288 -231
q18 1 30 -13t13 -31q0 -17 -13 -29t-30 -13h-24v86h24zM705 45h-50v180h50v-180zM1731 45h-50v59l-67 119h55l37 -65l37 65h57l-69 -119v-59zM389 125v-41h86v-39h-135v180h129v-41h-80v-24h53v-35h-53zM1153 125v-41h86v-39h-135v180h131v-41h-82v-24h55v-35h-55zM562 82
q25 0 26 12q0 10 -29 19q-68 14 -67 57q0 25 18 41t49 16t74 -14l-21 -39q-33 12 -52 12t-19 -11t30 -19q68 -14 68 -56q0 -59 -74 -59q-41 0 -78 18l19 37q31 -14 56 -14zM811 135h84v-67q-29 -23 -74 -25t-73 26q-28 29 -29 67q0 38 27 65q28 27 70 27t73 -27l-33 -33
q-18 14 -38 14t-34 -13t-14 -33t13 -36t29 -16t32 8v8h-33v35zM1032 225h49v-180h-22l-96 92v-92h-50v180h23l96 -94v94zM1413 135q-1 -37 -25 -63t-59 -27h-67v180h61q39 0 65 -26q25 -27 25 -64zM326 135q0 -37 -25 -63t-59 -27h-68v180h62q38 -1 64 -27t26 -63zM1626 108
q0 -64 -55 -63h-96v180h79q53 0 54 -39q-1 -20 -17 -32q35 -14 35 -46zM713 965h229v274l-141 -141v141h-88v-274zM942 877h-229v-275h88v141l141 -141v275zM1030 965h180q50 45 50 113t-46 114q-46 47 -112 47h-72v-274zM1030 602h72q66 0 112 47t46 115t-50 113h-180v-275
zM1567 921q0 -116 -65 -210t-169 -138q-41 -104 -136 -169q-95 -64 -211 -64t-210 64t-137 169q-104 43 -169 137q-64 94 -64 211q0 116 64 211q65 95 169 136q43 104 137 169t210 65t211 -66q95 -64 136 -168q104 -41 169 -136t65 -211z" />
    <glyph glyph-name="yen" unicode="&#xa5;" horiz-adv-x="1425" 
d="M1155 600v-51h-403l-29 -47v-29h430v-51h-430v-422h-51v422h-432v51h432v29l-29 47h-403v51h370l-514 844h60l540 -893l541 893h61l-516 -844h373z" />
    <glyph glyph-name="brokenbar" unicode="&#xa6;" horiz-adv-x="483" 
d="M219 -260v784h43v-784h-43zM219 850v784h43v-784h-43z" />
    <glyph glyph-name="section" unicode="&#xa7;" horiz-adv-x="1282" 
d="M213 764q0 -68 78 -106q77 -38 193 -70t235 -56q119 -25 170 -45q39 11 96 59t57 112t-69 109q-70 44 -294 98t-267 71q-82 -29 -140 -78t-59 -94zM1092 653q0 -61 -45 -113t-103 -83q84 -57 84 -165t-103 -200t-298 -92q-266 0 -457 94l23 45q63 -31 104 -46
q120 -44 305 -44q184 0 281 75q96 75 96 170t-99 138q-80 35 -180 56q-369 75 -453 138q-84 64 -83 138q0 121 190 197q-147 73 -147 205t119 211q118 79 274 79t430 -88l-12 -49q-274 88 -414 88t-244 -66t-104 -180q0 -56 26 -82q26 -25 44 -41t50 -29t56 -23t67 -22
q43 -10 69 -18t74 -19q264 -61 357 -118q93 -58 93 -156z" />
    <glyph glyph-name="dieresis" unicode="&#xa8;" horiz-adv-x="1024" 
d="M360 1700q20 0 34 -13t14 -33t-14 -34t-34 -14t-33 13t-13 33t12 34q14 14 34 14zM664 1700q20 0 33 -13t13 -33t-12 -34q-14 -14 -34 -14t-34 13t-14 33t14 34t34 14z" />
    <glyph glyph-name="copyright" unicode="&#xa9;" horiz-adv-x="1699" 
d="M868 1106q-166 0 -276 -112t-109 -270q-1 -158 109 -270t276 -112t277 141l37 -28q-124 -160 -312 -160t-311 126t-123 304t123 303t311 125t312 -160l-37 -28q-111 141 -277 141zM1532 725q0 281 -197 483t-481 201q-284 0 -484 -202q-198 -203 -198 -483t197 -482
t481 -201q284 -1 484 201q198 202 198 483zM853 1456q304 0 515 -215t211 -515t-212 -516t-516 -216t-515 215t-211 515t212 516t516 216z" />
    <glyph glyph-name="ordfeminine" unicode="&#xaa;" horiz-adv-x="974" 
d="M533 1380q-165 0 -269 -100t-104 -244t104 -244q104 -102 262 -102t273 94v500q-102 96 -266 96zM799 1413h45v-751h-45v63q-119 -82 -285 -82t-284 116q-118 115 -118 277t118 277t283 115t286 -85v70z" />
    <glyph glyph-name="guillemotleft" unicode="&#xab;" horiz-adv-x="1040" 
d="M475 20l-354 525l354 524l35 -25l-338 -499l338 -500zM905 20l-354 525l354 524l35 -25l-338 -499l338 -500z" />
    <glyph glyph-name="logicalnot" unicode="&#xac;" horiz-adv-x="1216" 
d="M1098 907v-377h-49v330h-959v47h1008z" />
    <glyph glyph-name="uni00AD" unicode="&#xad;" horiz-adv-x="835" 
d="M733 700v-43h-631v43h631z" />
    <glyph glyph-name="registered" unicode="&#xae;" horiz-adv-x="1699" 
d="M621 1100v-443h237q266 0 266 230q0 92 -57 152t-180 61h-266zM858 610h-237v-295h-48v832h314q147 0 216 -74t68 -186q0 -215 -200 -266l223 -293l-39 -27l-233 311q-20 -2 -64 -2zM1532 725q0 281 -197 483t-481 201q-284 0 -484 -202q-198 -203 -198 -483t197 -482
t481 -201q284 -1 484 201q198 202 198 483zM853 1456q304 0 515 -215t211 -515t-212 -516t-516 -216t-515 215t-211 515t212 516t516 216z" />
    <glyph glyph-name="macron" unicode="&#xaf;" horiz-adv-x="1024" 
d="M188 1632v45h648v-45h-648z" />
    <glyph glyph-name="degree" unicode="&#xb0;" horiz-adv-x="966" 
d="M483 793q133 0 230 93q96 93 96 222t-97 224q-98 95 -228 95t-228 -94t-98 -224t96 -223t229 -93zM483 745q-153 0 -263 108t-110 256t112 257t262 109t260 -109q112 -109 112 -258t-110 -256t-263 -107z" />
    <glyph glyph-name="plusminus" unicode="&#xb1;" horiz-adv-x="1310" 
d="M1161 0h-1007v43h1007v-43zM1161 889v-41h-483v-483h-41v483h-483v41h483v483h41v-483h483z" />
    <glyph glyph-name="twosuperior" unicode="&#xb2;" horiz-adv-x="849" 
d="M735 657v-45h-639v23q65 95 271 198q77 37 151 79q166 93 166 235q0 115 -83 193t-196 79q-113 0 -189 -80t-75 -192v-19h-45v19q0 135 90 226t220 91t226 -91t97 -226q-1 -100 -67 -177t-149 -116q-268 -126 -339 -197h561z" />
    <glyph glyph-name="threesuperior" unicode="&#xb3;" horiz-adv-x="849" 
d="M721 855q0 -111 -91 -183t-258 -72t-302 62l18 40q130 -57 280 -57q150 -1 229 59t79 157t-80 147t-199 51h-20l-10 16l258 322h-512v45h592v-21l-265 -321q123 -6 202 -70t79 -175z" />
    <glyph glyph-name="acute" unicode="&#xb4;" horiz-adv-x="1024" 
d="M737 1862l-331 -308h-60l326 314z" />
    <glyph glyph-name="mu" unicode="&#xb5;" horiz-adv-x="1359" 
d="M1128 1102h48v-1102h-48v154q-170 -160 -469 -160q-145 0 -259 64t-169 188v-590h-47v1448h47v-627q0 -205 122 -319t306 -115q283 0 469 162v897z" />
    <glyph glyph-name="paragraph" unicode="&#xb6;" horiz-adv-x="1122" 
d="M571 621v765h-49q-186 0 -298 -100t-112 -282t116 -283q116 -100 300 -100h43zM522 1434h449v-1434h-47v1386h-306v-1386h-47v573h-43q-206 0 -334 113q-128 114 -128 318t122 317q123 113 334 113z" />
    <glyph glyph-name="periodcentered" unicode="&#xb7;" horiz-adv-x="321" 
d="M201 641q1 -19 -13 -33t-34 -14t-34 13t-14 33t14 34t34 14t34 -14t13 -33z" />
    <glyph glyph-name="cedilla" unicode="&#xb8;" horiz-adv-x="878" 
d="M588 -236q0 -54 -43 -100t-122 -45q-79 0 -138 21l14 38q53 -16 115 -16t94 32t31 75q0 79 -150 79l90 154h41l-61 -123q55 0 92 -30q37 -31 37 -85z" />
    <glyph glyph-name="onesuperior" unicode="&#xb9;" horiz-adv-x="665" 
d="M434 1444v-832h-45v781l-219 -50l-10 43l256 58h18z" />
    <glyph glyph-name="ordmasculine" unicode="&#xba;" horiz-adv-x="1038" 
d="M881 1038q0 144 -110 246q-111 102 -263 102t-260 -102t-109 -246q1 -144 109 -244q108 -102 261 -102t263 102t109 244zM509 1434q173 0 296 -116t123 -279t-123 -279t-296 -115q-173 0 -295 115q-122 114 -122 278t122 280t295 116z" />
    <glyph glyph-name="guillemotright" unicode="&#xbb;" horiz-adv-x="1034" 
d="M510 545l-354 -525l-35 25l338 500l-338 499q33 25 35 25zM940 545l-354 -525l-35 25l338 500l-338 499q33 25 35 25z" />
    <glyph glyph-name="onequarter" unicode="&#xbc;" horiz-adv-x="1705" 
d="M1270 1436h51l-989 -1436h-51zM1346 266v484l-418 -484h418zM1391 266h184v-45h-184v-221h-45v221h-457l-21 45l490 568h33v-568zM414 1444v-832h-45v781l-219 -50l-11 43l256 58h19z" />
    <glyph glyph-name="onehalf" unicode="&#xbd;" horiz-adv-x="1814" 
d="M1270 1436h51l-989 -1436h-51zM1669 45v-45h-639v23q66 96 270 197q78 38 152 80q166 94 166 235q0 115 -83 193t-195 79q-112 0 -188 -78t-77 -194v-19h-45v19q0 135 90 226t220 91t226 -91t97 -226q0 -99 -67 -177q-68 -78 -150 -116q-266 -124 -338 -197h561z
M414 1444v-832h-45v781l-219 -50l-11 43l256 58h19z" />
    <glyph glyph-name="threequarters" unicode="&#xbe;" horiz-adv-x="1789" 
d="M1393 1436h51l-989 -1436h-52zM113 1442h592v-21l-265 -321q123 -6 202 -70t79 -175t-91 -183t-258 -72t-302 62l18 40q130 -57 280 -57q150 -1 229 59t79 158t-79 148t-200 49h-20l-10 16l258 322h-512v45zM1468 266v484l-417 -484h417zM1513 266h185v-45h-185v-221h-45
v221h-458l-19 45l490 568h32v-568z" />
    <glyph glyph-name="questiondown" unicode="&#xbf;" horiz-adv-x="1105" 
d="M639 1354q-20 0 -34 13q-13 13 -13 33t13 34t33 14t34 -13t14 -33t-13 -35q-14 -13 -34 -13zM637 -8q-244 0 -388 122t-145 335q0 170 134 274t368 104l8 283h39l6 -311l-12 -17h-14q-242 0 -363 -94t-120 -239q0 -193 133 -303t354 -109q139 0 232 20t202 78l21 -41
q-112 -62 -210 -82t-245 -20z" />
    <glyph glyph-name="Agrave" unicode="&#xc0;" horiz-adv-x="1443" 
d="M696 1554l-331 308l65 6l326 -314h-60zM721 1391l-404 -914h809zM1337 0l-192 432h-848l-191 -432h-53l645 1444h47l646 -1444h-54z" />
    <glyph glyph-name="Aacute" unicode="&#xc1;" horiz-adv-x="1443" 
d="M1090 1862l-332 -308h-60l326 314zM721 1391l-404 -914h809zM1337 0l-192 432h-848l-191 -432h-53l645 1444h47l646 -1444h-54z" />
    <glyph glyph-name="Acircumflex" unicode="&#xc2;" horiz-adv-x="1443" 
d="M412 1554l288 269h39l293 -269h-74l-237 218l-236 -218h-73zM721 1391l-404 -914h809zM1337 0l-192 432h-848l-191 -432h-53l645 1444h47l646 -1444h-54z" />
    <glyph glyph-name="Atilde" unicode="&#xc3;" horiz-adv-x="1443" 
d="M565 1780q63 0 174 -50t164 -50t94 41q41 42 54 122l47 -8q-18 -101 -70 -153t-118 -52t-181 50t-164 51q-135 0 -168 -166l-47 6q35 209 215 209zM721 1391l-404 -914h809zM1337 0l-192 432h-848l-191 -432h-53l645 1444h47l646 -1444h-54z" />
    <glyph glyph-name="Adieresis" unicode="&#xc4;" horiz-adv-x="1443" 
d="M567 1700q19 0 33 -13t14 -33t-13 -34t-33 -14t-34 13t-14 33t14 34t33 14zM870 1700q20 0 34 -13t14 -33t-14 -34t-34 -14t-33 13t-13 33t12 34q14 14 34 14zM721 1391l-404 -914h809zM1337 0l-192 432h-848l-191 -432h-53l645 1444h47l646 -1444h-54z" />
    <glyph glyph-name="Aring" unicode="&#xc5;" horiz-adv-x="1443" 
d="M721 1462q47 0 82 34t35 81t-35 81t-82 34t-82 -34t-35 -81t35 -81t82 -34zM721 1391l-404 -914h809zM553 1582q0 62 50 112q50 49 118 49t118 -49q50 -50 50 -112t-38 -108t-93 -59l633 -1415h-54l-192 432h-848l-191 -432h-53l631 1415q-55 13 -93 59t-38 108z" />
    <glyph glyph-name="AE" unicode="&#xc6;" horiz-adv-x="2000" 
d="M909 477v918h-53l-498 -918h551zM958 49h930v-49h-979v432h-575l-234 -432h-57l784 1444h1018v-49h-887v-670h760v-49h-760v-627z" />
    <glyph glyph-name="Ccedilla" unicode="&#xc7;" horiz-adv-x="1579" 
d="M123 726q0 296 221 510t533 214q173 0 327 -73t260 -199l-39 -35q-100 119 -242 187t-306 69q-291 0 -497 -199q-206 -198 -206 -478t206 -478t497 -199q164 0 307 68t241 186l39 -35q-225 -266 -585 -270l-58 -115q55 0 92 -30q37 -31 37 -85t-43 -100t-126 -45
q-83 0 -134 21l15 38q52 -16 114 -16t94 32t31 75q1 79 -149 79l86 148q-299 14 -507 224t-208 506z" />
    <glyph glyph-name="Egrave" unicode="&#xc8;" horiz-adv-x="1292" 
d="M659 1554l-331 308l65 6l326 -314h-60zM250 49h930v-49h-979v1444h936v-49h-887v-670h760v-49h-760v-627z" />
    <glyph glyph-name="Eacute" unicode="&#xc9;" horiz-adv-x="1292" 
d="M1051 1862l-332 -308h-60l326 314zM250 49h930v-49h-979v1444h936v-49h-887v-670h760v-49h-760v-627z" />
    <glyph glyph-name="Ecircumflex" unicode="&#xca;" horiz-adv-x="1292" 
d="M375 1554l289 269h38l293 -269h-73l-238 218l-235 -218h-74zM250 49h930v-49h-979v1444h936v-49h-887v-670h760v-49h-760v-627z" />
    <glyph glyph-name="Edieresis" unicode="&#xcb;" horiz-adv-x="1292" 
d="M532 1700q20 0 34 -13t14 -33t-14 -34t-34 -14t-33 13t-13 33t12 34q14 14 34 14zM836 1700q20 0 33 -13t13 -33t-12 -34q-14 -14 -34 -14t-34 13t-14 33t14 34t34 14zM250 49h930v-49h-979v1444h936v-49h-887v-670h760v-49h-760v-627z" />
    <glyph glyph-name="Igrave" unicode="&#xcc;" horiz-adv-x="452" 
d="M199 1581l-332 307l65 6l326 -313h-59zM252 1444v-1444h-51v1444h51z" />
    <glyph glyph-name="Iacute" unicode="&#xcd;" horiz-adv-x="452" 
d="M598 1888l-332 -307h-59l325 313zM252 1444v-1444h-51v1444h51z" />
    <glyph glyph-name="Icircumflex" unicode="&#xce;" horiz-adv-x="452" 
d="M-82 1581l289 268h39l293 -268h-74l-238 217l-235 -217h-74zM252 1444v-1444h-51v1444h51z" />
    <glyph glyph-name="Idieresis" unicode="&#xcf;" horiz-adv-x="452" 
d="M78 1726q20 0 34 -13t13 -33q0 -20 -13 -34q-14 -14 -34 -14t-34 14t-13 33q0 20 13 34q14 13 34 13zM381 1726q19 0 33 -13t14 -33t-13 -34t-33 -14t-34 14t-14 33q0 20 13 34q14 13 34 13zM252 1444v-1444h-51v1444h51z" />
    <glyph glyph-name="Eth" unicode="&#xd0;" horiz-adv-x="1478" 
d="M250 49h422q258 0 445 202q187 201 187 475t-197 472q-198 198 -478 197h-379v-650h440v-45h-440v-651zM-20 700v45h221v699h428q301 0 514 -212t213 -507t-200 -510t-480 -215h-475v700h-221z" />
    <glyph glyph-name="Ntilde" unicode="&#xd1;" horiz-adv-x="1570" 
d="M627 1780q63 0 174 -50t164 -50t94 41q41 42 53 122l47 -8q-18 -101 -70 -153q-51 -52 -117 -52t-181 50t-164 51q-135 0 -168 -166l-47 6q35 209 215 209zM1321 1444h49v-1444h-39l-1081 1352v-1352h-49v1444h39l1081 -1352v1352z" />
    <glyph glyph-name="Ograve" unicode="&#xd2;" horiz-adv-x="1761" 
d="M836 1554l-332 308l65 6l326 -314h-59zM881 45q293 0 499 198q206 199 207 479q0 280 -207 478q-206 198 -498 199q-292 0 -500 -199q-208 -198 -208 -478t207 -478t500 -199zM882 1450q314 0 535 -214t221 -515t-221 -514t-535 -213t-537 213q-222 213 -222 514t222 515
q223 214 537 214z" />
    <glyph glyph-name="Oacute" unicode="&#xd3;" horiz-adv-x="1761" 
d="M1225 1862l-332 -308h-59l325 314zM881 45q293 0 499 198q206 199 207 479q0 280 -207 478q-206 198 -498 199q-292 0 -500 -199q-208 -198 -208 -478t207 -478t500 -199zM882 1450q314 0 535 -214t221 -515t-221 -514t-535 -213t-537 213q-222 213 -222 514t222 515
q223 214 537 214z" />
    <glyph glyph-name="Ocircumflex" unicode="&#xd4;" horiz-adv-x="1761" 
d="M555 1554l289 269h39l293 -269h-74l-238 218l-235 -218h-74zM881 45q293 0 499 198q206 199 207 479q0 280 -207 478q-206 198 -498 199q-292 0 -500 -199q-208 -198 -208 -478t207 -478t500 -199zM882 1450q314 0 535 -214t221 -515t-221 -514t-535 -213t-537 213
q-222 213 -222 514t222 515q223 214 537 214z" />
    <glyph glyph-name="Otilde" unicode="&#xd5;" horiz-adv-x="1761" 
d="M713 1780q63 0 174 -50t164 -50t94 41q41 42 53 122l47 -8q-18 -101 -70 -153q-51 -52 -117 -52t-180 50t-165 51q-135 0 -168 -166l-47 6q35 209 215 209zM881 45q293 0 499 198q206 199 207 479q0 280 -207 478q-206 198 -498 199q-292 0 -500 -199
q-208 -198 -208 -478t207 -478t500 -199zM882 1450q314 0 535 -214t221 -515t-221 -514t-535 -213t-537 213q-222 213 -222 514t222 515q223 214 537 214z" />
    <glyph glyph-name="Odieresis" unicode="&#xd6;" horiz-adv-x="1761" 
d="M723 1700q19 0 33 -13t14 -33t-13 -34t-33 -14t-35 13q-13 13 -13 33t13 35q14 13 34 13zM1026 1700q20 0 34 -13t13 -33q0 -20 -13 -34q-14 -14 -34 -14t-34 13q-13 13 -13 33t13 35q14 13 34 13zM881 45q293 0 499 198q206 199 207 479q0 280 -207 478
q-206 198 -498 199q-292 0 -500 -199q-208 -198 -208 -478t207 -478t500 -199zM882 1450q314 0 535 -214t221 -515t-221 -514t-535 -213t-537 213q-222 213 -222 514t222 515q223 214 537 214z" />
    <glyph glyph-name="multiply" unicode="&#xd7;" horiz-adv-x="1112" 
d="M612 647l424 -424l-28 -30l-426 423l-422 -421l-31 28l424 424l-424 424l29 31l424 -426l426 426l30 -29z" />
    <glyph glyph-name="Oslash" unicode="&#xd8;" horiz-adv-x="1761" 
d="M881 45q293 0 499 198q206 199 207 489q0 290 -235 493l-899 -1041q188 -139 428 -139zM174 721q0 -152 65 -284t179 -228l901 1042q-193 147 -438 148q-291 -1 -499 -199t-208 -479zM123 721q0 301 222 515t536 214q266 0 471 -160l133 154h57l-156 -180
q119 -104 186 -244t66 -299q0 -301 -221 -514t-536 -213q-260 0 -463 151l-125 -145h-55l147 170q-123 100 -193 244t-69 307z" />
    <glyph glyph-name="Ugrave" unicode="&#xd9;" horiz-adv-x="1544" 
d="M752 1554l-332 308l65 6l326 -314h-59zM1343 1444v-864q1 -254 -151 -420t-421 -166t-420 165t-150 421v864h49v-864q0 -233 137 -384t383 -151t385 152t139 383v864h49z" />
    <glyph glyph-name="Uacute" unicode="&#xda;" horiz-adv-x="1544" 
d="M1143 1862l-332 -308h-59l325 314zM1343 1444v-864q1 -254 -151 -420t-421 -166t-420 165t-150 421v864h49v-864q0 -233 137 -384t383 -151t385 152t139 383v864h49z" />
    <glyph glyph-name="Ucircumflex" unicode="&#xdb;" horiz-adv-x="1544" 
d="M467 1554l289 269h39l292 -269h-73l-238 218l-235 -218h-74zM1343 1444v-864q1 -254 -151 -420t-421 -166t-420 165t-150 421v864h49v-864q0 -233 137 -384t383 -151t385 152t139 383v864h49z" />
    <glyph glyph-name="Udieresis" unicode="&#xdc;" horiz-adv-x="1544" 
d="M928 1700q20 0 34 -13t13 -33q0 -20 -13 -34q-14 -14 -34 -14t-34 13q-13 13 -13 33t13 35q14 13 34 13zM625 1700q20 0 33 -13q14 -13 14 -33t-14 -34t-33 -14q-20 0 -34 13q-13 13 -13 33t13 35q14 13 34 13zM1343 1444v-864q1 -254 -151 -420t-421 -166t-420 165
t-150 421v864h49v-864q0 -233 137 -384t383 -151t385 152t139 383v864h49z" />
    <glyph glyph-name="Yacute" unicode="&#xdd;" horiz-adv-x="1314" 
d="M1030 1862l-332 -308h-59l326 314zM684 0h-51v502l-576 942h60l540 -893l541 893h62l-576 -942v-502z" />
    <glyph glyph-name="Thorn" unicode="&#xde;" horiz-adv-x="1337" 
d="M250 326h444q229 0 362 104q132 104 132 326q0 176 -106 290t-337 113h-495v-833zM201 0v1444h49v-236h495q256 0 375 -128t119 -324q0 -246 -145 -363t-400 -117h-444v-276h-49z" />
    <glyph glyph-name="germandbls" unicode="&#xdf;" horiz-adv-x="1294" 
d="M1186 449q0 -211 -137 -333t-344 -122q-145 0 -256 39l18 47q115 -37 238 -37q186 0 309 109t123 297q0 147 -111 267t-311 120h-56v47h48q115 0 199 81q84 80 83 224q1 144 -107 230t-273 85q-165 0 -270 -129t-106 -346v-1372h-49v1372q0 240 120 382t306 142t308 -98
q121 -98 120 -276q0 -115 -58 -199t-149 -115q166 -27 261 -151q94 -125 94 -264z" />
    <glyph glyph-name="agrave" unicode="&#xe0;" 
d="M662 1266l-332 307l65 6l326 -313h-59zM686 1073q-219 -1 -374 -151q-154 -150 -154 -364t154 -364t374 -151q283 0 449 162v700q-168 168 -449 168zM1135 1102h47v-1102h-47v139q-179 -145 -433 -145t-424 165t-169 399q0 234 170 399t407 165q131 0 250 -41t199 -112
v133z" />
    <glyph glyph-name="aacute" unicode="&#xe1;" 
d="M1053 1573l-332 -307h-59l325 313zM686 1073q-219 -1 -374 -151q-154 -150 -154 -364t154 -364t374 -151q283 0 449 162v700q-168 168 -449 168zM1135 1102h47v-1102h-47v139q-179 -145 -433 -145t-424 165t-169 399q0 234 170 399t407 165q131 0 250 -41t199 -112v133z
" />
    <glyph glyph-name="acircumflex" unicode="&#xe2;" 
d="M395 1266l289 268h39l293 -268h-74l-237 217l-236 -217h-74zM686 1073q-219 -1 -374 -151q-154 -150 -154 -364t154 -364t374 -151q283 0 449 162v700q-168 168 -449 168zM1135 1102h47v-1102h-47v139q-179 -145 -433 -145t-424 165t-169 399q0 234 170 399t407 165
q131 0 250 -41t199 -112v133z" />
    <glyph glyph-name="atilde" unicode="&#xe3;" 
d="M549 1491q63 0 174 -50t164 -50t94 42t53 121l47 -8q-18 -102 -70 -153q-51 -51 -117 -51t-181 50t-164 50q-135 0 -168 -166l-47 6q35 209 215 209zM686 1073q-219 -1 -374 -151q-154 -150 -154 -364t154 -364t374 -151q283 0 449 162v700q-168 168 -449 168zM1135 1102
h47v-1102h-47v139q-179 -145 -433 -145t-424 165t-169 399q0 234 170 399t407 165q131 0 250 -41t199 -112v133z" />
    <glyph glyph-name="adieresis" unicode="&#xe4;" 
d="M555 1411q19 0 33 -13q14 -14 14 -34t-13 -34t-33 -13q-20 0 -35 13q-13 14 -13 34t13 34q14 13 34 13zM858 1411q20 0 34 -13q14 -14 13 -34q0 -20 -13 -34q-14 -14 -34 -13q-20 0 -34 13q-13 14 -13 34t13 34q14 13 34 13zM686 1073q-219 -1 -374 -151
q-154 -150 -154 -364t154 -364t374 -151q283 0 449 162v700q-168 168 -449 168zM1135 1102h47v-1102h-47v139q-179 -145 -433 -145t-424 165t-169 399q0 234 170 399t407 165q131 0 250 -41t199 -112v133z" />
    <glyph glyph-name="aring" unicode="&#xe5;" 
d="M700 1362q47 0 82 34t35 81t-35 81t-82 34t-82 -34q-34 -34 -34 -81t34 -81t82 -34zM532 1477q0 69 50 117t118 48t118 -49t50 -117t-50 -116q-50 -49 -118 -49t-118 49t-50 117zM686 1073q-219 -1 -374 -151q-154 -150 -154 -364t154 -364t374 -151q283 0 449 162v700
q-168 168 -449 168zM1135 1102h47v-1102h-47v139q-179 -145 -433 -145t-424 165t-169 399q0 234 170 399t407 165q131 0 250 -41t199 -112v133z" />
    <glyph glyph-name="ae" unicode="&#xe6;" horiz-adv-x="2334" 
d="M1690 1073q-216 0 -358 -141t-150 -352h991q-10 221 -139 357t-344 136zM686 1073q-219 -1 -374 -151q-154 -150 -154 -364t154 -364t374 -151q283 0 449 162v700q-168 168 -449 168zM1182 0h-47v139q-179 -145 -433 -145t-424 165t-169 399q0 234 170 399t407 165
q131 0 250 -41t199 -112v133h47v-309q63 149 197 239t313 90q244 0 387 -158t143 -411v-21h-1040q8 -209 150 -349t360 -140q289 0 442 193l41 -31q-78 -99 -204 -155q-125 -56 -291 -56t-301 89q-134 89 -197 239v-322z" />
    <glyph glyph-name="ccedilla" unicode="&#xe7;" horiz-adv-x="1210" 
d="M702 1122q243 0 402 -180l-37 -33q-143 164 -365 164t-384 -150q-160 -151 -160 -365t160 -364t382 -151q222 0 367 172l35 -37q-158 -184 -395 -184h-2l-58 -115q55 0 92 -30q37 -31 37 -85t-43 -100t-122 -45q-79 0 -138 21l14 38q53 -16 115 -16t94 32t31 75
q1 79 -149 79l86 148q-233 14 -395 176q-161 162 -161 392t176 394q175 164 418 164z" />
    <glyph glyph-name="egrave" unicode="&#xe8;" horiz-adv-x="1310" 
d="M631 1266l-332 307l66 6l325 -313h-59zM666 1073q-216 0 -358 -141t-150 -352h991q-10 221 -139 357t-344 136zM1198 532h-1040q12 -217 156 -353t354 -136q289 0 442 193l41 -31q-78 -99 -204 -155t-279 -56q-244 0 -402 163t-158 401t158 400q158 164 402 164t387 -158
t143 -411v-21z" />
    <glyph glyph-name="eacute" unicode="&#xe9;" horiz-adv-x="1310" 
d="M1022 1573l-332 -307h-59l325 313zM666 1073q-216 0 -358 -141t-150 -352h991q-10 221 -139 357t-344 136zM1198 532h-1040q12 -217 156 -353t354 -136q289 0 442 193l41 -31q-78 -99 -204 -155t-279 -56q-244 0 -402 163t-158 401t158 400q158 164 402 164t387 -158
t143 -411v-21z" />
    <glyph glyph-name="ecircumflex" unicode="&#xea;" horiz-adv-x="1310" 
d="M346 1266l289 268h39l293 -268h-74l-238 217l-235 -217h-74zM666 1073q-216 0 -358 -141t-150 -352h991q-10 221 -139 357t-344 136zM1198 532h-1040q12 -217 156 -353t354 -136q289 0 442 193l41 -31q-78 -99 -204 -155t-279 -56q-244 0 -402 163t-158 401t158 400
q158 164 402 164t387 -158t143 -411v-21z" />
    <glyph glyph-name="edieresis" unicode="&#xeb;" horiz-adv-x="1310" 
d="M504 1411q20 0 34 -13q14 -14 13 -34q0 -20 -13 -34q-14 -14 -34 -13q-20 0 -34 13q-13 14 -13 34t13 34q14 13 34 13zM807 1411q19 0 33 -13q14 -14 14 -34t-13 -34t-33 -13q-20 0 -35 13q-13 14 -13 34t13 34q14 13 34 13zM666 1073q-216 0 -358 -141t-150 -352h991
q-10 221 -139 357t-344 136zM1198 532h-1040q12 -217 156 -353t354 -136q289 0 442 193l41 -31q-78 -99 -204 -155t-279 -56q-244 0 -402 163t-158 401t158 400q158 164 402 164t387 -158t143 -411v-21z" />
    <glyph glyph-name="igrave" unicode="&#xec;" horiz-adv-x="421" 
d="M186 1245l-331 307l65 7l326 -314h-60zM186 0v1102h50v-1102h-50z" />
    <glyph glyph-name="iacute" unicode="&#xed;" horiz-adv-x="421" 
d="M582 1552l-332 -307h-60l326 314zM186 0v1102h50v-1102h-50z" />
    <glyph glyph-name="icircumflex" unicode="&#xee;" horiz-adv-x="421" 
d="M-98 1245l288 268h39l293 -268h-73l-238 217l-236 -217h-73zM186 0v1102h50v-1102h-50z" />
    <glyph glyph-name="idieresis" unicode="&#xef;" horiz-adv-x="421" 
d="M186 0v1102h50v-1102h-50zM59 1391q19 1 33 -13t14 -34t-13 -34t-33 -14t-34 14q-13 14 -14 33q0 20 14 34t33 14zM362 1391q20 1 34 -13t14 -34t-14 -34t-34 -14t-33 14t-14 33q-1 20 13 34t34 14z" />
    <glyph glyph-name="eth" unicode="&#xf0;" horiz-adv-x="1363" 
d="M674 43q227 0 388 143q161 144 161 348t-167 330t-388 127q-221 0 -382 -136t-161 -333t161 -338t388 -141zM1272 522q0 -216 -176 -372t-422 -156t-422 157t-176 371t175 367q175 151 435 151t420 -172l-43 66q-115 164 -318 360l-364 -127l-29 39l357 125
q-40 39 -226 213h68q166 -156 209 -196l309 108l27 -39l-299 -104q475 -471 475 -791z" />
    <glyph glyph-name="ntilde" unicode="&#xf1;" horiz-adv-x="1312" 
d="M844 1370q53 0 94 42t53 122l47 -8q-18 -102 -70 -154t-118 -51q-66 0 -180 50q-113 50 -164 50q-135 0 -168 -166l-47 7q35 209 215 208q63 0 174 -50t164 -50zM680 1122q207 0 341 -127t134 -356v-639h-47v639q0 205 -121 319t-307 115q-268 0 -449 -162v-911h-47v1102
h47v-139q164 159 449 159z" />
    <glyph glyph-name="ograve" unicode="&#xf2;" horiz-adv-x="1411" 
d="M666 1245l-332 307l65 7l326 -314h-59zM705 43q227 0 388 151q161 150 161 364t-161 365t-388 151t-389 -151q-160 -151 -160 -365t161 -364t388 -151zM705 1122q249 0 423 -165t174 -399t-174 -399q-176 -165 -424 -165t-422 165q-176 165 -176 399t176 400
q176 164 423 164z" />
    <glyph glyph-name="oacute" unicode="&#xf3;" horiz-adv-x="1411" 
d="M1057 1552l-332 -307h-59l325 314zM705 43q227 0 388 151q161 150 161 364t-161 365t-388 151t-389 -151q-160 -151 -160 -365t161 -364t388 -151zM705 1122q249 0 423 -165t174 -399t-174 -399q-176 -165 -424 -165t-422 165q-176 165 -176 399t176 400q176 164 423 164
z" />
    <glyph glyph-name="ocircumflex" unicode="&#xf4;" horiz-adv-x="1411" 
d="M385 1245l289 268h39l293 -268h-74l-238 217l-235 -217h-74zM705 43q227 0 388 151q161 150 161 364t-161 365t-388 151t-389 -151q-160 -151 -160 -365t161 -364t388 -151zM705 1122q249 0 423 -165t174 -399t-174 -399q-176 -165 -424 -165t-422 165q-176 165 -176 399
t176 400q176 164 423 164z" />
    <glyph glyph-name="otilde" unicode="&#xf5;" horiz-adv-x="1411" 
d="M877 1370q53 0 94 42t53 122l47 -8q-19 -102 -71 -154t-118 -51q-66 0 -180 50t-163 50q-135 0 -168 -166l-47 7q35 209 215 208q63 0 174 -50t164 -50zM705 43q227 0 388 151q161 150 161 364t-161 365t-388 151t-389 -151q-160 -151 -160 -365t161 -364t388 -151z
M705 1122q249 0 423 -165t174 -399t-174 -399q-176 -165 -424 -165t-422 165q-176 165 -176 399t176 400q176 164 423 164z" />
    <glyph glyph-name="odieresis" unicode="&#xf6;" horiz-adv-x="1411" 
d="M543 1391q19 1 33 -13t14 -34t-13 -34t-33 -14t-34 14t-14 33q0 20 13 34q14 14 34 14zM846 1391q20 1 34 -13t13 -34q0 -20 -13 -34q-14 -14 -34 -14t-34 14t-13 33q0 20 13 34q14 14 34 14zM705 43q227 0 388 151q161 150 161 364t-161 365t-388 151t-389 -151
q-160 -151 -160 -365t161 -364t388 -151zM705 1122q249 0 423 -165t174 -399t-174 -399q-176 -165 -424 -165t-422 165q-176 165 -176 399t176 400q176 164 423 164z" />
    <glyph glyph-name="divide" unicode="&#xf7;" horiz-adv-x="1077" 
d="M530 100q-20 0 -33 14t-14 33t13 33t34 14t34 -12q14 -14 14 -34t-14 -34t-34 -14zM530 1108q-20 0 -33 13t-13 33t12 34q14 14 34 14t34 -13t14 -33t-14 -34t-34 -14zM979 700v-43h-877v43h877z" />
    <glyph glyph-name="oslash" unicode="&#xf8;" horiz-adv-x="1411" 
d="M156 551q0 -221 180 -375l698 793q-147 104 -329 104q-227 0 -389 -150q-160 -151 -160 -372zM705 43q227 0 388 151q161 150 161 372t-187 376l-698 -792q146 -107 336 -107zM106 549q0 245 176 409t423 164q203 0 362 -116l98 112h58l-123 -137q203 -169 203 -413
q1 -244 -175 -409t-423 -165q-207 0 -369 119l-100 -113h-56l123 139q-197 166 -197 410z" />
    <glyph glyph-name="ugrave" unicode="&#xf9;" horiz-adv-x="1333" 
d="M643 1245l-332 307l66 7l325 -314h-59zM1102 1102h47v-1102h-47v154q-170 -160 -469 -160q-205 0 -340 127t-135 356v625h47v-625q0 -205 121 -319t307 -115q283 0 469 162v897z" />
    <glyph glyph-name="uacute" unicode="&#xfa;" horiz-adv-x="1333" 
d="M1034 1552l-332 -307h-59l326 314zM1102 1102h47v-1102h-47v154q-170 -160 -469 -160q-205 0 -340 127t-135 356v625h47v-625q0 -205 121 -319t307 -115q283 0 469 162v897z" />
    <glyph glyph-name="ucircumflex" unicode="&#xfb;" horiz-adv-x="1333" 
d="M340 1245l289 268h39l293 -268h-74l-238 217l-235 -217h-74zM1102 1102h47v-1102h-47v154q-170 -160 -469 -160q-205 0 -340 127t-135 356v625h47v-625q0 -205 121 -319t307 -115q283 0 469 162v897z" />
    <glyph glyph-name="udieresis" unicode="&#xfc;" horiz-adv-x="1333" 
d="M496 1391q20 1 33 -13t13 -34t-12 -34q-14 -14 -34 -14t-34 14t-13 33q0 20 13 34q14 14 34 14zM799 1391q19 1 33 -13t14 -34t-13 -34t-33 -14t-34 14t-14 33q0 20 13 34q14 14 34 14zM1102 1102h47v-1102h-47v154q-170 -160 -469 -160q-205 0 -340 127t-135 356v625h47
v-625q0 -205 121 -319t307 -115q283 0 469 162v897z" />
    <glyph glyph-name="yacute" unicode="&#xfd;" horiz-adv-x="1241" 
d="M1006 1552l-332 -307h-60l326 314zM92 -377v49h23q201 0 345 80t202 248h-68l-520 1102h55l496 -1053h55l426 1053h53l-469 -1161q-131 -317 -581 -318h-17z" />
    <glyph glyph-name="thorn" unicode="&#xfe;" horiz-adv-x="1370" 
d="M680 43q219 0 374 151q154 150 154 364t-154 365q-155 151 -374 150q-281 0 -449 -168v-700q162 -162 449 -162zM680 1122q238 0 408 -165t169 -399q0 -234 -170 -400q-171 -164 -425 -164t-431 145v-497h-47v1902h47v-575q80 73 199 113t250 40z" />
    <glyph glyph-name="ydieresis" unicode="&#xff;" horiz-adv-x="1241" 
d="M487 1391q19 1 33 -13t14 -34t-12 -34q-14 -14 -34 -14t-34 14q-13 14 -14 33q0 20 14 34t33 14zM791 1391q20 1 33 -13q14 -14 14 -34t-14 -34t-33 -14t-33 14t-15 33q0 20 14 34t34 14zM92 -377v49h23q201 0 345 80t202 248h-68l-520 1102h55l496 -1053h55l426 1053h53
l-469 -1161q-131 -317 -581 -318h-17z" />
    <glyph glyph-name="Amacron" unicode="&#x100;" horiz-adv-x="1443" 
d="M397 1632v45h647v-45h-647zM721 1391l-404 -914h809zM1337 0l-192 432h-848l-191 -432h-53l645 1444h47l646 -1444h-54z" />
    <glyph glyph-name="amacron" unicode="&#x101;" 
d="M360 1343v46h648v-46h-648zM686 1073q-219 -1 -374 -151q-154 -150 -154 -364t154 -364t374 -151q283 0 449 162v700q-168 168 -449 168zM1135 1102h47v-1102h-47v139q-179 -145 -433 -145t-424 165t-169 399q0 234 170 399t407 165q131 0 250 -41t199 -112v133z" />
    <glyph glyph-name="Abreve" unicode="&#x102;" horiz-adv-x="1443" 
d="M722 1604q-122 0 -195 63t-83 191l50 4q14 -205 229 -205t229 205l49 -4q-10 -127 -83 -191q-74 -63 -196 -63zM721 1391l-404 -914h809zM1337 0l-192 432h-848l-191 -432h-53l645 1444h47l646 -1444h-54z" />
    <glyph glyph-name="abreve" unicode="&#x103;" 
d="M687 1315q-123 0 -195 63t-82 191l49 4q14 -205 229 -205t230 205l49 -4q-10 -127 -84 -191t-196 -63zM686 1073q-219 -1 -374 -151q-154 -150 -154 -364t154 -364t374 -151q283 0 449 162v700q-168 168 -449 168zM1135 1102h47v-1102h-47v139q-179 -145 -433 -145
t-424 165t-169 399q0 234 170 399t407 165q131 0 250 -41t199 -112v133z" />
    <glyph glyph-name="Aogonek" unicode="&#x104;" horiz-adv-x="1443" 
d="M721 1391l-404 -914h809zM1331 -348q-59 0 -97 34t-38 89q0 113 139 227l-190 430h-848l-191 -432h-53l645 1444h47l646 -1444q-56 -49 -98 -110q-42 -62 -42 -101t26 -63t65 -23q39 0 102 12l10 -49q-63 -14 -123 -14z" />
    <glyph glyph-name="aogonek" unicode="&#x105;" 
d="M686 1073q-219 -1 -374 -151q-154 -150 -154 -364t154 -364t374 -151q283 0 449 162v700q-168 168 -449 168zM1122 -348q-60 0 -97 34q-38 34 -38 86t44 122t104 112v133q-179 -145 -433 -145t-424 165t-169 399q0 234 170 399t407 165q131 0 250 -41t199 -112v133h47
v-1102q-56 -49 -98 -110q-42 -62 -42 -101t26 -63t65 -23q39 0 102 12l10 -49q-63 -14 -123 -14z" />
    <glyph glyph-name="Cacute" unicode="&#x106;" horiz-adv-x="1579" 
d="M1212 1862l-331 -308h-60l326 314zM877 45q164 0 307 68t241 186l39 -35q-106 -126 -259 -198t-328 -72q-311 0 -533 213q-221 213 -221 514t221 515t533 214q173 0 327 -73t260 -199l-39 -35q-100 119 -242 187t-306 69q-291 0 -497 -199q-206 -198 -206 -478t206 -478
t497 -199z" />
    <glyph glyph-name="cacute" unicode="&#x107;" horiz-adv-x="1210" 
d="M1038 1573l-331 -307h-60l326 313zM702 -6q-242 0 -418 165q-175 165 -175 399t175 400q175 164 418 164t402 -180l-37 -33q-143 164 -365 164t-384 -150q-160 -151 -160 -365t160 -364t382 -151q222 0 367 172l35 -37q-158 -184 -400 -184z" />
    <glyph glyph-name="Ccircumflex" unicode="&#x108;" horiz-adv-x="1579" 
d="M537 1554l288 269h39l293 -269h-74l-237 218l-236 -218h-73zM877 45q164 0 307 68t241 186l39 -35q-106 -126 -259 -198t-328 -72q-311 0 -533 213q-221 213 -221 514t221 515t533 214q173 0 327 -73t260 -199l-39 -35q-100 119 -242 187t-306 69q-291 0 -497 -199
q-206 -198 -206 -478t206 -478t497 -199z" />
    <glyph glyph-name="ccircumflex" unicode="&#x109;" horiz-adv-x="1210" 
d="M365 1266l288 268h39l293 -268h-74l-237 217l-236 -217h-73zM702 -6q-242 0 -418 165q-175 165 -175 399t175 400q175 164 418 164t402 -180l-37 -33q-143 164 -365 164t-384 -150q-160 -151 -160 -365t160 -364t382 -151q222 0 367 172l35 -37q-158 -184 -400 -184z" />
    <glyph glyph-name="Cdotaccent" unicode="&#x10a;" horiz-adv-x="1579" 
d="M866 1700q20 0 34 -13t13 -33q0 -20 -13 -34q-14 -14 -34 -14t-33 13t-13 33t12 34q14 14 34 14zM877 45q164 0 307 68t241 186l39 -35q-106 -126 -259 -198t-328 -72q-311 0 -533 213q-221 213 -221 514t221 515t533 214q173 0 327 -73t260 -199l-39 -35
q-100 119 -242 187t-306 69q-291 0 -497 -199q-206 -198 -206 -478t206 -478t497 -199z" />
    <glyph glyph-name="cdotaccent" unicode="&#x10b;" horiz-adv-x="1210" 
d="M692 1411q20 0 34 -13q14 -14 13 -34q0 -20 -13 -34q-14 -14 -34 -13q-20 0 -34 13q-13 14 -13 34t13 34q14 13 34 13zM702 -6q-242 0 -418 165q-175 165 -175 399t175 400q175 164 418 164t402 -180l-37 -33q-143 164 -365 164t-384 -150q-160 -151 -160 -365t160 -364
t382 -151q222 0 367 172l35 -37q-158 -184 -400 -184z" />
    <glyph glyph-name="Ccaron" unicode="&#x10c;" horiz-adv-x="1579" 
d="M846 1554l-289 269h74l235 -217l238 217h74l-293 -269h-39zM877 45q164 0 307 68t241 186l39 -35q-106 -126 -259 -198t-328 -72q-311 0 -533 213q-221 213 -221 514t221 515t533 214q173 0 327 -73t260 -199l-39 -35q-100 119 -242 187t-306 69q-291 0 -497 -199
q-206 -198 -206 -478t206 -478t497 -199z" />
    <glyph glyph-name="ccaron" unicode="&#x10d;" horiz-adv-x="1210" 
d="M647 1266l-289 268h74l236 -217l237 217h74l-293 -268h-39zM702 -6q-242 0 -418 165q-175 165 -175 399t175 400q175 164 418 164t402 -180l-37 -33q-143 164 -365 164t-384 -150q-160 -151 -160 -365t160 -364t382 -151q222 0 367 172l35 -37q-158 -184 -400 -184z" />
    <glyph glyph-name="Dcaron" unicode="&#x10e;" horiz-adv-x="1478" 
d="M643 1554l-289 269h74l236 -217l237 217h74l-293 -269h-39zM250 49h422q258 0 445 202q187 201 187 475t-197 472q-198 198 -478 197h-379v-1346zM1356 725q0 -295 -200 -510t-480 -215h-475v1444h428q301 0 514 -212t213 -507z" />
    <glyph glyph-name="dcaron" unicode="&#x10f;" horiz-adv-x="1470" 
d="M1407 1444q53 0 53 -89t-55 -145t-143 -57l-11 29q68 4 114 43t46 125q-20 0 -34 13q-13 13 -13 33t13 34q14 14 30 14zM686 43q279 0 449 166v702q-168 162 -449 162q-219 -1 -374 -151q-154 -150 -154 -364t154 -364t374 -151zM1135 1544h47v-1544h-47v145
q-168 -152 -449 -151q-238 0 -408 165t-169 399q0 234 170 400q171 164 423 164t433 -147v569z" />
    <glyph glyph-name="Dcroat" unicode="&#x110;" horiz-adv-x="1478" 
d="M338 1632v45h647v-45h-647zM250 49h422q258 0 445 202q187 201 187 475t-197 472q-198 198 -478 197h-379v-650h440v-45h-440v-651zM-20 700v45h221v699h428q301 0 514 -212t213 -507t-200 -510t-480 -215h-475v700h-221z" />
    <glyph glyph-name="dcroat" unicode="&#x111;" 
d="M686 43q279 0 449 166v702q-168 162 -449 162q-219 -1 -374 -151q-154 -150 -154 -364t154 -364t374 -151zM1473 1315v-43h-291v-1272h-47v145q-168 -152 -449 -151q-238 0 -408 165t-169 399q0 234 170 400q171 164 423 164t433 -147v297h-293v43h293v229h47v-229h291z
" />
    <glyph glyph-name="Emacron" unicode="&#x112;" horiz-adv-x="1292" 
d="M358 1632v45h648v-45h-648zM250 49h930v-49h-979v1444h936v-49h-887v-670h760v-49h-760v-627z" />
    <glyph glyph-name="emacron" unicode="&#x113;" horiz-adv-x="1310" 
d="M346 1343v46h647v-46h-647zM666 1073q-216 0 -358 -141t-150 -352h991q-10 221 -139 357t-344 136zM1198 532h-1040q12 -217 156 -353t354 -136q289 0 442 193l41 -31q-78 -99 -204 -155t-279 -56q-244 0 -402 163t-158 401t158 400q158 164 402 164t387 -158t143 -411
v-21z" />
    <glyph glyph-name="Ebreve" unicode="&#x114;" horiz-adv-x="1292" 
d="M685 1604q-122 0 -195 63t-82 191l49 4q14 -205 229 -205t229 205l50 -4q-10 -126 -84 -190t-196 -64zM250 49h930v-49h-979v1444h936v-49h-887v-670h760v-49h-760v-627z" />
    <glyph glyph-name="ebreve" unicode="&#x115;" horiz-adv-x="1310" 
d="M656 1315q-122 0 -194 63t-83 191l49 4q14 -205 229 -205t230 205l49 -4q-10 -127 -84 -191t-196 -63zM666 1073q-216 0 -358 -141t-150 -352h991q-10 221 -139 357t-344 136zM1198 532h-1040q12 -217 156 -353t354 -136q289 0 442 193l41 -31q-78 -99 -204 -155
t-279 -56q-244 0 -402 163t-158 401t158 400q158 164 402 164t387 -158t143 -411v-21z" />
    <glyph glyph-name="Edotaccent" unicode="&#x116;" horiz-adv-x="1292" 
d="M684 1700q20 0 34 -13t13 -33q0 -20 -13 -34q-14 -14 -34 -14t-34 13q-13 13 -13 33t13 35q14 13 34 13zM250 49h930v-49h-979v1444h936v-49h-887v-670h760v-49h-760v-627z" />
    <glyph glyph-name="edotaccent" unicode="&#x117;" horiz-adv-x="1310" 
d="M655 1411q19 0 33 -13q14 -14 14 -34t-13 -34t-33 -13q-20 0 -34 13q-14 14 -14 34t14 34t33 13zM666 1073q-216 0 -358 -141t-150 -352h991q-10 221 -139 357t-344 136zM1198 532h-1040q12 -217 156 -353t354 -136q289 0 442 193l41 -31q-78 -99 -204 -155t-279 -56
q-244 0 -402 163t-158 401t158 400q158 164 402 164t387 -158t143 -411v-21z" />
    <glyph glyph-name="Eogonek" unicode="&#x118;" horiz-adv-x="1292" 
d="M1120 -348q-60 0 -98 34t-37 89q0 111 137 225h-921v1444h936v-49h-887v-670h760v-49h-760v-627h930v-49q-56 -49 -98 -110q-42 -62 -42 -101t26 -63t64 -23q38 0 103 12l10 -49q-63 -14 -123 -14z" />
    <glyph glyph-name="eogonek" unicode="&#x119;" horiz-adv-x="1310" 
d="M666 1073q-216 0 -358 -141t-150 -352h991q-10 221 -139 357t-344 136zM742 -342q-60 0 -98 34t-38 89q0 106 127 215q-23 -2 -65 -2q-244 0 -402 163t-158 401t158 400q158 164 402 164t387 -158t143 -411v-21h-1040q12 -217 156 -353t354 -136q289 0 442 193l41 -31
q-127 -160 -352 -201q-10 -6 -39 -35t-64 -82q-67 -101 -9 -154q26 -24 65 -24t102 12l10 -49q-62 -14 -122 -14z" />
    <glyph glyph-name="Ecaron" unicode="&#x11a;" horiz-adv-x="1292" 
d="M664 1554l-289 269h74l235 -217l238 217h73l-293 -269h-38zM250 49h930v-49h-979v1444h936v-49h-887v-670h760v-49h-760v-627z" />
    <glyph glyph-name="ecaron" unicode="&#x11b;" horiz-adv-x="1310" 
d="M635 1266l-289 268h74l235 -217l238 217h74l-293 -268h-39zM666 1073q-216 0 -358 -141t-150 -352h991q-10 221 -139 357t-344 136zM1198 532h-1040q12 -217 156 -353t354 -136q289 0 442 193l41 -31q-78 -99 -204 -155t-279 -56q-244 0 -402 163t-158 401t158 400
q158 164 402 164t387 -158t143 -411v-21z" />
    <glyph glyph-name="Gcircumflex" unicode="&#x11c;" horiz-adv-x="1646" 
d="M539 1554l288 269h39l293 -269h-74l-237 218l-236 -218h-73zM844 664h659v-461q-260 -209 -622 -209q-313 0 -536 213q-222 213 -222 514t222 514t553 213t552 -205l-35 -39q-209 193 -518 193t-516 -199q-207 -200 -207 -478t207 -476t519 -199q312 0 554 184v385h-610
v50z" />
    <glyph glyph-name="gcircumflex" unicode="&#x11d;" horiz-adv-x="1363" 
d="M379 1266l289 268h39l292 -268h-73l-238 217l-235 -217h-74zM156 558q0 -214 154 -364t374 -151q283 0 449 162v700q-168 168 -449 168q-219 0 -374 -150q-154 -151 -154 -365zM1133 1102h47v-993q0 -211 -133 -349t-381 -137q-114 0 -160 5t-66 7q-20 3 -56 11t-69 15
t-90 28l13 47q132 -39 206 -51t222 -13q231 0 349 125t118 291v51q-179 -145 -433 -145t-424 165t-170 399t170 399t408 165q131 0 250 -41t199 -112v133z" />
    <glyph glyph-name="Gbreve" unicode="&#x11e;" horiz-adv-x="1646" 
d="M849 1604q-122 0 -195 63t-83 191l50 4q14 -205 229 -205t229 205l49 -4q-10 -126 -84 -190t-195 -64zM844 664h659v-461q-260 -209 -622 -209q-313 0 -536 213q-222 213 -222 514t222 514t553 213t552 -205l-35 -39q-209 193 -518 193t-516 -199q-207 -200 -207 -478
t207 -476t519 -199q312 0 554 184v385h-610v50z" />
    <glyph glyph-name="gbreve" unicode="&#x11f;" horiz-adv-x="1363" 
d="M689 1315q-123 0 -195 63t-82 191l49 4q14 -205 229 -205t230 205l49 -4q-10 -127 -84 -191t-196 -63zM156 558q0 -214 154 -364t374 -151q283 0 449 162v700q-168 168 -449 168q-219 0 -374 -150q-154 -151 -154 -365zM1133 1102h47v-993q0 -211 -133 -349t-381 -137
q-114 0 -160 5t-66 7q-20 3 -56 11t-69 15t-90 28l13 47q132 -39 206 -51t222 -13q231 0 349 125t118 291v51q-179 -145 -433 -145t-424 165t-170 399t170 399t408 165q131 0 250 -41t199 -112v133z" />
    <glyph glyph-name="Gdotaccent" unicode="&#x120;" horiz-adv-x="1646" 
d="M848 1700q20 0 34 -13t13 -33q0 -20 -13 -34q-14 -14 -34 -14t-34 13q-13 13 -13 33t13 35q14 13 34 13zM844 664h659v-461q-260 -209 -622 -209q-313 0 -536 213q-222 213 -222 514t222 514t553 213t552 -205l-35 -39q-209 193 -518 193t-516 -199q-207 -200 -207 -478
t207 -476t519 -199q312 0 554 184v385h-610v50z" />
    <glyph glyph-name="gdotaccent" unicode="&#x121;" horiz-adv-x="1363" 
d="M688 1411q20 0 34 -13q14 -14 13 -34q0 -20 -13 -34q-14 -14 -34 -13q-20 0 -34 13q-13 14 -13 34t13 34q14 13 34 13zM156 558q0 -214 154 -364t374 -151q283 0 449 162v700q-168 168 -449 168q-219 0 -374 -150q-154 -151 -154 -365zM1133 1102h47v-993
q0 -211 -133 -349t-381 -137q-114 0 -160 5t-66 7q-20 3 -56 11t-69 15t-90 28l13 47q132 -39 206 -51t222 -13q231 0 349 125t118 291v51q-179 -145 -433 -145t-424 165t-170 399t170 399t408 165q131 0 250 -41t199 -112v133z" />
    <glyph glyph-name="Gcommaaccent" unicode="&#x122;" horiz-adv-x="1646" 
d="M870 -152q54 0 54 -89t-56 -145t-143 -56l-10 28q67 4 113 43t46 125q-20 0 -33 14t-13 32q0 20 12 34q14 14 30 14zM844 664h659v-461q-260 -209 -622 -209q-313 0 -536 213q-222 213 -222 514t222 514t553 213t552 -205l-35 -39q-209 193 -518 193t-516 -199
q-207 -200 -207 -478t207 -476t519 -199q312 0 554 184v385h-610v50z" />
    <glyph glyph-name="gcommaaccent" unicode="&#x123;" horiz-adv-x="1363" 
d="M709 1337q-53 -1 -53 89t54 146q56 56 144 56l10 -29q-68 -4 -114 -43t-45 -124q20 0 33 -14q14 -14 14 -32q0 -20 -14 -34t-29 -15zM156 558q0 -214 154 -364t374 -151q283 0 449 162v700q-168 168 -449 168q-219 0 -374 -150q-154 -151 -154 -365zM1133 1102h47v-993
q0 -211 -133 -349t-381 -137q-114 0 -160 5t-66 7q-20 3 -56 11t-69 15t-90 28l13 47q132 -39 206 -51t222 -13q231 0 349 125t118 291v51q-179 -145 -433 -145t-424 165t-170 399t170 399t408 165q131 0 250 -41t199 -112v133z" />
    <glyph glyph-name="Hcircumflex" unicode="&#x124;" horiz-adv-x="1480" 
d="M471 1554l289 269h39l293 -269h-74l-238 218l-235 -218h-74zM1231 1444h49v-1444h-49v618h-981v-618h-49v1444h49v-776h981v776z" />
    <glyph glyph-name="hcircumflex" unicode="&#x125;" horiz-adv-x="1308" 
d="M326 1554l288 269h39l293 -269h-74l-237 218l-236 -218h-73zM680 1122q207 0 341 -127t134 -356v-639h-47v639q0 205 -122 319t-306 115q-268 0 -449 -162v-911h-47v1544h47v-581q164 159 449 159z" />
    <glyph glyph-name="Hbar" unicode="&#x126;" horiz-adv-x="1480" 
d="M250 668h981v522h-981v-522zM94 1190v47h107v207h49v-207h981v207h49v-207h102v-47h-102v-1190h-49v618h-981v-618h-49v1190h-107z" />
    <glyph glyph-name="hbar" unicode="&#x127;" horiz-adv-x="1308" 
d="M-68 1190v47h252v307h47v-307h250v-47h-250v-227q164 160 449 159q207 0 341 -127t134 -356v-639h-47v639q0 205 -122 319t-306 115q-268 0 -449 -162v-911h-47v1190h-252z" />
    <glyph glyph-name="Itilde" unicode="&#x128;" horiz-adv-x="452" 
d="M70 1806q63 0 174 -50t164 -50t94 42t53 122l47 -8q-18 -102 -70 -154t-118 -51q-64 0 -180 50t-164 50q-135 0 -168 -166l-47 6q35 209 215 209zM252 1444v-1444h-51v1444h51z" />
    <glyph glyph-name="itilde" unicode="&#x129;" horiz-adv-x="421" 
d="M186 0v1102h50v-1102h-50zM391 1370q53 0 94 42t54 122l47 -8q-18 -102 -70 -154t-118 -51q-66 0 -181 50t-164 50q-135 0 -168 -166l-47 7q35 209 215 208q63 0 174 -50t164 -50z" />
    <glyph glyph-name="Imacron" unicode="&#x12a;" horiz-adv-x="452" 
d="M-98 1659v45h647v-45h-647zM252 1444v-1444h-51v1444h51z" />
    <glyph glyph-name="imacron" unicode="&#x12b;" horiz-adv-x="421" 
d="M186 0v1102h50v-1102h-50zM-113 1323v45h648v-45h-648z" />
    <glyph glyph-name="Ibreve" unicode="&#x12c;" horiz-adv-x="452" 
d="M224 1630q-122 0 -194 64t-83 190l49 4q14 -205 229 -205t230 205l49 -4q-10 -126 -84 -190t-196 -64zM252 1444v-1444h-51v1444h51z" />
    <glyph glyph-name="ibreve" unicode="&#x12d;" horiz-adv-x="421" 
d="M210 1294q-122 0 -195 64t-83 190l50 4q14 -204 229 -204t229 204l49 -4q-9 -126 -83 -190t-196 -64zM186 0v1102h50v-1102h-50z" />
    <glyph glyph-name="Iogonek" unicode="&#x12e;" horiz-adv-x="452" 
d="M192 -348q-60 0 -97 34q-38 34 -38 86t40 119t104 113v1440h51v-1444q-56 -48 -98 -110t-41 -101q-1 -39 25 -63t65 -23q39 0 102 12l10 -49q-63 -14 -123 -14z" />
    <glyph glyph-name="iogonek" unicode="&#x12f;" horiz-adv-x="421" 
d="M211 1350q-20 0 -34 13q-13 13 -13 33t13 34t33 14t34 -13t14 -33t-13 -35q-14 -13 -34 -13zM176 -348q-60 0 -98 34t-37 86q0 52 41 119t104 113v1098h50v-1102q-56 -49 -98 -110q-42 -62 -42 -101t26 -63t64 -23q38 0 103 12l10 -49q-63 -14 -123 -14z" />
    <glyph glyph-name="Idotaccent" unicode="&#x130;" horiz-adv-x="452" 
d="M227 1726q19 0 33 -13t14 -33t-13 -34t-33 -14t-34 14q-13 14 -14 33q0 19 14 33t33 14zM252 1444v-1444h-51v1444h51z" />
    <glyph glyph-name="dotlessi" unicode="&#x131;" horiz-adv-x="421" 
d="M186 0v1102h50v-1102h-50z" />
    <glyph glyph-name="IJ" unicode="&#x132;" horiz-adv-x="1695" 
d="M1489 1444h49v-854q0 -274 -128 -435t-380 -161q-184 0 -323 117t-170 295l49 6q32 -158 156 -262t288 -105q227 -1 343 147t116 398v854zM252 1444v-1444h-51v1444h51z" />
    <glyph glyph-name="ij" unicode="&#x133;" horiz-adv-x="845" 
d="M635 1350q-20 0 -34 13q-13 13 -13 33t13 34t33 14t34 -13t14 -33t-13 -35q-14 -13 -34 -13zM612 -61v1163h50v-1163q0 -152 -85 -234t-217 -82q-31 0 -79 4v49q45 -4 79 -4q109 0 181 70q71 70 71 197zM211 1350q-20 0 -34 13q-13 13 -13 33t13 34t33 14t34 -13t14 -33
t-13 -35q-14 -13 -34 -13zM186 0v1102h50v-1102h-50z" />
    <glyph glyph-name="Jcircumflex" unicode="&#x134;" horiz-adv-x="1251" 
d="M453 1554l288 269h39l293 -269h-74l-237 218l-236 -218h-73zM1024 1444h49v-854q0 -274 -128 -435t-380 -161q-184 0 -323 117t-170 295l49 6q31 -158 155 -262t289 -105q227 -1 343 147t116 398v854z" />
    <glyph glyph-name="jcircumflex" unicode="&#x135;" horiz-adv-x="417" 
d="M-98 1266l288 268h39l293 -268h-73l-238 217l-236 -217h-73zM184 -61v1163h49v-1163q0 -152 -85 -234t-216 -82q-31 0 -79 4v49q45 -4 79 -4q109 0 181 70q71 70 71 197z" />
    <glyph glyph-name="Kcommaaccent" unicode="&#x136;" horiz-adv-x="1392" 
d="M676 -152q53 0 53 -89t-55 -145t-144 -56l-10 28q68 4 114 43t46 125q-20 0 -34 14t-13 32q0 19 13 34q14 14 30 14zM250 0h-49v1444h49v-1016l948 1016h68l-648 -694l666 -750h-72l-630 713l-332 -357v-356z" />
    <glyph glyph-name="kcommaaccent" unicode="&#x137;" horiz-adv-x="1255" 
d="M623 -152q53 0 53 -89t-55 -145t-144 -56l-10 28q68 4 114 43t46 125q-19 0 -33 14t-14 32q0 19 13 34q14 14 30 14zM233 0h-49v1544h49v-1263l885 821h74l-453 -418l451 -684h-60l-428 649l-469 -434v-215z" />
    <glyph glyph-name="kgreenlandic" unicode="&#x138;" horiz-adv-x="1255" 
d="M233 0h-49v1102h49v-821l885 821h74l-453 -418l451 -684h-60l-428 649l-469 -434v-215z" />
    <glyph glyph-name="Lacute" unicode="&#x139;" horiz-adv-x="1206" 
d="M610 1862l-331 -308h-60l326 314zM250 49h862v-49h-911v1444h49v-1395z" />
    <glyph glyph-name="lacute" unicode="&#x13a;" horiz-adv-x="417" 
d="M586 1962l-332 -307h-59l325 313zM184 0v1544h49v-1544h-49z" />
    <glyph glyph-name="Lcommaaccent" unicode="&#x13b;" horiz-adv-x="1206" 
d="M659 -152q53 0 53 -89t-54 -145q-56 -56 -144 -56l-10 28q68 4 114 43t46 125q-20 0 -34 14t-14 32q0 20 14 34t29 14zM250 49h862v-49h-911v1444h49v-1395z" />
    <glyph glyph-name="lcommaaccent" unicode="&#x13c;" horiz-adv-x="417" 
d="M203 -152q53 0 53 -89t-55 -145t-144 -56l-10 28q68 4 114 43t46 125q-19 0 -33 14t-14 32q0 19 13 34q14 14 30 14zM184 0v1544h49v-1544h-49z" />
    <glyph glyph-name="Lcaron" unicode="&#x13d;" horiz-adv-x="1206" 
d="M551 1446q53 0 53 -89t-55 -145t-143 -57l-11 29q68 4 114 43t46 125q-20 0 -34 13q-13 13 -13 33t13 34q14 14 30 14zM250 49h862v-49h-911v1444h49v-1395z" />
    <glyph glyph-name="lcaron" unicode="&#x13e;" horiz-adv-x="561" 
d="M512 1444q53 0 53 -89t-55 -145t-143 -57l-11 29q68 4 114 43t46 125q-20 0 -34 13q-13 13 -13 33t13 34q14 14 30 14zM184 0v1544h49v-1544h-49z" />
    <glyph glyph-name="Ldot" unicode="&#x13f;" horiz-adv-x="1206" 
d="M483 1053q0 -19 -13 -33q-14 -14 -34 -14t-34 13q-13 13 -13 33t13 34q14 14 34 14t34 -14t13 -33zM250 49h862v-49h-911v1444h49v-1395z" />
    <glyph glyph-name="ldot" unicode="&#x140;" horiz-adv-x="454" 
d="M442 1053q0 -19 -13 -33t-33 -14t-35 13q-13 13 -13 33t13 34t33 14t34 -14t14 -33zM184 0v1544h49v-1544h-49z" />
    <glyph glyph-name="Lslash" unicode="&#x141;" horiz-adv-x="1206" 
d="M201 1444h49v-717l514 150v-52l-514 -149v-627h862v-49h-911v662l-205 -60v51l205 60v731z" />
    <glyph glyph-name="lslash" unicode="&#x142;" horiz-adv-x="620" 
d="M246 1544h49v-796l311 90v-52l-311 -90v-696h-49v682l-297 -86v51l297 86v811z" />
    <glyph glyph-name="Nacute" unicode="&#x143;" horiz-adv-x="1570" 
d="M1157 1862l-332 -308h-59l326 314zM1321 1444h49v-1444h-39l-1081 1352v-1352h-49v1444h39l1081 -1352v1352z" />
    <glyph glyph-name="nacute" unicode="&#x144;" horiz-adv-x="1312" 
d="M1008 1552l-332 -307h-60l326 314zM680 1122q207 0 341 -127t134 -356v-639h-47v639q0 205 -121 319t-307 115q-268 0 -449 -162v-911h-47v1102h47v-139q164 159 449 159z" />
    <glyph glyph-name="Ncommaaccent" unicode="&#x145;" horiz-adv-x="1570" 
d="M807 -152q53 0 53 -89t-55 -145t-143 -56l-11 28q68 4 114 43t46 125q-19 0 -33 14t-14 32q0 19 13 34q14 14 30 14zM1321 1444h49v-1444h-39l-1081 1352v-1352h-49v1444h39l1081 -1352v1352z" />
    <glyph glyph-name="ncommaaccent" unicode="&#x146;" horiz-adv-x="1312" 
d="M692 -152q53 0 53 -89t-55 -145t-143 -56l-10 28q67 4 113 43t46 125q-20 0 -33 14t-13 32q0 20 12 34q14 14 30 14zM680 1122q207 0 341 -127t134 -356v-639h-47v639q0 205 -121 319t-307 115q-268 0 -449 -162v-911h-47v1102h47v-139q164 159 449 159z" />
    <glyph glyph-name="Ncaron" unicode="&#x147;" horiz-adv-x="1570" 
d="M770 1554l-289 269h74l236 -217l237 217h74l-293 -269h-39zM1321 1444h49v-1444h-39l-1081 1352v-1352h-49v1444h39l1081 -1352v1352z" />
    <glyph glyph-name="ncaron" unicode="&#x148;" horiz-adv-x="1312" 
d="M621 1245l-289 268h74l235 -217l238 217h73l-293 -268h-38zM680 1122q207 0 341 -127t134 -356v-639h-47v639q0 205 -121 319t-307 115q-268 0 -449 -162v-911h-47v1102h47v-139q164 159 449 159z" />
    <glyph glyph-name="napostrophe" unicode="&#x149;" horiz-adv-x="1312" 
d="M268 1524q54 0 54 -89t-56 -145t-143 -57l-10 29q67 4 113 43t46 125q-20 0 -33 13t-13 33t12 34q14 14 30 14zM680 1122q207 0 341 -127t134 -356v-639h-47v639q0 205 -121 319t-307 115q-268 0 -449 -162v-911h-47v1102h47v-139q164 159 449 159z" />
    <glyph glyph-name="Eng" unicode="&#x14a;" horiz-adv-x="1570" 
d="M1321 1444h49v-1444q0 -248 -133 -396t-375 -149q-184 0 -323 117t-170 295l49 6q32 -158 156 -262t288 -105q221 0 337 138t120 368l-1069 1340v-1352h-49v1444h39l1081 -1352v1352z" />
    <glyph glyph-name="eng" unicode="&#x14b;" horiz-adv-x="1312" 
d="M680 1122q207 0 341 -127t134 -356v-700q0 -152 -85 -234t-216 -82q-31 0 -80 4v49q45 -4 80 -4q110 0 182 70t72 197v700q0 205 -122 319t-306 115q-268 0 -449 -162v-911h-47v1102h47v-139q164 159 449 159z" />
    <glyph glyph-name="Omacron" unicode="&#x14c;" horiz-adv-x="1761" 
d="M559 1632v45h647v-45h-647zM881 45q293 0 499 198q206 199 207 479q0 280 -207 478q-206 198 -498 199q-292 0 -500 -199q-208 -198 -208 -478t207 -478t500 -199zM882 1450q314 0 535 -214t221 -515t-221 -514t-535 -213t-537 213q-222 213 -222 514t222 515
q223 214 537 214z" />
    <glyph glyph-name="omacron" unicode="&#x14d;" horiz-adv-x="1411" 
d="M385 1323v45h647v-45h-647zM705 43q227 0 388 151q161 150 161 364t-161 365t-388 151t-389 -151q-160 -151 -160 -365t161 -364t388 -151zM705 1122q249 0 423 -165t174 -399t-174 -399q-176 -165 -424 -165t-422 165q-176 165 -176 399t176 400q176 164 423 164z" />
    <glyph glyph-name="Obreve" unicode="&#x14e;" horiz-adv-x="1761" 
d="M869 1604q-123 0 -195 63t-82 191l49 4q14 -205 229 -205t230 205l49 -4q-10 -126 -84 -190t-196 -64zM881 45q293 0 499 198q206 199 207 479q0 280 -207 478q-206 198 -498 199q-292 0 -500 -199q-208 -198 -208 -478t207 -478t500 -199zM882 1450q314 0 535 -214
t221 -515t-221 -514t-535 -213t-537 213q-222 213 -222 514t222 515q223 214 537 214z" />
    <glyph glyph-name="obreve" unicode="&#x14f;" horiz-adv-x="1411" 
d="M701 1294q-123 0 -195 64t-82 190l49 4q14 -204 229 -204t230 204l49 -4q-10 -126 -84 -190t-196 -64zM705 43q227 0 388 151q161 150 161 364t-161 365t-388 151t-389 -151q-160 -151 -160 -365t161 -364t388 -151zM705 1122q249 0 423 -165t174 -399t-174 -399
q-176 -165 -424 -165t-422 165q-176 165 -176 399t176 400q176 164 423 164z" />
    <glyph glyph-name="Ohungarumlaut" unicode="&#x150;" horiz-adv-x="1761" 
d="M1165 1858l62 -19l-189 -283h-57zM879 1858l61 -19l-188 -283h-58zM881 45q293 0 499 198q206 199 207 479q0 280 -207 478q-206 198 -498 199q-292 0 -500 -199q-208 -198 -208 -478t207 -478t500 -199zM882 1450q314 0 535 -214t221 -515t-221 -514t-535 -213t-537 213
q-222 213 -222 514t222 515q223 214 537 214z" />
    <glyph glyph-name="ohungarumlaut" unicode="&#x151;" horiz-adv-x="1411" 
d="M985 1548l62 -18l-189 -283h-57zM698 1548l62 -18l-189 -283h-57zM705 43q227 0 388 151q161 150 161 364t-161 365t-388 151t-389 -151q-160 -151 -160 -365t161 -364t388 -151zM705 1122q249 0 423 -165t174 -399t-174 -399q-176 -165 -424 -165t-422 165
q-176 165 -176 399t176 400q176 164 423 164z" />
    <glyph glyph-name="OE" unicode="&#x152;" horiz-adv-x="2068" 
d="M977 49v1346h-80q-299 1 -511 -189t-212 -485t215 -483t518 -189h70zM123 721q0 301 222 512t536 211h1032v-49h-887v-670h760v-49h-760v-627h930v-49h-1075q-313 0 -536 210q-222 210 -222 511z" />
    <glyph glyph-name="oe" unicode="&#x153;" horiz-adv-x="2455" 
d="M1810 1073q-215 0 -357 -141t-150 -352h991q-10 221 -140 357t-344 136zM705 43q227 0 388 151q161 150 161 364t-161 365t-388 151t-389 -151q-160 -151 -160 -365t161 -364t388 -151zM705 -6q-248 0 -423 165q-176 165 -176 399t176 400q176 164 423 164
q199 0 357 -112t214 -287q51 178 194 289t342 110q244 0 388 -157q143 -158 143 -412v-21h-1040q6 -209 150 -349t359 -140q289 0 443 193l41 -31q-78 -99 -204 -155t-280 -56q-199 0 -342 110t-194 287q-56 -173 -214 -285t-357 -112z" />
    <glyph glyph-name="Racute" unicode="&#x154;" horiz-adv-x="1361" 
d="M1012 1862l-332 -308h-59l325 314zM250 1395v-834h444q230 1 362 105t132 325q0 176 -106 290t-337 114h-495zM694 512h-444v-512h-49v1444h544q256 0 375 -128t119 -325q0 -379 -354 -461l393 -530h-64l-383 520q-57 -8 -137 -8z" />
    <glyph glyph-name="racute" unicode="&#x155;" horiz-adv-x="886" 
d="M604 1573l-332 -307h-59l326 313zM231 1102v-277q49 137 147 217t216 80q120 0 221 -49l-20 -45q-90 45 -185 45q-164 0 -272 -140t-107 -349v-584h-47v1102h47z" />
    <glyph glyph-name="Rcommaaccent" unicode="&#x156;" horiz-adv-x="1361" 
d="M721 -152q53 0 53 -89t-55 -145t-144 -56l-10 28q68 4 114 43t46 125q-19 0 -33 14t-14 32q0 19 13 34q14 14 30 14zM250 1395v-834h444q230 1 362 105t132 325q0 176 -106 290t-337 114h-495zM694 512h-444v-512h-49v1444h544q256 0 375 -128t119 -325q0 -379 -354 -461
l393 -530h-64l-383 520q-57 -8 -137 -8z" />
    <glyph glyph-name="rcommaaccent" unicode="&#x157;" horiz-adv-x="886" 
d="M219 -152q53 0 53 -89t-55 -145t-143 -56l-11 28q68 4 114 43t46 125q-19 0 -33 14t-14 32q0 19 13 34q14 14 30 14zM231 1102v-277q49 137 147 217t216 80q120 0 221 -49l-20 -45q-90 45 -185 45q-164 0 -272 -140t-107 -349v-584h-47v1102h47z" />
    <glyph glyph-name="Rcaron" unicode="&#x158;" horiz-adv-x="1361" 
d="M645 1554l-289 269h74l236 -217l237 217h74l-293 -269h-39zM250 1395v-834h444q230 1 362 105t132 325q0 176 -106 290t-337 114h-495zM694 512h-444v-512h-49v1444h544q256 0 375 -128t119 -325q0 -379 -354 -461l393 -530h-64l-383 520q-57 -8 -137 -8z" />
    <glyph glyph-name="rcaron" unicode="&#x159;" horiz-adv-x="886" 
d="M444 1266l-288 268h73l236 -217l237 217h74l-293 -268h-39zM231 1102v-277q49 137 147 217t216 80q120 0 221 -49l-20 -45q-90 45 -185 45q-164 0 -272 -140t-107 -349v-584h-47v1102h47z" />
    <glyph glyph-name="Sacute" unicode="&#x15a;" horiz-adv-x="1296" 
d="M1008 1862l-332 -308h-60l326 314zM666 -14q-174 0 -274 24t-269 107l22 45q162 -80 258 -103t284 -23q187 0 311 88q124 87 124 248t-193 242q-86 37 -225 73q-140 36 -206 55q-182 52 -262 123q-103 91 -103 220q0 165 131 265t352 100q124 0 266 -30t230 -81l-25 -45
q-84 47 -219 76t-252 29q-200 0 -316 -87t-116 -229t151 -219q125 -63 292 -104q165 -41 241 -68q76 -28 153 -70q153 -84 153 -259q0 -177 -138 -277t-370 -100z" />
    <glyph glyph-name="sacute" unicode="&#x15b;" horiz-adv-x="1101" 
d="M879 1552l-332 -307h-60l326 314zM564 43q196 0 289 74t93 179q0 106 -102 162t-300 96t-306 106t-109 183q0 119 115 199t302 80t382 -82l-17 -45q-164 78 -383 78q-147 -1 -248 -67q-102 -66 -102 -164t93 -150t298 -92t316 -106t111 -195t-106 -217q-105 -88 -320 -88
t-461 98l20 45q239 -94 435 -94z" />
    <glyph glyph-name="Scircumflex" unicode="&#x15c;" horiz-adv-x="1296" 
d="M336 1554l289 269h39l292 -269h-73l-238 218l-235 -218h-74zM666 -14q-174 0 -274 24t-269 107l22 45q162 -80 258 -103t284 -23q187 0 311 88q124 87 124 248t-193 242q-86 37 -225 73q-140 36 -206 55q-182 52 -262 123q-103 91 -103 220q0 165 131 265t352 100
q124 0 266 -30t230 -81l-25 -45q-84 47 -219 76t-252 29q-200 0 -316 -87t-116 -229t151 -219q125 -63 292 -104q165 -41 241 -68q76 -28 153 -70q153 -84 153 -259q0 -177 -138 -277t-370 -100z" />
    <glyph glyph-name="scircumflex" unicode="&#x15d;" horiz-adv-x="1101" 
d="M213 1245l289 268h39l293 -268h-74l-238 217l-235 -217h-74zM564 43q196 0 289 74t93 179q0 106 -102 162t-300 96t-306 106t-109 183q0 119 115 199t302 80t382 -82l-17 -45q-164 78 -383 78q-147 -1 -248 -67q-102 -66 -102 -164t93 -150t298 -92t316 -106t111 -195
t-106 -217q-105 -88 -320 -88t-461 98l20 45q239 -94 435 -94z" />
    <glyph glyph-name="Scedilla" unicode="&#x15e;" horiz-adv-x="1296" 
d="M666 -14q-174 0 -274 24t-269 107l22 45q162 -80 258 -103t284 -23q187 0 311 88q124 87 124 248t-193 242q-86 37 -225 73q-140 36 -206 55q-182 52 -262 123q-103 91 -103 220q0 165 131 265t352 100q124 0 266 -30t230 -81l-25 -45q-84 47 -219 76t-252 29
q-200 0 -316 -87t-116 -229t151 -219q132 -67 295 -106q162 -39 238 -66q76 -28 153 -70q153 -84 153 -254t-124 -270t-335 -110l-53 -109q55 0 92 -30q37 -31 37 -85t-43 -100t-125 -45q-82 0 -136 21l15 38q52 -16 114 -16t94 32t31 75q1 79 -149 79l80 138h-6z" />
    <glyph glyph-name="scedilla" unicode="&#x15f;" horiz-adv-x="1101" 
d="M564 43q196 0 289 74t93 179q0 106 -102 162t-300 96t-306 106t-109 183q0 119 115 199t302 80t382 -82l-17 -45q-164 78 -383 78q-147 -1 -248 -67q-102 -66 -102 -164t93 -150t298 -92t316 -106t111 -194t-101 -215q-100 -87 -315 -91l-58 -115q55 0 92 -30
q37 -31 37 -85t-43 -100t-126 -45q-83 0 -134 21l14 38q53 -16 115 -16q61 0 93 32t32 75q1 79 -149 79l84 146q-197 4 -428 98l20 45q239 -94 435 -94z" />
    <glyph glyph-name="Scaron" unicode="&#x160;" horiz-adv-x="1296" 
d="M621 1554l-289 269h74l235 -217l238 217h73l-293 -269h-38zM666 -14q-174 0 -274 24t-269 107l22 45q162 -80 258 -103t284 -23q187 0 311 88q124 87 124 248t-193 242q-86 37 -225 73q-140 36 -206 55q-182 52 -262 123q-103 91 -103 220q0 165 131 265t352 100
q124 0 266 -30t230 -81l-25 -45q-84 47 -219 76t-252 29q-200 0 -316 -87t-116 -229t151 -219q125 -63 292 -104q165 -41 241 -68q76 -28 153 -70q153 -84 153 -259q0 -177 -138 -277t-370 -100z" />
    <glyph glyph-name="scaron" unicode="&#x161;" horiz-adv-x="1101" 
d="M508 1245l-289 268h74l235 -217l238 217h74l-293 -268h-39zM564 43q196 0 289 74t93 179q0 106 -102 162t-300 96t-306 106t-109 183q0 119 115 199t302 80t382 -82l-17 -45q-164 78 -383 78q-147 -1 -248 -67q-102 -66 -102 -164t93 -150t298 -92t316 -106t111 -195
t-106 -217q-105 -88 -320 -88t-461 98l20 45q239 -94 435 -94z" />
    <glyph glyph-name="Tcedilla" unicode="&#x162;" horiz-adv-x="1351" 
d="M653 0v1395h-530v49h1116v-49h-534v-1395h-3l-59 -121q55 0 92 -30q37 -31 37 -85t-43 -100t-122 -45q-79 0 -138 21l14 38q53 -16 115 -16t94 32t31 75q0 79 -150 79l89 152h-9z" />
    <glyph glyph-name="tcedilla" unicode="&#x163;" horiz-adv-x="790" 
d="M256 309v746h-209v47h209v442h49v-442h445v-47h-445v-719q0 -150 69 -222q68 -72 182 -71q114 0 189 23v-50q-37 -10 -77 -16l-60 -121q55 0 92 -30q37 -31 37 -85t-43 -100t-126 -45q-83 0 -134 21l15 38q53 -16 115 -16t92 32q32 32 32 75q1 79 -149 79l86 148l-68 -2
q-131 0 -216 82t-85 233z" />
    <glyph glyph-name="Tcaron" unicode="&#x164;" horiz-adv-x="1351" 
d="M662 1554l-289 269h73l236 -217l238 217h73l-293 -269h-38zM1239 1444v-49h-534v-1395h-52v1395h-530v49h1116z" />
    <glyph glyph-name="tcaron" unicode="&#x165;" horiz-adv-x="894" 
d="M848 1444q53 0 53 -89t-55 -145t-144 -57l-10 29q68 4 114 43t46 125q-20 0 -34 13q-13 13 -13 33t13 34q14 14 30 14zM750 1055h-445v-719q0 -150 69 -222q68 -72 182 -71q114 0 189 23v-50q-75 -22 -197 -22t-207 82t-85 233v746h-209v47h209v442h49v-442h445v-47z" />
    <glyph glyph-name="Tbar" unicode="&#x166;" horiz-adv-x="1351" 
d="M356 737v45h297v613h-530v49h1116v-49h-534v-613h299v-45h-299v-737h-52v737h-297z" />
    <glyph glyph-name="tbar" unicode="&#x167;" horiz-adv-x="790" 
d="M82 737v45h174v273h-209v47h209v442h49v-442h445v-47h-445v-273h424v-45h-424v-401q0 -150 69 -222q68 -72 182 -71q114 0 189 23v-50q-75 -22 -197 -22t-207 82t-85 233v428h-174z" />
    <glyph glyph-name="Utilde" unicode="&#x168;" horiz-adv-x="1544" 
d="M621 1780q63 0 174 -50t164 -50t94 41q41 42 53 122l47 -8q-19 -101 -71 -153t-118 -52t-180 50t-163 51q-135 0 -168 -166l-47 6q35 209 215 209zM1343 1444v-864q1 -254 -151 -420t-421 -166t-420 165t-150 421v864h49v-864q0 -233 137 -384t383 -151t385 152t139 383
v864h49z" />
    <glyph glyph-name="utilde" unicode="&#x169;" horiz-adv-x="1333" 
d="M842 1370q53 0 94 42t53 122l47 -8q-18 -102 -70 -154t-118 -51q-66 0 -180 50q-115 50 -164 50q-135 0 -168 -166l-47 7q35 209 215 208q63 0 174 -50t164 -50zM1102 1102h47v-1102h-47v154q-170 -160 -469 -160q-205 0 -340 127t-135 356v625h47v-625q0 -205 121 -319
t307 -115q283 0 469 162v897z" />
    <glyph glyph-name="Umacron" unicode="&#x16a;" horiz-adv-x="1544" 
d="M451 1632v45h647v-45h-647zM1343 1444v-864q1 -254 -151 -420t-421 -166t-420 165t-150 421v864h49v-864q0 -233 137 -384t383 -151t385 152t139 383v864h49z" />
    <glyph glyph-name="umacron" unicode="&#x16b;" horiz-adv-x="1333" 
d="M336 1323v45h647v-45h-647zM1102 1102h47v-1102h-47v154q-170 -160 -469 -160q-205 0 -340 127t-135 356v625h47v-625q0 -205 121 -319t307 -115q283 0 469 162v897z" />
    <glyph glyph-name="Ubreve" unicode="&#x16c;" horiz-adv-x="1544" 
d="M777 1604q-123 0 -195 63t-82 191l49 4q14 -205 229 -205t230 205l49 -4q-10 -126 -84 -190t-196 -64zM1343 1444v-864q1 -254 -151 -420t-421 -166t-420 165t-150 421v864h49v-864q0 -233 137 -384t383 -151t385 152t139 383v864h49z" />
    <glyph glyph-name="ubreve" unicode="&#x16d;" horiz-adv-x="1333" 
d="M658 1294q-122 0 -194 64t-83 190l49 4q14 -204 229 -204t230 204l49 -4q-10 -126 -84 -190t-196 -64zM1102 1102h47v-1102h-47v154q-170 -160 -469 -160q-205 0 -340 127t-135 356v625h47v-625q0 -205 121 -319t307 -115q283 0 469 162v897z" />
    <glyph glyph-name="Uring" unicode="&#x16e;" horiz-adv-x="1544" 
d="M776 1462q47 0 82 34t35 81t-35 81t-82 34t-82 -34t-35 -81t35 -81t82 -34zM608 1577q0 68 50 117t118 49t118 -49t50 -117t-50 -117t-118 -49t-118 49t-50 117zM1343 1444v-864q1 -254 -151 -420t-421 -166t-420 165t-150 421v864h49v-864q0 -233 137 -384t383 -151
t385 152t139 383v864h49z" />
    <glyph glyph-name="uring" unicode="&#x16f;" horiz-adv-x="1333" 
d="M670 1362q47 0 82 34t34 81q0 47 -34 81q-35 34 -82 34t-82 -34t-35 -81t35 -81t82 -34zM502 1477q0 69 50 117t118 48t118 -49t50 -117t-50 -116q-50 -49 -118 -49t-118 49t-50 117zM1102 1102h47v-1102h-47v154q-170 -160 -469 -160q-205 0 -340 127t-135 356v625h47
v-625q0 -205 121 -319t307 -115q283 0 469 162v897z" />
    <glyph glyph-name="Uhungarumlaut" unicode="&#x170;" horiz-adv-x="1544" 
d="M786 1858l62 -19l-189 -283h-57zM1073 1858l62 -19l-189 -283h-57zM1343 1444v-864q1 -254 -151 -420t-421 -166t-420 165t-150 421v864h49v-864q0 -233 137 -384t383 -151t385 152t139 383v864h49z" />
    <glyph glyph-name="uhungarumlaut" unicode="&#x171;" horiz-adv-x="1333" 
d="M657 1548l62 -18l-189 -283h-57zM944 1548l62 -18l-189 -283h-57zM1102 1102h47v-1102h-47v154q-170 -160 -469 -160q-205 0 -340 127t-135 356v625h47v-625q0 -205 121 -319t307 -115q283 0 469 162v897z" />
    <glyph glyph-name="Uogonek" unicode="&#x172;" horiz-adv-x="1544" 
d="M797 -348q-60 0 -98 34t-37 89q0 109 131 219h-23q-268 0 -419 165t-150 421v864h49v-864q0 -233 137 -384t383 -151t385 152t139 383v864h49v-864q0 -234 -129 -396t-360 -186q-27 -18 -82 -86t-55 -115q0 -94 96 -94q30 0 96 12l11 -49q-63 -14 -123 -14z" />
    <glyph glyph-name="uogonek" unicode="&#x173;" horiz-adv-x="1333" 
d="M1090 -348q-60 0 -98 34t-38 86t43 120t105 114v148q-170 -160 -469 -160q-205 0 -340 127t-135 356v625h47v-625q0 -205 121 -319t307 -115q283 0 469 162v897h47v-1102q-55 -48 -97 -110t-42 -101t26 -63t64 -23q39 0 102 12l10 -49q-62 -14 -122 -14z" />
    <glyph glyph-name="Wcircumflex" unicode="&#x174;" horiz-adv-x="2287" 
d="M823 1554l289 269h39l293 -269h-74l-237 218l-236 -218h-74zM2195 1444l-542 -1444h-37l-483 1352l-484 -1352h-37l-542 1444h53l506 -1354l483 1354h41l481 -1354l508 1354h53z" />
    <glyph glyph-name="wcircumflex" unicode="&#x175;" horiz-adv-x="1736" 
d="M559 1227l289 268h39l293 -268h-74l-238 217l-235 -217h-74zM1645 1102h53l-432 -1102h-35l-363 1010l-360 -1010h-35l-434 1102h53l397 -1014l359 1014h41l360 -1014z" />
    <glyph glyph-name="Ycircumflex" unicode="&#x176;" horiz-adv-x="1314" 
d="M350 1554l289 269h39l293 -269h-74l-238 218l-235 -218h-74zM684 0h-51v502l-576 942h60l540 -893l541 893h62l-576 -942v-502z" />
    <glyph glyph-name="ycircumflex" unicode="&#x177;" horiz-adv-x="1241" 
d="M330 1245l288 268h39l293 -268h-73l-238 217l-236 -217h-73zM92 -377v49h23q201 0 345 80t202 248h-68l-520 1102h55l496 -1053h55l426 1053h53l-469 -1161q-131 -317 -581 -318h-17z" />
    <glyph glyph-name="Ydieresis" unicode="&#x178;" horiz-adv-x="1314" 
d="M508 1700q20 0 34 -13t13 -33q0 -20 -13 -34q-14 -14 -34 -14t-34 13q-13 13 -13 33t13 35q14 13 34 13zM811 1700q19 0 33 -13t14 -33t-13 -34t-33 -14t-35 13q-13 13 -13 33t13 35q14 13 34 13zM684 0h-51v502l-576 942h60l540 -893l541 893h62l-576 -942v-502z" />
    <glyph glyph-name="Zacute" unicode="&#x179;" horiz-adv-x="1320" 
d="M1061 1862l-332 -308h-59l325 314zM1206 1444v-25l-1024 -1370h1041v-49h-1119v25l1022 1370h-960v49h1040z" />
    <glyph glyph-name="zacute" unicode="&#x17a;" horiz-adv-x="1212" 
d="M940 1552l-332 -307h-59l325 314zM1120 47v-47h-1007v37l927 1018h-899v47h981v-29l-932 -1026h930z" />
    <glyph glyph-name="Zdotaccent" unicode="&#x17b;" horiz-adv-x="1320" 
d="M676 1700q20 0 34 -13t13 -33q0 -20 -13 -34q-14 -14 -34 -14t-34 13q-13 13 -13 33t13 35q14 13 34 13zM1206 1444v-25l-1024 -1370h1041v-49h-1119v25l1022 1370h-960v49h1040z" />
    <glyph glyph-name="zdotaccent" unicode="&#x17c;" horiz-adv-x="1212" 
d="M623 1391q20 1 33 -13q14 -14 14 -34t-14 -34t-33 -14t-33 14t-15 33q0 20 14 34t34 14zM1120 47v-47h-1007v37l927 1018h-899v47h981v-29l-932 -1026h930z" />
    <glyph glyph-name="Zcaron" unicode="&#x17d;" horiz-adv-x="1320" 
d="M649 1554l-289 269h74l236 -217l237 217h74l-293 -269h-39zM1206 1444v-25l-1024 -1370h1041v-49h-1119v25l1022 1370h-960v49h1040z" />
    <glyph glyph-name="zcaron" unicode="&#x17e;" horiz-adv-x="1212" 
d="M616 1245l-288 268h73l236 -217l237 217h74l-293 -268h-39zM1120 47v-47h-1007v37l927 1018h-899v47h981v-29l-932 -1026h930z" />
    <glyph glyph-name="florin" unicode="&#x192;" horiz-adv-x="1132" 
d="M926 1487q-104 0 -189 -70q-84 -70 -108 -196l-41 -209h370v-47h-378l-107 -568q-29 -151 -130 -233t-232 -82q-43 0 -80 18v45q47 -14 88 -14q111 0 195 70t110 196l106 568h-254v47h265l39 209q29 151 130 233q102 82 218 82t155 -43v-49q-53 43 -157 43z" />
    <glyph glyph-name="Aringacute" unicode="&#x1fa;" horiz-adv-x="1443" 
d="M725 1462q47 0 82 34t35 81t-35 81t-82 34t-82 -34t-35 -81t35 -81t82 -34zM721 1391l-404 -914h809zM893 1571q0 -53 -39 -99t-96 -59l633 -1413h-54l-192 432h-848l-191 -432h-53l633 1415q-55 13 -92 59t-37 108t50 112q50 49 118 49q14 0 23 -2l278 268l66 -6
l-299 -277q45 -20 73 -61t27 -94z" />
    <glyph glyph-name="aringacute" unicode="&#x1fb;" 
d="M690 1362q47 0 82 34t35 81t-35 81t-82 34t-82 -34t-35 -81t35 -81t82 -34zM690 1311q-68 0 -118 49t-50 117q0 69 50 117t118 48q18 0 29 -2l276 267l66 -6l-297 -277q94 -44 94 -158q0 -58 -50 -106q-50 -49 -118 -49zM686 1073q-219 -1 -374 -151q-154 -150 -154 -364
t154 -364t374 -151q283 0 449 162v700q-168 168 -449 168zM1135 1102h47v-1102h-47v139q-179 -145 -433 -145t-424 165t-169 399q0 234 170 399t407 165q131 0 250 -41t199 -112v133z" />
    <glyph glyph-name="AEacute" unicode="&#x1fc;" horiz-adv-x="2000" 
d="M1286 1862l-332 -308h-59l326 314zM909 477v918h-53l-498 -918h551zM958 49h930v-49h-979v432h-575l-234 -432h-57l784 1444h1018v-49h-887v-670h760v-49h-760v-627z" />
    <glyph glyph-name="aeacute" unicode="&#x1fd;" horiz-adv-x="2334" 
d="M1524 1573l-332 -307h-59l325 313zM1690 1073q-216 0 -358 -141t-150 -352h991q-10 221 -139 357t-344 136zM686 1073q-219 -1 -374 -151q-154 -150 -154 -364t154 -364t374 -151q283 0 449 162v700q-168 168 -449 168zM1182 0h-47v139q-179 -145 -433 -145t-424 165
t-169 399q0 234 170 399t407 165q131 0 250 -41t199 -112v133h47v-309q63 149 197 239t313 90q244 0 387 -158t143 -411v-21h-1040q8 -209 150 -349t360 -140q289 0 442 193l41 -31q-78 -99 -204 -155q-125 -56 -291 -56t-301 89q-134 89 -197 239v-322z" />
    <glyph glyph-name="Oslashacute" unicode="&#x1fe;" horiz-adv-x="1763" 
d="M1214 1862l-331 -308h-60l326 314zM881 45q293 0 499 198q206 199 207 489q0 290 -235 493l-899 -1041q188 -139 428 -139zM174 721q0 -152 65 -284t179 -228l901 1042q-193 147 -438 148q-291 -1 -499 -199t-208 -479zM123 721q0 301 222 515t536 214q266 0 471 -160
l133 154h57l-156 -180q119 -104 186 -244t66 -299q0 -301 -221 -514t-536 -213q-260 0 -463 151l-125 -145h-55l147 170q-123 100 -193 244t-69 307z" />
    <glyph glyph-name="oslashacute" unicode="&#x1ff;" horiz-adv-x="1409" 
d="M1036 1573l-331 -307h-60l326 313zM156 551q0 -221 180 -375l698 793q-147 104 -329 104q-227 0 -389 -150q-160 -151 -160 -372zM705 43q227 0 388 151q161 150 161 372t-187 376l-698 -792q146 -107 336 -107zM106 549q0 245 176 409t423 164q203 0 362 -116l98 112h58
l-123 -137q203 -169 203 -413q1 -244 -175 -409t-423 -165q-207 0 -369 119l-100 -113h-56l123 139q-197 166 -197 410z" />
    <glyph glyph-name="Scommaaccent" unicode="&#x218;" horiz-adv-x="1296" 
d="M680 -152q53 0 53 -89t-55 -145t-143 -56l-11 28q68 4 114 43t46 125q-20 0 -34 14t-13 32q0 19 13 34q14 14 30 14zM666 -14q-174 0 -274 24t-269 107l22 45q162 -80 258 -103t284 -23q187 0 311 88q124 87 124 248t-193 242q-86 37 -225 73q-140 36 -206 55
q-182 52 -262 123q-103 91 -103 220q0 165 131 265t352 100q124 0 266 -30t230 -81l-25 -45q-84 47 -219 76t-252 29q-200 0 -316 -87t-116 -229t151 -219q125 -63 292 -104q165 -41 241 -68q76 -28 153 -70q153 -84 153 -259q0 -177 -138 -277t-370 -100z" />
    <glyph glyph-name="scommaaccent" unicode="&#x219;" horiz-adv-x="1101" 
d="M571 -152q53 0 53 -89t-54 -145q-56 -56 -144 -56l-10 28q68 4 114 43t45 125q-20 0 -33 14q-14 14 -14 32q0 20 14 34t29 14zM564 43q196 0 289 74t93 179q0 106 -102 162t-300 96t-306 106t-109 183q0 119 115 199t302 80t382 -82l-17 -45q-164 78 -383 78
q-147 -1 -248 -67q-102 -66 -102 -164t93 -150t298 -92t316 -106t111 -195t-106 -217q-105 -88 -320 -88t-461 98l20 45q239 -94 435 -94z" />
    <glyph glyph-name="uni021A" unicode="&#x21a;" horiz-adv-x="1351" 
d="M674 -152q53 0 53 -89t-55 -145t-144 -56l-10 28q68 4 114 43t46 125q-20 0 -34 14t-13 32q0 19 13 34q14 14 30 14zM1239 1444v-49h-534v-1395h-52v1395h-530v49h1116z" />
    <glyph glyph-name="uni021B" unicode="&#x21b;" horiz-adv-x="790" 
d="M487 -154q53 0 53 -89t-54 -145q-56 -56 -144 -56l-10 28q68 4 114 43t46 125q-20 0 -34 14t-14 32q0 20 14 34t29 14zM750 1055h-445v-719q0 -150 69 -222q68 -72 182 -71q114 0 189 23v-50q-75 -22 -197 -22t-207 82t-85 233v746h-209v47h209v442h49v-442h445v-47z" />
    <glyph glyph-name="dotlessj" unicode="&#x237;" horiz-adv-x="417" 
d="M184 -61v1163h49v-1163q0 -152 -85 -234t-216 -82q-31 0 -79 4v49q45 -4 79 -4q109 0 181 70q71 70 71 197z" />
    <glyph glyph-name="circumflex" unicode="&#x2c6;" horiz-adv-x="1024" 
d="M199 1554l288 269h39l293 -269h-74l-237 218l-236 -218h-73z" />
    <glyph glyph-name="caron" unicode="&#x2c7;" horiz-adv-x="1024" 
d="M487 1554l-288 269h73l236 -217l237 217h74l-293 -269h-39z" />
    <glyph glyph-name="breve" unicode="&#x2d8;" horiz-adv-x="1024" 
d="M513 1604q-122 0 -195 63t-82 191l49 4q14 -205 229 -205t229 205l50 -4q-10 -126 -84 -190t-196 -64z" />
    <glyph glyph-name="dotaccent" unicode="&#x2d9;" horiz-adv-x="776" 
d="M360 1700q20 0 34 -13t14 -33t-14 -34t-34 -14t-33 13t-13 33t12 34q14 14 34 14z" />
    <glyph glyph-name="ring" unicode="&#x2da;" horiz-adv-x="1024" 
d="M510 1462q47 0 82 34t35 81t-35 81t-82 34t-82 -34t-35 -81t35 -81t82 -34zM342 1577q0 68 50 117t118 49t118 -49t50 -117t-50 -117t-118 -49t-118 49t-50 117z" />
    <glyph glyph-name="ogonek" unicode="&#x2db;" horiz-adv-x="1024" 
d="M534 -348q-60 0 -97 34q-38 34 -38 89t38 113t75 92l39 30l43 -10q-56 -48 -98 -110t-41 -101q-1 -39 25 -63t64 -23q38 0 103 12l10 -49q-63 -14 -123 -14z" />
    <glyph glyph-name="tilde" unicode="&#x2dc;" horiz-adv-x="1024" 
d="M348 1780q63 0 174 -50t164 -50t94 41q41 42 54 122l47 -8q-19 -101 -71 -153t-118 -52t-180 50q-115 50 -164 51q-135 0 -168 -166l-47 6q35 209 215 209z" />
    <glyph glyph-name="hungarumlaut" unicode="&#x2dd;" horiz-adv-x="1024" 
d="M678 1858l61 -19l-188 -283h-57zM391 1858l62 -19l-189 -283h-57z" />
    <glyph glyph-name="uni037E" unicode="&#x37e;" horiz-adv-x="366" 
d="M174 88q51 0 51 -68q0 -122 -58 -194t-130 -78l-10 29q57 8 104 67t47 150q-20 0 -34 13q-13 13 -13 33t13 34q14 14 30 14zM176 1001q-20 -1 -34 13t-13 34q0 20 13 34q14 14 34 14t34 -14t13 -33q1 -20 -13 -34t-34 -14z" />
    <glyph glyph-name="tonos" unicode="&#x384;" horiz-adv-x="845" 
d="M735 1446l-354 -311h-66l357 317z" />
    <glyph glyph-name="dieresistonos" unicode="&#x385;" horiz-adv-x="1167" 
d="M854 1376q20 0 34 -13t13 -33q0 -20 -13 -34q-14 -14 -34 -14t-34 13q-13 13 -13 33t13 35q14 13 34 13zM307 1376q19 0 33 -13t14 -33t-13 -34t-33 -14t-35 13q-13 13 -13 33t13 35q14 13 34 13zM545 1206l143 373l49 -6l-141 -367h-51z" />
    <glyph glyph-name="Alphatonos" unicode="&#x386;" horiz-adv-x="1443" 
d="M483 1446l-354 -311h-66l357 317zM721 1391l-404 -914h809zM1337 0l-192 432h-848l-191 -432h-53l645 1444h47l646 -1444h-54z" />
    <glyph glyph-name="anoteleia" unicode="&#x387;" horiz-adv-x="323" 
d="M174 1028q0 -20 -13 -34t-33 -13q-20 0 -35 13q-13 14 -13 34t13 34t33 13q20 0 35 -13q13 -14 13 -34z" />
    <glyph glyph-name="Epsilontonos" unicode="&#x388;" horiz-adv-x="1292" 
d="M53 1446l-354 -311h-66l357 317zM250 49h930v-49h-979v1444h936v-49h-887v-670h760v-49h-760v-627z" />
    <glyph glyph-name="Etatonos" unicode="&#x389;" horiz-adv-x="1480" 
d="M53 1446l-354 -311h-66l357 317zM1231 1444h49v-1444h-49v618h-981v-618h-49v1444h49v-776h981v776z" />
    <glyph glyph-name="Iotatonos" unicode="&#x38a;" horiz-adv-x="452" 
d="M53 1446l-354 -311h-66l357 317zM252 1444v-1444h-51v1444h51z" />
    <glyph glyph-name="Omicrontonos" unicode="&#x38c;" horiz-adv-x="1761" 
d="M242 1446l-355 -311h-65l356 317zM881 45q293 0 499 198q206 199 207 479q0 280 -207 478q-206 198 -498 199q-292 0 -500 -199q-208 -198 -208 -478t207 -478t500 -199zM882 1450q314 0 535 -214t221 -515t-221 -514t-535 -213t-537 213q-222 213 -222 514t222 515
q223 214 537 214z" />
    <glyph glyph-name="Upsilontonos" unicode="&#x38e;" horiz-adv-x="1314" 
d="M-29 1446l-354 -311h-66l357 317zM684 0h-51v502l-576 942h60l540 -893l541 893h62l-576 -942v-502z" />
    <glyph glyph-name="Omegatonos" unicode="&#x38f;" horiz-adv-x="1720" 
d="M233 1446l-354 -311h-65l356 317zM1597 735q0 -248 -135 -427t-317 -263h428v-45h-569v49q169 37 346 208q86 83 142 209t56 269q0 322 -193 494q-194 172 -495 172q-300 0 -494 -172t-194 -494q0 -143 56 -269t142 -209q175 -168 347 -208v-49h-570v45h426
q-182 84 -316 263t-134 427q0 347 208 531q207 184 529 184t530 -184q207 -185 207 -531z" />
    <glyph glyph-name="iotadieresistonos" unicode="&#x390;" horiz-adv-x="421" 
d="M-59 1362q20 0 33 -13q14 -13 14 -33t-14 -34t-33 -14q-20 0 -34 13q-13 13 -13 33t13 35q14 13 34 13zM487 1362q19 0 33 -13t14 -33t-12 -34q-14 -14 -34 -14t-34 13t-14 33t14 34t33 14zM178 1192l144 373l49 -6l-142 -367h-51zM186 0v1102h50v-1102h-50z" />
    <glyph glyph-name="Alpha" unicode="&#x391;" horiz-adv-x="1443" 
d="M721 1391l-404 -914h809zM1337 0l-192 432h-848l-191 -432h-53l645 1444h47l646 -1444h-54z" />
    <glyph glyph-name="Beta" unicode="&#x392;" horiz-adv-x="1419" 
d="M250 49h624q180 0 283 119t103 290t-102 295t-284 124h-624v-828zM250 1395v-469h541q84 0 135 70t51 168q0 97 -80 164t-197 67h-450zM1028 1159q0 -160 -108 -235q182 -18 286 -154t104 -319t-115 -317q-116 -134 -321 -134h-673v1444h499q136 0 232 -81t96 -204z" />
    <glyph glyph-name="Gamma" unicode="&#x393;" horiz-adv-x="1206" 
d="M1112 1444v-49h-862v-1395h-49v1444h911z" />
    <glyph glyph-name="uni0394" unicode="&#x394;" horiz-adv-x="1443" 
d="M721 1391l-596 -1346h1192zM745 1444l646 -1444h-1338l645 1444h47z" />
    <glyph glyph-name="Epsilon" unicode="&#x395;" horiz-adv-x="1292" 
d="M250 49h930v-49h-979v1444h936v-49h-887v-670h760v-49h-760v-627z" />
    <glyph glyph-name="Zeta" unicode="&#x396;" horiz-adv-x="1320" 
d="M1206 1444v-25l-1024 -1370h1041v-49h-1119v25l1022 1370h-960v49h1040z" />
    <glyph glyph-name="Eta" unicode="&#x397;" horiz-adv-x="1480" 
d="M1231 1444h49v-1444h-49v618h-981v-618h-49v1444h49v-776h981v776z" />
    <glyph glyph-name="Theta" unicode="&#x398;" horiz-adv-x="1761" 
d="M340 700v45h1081v-45h-1081zM881 45q293 0 499 198q206 199 207 479q0 280 -207 478q-206 198 -498 199q-292 0 -500 -199q-208 -198 -208 -478t207 -478t500 -199zM882 1450q314 0 535 -214t221 -515t-221 -514t-535 -213t-537 213q-222 213 -222 514t222 515
q223 214 537 214z" />
    <glyph glyph-name="Iota" unicode="&#x399;" horiz-adv-x="452" 
d="M252 1444v-1444h-51v1444h51z" />
    <glyph glyph-name="Kappa" unicode="&#x39a;" horiz-adv-x="1392" 
d="M250 0h-49v1444h49v-1016l948 1016h68l-648 -694l666 -750h-72l-630 713l-332 -357v-356z" />
    <glyph glyph-name="Lambda" unicode="&#x39b;" horiz-adv-x="1443" 
d="M745 1444l646 -1444h-54l-616 1391l-615 -1391h-53l645 1444h47z" />
    <glyph glyph-name="Mu" unicode="&#x39c;" horiz-adv-x="1789" 
d="M1589 1444v-1444h-49v1329l-645 -1071l-645 1071v-1329h-49v1444h39l655 -1088l655 1088h39z" />
    <glyph glyph-name="Nu" unicode="&#x39d;" horiz-adv-x="1570" 
d="M1321 1444h49v-1444h-39l-1081 1352v-1352h-49v1444h39l1081 -1352v1352z" />
    <glyph glyph-name="Xi" unicode="&#x39e;" horiz-adv-x="1376" 
d="M1157 705h-917v45h917v-45zM1239 1444v-45h-1081v45h1081zM137 45h1123v-45h-1123v45z" />
    <glyph glyph-name="Omicron" unicode="&#x39f;" horiz-adv-x="1761" 
d="M881 45q293 0 499 198q206 199 207 479q0 280 -207 478q-206 198 -498 199q-292 0 -500 -199q-208 -198 -208 -478t207 -478t500 -199zM882 1450q314 0 535 -214t221 -515t-221 -514t-535 -213t-537 213q-222 213 -222 514t222 515q223 214 537 214z" />
    <glyph glyph-name="Pi" unicode="&#x3a0;" horiz-adv-x="1523" 
d="M201 1444h1122v-1444h-49v1399h-1024v-1399h-49v1444z" />
    <glyph glyph-name="Rho" unicode="&#x3a1;" horiz-adv-x="1316" 
d="M250 561h444q230 1 362 105t132 325q0 176 -106 290t-337 114h-495v-834zM201 1444h544q256 0 375 -128t119 -325q0 -247 -145 -363t-400 -116h-444v-512h-49v1444z" />
    <glyph glyph-name="Sigma" unicode="&#x3a3;" horiz-adv-x="1306" 
d="M1202 49v-49h-1102v25l525 696l-525 698v25h1102v-49h-1024l506 -674l-506 -672h1024z" />
    <glyph glyph-name="Tau" unicode="&#x3a4;" horiz-adv-x="1351" 
d="M1239 1444v-49h-534v-1395h-52v1395h-530v49h1116z" />
    <glyph glyph-name="Upsilon" unicode="&#x3a5;" horiz-adv-x="1314" 
d="M684 0h-51v502l-576 942h60l540 -893l541 893h62l-576 -942v-502z" />
    <glyph glyph-name="Phi" unicode="&#x3a6;" horiz-adv-x="1824" 
d="M938 1298v-1130h104q240 0 425 160t185 400t-179 406q-180 165 -429 164h-106zM780 1298q-248 0 -428 -164t-180 -406q0 -240 184 -400t424 -160h107v1130h-107zM1702 743v-18q0 -260 -201 -433t-457 -173h-106v-119h-51v119h-107q-256 0 -456 173t-201 433v18
q0 248 195 426q196 178 462 179h107v96h51v-96h106q266 0 462 -178t196 -427z" />
    <glyph glyph-name="Chi" unicode="&#x3a7;" horiz-adv-x="1507" 
d="M760 760l600 684h65l-632 -723l632 -721h-65l-600 684l-598 -684h-66l631 721l-631 723h66z" />
    <glyph glyph-name="Psi" unicode="&#x3a8;" horiz-adv-x="1759" 
d="M1554 1444h50v-529q0 -249 -184 -423t-427 -175h-88v-317h-51v317h-88q-244 -1 -427 175t-183 423v529h49v-529q0 -227 168 -388t393 -160h88v1077h51v-1077h88q225 1 393 161t168 387v529z" />
    <glyph glyph-name="uni03A9" unicode="&#x3a9;" horiz-adv-x="1720" 
d="M1597 735q0 -248 -135 -427t-317 -263h428v-45h-569v49q169 37 346 208q86 83 142 209t56 269q0 322 -193 494q-194 172 -495 172q-300 0 -494 -172t-194 -494q0 -143 56 -269t142 -209q175 -168 347 -208v-49h-570v45h426q-182 84 -316 263t-134 427q0 347 208 531
q207 184 529 184t530 -184q207 -185 207 -531z" />
    <glyph glyph-name="Iotadieresis" unicode="&#x3aa;" horiz-adv-x="452" 
d="M76 1726q20 0 34 -13t13 -33q0 -20 -13 -34q-14 -14 -34 -14t-34 14t-13 33q0 20 13 34q14 13 34 13zM379 1726q19 0 33 -13t14 -33t-13 -34t-33 -14t-34 14t-14 33q0 20 13 34q14 13 34 13zM252 1444v-1444h-51v1444h51z" />
    <glyph glyph-name="Upsilondieresis" unicode="&#x3ab;" horiz-adv-x="1314" 
d="M508 1726q20 0 34 -13t13 -33q0 -20 -13 -34q-14 -14 -34 -14t-34 14t-13 33q0 20 13 34q14 13 34 13zM811 1726q19 0 33 -13t14 -33t-13 -34t-33 -14t-34 14t-14 33q0 20 13 34q14 13 34 13zM684 0h-51v502l-576 942h60l540 -893l541 893h62l-576 -942v-502z" />
    <glyph glyph-name="alphatonos" unicode="&#x3ac;" 
d="M1094 1552l-355 -311h-65l356 318zM686 1073q-219 -1 -374 -151q-154 -150 -154 -364t154 -364t374 -151q283 0 449 162v700q-168 168 -449 168zM1135 1102h47v-1102h-47v139q-179 -145 -433 -145t-424 165t-169 399q0 234 170 399t407 165q131 0 250 -41t199 -112v133z
" />
    <glyph glyph-name="epsilontonos" unicode="&#x3ad;" horiz-adv-x="1204" 
d="M1073 1552l-354 -311h-66l357 318zM602 -6q-494 0 -493 315q0 78 58 153t159 105q-82 37 -129 107t-47 135q0 174 122 244q124 69 338 69t457 -129l-20 -45q-235 125 -431 125t-307 -59t-110 -205q-1 -74 71 -150t170 -75h338v-47h-379q-90 0 -166 -71t-75 -157
q0 -266 444 -266q130 1 230 33t235 106l23 -43q-142 -77 -246 -111t-242 -34z" />
    <glyph glyph-name="etatonos" unicode="&#x3ae;" horiz-adv-x="1308" 
d="M1094 1552l-355 -311h-65l356 318zM680 1122q207 0 341 -127t134 -356v-639h-47v639q0 205 -122 319t-306 115q-268 0 -449 -162v-911h-47v1102h47v-139q164 159 449 159z" />
    <glyph glyph-name="iotatonos" unicode="&#x3af;" horiz-adv-x="421" 
d="M604 1552l-354 -311h-66l357 318zM186 0v1102h50v-1102h-50z" />
    <glyph glyph-name="upsilondieresistonos" unicode="&#x3b0;" horiz-adv-x="1300" 
d="M377 1376q19 0 33 -13t14 -33t-13 -34t-33 -14t-35 13q-13 13 -13 33t13 35q14 13 34 13zM924 1376q20 0 33 -13t13 -33t-12 -34q-14 -14 -34 -14t-34 13q-13 13 -13 33t13 35q14 13 34 13zM614 1206l144 373l49 -6l-141 -367h-52zM1147 1102v-653q1 -209 -145 -332
t-346 -123t-352 122t-150 333v653h49v-653q0 -188 136 -297t316 -109t312 110q131 110 131 296v653h49z" />
    <glyph glyph-name="alpha" unicode="&#x3b1;" 
d="M686 1073q-219 -1 -374 -151q-154 -150 -154 -364t154 -364t374 -151q283 0 449 162v700q-168 168 -449 168zM1135 1102h47v-1102h-47v139q-179 -145 -433 -145t-424 165t-169 399q0 234 170 399t407 165q131 0 250 -41t199 -112v133z" />
    <glyph glyph-name="beta" unicode="&#x3b2;" horiz-adv-x="1294" 
d="M705 43q186 0 309 109t123 297q0 147 -111 267t-311 120h-482v-609q165 -184 472 -184zM707 883q115 0 199 81q84 80 83 224q1 144 -107 230t-273 85q-165 0 -270 -129t-106 -346v-145h474zM1186 449q0 -211 -137 -333t-344 -122q-295 0 -472 164v-502h-49v1372
q0 240 120 382t306 142t308 -98q121 -98 120 -276q1 -228 -192 -314q162 -38 251 -158t89 -257z" />
    <glyph glyph-name="gamma" unicode="&#x3b3;" horiz-adv-x="1232" 
d="M641 -344h-49v348l-533 1098h54l503 -1039l504 1039h54l-533 -1098v-348z" />
    <glyph glyph-name="delta" unicode="&#x3b4;" horiz-adv-x="1406" 
d="M702 43q227 0 389 141q161 141 160 338q0 197 -160 333q-161 136 -389 136t-388 -136t-160 -333t160 -338t388 -141zM1149 1497h-807q672 -489 696 -510q262 -221 262 -465q0 -216 -176 -372t-422 -156t-422 157t-176 371t176 367q176 152 422 151q174 0 304 -84
l-775 566v22h918v-47z" />
    <glyph glyph-name="epsilon" unicode="&#x3b5;" horiz-adv-x="1204" 
d="M602 -6q-494 0 -493 315q0 78 58 153t159 105q-82 37 -129 107t-47 135q0 174 122 244q124 69 338 69t457 -129l-20 -45q-235 125 -431 125t-307 -59t-110 -205q-1 -74 71 -150t170 -75h338v-47h-379q-90 0 -166 -71t-75 -157q0 -266 444 -266q130 1 230 33t235 106
l23 -43q-142 -77 -246 -111t-242 -34z" />
    <glyph glyph-name="zeta" unicode="&#x3b6;" horiz-adv-x="1026" 
d="M1012 1544v-22q-134 -115 -226 -196t-222 -210t-210 -228t-139 -212t-59 -198t76 -137q76 -53 176 -73q345 -72 442 -116q127 -58 127 -176t-121 -210t-246 -131l-18 48q120 37 228 113t108 169q0 92 -101 146q-63 33 -199 63t-242 50q-106 22 -193 85t-87 170
q-1 219 276 518q228 247 525 500h-813v47h918z" />
    <glyph glyph-name="eta" unicode="&#x3b7;" horiz-adv-x="1308" 
d="M680 1122q207 0 341 -127t134 -356v-639h-47v639q0 205 -122 319t-306 115q-268 0 -449 -162v-911h-47v1102h47v-139q164 159 449 159z" />
    <glyph glyph-name="theta" unicode="&#x3b8;" horiz-adv-x="1353" 
d="M678 43q219 0 366 187t154 509h-1040q4 -322 152 -509t368 -187zM678 1501q-217 0 -366 -195q-148 -196 -154 -520h1040q-6 324 -154 520t-366 195zM679 1550q243 0 405 -216t163 -571q0 -355 -162 -562q-163 -207 -407 -207t-407 207t-163 562t164 571t407 216z" />
    <glyph glyph-name="iota" unicode="&#x3b9;" horiz-adv-x="421" 
d="M186 0v1102h50v-1102h-50z" />
    <glyph glyph-name="kappa" unicode="&#x3ba;" horiz-adv-x="1255" 
d="M233 0h-49v1102h49v-821l885 821h74l-453 -418l451 -684h-60l-428 649l-469 -434v-215z" />
    <glyph glyph-name="lambda" unicode="&#x3bb;" horiz-adv-x="1259" 
d="M190 1505h-36v49h36q178 0 332 -82t215 -241l469 -1231h-51l-434 1135l-82 -66l-504 -1069h-55l520 1100l102 84q-53 158 -200 240t-312 81z" />
    <glyph glyph-name="uni03BC" unicode="&#x3bc;" horiz-adv-x="1359" 
d="M1128 1102h48v-1102h-48v154q-170 -160 -469 -160q-145 0 -259 64t-169 188v-590h-47v1448h47v-627q0 -205 122 -319t306 -115q283 0 469 162v897z" />
    <glyph glyph-name="nu" unicode="&#x3bd;" horiz-adv-x="1239" 
d="M1122 1102h58l-543 -1102h-33l-545 1102h58l504 -1026z" />
    <glyph glyph-name="xi" unicode="&#x3be;" horiz-adv-x="1019" 
d="M940 1544v-47q-541 0 -670 -223q-33 -57 -32 -121q0 -158 178 -246t436 -88v-47q-305 -4 -501 -90t-195 -229q0 -105 80 -167t194 -87t230 -45t196 -68t80 -132q0 -83 -70 -156q-107 -111 -250 -154l-36 43q102 25 204 101t103 163q0 67 -80 105t-195 58q-114 20 -230 47
q-116 29 -196 101t-80 195t128 214t346 128q-178 39 -285 129t-107 212q-1 262 340 357h-471v47h883z" />
    <glyph glyph-name="omicron" unicode="&#x3bf;" horiz-adv-x="1413" 
d="M707 43q227 0 388 151q161 150 161 364t-161 365t-388 151t-389 -151q-160 -151 -160 -365t161 -364t388 -151zM707 1122q249 0 423 -165t174 -399t-174 -399q-176 -165 -424 -165t-422 165q-175 165 -175 399t175 400q175 164 423 164z" />
    <glyph glyph-name="pi" unicode="&#x3c0;" horiz-adv-x="1384" 
d="M184 1102h1016v-1102h-49v1055h-918v-1055h-49v1102z" />
    <glyph glyph-name="rho" unicode="&#x3c1;" horiz-adv-x="1341" 
d="M655 43q219 0 374 150q155 149 155 365t-155 366t-376 149q-184 0 -315 -122t-131 -294v-452q161 -162 448 -162zM653 1122q242 0 411 -165t169 -399t-169 -399t-425 -165t-432 145v-483h-49v1001q0 193 145 329t350 136z" />
    <glyph glyph-name="uni03C2" unicode="&#x3c2;" horiz-adv-x="1159" 
d="M109 578q0 225 173 385t404 159q262 0 416 -198l-39 -31q-141 180 -365 180t-383 -144q-158 -144 -157 -351q0 -241 223 -379q143 -88 322 -150t218 -105q40 -42 42 -102q0 -133 -230 -229q-20 35 -24 39q205 86 204 190q0 58 -61 91q-61 32 -117 51q-57 20 -134 50
t-179 83q-100 53 -144 93q-120 111 -150 217q-19 69 -19 151z" />
    <glyph glyph-name="sigma" unicode="&#x3c3;" horiz-adv-x="1413" 
d="M707 43q227 0 388 151q161 152 161 360t-161 353t-388 145t-389 -144q-162 -146 -160 -355q0 -209 161 -359t388 -151zM1329 1102v-47h-403q162 -57 270 -187t109 -311q1 -233 -175 -398t-424 -165t-422 165q-175 165 -175 394t175 389t423 160h622z" />
    <glyph glyph-name="tau" unicode="&#x3c4;" horiz-adv-x="1087" 
d="M1026 1102v-47h-455v-1055h-49v1055h-461v47h965z" />
    <glyph glyph-name="upsilon" unicode="&#x3c5;" horiz-adv-x="1300" 
d="M1147 1102v-653q1 -209 -145 -332t-346 -123t-352 122t-150 333v653h49v-653q0 -188 136 -297t316 -109t312 110q131 110 131 296v653h49z" />
    <glyph glyph-name="phi" unicode="&#x3c6;" horiz-adv-x="1675" 
d="M862 1077v-1034h12q268 0 456 141q187 141 188 363q0 270 -186 400t-464 130h-6zM1567 537q1 -162 -101 -290q-102 -129 -260 -191t-344 -62v-338h-49v338q-186 0 -344 62t-259 190t-101 304q0 175 109 319q110 144 292 218l18 -45q-168 -68 -269 -200t-101 -295
q0 -221 186 -363t455 -141h14v1081q18 2 55 2q141 0 264 -32q435 -118 435 -557z" />
    <glyph glyph-name="chi" unicode="&#x3c7;" horiz-adv-x="1185" 
d="M598 514l-457 -514h-65l489 551l-489 551h65l457 -514l457 514h65l-489 -551l489 -551h-65z" />
    <glyph glyph-name="psi" unicode="&#x3c8;" horiz-adv-x="1634" 
d="M1432 1102h49v-653q0 -455 -639 -455v-338h-49v338q-639 0 -639 455v653h49v-653q0 -406 565 -406h25v1204h49v-1204h24q565 0 566 406v653z" />
    <glyph glyph-name="omega" unicode="&#x3c9;" horiz-adv-x="1839" 
d="M586 -6q-225 0 -352 150q-126 151 -126 402q0 252 135 402q134 150 343 170l8 -47q-190 -19 -313 -157t-123 -366t114 -367q114 -138 314 -138q123 0 216 101t93 229v303h49v-303q0 -127 93 -229t216 -101q201 0 315 138q114 139 114 367t-124 366q-123 138 -313 157
l8 47q209 -20 343 -171t134 -401t-125 -402q-126 -151 -352 -150q-109 0 -201 71t-132 177q-42 -106 -134 -177t-200 -71z" />
    <glyph glyph-name="iotadieresis" unicode="&#x3ca;" horiz-adv-x="421" 
d="M61 1391q19 1 33 -13t14 -34t-12 -34q-14 -14 -34 -14t-34 14q-13 14 -14 33q0 20 14 34t33 14zM365 1391q20 1 33 -13q14 -14 14 -34t-14 -34t-33 -14t-33 14t-15 33q0 20 14 34t34 14zM186 0v1102h50v-1102h-50z" />
    <glyph glyph-name="upsilondieresis" unicode="&#x3cb;" horiz-adv-x="1300" 
d="M788 1391q20 1 34 -13t14 -34t-14 -34t-34 -14t-33 14t-14 33q-1 20 13 34t34 14zM485 1391q19 1 33 -13t14 -34t-13 -34t-33 -14t-34 14q-13 14 -14 33q0 20 14 34t33 14zM1147 1102v-653q1 -209 -145 -332t-346 -123t-352 122t-150 333v653h49v-653q0 -188 136 -297
t316 -109t312 110q131 110 131 296v653h49z" />
    <glyph glyph-name="omicrontonos" unicode="&#x3cc;" horiz-adv-x="1413" 
d="M1083 1552l-354 -311h-65l356 318zM707 43q227 0 388 151q161 150 161 364t-161 365t-388 151t-389 -151q-160 -151 -160 -365t161 -364t388 -151zM707 1122q249 0 423 -165t174 -399t-174 -399q-176 -165 -424 -165t-422 165q-175 165 -175 399t175 400q175 164 423 164
z" />
    <glyph glyph-name="upsilontonos" unicode="&#x3cd;" horiz-adv-x="1300" 
d="M1038 1552l-354 -311h-66l357 318zM1147 1102v-653q1 -209 -145 -332t-346 -123t-352 122t-150 333v653h49v-653q0 -188 136 -297t316 -109t312 110q131 110 131 296v653h49z" />
    <glyph glyph-name="omegatonos" unicode="&#x3ce;" horiz-adv-x="1839" 
d="M1315 1552l-354 -311h-66l356 318zM586 -6q-225 0 -352 150q-126 151 -126 402q0 252 135 402q134 150 343 170l8 -47q-190 -19 -313 -157t-123 -366t114 -367q114 -138 314 -138q123 0 216 101t93 229v303h49v-303q0 -127 93 -229t216 -101q201 0 315 138
q114 139 114 367t-124 366q-123 138 -313 157l8 47q209 -20 343 -171t134 -401t-125 -402q-126 -151 -352 -150q-109 0 -201 71t-132 177q-42 -106 -134 -177t-200 -71z" />
    <glyph glyph-name="Wgrave" unicode="&#x1e80;" horiz-adv-x="2287" 
d="M1106 1554l-332 308l66 6l325 -314h-59zM2195 1444l-542 -1444h-37l-483 1352l-484 -1352h-37l-542 1444h53l506 -1354l483 1354h41l481 -1354l508 1354h53z" />
    <glyph glyph-name="wgrave" unicode="&#x1e81;" horiz-adv-x="1736" 
d="M834 1227l-332 307l65 6l326 -313h-59zM1645 1102h53l-432 -1102h-35l-363 1010l-360 -1010h-35l-434 1102h53l397 -1014l359 1014h41l360 -1014z" />
    <glyph glyph-name="Wacute" unicode="&#x1e82;" horiz-adv-x="2287" 
d="M1499 1862l-332 -308h-59l326 314zM2195 1444l-542 -1444h-37l-483 1352l-484 -1352h-37l-542 1444h53l506 -1354l483 1354h41l481 -1354l508 1354h53z" />
    <glyph glyph-name="wacute" unicode="&#x1e83;" horiz-adv-x="1736" 
d="M1243 1534l-332 -307h-59l326 313zM1645 1102h53l-432 -1102h-35l-363 1010l-360 -1010h-35l-434 1102h53l397 -1014l359 1014h41l360 -1014z" />
    <glyph glyph-name="Wdieresis" unicode="&#x1e84;" horiz-adv-x="2287" 
d="M981 1700q19 0 33 -13t14 -33t-13 -34t-33 -14t-35 13q-13 13 -13 33t13 35q14 13 34 13zM1284 1700q20 0 34 -13t13 -33q0 -20 -13 -34q-14 -14 -34 -14t-34 13q-13 13 -13 33t13 35q14 13 34 13zM2195 1444l-542 -1444h-37l-483 1352l-484 -1352h-37l-542 1444h53
l506 -1354l483 1354h41l481 -1354l508 1354h53z" />
    <glyph glyph-name="wdieresis" unicode="&#x1e85;" horiz-adv-x="1736" 
d="M719 1372q19 0 33 -13t14 -33t-13 -34t-33 -14t-35 13q-13 13 -13 33t13 35q14 13 34 13zM1022 1372q20 0 34 -13t13 -33q0 -20 -13 -34q-14 -14 -34 -14t-34 13q-13 13 -13 33t13 35q14 13 34 13zM1645 1102h53l-432 -1102h-35l-363 1010l-360 -1010h-35l-434 1102h53
l397 -1014l359 1014h41l360 -1014z" />
    <glyph glyph-name="Ygrave" unicode="&#x1ef2;" horiz-adv-x="1314" 
d="M606 1554l-332 308l66 6l326 -314h-60zM684 0h-51v502l-576 942h60l540 -893l541 893h62l-576 -942v-502z" />
    <glyph glyph-name="ygrave" unicode="&#x1ef3;" horiz-adv-x="1241" 
d="M614 1245l-331 307l65 7l326 -314h-60zM92 -377v49h23q201 0 345 80t202 248h-68l-520 1102h55l496 -1053h55l426 1053h53l-469 -1161q-131 -317 -581 -318h-17z" />
    <glyph glyph-name="endash" unicode="&#x2013;" horiz-adv-x="1081" 
d="M979 700v-43h-877v43h877z" />
    <glyph glyph-name="emdash" unicode="&#x2014;" horiz-adv-x="1839" 
d="M1733 700v-43h-1631v43h1631z" />
    <glyph glyph-name="quoteleft" unicode="&#x2018;" horiz-adv-x="350" 
d="M172 1153q-53 0 -53 89q0 90 55 146t143 56l11 -29q-68 -4 -114 -43t-46 -125q20 0 34 -13q14 -12 13 -32q0 -20 -13 -35q-14 -14 -30 -14z" />
    <glyph glyph-name="quoteright" unicode="&#x2019;" horiz-adv-x="317" 
d="M201 1444q53 0 53 -89t-55 -145t-144 -57l-10 29q68 4 114 43t46 125q-20 0 -34 13q-13 13 -13 33t13 34q14 14 30 14z" />
    <glyph glyph-name="quotesinglbase" unicode="&#x201a;" horiz-adv-x="362" 
d="M174 94q53 0 53 -89t-55 -145t-143 -57l-11 29q68 4 114 43t46 125q-20 0 -34 13q-13 13 -13 33t13 34q14 14 30 14z" />
    <glyph glyph-name="quotedblleft" unicode="&#x201c;" horiz-adv-x="602" 
d="M150 1153q-54 0 -54 89q0 90 56 146t143 56l10 -29q-68 -4 -114 -43t-46 -125q19 0 33 -13q14 -12 14 -32t-12 -34q-14 -14 -30 -15zM410 1153q-54 0 -54 89q0 90 56 146t143 56l10 -29q-67 -4 -113 -43t-46 -125q20 0 33 -13q13 -12 13 -32t-12 -34q-14 -14 -30 -15z
" />
    <glyph glyph-name="quotedblright" unicode="&#x201d;" horiz-adv-x="585" 
d="M463 1444q53 0 53 -89t-55 -145t-144 -57l-10 29q68 4 114 43t46 125q-20 0 -34 13q-13 13 -13 33t13 34q14 14 30 14zM203 1444q53 0 53 -89t-55 -145t-144 -57l-10 29q68 4 114 43t46 125q-20 0 -34 13q-13 13 -13 33t13 34q14 14 30 14z" />
    <glyph glyph-name="quotedblbase" unicode="&#x201e;" horiz-adv-x="595" 
d="M440 94q54 0 54 -89t-56 -145t-143 -57l-10 29q67 4 113 43t46 125q-20 0 -33 13t-13 33t12 34q14 14 30 14zM180 94q53 0 53 -89t-55 -145t-143 -57l-10 29q67 4 113 43t46 125q-20 0 -33 13t-13 33t12 34q14 14 30 14z" />
    <glyph glyph-name="dagger" unicode="&#x2020;" horiz-adv-x="839" 
d="M444 1130v-256l9 -327h-58l8 327l-2 256h-53l-242 -10v66l242 -10h51l-2 237h56l-7 -237h43l246 8v-64l-246 10h-45z" />
    <glyph glyph-name="daggerdbl" unicode="&#x2021;" horiz-adv-x="880" 
d="M465 283h45l246 10v-64l-246 9h-43l6 -238h-55l2 238h-45l-248 -11v66l248 -10h47l2 256v335l-2 256h-53l-242 -10v66l242 -10h51l-2 237h55l-6 -237h43l246 8v-64l-244 10h-47v-847z" />
    <glyph glyph-name="bullet" unicode="&#x2022;" horiz-adv-x="735" 
d="M561 720q0 -81 -57 -137q-57 -57 -138 -57q-82 0 -138 56t-56 138q0 81 56 137t138 56t138 -56q57 -56 57 -137z" />
    <glyph glyph-name="ellipsis" unicode="&#x2026;" horiz-adv-x="962" 
d="M817 88q19 0 33 -13t14 -33t-13 -34t-33 -14t-35 13q-13 13 -13 33t13 35q14 13 34 13zM467 88q19 0 33 -13t14 -33t-13 -34t-33 -14t-35 13q-13 13 -13 33t13 35q14 13 34 13zM127 88q19 0 33 -13t14 -33t-13 -34t-33 -14t-35 13q-13 13 -13 33t13 35q14 13 34 13z" />
    <glyph glyph-name="perthousand" unicode="&#x2030;" horiz-adv-x="2607" 
d="M1360 1436h51l-989 -1436h-51zM2159 39q133 0 222 94t89 255t-89 254t-222 93t-223 -93t-89 -254q-1 -161 89 -255t223 -94zM2159 780q154 0 255 -105t101 -287t-102 -288t-254 -106t-254 106q-103 106 -103 288t102 286q102 106 255 106zM1352 39q133 0 222 94t89 255
t-89 254t-222 93q-132 0 -222 -93t-90 -254t90 -255t222 -94zM1352 780q154 0 255 -105t101 -287t-102 -288t-254 -106t-254 106t-102 288t100 286q102 106 256 106zM113 1058q0 -161 89 -255t222 -94t222 94t89 255t-89 254t-222 93t-222 -93t-89 -254zM424 1450
q154 0 255 -106t101 -286q0 -182 -102 -288t-254 -106t-254 106t-102 288t101 286q101 106 255 106z" />
    <glyph glyph-name="guilsinglleft" unicode="&#x2039;" horiz-adv-x="583" 
d="M422 20l-354 525l354 524l35 -25l-338 -499l338 -500z" />
    <glyph glyph-name="guilsinglright" unicode="&#x203a;" horiz-adv-x="536" 
d="M104 1069l355 -524l-355 -525l-34 25l338 500l-338 499z" />
    <glyph glyph-name="fraction" unicode="&#x2044;" horiz-adv-x="888" 
d="M922 1436h51l-989 -1436h-52z" />
    <glyph glyph-name="Euro" unicode="&#x20ac;" horiz-adv-x="1441" 
d="M872 45q142 0 268 67t214 181l41 -31q-95 -124 -231 -196t-292 -72q-236 0 -418 160t-233 403h-137v49h129q-8 48 -8 110t8 111h-129v50h137q49 247 231 407t420 160q156 0 292 -73t231 -197l-41 -31q-88 117 -214 183t-268 67q-215 -1 -383 -147t-217 -369h676v-50h-684
q-8 -49 -8 -110t8 -111h684v-49h-674q49 -223 216 -367t382 -145z" />
    <glyph glyph-name="uni2117" unicode="&#x2117;" horiz-adv-x="1771" 
 />
    <glyph glyph-name="trademark" unicode="&#x2122;" horiz-adv-x="1423" 
d="M588 1432v-46h-254v-593h-45v593h-256v46h555zM1360 1432v-639h-43v528l-293 -424l-293 424v-528h-43v639h19l317 -459l317 459h19z" />
    <glyph glyph-name="Omega" unicode="&#x2126;" horiz-adv-x="1720" 
d="M1597 735q0 -248 -135 -427t-317 -263h428v-45h-569v49q169 37 346 208q86 83 142 209t56 269q0 322 -193 494q-194 172 -495 172q-300 0 -494 -172t-194 -494q0 -143 56 -269t142 -209q175 -168 347 -208v-49h-570v45h426q-182 84 -316 263t-134 427q0 347 208 531
q207 184 529 184t530 -184q207 -185 207 -531z" />
    <glyph glyph-name="partialdiff" unicode="&#x2202;" horiz-adv-x="1355" 
d="M671 877q-214 0 -366 -109q-151 -109 -151 -297t158 -308t390 -120q184 0 332 136t148 308t-148 281t-363 109zM1260 633q0 -283 -162 -461t-406 -178t-416 132t-172 345t166 334t412 121q190 0 342 -91t184 -251l2 49q0 393 -154 580t-404 187t-412 -57l-25 43
q171 64 439 64t437 -199t169 -618z" />
    <glyph glyph-name="Delta" unicode="&#x2206;" horiz-adv-x="1443" 
d="M721 1391l-596 -1346h1192zM745 1444l646 -1444h-1338l645 1444h47z" />
    <glyph glyph-name="product" unicode="&#x220f;" horiz-adv-x="1490" 
d="M184 -330v1774h1123v-1774h-50v1729h-1024v-1729h-49z" />
    <glyph glyph-name="summation" unicode="&#x2211;" horiz-adv-x="1331" 
d="M141 1444h1102v-49h-1030l510 -836l-508 -840h1028v-49h-1102v25l525 864l-525 860v25z" />
    <glyph glyph-name="minus" unicode="&#x2212;" horiz-adv-x="1081" 
d="M956 700v-43h-835v43h835z" />
    <glyph glyph-name="radical" unicode="&#x221a;" horiz-adv-x="1609" 
d="M74 1141v49h280l520 -1118l850 1802h56l-885 -1874h-41l-530 1141h-250z" />
    <glyph glyph-name="infinity" unicode="&#x221e;" horiz-adv-x="1765" 
d="M170 748q0 -143 87 -220t209 -77t209 74q87 75 173 223q-86 147 -173 222q-87 74 -209 74t-209 -76t-87 -220zM1281 451q124 1 211 77t87 220t-87 220t-211 76t-207 -70t-173 -226q90 -156 173 -226t207 -71zM1624 748q0 -164 -100 -253t-240 -89t-228 70
q-89 70 -182 224q-90 -147 -182 -221t-209 -73q-158 0 -258 89t-100 253t100 252t258 90q117 0 209 -74t182 -223q92 157 182 227t228 70q140 0 240 -89t100 -253z" />
    <glyph glyph-name="integral" unicode="&#x222b;" horiz-adv-x="540" 
d="M547 1528h18v-45h-18q-106 0 -135 -43t-54 -199l-211 -1331q-28 -195 -63 -232t-78 -43t-92 -6h-18v45h18q106 0 135 43q28 43 53 199l211 1331q33 199 61 227q42 42 83 48t90 6z" />
    <glyph glyph-name="approxequal" unicode="&#x2248;" horiz-adv-x="1282" 
d="M910 938q114 0 189 58q26 19 66 57l17 -45q-43 -40 -72 -60q-86 -62 -180 -61q-94 0 -250 55t-242 55q-164 0 -276 -88l-17 43q129 96 301 97q106 1 251 -55t213 -56zM910 340q114 0 189 58q26 19 66 57l17 -45q-43 -40 -72 -60q-86 -62 -180 -61q-94 0 -250 55t-242 55
q-164 0 -276 -88l-17 43q129 96 301 97q106 1 251 -55t213 -56z" />
    <glyph glyph-name="notequal" unicode="&#x2260;" horiz-adv-x="1308" 
d="M170 365v43h297l287 555h-584v43h606l127 245h49l-127 -245h310v-43h-332l-287 -555h619v-43h-641l-134 -259h-49l133 259h-274z" />
    <glyph glyph-name="lessequal" unicode="&#x2264;" horiz-adv-x="1286" 
d="M1130 1311v-47l-913 -449l913 -446v-47l-976 479v30zM1130 43v-43h-976v43h976z" />
    <glyph glyph-name="greaterequal" unicode="&#x2265;" horiz-adv-x="1284" 
d="M154 322v47l911 446l-911 449v47l976 -480v-30zM1130 43v-43h-976v43h976z" />
    <glyph glyph-name="lozenge" unicode="&#x25ca;" horiz-adv-x="950" 
d="M119 772l344 -700l348 700l-348 701zM449 1544h30l383 -772l-383 -772h-30l-381 772z" />
    <glyph glyph-name="NULL" horiz-adv-x="0" 
 />
    <glyph glyph-name="CR" horiz-adv-x="567" 
 />
    <glyph glyph-name="intelligentdesign" horiz-adv-x="1980" 
d="M1700 -311q0 8 8 8t8 -8t-8 -8t-8 8zM461 -311q0 8 8 8t8 -8t-8 -8t-8 8zM1493 -231h8v-86h-8v86zM905 -231h8v-86h-8v86zM500 -231h8v-86h-8v86zM770 -231h8v-78h41v-8h-49v86zM838 -231h8v-78h41v-8h-49v86zM1210 -240h-26v9h61v-9h-26v-77h-9v77zM643 -240h-27v9h62
v-9h-27v-77h-8v77zM1473 -293q0 -25 -25 -24q-23 0 -31 18l6 4q5 -14 23 -14t18 16q0 11 -20 19t-21 22q0 23 23 23q16 0 22 -15l-6 -4q-6 10 -18 10t-12 -12t20 -19t21 -24zM1829 -291h14q25 4 25 28t-25 23h-14v-51zM1028 -231h53v-9h-45v-36h41v-9h-41v-24h45v-8h-53v86z
M1350 -231h53v-9h-45v-36h41v-9h-41v-24h45v-8h-53v86zM698 -231h54v-9h-45v-36h41v-9h-41v-24h45v-8h-54v86zM1774 -291v8h28v-22q-12 -12 -32 -12q-43 0 -46 43q0 18 14 31q31 30 62 -1l-6 -6q-8 12 -24 12t-27 -11q-10 -11 -10 -25t11 -24t25 -11l25 8v10h-20zM1569 -291
v8h28v-22q-12 -12 -32 -12t-33 12q-12 13 -12 31t13 31q32 32 62 -1l-6 -6q-10 12 -25 12q-16 0 -26 -11t-10 -25t11 -24t26 -11l24 8v10h-20zM981 -291v8h29v-22q-12 -12 -32 -12t-34 12q-12 13 -12 31t13 31q31 31 63 -1l-7 -6q-10 12 -25 12q-16 0 -26 -11t-10 -25
t11 -24t26 -11l24 8v10h-20zM590 -231h8v-86h-8l-51 73v-73h-9v86h9l51 -72v72zM1677 -231h9v-86h-9l-51 73v-73h-8v86h8l51 -72v72zM1159 -231h8v-86h-8l-51 73v-73h-8v86h8l51 -72v72zM174 -305l25 76h8l-29 -86h-8l-18 71l-17 -71h-8l-29 86h8l25 -76l16 76h9zM424 -305
l25 76h8l-29 -86h-8l-19 71l-16 -71h-8l-29 86h8l25 -76l16 76h9zM297 -305l25 76h8l-29 -86h-8l-19 71l-16 -71h-8l-29 86h8l25 -76l16 76h9zM1288 -309q14 0 25 10q10 11 10 25t-10 24t-25 10h-16v-69h16zM1331 184h-26v-65h22q35 1 35 33t-31 32zM1829 -299v-18h-8v86h22
q13 -1 23 -11t10 -28t-18 -25l20 -22h-12l-17 18h-20zM1135 88h14q16 0 28 13q11 13 11 33t-12 32q-12 14 -29 14h-12v-92zM1288 -231q18 1 30 -13t13 -31q0 -17 -13 -29t-30 -13h-24v86h24zM585 86q19 0 32 14t13 34t-12 34q-14 14 -33 14t-33 -13t-13 -33q0 -20 13 -36
q14 -14 33 -14zM479 225v-41h-37v-65h35v-35h-35v-39h-49v39h-10v35h10v106h86zM1524 45h-49v59l-68 119h55l37 -65l37 65h55l-67 -119v-59zM815 223h49v-106q0 -33 -24 -55t-59 -22q-33 0 -59 22t-26 55v106h49v-94q0 -43 35 -43t35 43v94zM1008 225h49v-180h-23l-96 92
v-92h-49v180h22l97 -94v94zM1237 135q0 -37 -25 -63t-59 -27h-68v180h62q39 -1 65 -27t25 -63zM1305 84v-39h-50v180h84q74 0 74 -69q1 -40 -24 -58q10 -10 30 -20l-18 -43q-37 14 -66 49h-30zM586 227q40 -1 68 -27t28 -65t-29 -67t-67 -27q-38 0 -68 28q-29 29 -29 67
t28 64t69 27zM944 965v274h-141v-274h141zM944 602v275h-141v-275h141zM1032 877v-269q98 18 164 94t66 175h-230zM1032 965h230q0 98 -66 175t-164 93v-268zM1569 921q0 -116 -65 -210t-169 -138q-43 -104 -137 -169q-94 -64 -211 -64t-211 64t-137 169q-104 43 -169 137
q-64 94 -64 211q0 116 64 211q65 95 169 136q43 104 137 169t211 65t211 -66q94 -64 137 -168q104 -41 169 -136t65 -211z" />
    </font>
</defs>
</svg>
