<?xml version="1.0" standalone="no"?>
<!DOCTYPE svg PUBLIC "-//W3C//DTD SVG 1.1//EN" "http://www.w3.org/Graphics/SVG/1.1/DTD/svg11.dtd" >
<svg xmlns="http://www.w3.org/2000/svg">
<metadata>
Created by FontPrep 20130207 at Wed Sep 24 10:46:57 2014
 By 1
Copyright (c) 2014 by Intelligent Design - Kostas Bartsokas. All rights reserved.
</metadata>
<defs>
<font id="50903ccde4896339dc5dfd301348fe14" horiz-adv-x='1024' >
  <font-face 
    font-family="ZonaPro-RegularItalic"
    font-weight="325"
    font-style="italic"
    font-stretch="normal"
    units-per-em="2048"
    panose-1="2 1 5 3 4 0 2 9 0 4"
    ascent="1690"
    descent="-358"
    x-height="1108"
    cap-height="1444"
    bbox="-305 -549 2613 2034"
    underline-thickness="40"
    underline-position="-231"
    slope="-11"
    unicode-range="U+0020-FB04"
  />
<missing-glyph horiz-adv-x="1024" 
 />
    <glyph glyph-name="f_igrave" unicode="f&#xec;" horiz-adv-x="1228" 
d="M8 -383q-59 0 -121 12l27 138q16 -2 55 -3q109 0 173 62t91 194l185 947h-187l27 141h186l23 115q18 93 61 157q44 64 94 98t130 52t139 21t156 3l241 -346h-123l-131 142q-14 16 -43 47t-43 47q-137 0 -216 -68t-99 -180l-19 -88h668l-213 -1108h-172l188 967h-497
l-197 -1016q-31 -160 -137 -247t-246 -87z" />
    <glyph glyph-name="f_f" unicode="ff" horiz-adv-x="1538" 
d="M1651 1409q-127 0 -189 -66t-84 -200l-6 -35h357l-27 -141h-359l-190 -981q-31 -160 -137 -247t-246 -87q-72 0 -123 10l27 139q33 -4 57 -4q217 0 266 258l177 912h-586l-197 -1016q-33 -164 -145 -249t-254 -85l-107 10l29 137q33 -2 55 -2q215 0 264 258l185 947h-187
l27 141h186l7 31q35 184 142 276q108 92 249 92q102 0 217 -32l-25 -129q-94 16 -185 16t-141 -56t-87 -178l-7 -20h586l12 63q38 193 136 288t236 95t241 -30l-27 -129q-72 14 -147 14z" />
    <glyph glyph-name="f_i" unicode="fi" horiz-adv-x="1228" 
d="M1246 1292q-44 0 -72 29t-27 74q0 45 34 77t77 31q42 -1 72 -29t30 -72t-35 -77t-79 -33zM878 1409q-118 0 -174 -70t-90 -231h668l-213 -1108h-172l188 967h-497l-197 -1016q-31 -160 -137 -247t-246 -87q-59 0 -121 12l27 138q16 -2 55 -3q109 0 173 62t91 194l185 947
h-187l27 141h186l11 53q76 391 385 391q153 1 229 -28l-27 -129q-46 14 -164 14z" />
    <glyph glyph-name="f_l" unicode="fl" horiz-adv-x="1267" 
d="M977 1554q180 0 272 -91t92 -234q0 -39 -16 -121l-215 -1108h-172l207 1067q20 109 20 150q0 92 -58 144t-157 52q-152 0 -228 -71t-108 -234h357l-27 -141h-356l-197 -1016q-33 -166 -147 -249t-262 -83q-23 0 -57 4t-40 4l29 137l55 -2q215 0 264 258l185 947h-187
l27 141h186q43 218 167 332t366 114z" />
    <glyph glyph-name="f_f_i" unicode="ffi" horiz-adv-x="2000" 
d="M2130 1402q0 -44 -35 -77t-78 -33t-71 29t-29 74q0 45 35 78t78 33q44 0 72 -30t28 -74zM743 -346q-55 0 -96 10l27 137q16 -2 57 -2q111 1 175 61t91 195l177 912h-586l-197 -1016q-31 -160 -137 -247t-246 -87q-59 0 -121 12l27 138q16 -2 55 -3q109 0 173 62t91 194
l185 947h-187l27 141h186l7 31q37 188 143 278t248 90q102 0 217 -32l-25 -129q-94 16 -185 16t-144 -56t-84 -176l-7 -22h586l10 51q80 395 398 395q102 0 217 -32l-27 -129q-72 14 -147 14q-127 0 -189 -67t-86 -197l-6 -35h684l-213 -1108h-172l189 967h-515l-190 -981
q-33 -170 -145 -251t-265 -81z" />
    <glyph glyph-name="f_f_l" unicode="ffl" horiz-adv-x="2025" 
d="M1735 1554q155 0 263 -78t107 -221q0 -37 -20 -133l-219 -1122h-172l215 1092q18 86 18 122q0 96 -60 148t-172 51q-112 0 -198 -53t-108 -164l-19 -88h356l-26 -141h-357l-190 -981q-33 -170 -145 -251t-265 -81q-47 0 -96 8l27 139q33 -4 57 -4q217 0 266 258l177 912
h-586l-197 -1016q-31 -160 -137 -247t-246 -87q-41 0 -123 10l29 137q33 -2 55 -2q215 0 264 258l185 947h-187l27 141h186l13 66q29 160 137 246t237 87q130 0 228 -32l-25 -129q-94 16 -174 16q-195 0 -233 -195l-13 -59h586l19 90q35 166 172 261t344 95z" />
    <glyph glyph-name=".notdef" horiz-adv-x="1024" 
 />
    <glyph glyph-name=".null" horiz-adv-x="0" 
 />
    <glyph glyph-name="nonmarkingreturn" horiz-adv-x="681" 
 />
    <glyph glyph-name="space" unicode=" " horiz-adv-x="659" 
 />
    <glyph glyph-name="exclam" unicode="!" horiz-adv-x="464" 
d="M260 201q43 0 73 -29q29 -29 29 -74t-34 -78q-34 -32 -79 -32q-44 0 -72 28q-27 28 -27 74q0 45 33 78q34 33 77 33zM371 414h-113l166 1028h176z" />
    <glyph glyph-name="quotedbl" unicode="&#x22;" horiz-adv-x="712" 
d="M238 854l149 580h186l-243 -580h-92zM588 854l149 580h187l-244 -580h-92z" />
    <glyph glyph-name="numbersign" unicode="#" horiz-adv-x="1392" 
d="M940 528l147 406h-368l-148 -406h369zM1270 1075h270l-27 -141h-294l-150 -406h299l-27 -141h-323l-139 -381h-129l139 381h-371l-139 -381h-129l139 381h-254l29 141h276l148 406h-281l29 141h303l121 330h131l-121 -330h369l121 330h131z" />
    <glyph glyph-name="dollar" unicode="$" horiz-adv-x="1312" 
d="M1114 430q0 78 -72 122t-208 79l-97 -496q149 8 263 83t114 212zM506 1028q0 -82 70 -126t202 -79l94 484q-202 -9 -308 -131q-58 -66 -58 -148zM322 983q0 139 87 251q167 215 492 224l17 82h92l-17 -84q252 -18 424 -110l-100 -140q-137 76 -352 94l-101 -501
q213 -51 324 -123q110 -72 110 -214t-90 -254q-169 -211 -501 -224l-25 -129h-92l24 129q-150 4 -248 30t-235 103l92 135q119 -63 207 -88t215 -29l100 518q-211 55 -317 123t-106 207z" />
    <glyph glyph-name="percent" unicode="%" horiz-adv-x="1841" 
d="M1399 104q133 0 223 112t90 259q0 88 -51 137t-133 50q-133 0 -225 -102t-93 -253q0 -95 52 -149t137 -54zM1386 -12q-132 0 -212 85t-80 234q0 197 133 334t313 137q129 0 209 -81t80 -222q-1 -193 -131 -340t-312 -147zM592 782q133 0 223 112t90 259q0 88 -51 137
t-133 49q-133 0 -225 -102t-93 -252q1 -95 53 -149t136 -54zM1628 1436h131l-1267 -1436h-132zM580 666q-131 0 -212 85t-81 234q0 197 133 334t313 137q129 0 209 -81t80 -222q0 -193 -130 -340t-312 -147z" />
    <glyph glyph-name="ampersand" unicode="&#x26;" horiz-adv-x="1398" 
d="M330 322q0 -84 79 -140t227 -55q148 0 320 135l-323 389q-303 -123 -303 -329zM862 1325q-104 0 -186 -93t-82 -192t59 -174q20 -27 58 -69q143 43 252 132t108 218q0 78 -52 128q-53 50 -157 50zM588 -8q-206 0 -319 84q-112 84 -111 231q0 295 397 449
q-111 147 -111 274q0 172 134 297t306 125q173 0 250 -86t76 -215q0 -225 -278 -378q-70 -38 -150 -68l287 -345q106 92 272 293l117 -43q-161 -201 -313 -344l153 -180l-122 -96l-144 176q-238 -174 -444 -174z" />
    <glyph glyph-name="quotesingle" unicode="'" horiz-adv-x="423" 
d="M268 854l150 580h190l-246 -580h-94z" />
    <glyph glyph-name="parenleft" unicode="(" horiz-adv-x="819" 
d="M379 455q0 -373 346 -592l-78 -101q-428 244 -428 672q0 344 214 614t546 429l39 -101q-289 -158 -464 -396t-175 -525z" />
    <glyph glyph-name="parenright" unicode=")" horiz-adv-x="819" 
d="M674 780q0 371 -340 596l78 101q206 -119 318 -298t112 -380q0 -380 -229 -643q-209 -242 -533 -394l-39 101q285 155 459 391t174 526z" />
    <glyph glyph-name="asterisk" unicode="*" horiz-adv-x="845" 
d="M940 938l-66 -86l-217 156l-45 -291h-98l70 291l-277 -156l-33 86l285 133l-233 135l67 86l215 -157l45 292h99l-70 -292l279 157l30 -86l-284 -135z" />
    <glyph glyph-name="plus" unicode="+" horiz-adv-x="1310" 
d="M1329 831l-26 -141h-441l-86 -440h-141l86 440h-440l26 141h441l86 441h141l-86 -441h440z" />
    <glyph glyph-name="comma" unicode="," horiz-adv-x="391" 
d="M227 201q86 0 86 -99q0 -154 -101 -255t-230 -107l-13 74q76 6 130 53t75 123q-74 10 -74 84q0 51 38 89t89 38z" />
    <glyph glyph-name="hyphen" unicode="-" horiz-adv-x="835" 
d="M885 752l-27 -144h-645l27 144h645z" />
    <glyph glyph-name="period" unicode="." horiz-adv-x="376" 
d="M207 201q43 0 71 -29t29 -74q0 -45 -35 -78q-36 -32 -78 -32t-71 28t-29 74q0 45 35 78t78 33z" />
    <glyph glyph-name="slash" unicode="/" horiz-adv-x="942" 
d="M-111 -262l1274 1896h148l-1276 -1896h-146z" />
    <glyph glyph-name="zero" unicode="0" horiz-adv-x="1495" 
d="M393 580q1 -209 103 -323t278 -114t320 112q143 113 217 273t73 322q0 207 -103 328q-103 120 -279 120t-319 -114q-142 -114 -216 -277q-74 -164 -74 -327zM1030 1454q238 0 380 -152t142 -392t-99 -447t-287 -341t-428 -134t-378 155q-137 156 -137 412q0 168 60 329
q126 345 417 492q154 78 330 78z" />
    <glyph glyph-name="one" unicode="1" horiz-adv-x="802" 
d="M764 1444h96l-280 -1444h-177l248 1278l-323 -70l-9 142z" />
    <glyph glyph-name="two" unicode="2" horiz-adv-x="1277" 
d="M1192 1000q0 126 -83 211t-241 85t-284 -108q-127 -108 -162 -299h-156l6 33q47 242 214 388t427 146q193 0 320 -122t127 -312q0 -137 -51 -248q-51 -112 -130 -180q-160 -139 -401 -240q-241 -102 -350 -204h778l-28 -150h-1084l15 72q96 112 226 204t244 144
q297 137 428 224q185 120 185 356z" />
    <glyph glyph-name="three" unicode="3" horiz-adv-x="1259" 
d="M1272 526q0 -138 -62 -246t-162 -169q-207 -125 -468 -123q-150 0 -252 19t-209 73l92 137q172 -80 428 -80q180 1 320 101t141 270q0 98 -83 167t-267 68h-70l-18 72l479 479h-746l29 150h999l-16 -84l-502 -506q171 -16 269 -103t98 -225z" />
    <glyph glyph-name="four" unicode="4" horiz-adv-x="1349" 
d="M416 514h567l129 655zM1155 514h219l-28 -147h-220l-69 -367h-172l69 367h-786l-18 82l1054 995h133z" />
    <glyph glyph-name="five" unicode="5" horiz-adv-x="1267" 
d="M647 137q188 0 327 113q138 113 138 295q0 111 -79 179t-230 69q-90 0 -217 -24t-197 -46l-67 45l147 676h932l-31 -152h-778l-94 -422q193 60 382 60t297 -100t107 -265q0 -279 -196 -429t-476 -150q-166 0 -274 18t-219 70l90 137q170 -74 438 -74z" />
    <glyph glyph-name="six" unicode="6" horiz-adv-x="1359" 
d="M841 782q-165 0 -309 -96t-143 -254q0 -117 91 -202t227 -85q190 0 337 115t148 295q0 115 -93 171t-258 56zM922 932q188 0 315 -92t127 -262q0 -268 -206 -430t-478 -160q-205 0 -330 139t-125 367q0 422 220 689t561 267q147 0 245 -36t193 -107l-103 -129
q-156 127 -362 127q-160 1 -287 -89q-126 -90 -194 -217t-84 -268q174 201 508 201z" />
    <glyph glyph-name="seven" unicode="7" horiz-adv-x="1198" 
d="M381 1444h1030l-16 -84l-959 -1360h-190l913 1294h-809z" />
    <glyph glyph-name="eight" unicode="8" horiz-adv-x="1298" 
d="M658 139q136 0 237 33q100 33 171 110q71 76 71 186q-1 110 -97 170t-232 60t-237 -32q-100 -32 -171 -111q-70 -77 -70 -189t96 -170t232 -57zM909 1300q-214 0 -322 -110q-61 -60 -61 -150t79 -142t219 -52t256 73t116 205q0 176 -287 176zM1307 470q1 -120 -59 -218
t-158 -154q-199 -113 -424 -111q-226 1 -367 96t-141 260t110 283q111 118 273 158q-78 29 -124 94t-46 163t53 183q92 147 324 202q96 24 196 24q184 0 298 -73t114 -215t-81 -242t-206 -136q106 -30 172 -112t66 -202z" />
    <glyph glyph-name="nine" unicode="9" horiz-adv-x="1357" 
d="M717 512q-164 0 -296 96t-132 273q0 251 188 411t453 160q223 0 353 -135t130 -385t-100 -466q-101 -216 -279 -347t-412 -131t-427 149l104 129q156 -127 363 -127q119 -1 223 57q182 101 284 331q43 95 58 184q-68 -91 -207 -145t-303 -54zM810 662q163 0 302 100
t139 254q0 123 -92 208t-227 85q-184 0 -328 -114t-143 -288q0 -121 93 -183t256 -62z" />
    <glyph glyph-name="colon" unicode=":" horiz-adv-x="452" 
d="M420 1104q44 0 72 -28t28 -74q0 -45 -35 -78t-77 -33t-72 29q-29 30 -29 74t35 77t78 33zM242 201q44 0 72 -29t28 -74t-35 -78q-35 -32 -78 -32t-71 28t-29 74q0 45 35 78t78 33z" />
    <glyph glyph-name="semicolon" unicode=";" horiz-adv-x="448" 
d="M258 201q84 0 84 -119q-14 -152 -108 -243t-222 -99l-12 74q74 6 129 53t76 123q-74 10 -74 84q0 51 38 89t89 38zM418 1104q42 0 72 -28t30 -74q0 -45 -35 -78t-79 -33t-71 29q-28 30 -28 74t34 77t77 33z" />
    <glyph glyph-name="less" unicode="&#x3c;" horiz-adv-x="1265" 
d="M1352 1243l-31 -160l-836 -368l695 -367l-33 -160l-897 486l16 84z" />
    <glyph glyph-name="equal" unicode="=" horiz-adv-x="1282" 
d="M358 1077h979l-28 -143h-979zM215 342l29 143h979l-29 -143h-979z" />
    <glyph glyph-name="greater" unicode="&#x3e;" horiz-adv-x="1267" 
d="M203 188l33 160l833 367l-692 368l33 160l897 -485l-17 -84z" />
    <glyph glyph-name="question" unicode="?" horiz-adv-x="1105" 
d="M379 90q0 45 35 78t77 33q41 0 71 -29t29 -74t-35 -78q-34 -32 -78 -32t-72 28t-27 74zM774 1456q213 0 332 -98t119 -277q0 -217 -167 -343t-399 -130l-53 -223h-123l47 295l27 41h57q178 0 316 89q137 89 137 249q0 115 -86 183t-229 67q-238 0 -435 -90l-34 133
q129 60 233 82t258 22z" />
    <glyph glyph-name="at" unicode="@" horiz-adv-x="1976" 
d="M922 274q158 0 288 146t129 301q0 99 -60 161t-157 62q-160 0 -286 -142t-127 -300q1 -100 59 -164t154 -64zM1282 1483q317 0 526 -202t209 -505q0 -166 -61 -316q-62 -150 -190 -253q-128 -102 -296 -103q-213 0 -213 166q0 35 9 68q-84 -96 -188 -152t-210 -57
q-147 0 -230 93t-83 237q0 233 174 432t406 199q115 0 191 -62t95 -168l66 189l139 -23q-199 -572 -216 -624t-17 -89q0 -113 127 -112q168 0 288 177t121 370q0 284 -182 466q-181 182 -455 182t-501 -138t-361 -361t-135 -465q0 -293 177 -477q176 -184 486 -184t564 186
l14 -18q23 -31 29 -37q-289 -215 -626 -215q-337 1 -541 205t-203 524q-1 280 153 528t404 394t530 145z" />
    <glyph glyph-name="A" unicode="A" 
d="M987 1204l-442 -698h616zM1288 0l-92 362h-743l-230 -362h-184l948 1444h96l390 -1444h-185z" />
    <glyph glyph-name="B" unicode="B" horiz-adv-x="1435" 
d="M856 150q170 0 288 106t118 246t-76 219q-76 80 -230 80h-454l-127 -651h481zM918 934q84 0 143 63t59 137t-50 116q-50 44 -132 44h-342l-72 -360h394zM1442 516q0 -212 -158 -364t-375 -152h-735l281 1444h569q119 0 193 -71t73 -185q0 -80 -44 -156t-111 -114
q151 -18 229 -130t78 -272z" />
    <glyph glyph-name="C" unicode="C" horiz-adv-x="1548" 
d="M905 152q133 0 262 60t226 163l110 -113q-125 -127 -290 -201t-334 -73q-268 0 -456 181q-187 181 -187 432t119 448q120 197 319 303q198 106 406 106t356 -74t233 -200l-147 -115q-64 101 -182 163t-261 62q-270 0 -466 -196t-195 -465q0 -207 137 -344t350 -137z" />
    <glyph glyph-name="D" unicode="D" 
d="M735 158q250 0 444 202t193 451q0 213 -119 344t-329 131h-332l-219 -1128h362zM1554 842q0 -215 -116 -411q-116 -195 -309 -313q-194 -118 -406 -118h-549l279 1444h499q252 0 427 -167t175 -435z" />
    <glyph glyph-name="E" unicode="E" horiz-adv-x="1318" 
d="M373 150h874l-28 -150h-1045l281 1444h1001l-29 -150h-831l-102 -520h704l-27 -147h-704z" />
    <glyph glyph-name="F" unicode="F" horiz-adv-x="1286" 
d="M1448 1294h-852l-125 -641h737l-26 -149h-740l-98 -504h-170l281 1444h1022z" />
    <glyph glyph-name="G" unicode="G" horiz-adv-x="1619" 
d="M864 -12q-276 0 -452 165t-176 409t129 451q129 205 342 323t452 118q350 0 531 -207l-136 -121q-150 166 -428 166t-495 -211t-217 -489q0 -193 136 -321t368 -128t456 142l53 272h-483l27 135h659l-96 -493q-309 -211 -670 -211z" />
    <glyph glyph-name="H" unicode="H" 
d="M1444 1444h172l-281 -1444h-172l107 555h-819l-107 -555h-170l281 1444h170l-144 -739h819z" />
    <glyph glyph-name="I" unicode="I" horiz-adv-x="530" 
d="M635 1444l-281 -1444h-178l281 1444h178z" />
    <glyph glyph-name="J" unicode="J" horiz-adv-x="1216" 
d="M1169 1444h174l-167 -854q-56 -289 -220 -446t-409 -156q-193 0 -305 123t-111 313l158 14q0 -127 78 -208t208 -80q162 0 273 110t145 289z" />
    <glyph glyph-name="K" unicode="K" horiz-adv-x="1429" 
d="M850 739l514 -739h-234l-421 610l-299 -268l-66 -342h-170l281 1444h170l-166 -858l952 858h215z" />
    <glyph glyph-name="L" unicode="L" horiz-adv-x="1226" 
d="M377 145h801l-27 -145h-977l281 1444h176z" />
    <glyph glyph-name="M" unicode="M" horiz-adv-x="1785" 
d="M1800 1444h92l-280 -1444h-176l202 1044l-708 -851l-377 851l-203 -1044h-176l281 1444h92l440 -959z" />
    <glyph glyph-name="N" unicode="N" horiz-adv-x="1583" 
d="M1516 1444h174l-281 -1444h-92l-752 1114l-215 -1114h-176l281 1444h92l751 -1114z" />
    <glyph glyph-name="O" unicode="O" horiz-adv-x="1740" 
d="M928 150q274 0 470 181t195 464q0 211 -146 354t-368 143q-283 0 -474 -196t-191 -465q0 -205 146 -343t368 -138zM1096 1454q290 0 484 -185t194 -458q0 -369 -252 -596t-611 -227q-291 0 -485 181t-193 447q0 344 244 591t619 247z" />
    <glyph glyph-name="P" unicode="P" horiz-adv-x="1351" 
d="M788 588q217 0 361 125q143 125 143 329q0 123 -74 188q-75 65 -247 64h-371l-137 -706h325zM1026 1444q234 0 340 -106t107 -277q0 -297 -195 -458t-502 -161h-342l-84 -442h-176l281 1444h571z" />
    <glyph glyph-name="Q" unicode="Q" horiz-adv-x="1740" 
d="M926 150q168 0 315 73l-106 107l98 102l119 -119q111 80 175 204q65 124 64 278q0 211 -146 354t-368 143q-283 0 -474 -194t-191 -461q0 -207 146 -347t368 -140zM909 -12q-291 0 -485 182t-193 453q0 219 112 409q111 190 311 306t440 116q290 0 484 -185t194 -458
q0 -375 -297 -614l114 -113l-98 -100l-127 125q-209 -121 -455 -121z" />
    <glyph glyph-name="R" unicode="R" horiz-adv-x="1400" 
d="M811 588q219 0 361 118t143 314q0 137 -75 206t-247 68h-393l-137 -706h348zM758 442h-324l-84 -442h-176l281 1444h532q266 0 387 -104t121 -281q0 -217 -114 -367t-314 -211l272 -481h-211l-243 446q-82 -4 -127 -4z" />
    <glyph glyph-name="S" unicode="S" horiz-adv-x="1310" 
d="M707 135q157 0 281 74t124 209q0 96 -96 145q-68 37 -210 73t-212 60q-72 24 -144 64q-142 77 -141 227q0 151 91 261q173 210 505 210q283 0 496 -110l-94 -140q-82 45 -206 73t-249 28t-243 -75t-117 -202q0 -86 88 -135t288 -101t312 -129t112 -215t-61 -234
q-61 -95 -163 -143q-197 -93 -427 -91q-158 0 -262 26t-248 107l88 135q135 -72 233 -94t255 -23z" />
    <glyph glyph-name="T" unicode="T" horiz-adv-x="1351" 
d="M1544 1444l-31 -150h-495l-250 -1294h-178l252 1294h-496l31 150h1167z" />
    <glyph glyph-name="U" unicode="U" horiz-adv-x="1546" 
d="M799 147q211 0 348 126t180 343l162 828h170l-168 -864q-47 -266 -237 -426t-451 -160q-260 0 -397 121t-138 342q0 55 19 147l159 840h172q-165 -835 -172 -957q0 -340 353 -340z" />
    <glyph glyph-name="V" unicode="V" horiz-adv-x="1556" 
d="M838 289l749 1155h193l-953 -1444h-88l-391 1444h191z" />
    <glyph glyph-name="W" unicode="W" horiz-adv-x="2287" 
d="M2497 1444l-836 -1444h-80l-221 1153l-668 -1153h-80l-276 1444h188l195 -1118l657 1118h82l217 -1118l633 1118h189z" />
    <glyph glyph-name="X" unicode="X" horiz-adv-x="1449" 
d="M897 854l569 590h199l-682 -719l408 -725h-203l-344 594l-572 -594h-202l688 725l-400 719h199z" />
    <glyph glyph-name="Y" unicode="Y" horiz-adv-x="1374" 
d="M1419 1444h203l-750 -948l-96 -496h-176l94 496l-379 948h201l303 -766z" />
    <glyph glyph-name="Z" unicode="Z" horiz-adv-x="1359" 
d="M1538 1444l-16 -78l-1143 -1216h917l-28 -150h-1172l15 76l1142 1218h-858l31 150h1112z" />
    <glyph glyph-name="bracketleft" unicode="[" horiz-adv-x="696" 
d="M891 1309h-318l-278 -1442h315l-24 -127h-461l330 1696h460z" />
    <glyph glyph-name="backslash" unicode="\" horiz-adv-x="925" 
d="M809 -262l-539 1896h146l538 -1896h-145z" />
    <glyph glyph-name="bracketright" unicode="]" horiz-adv-x="718" 
d="M53 -133h318l278 1442h-315l26 127h459l-330 -1696h-458z" />
    <glyph glyph-name="asciicircum" unicode="^" horiz-adv-x="927" 
d="M406 1004h-132l431 440h83l259 -440h-134l-190 327z" />
    <glyph glyph-name="underscore" unicode="_" horiz-adv-x="1198" 
d="M1190 -63l-21 -105h-1208l21 105h1208z" />
    <glyph glyph-name="grave" unicode="`" horiz-adv-x="935" 
d="M874 1546l-294 322l194 14l219 -336h-119z" />
    <glyph glyph-name="a" unicode="a" horiz-adv-x="1370" 
d="M886 977q-214 0 -368 -158t-153 -358q0 -143 96 -233t254 -89q219 0 385 129l110 576q-110 133 -324 133zM666 -12q-216 0 -344 124t-127 322q0 281 205 488q206 207 483 206q223 0 358 -122l21 102h170l-215 -1108h-168l20 111q-187 -123 -403 -123z" />
    <glyph glyph-name="b" unicode="b" horiz-adv-x="1372" 
d="M702 139q212 0 366 158t155 356q-1 141 -97 233t-254 91q-221 0 -383 -129l-112 -576q113 -133 325 -133zM924 1128q213 0 341 -122t128 -320q0 -293 -207 -496t-479 -202q-229 0 -363 121l-18 -109h-170l299 1544h170l-105 -532q191 116 404 116z" />
    <glyph glyph-name="c" unicode="c" horiz-adv-x="1193" 
d="M688 -8q-223 0 -360 125t-138 319q0 316 212 504t509 188q256 0 377 -200l-131 -103q-89 152 -287 152q-198 -1 -355 -147t-157 -367q0 -139 102 -231t273 -93q170 0 322 156l88 -102q-197 -201 -455 -201z" />
    <glyph glyph-name="d" unicode="d" horiz-adv-x="1372" 
d="M715 139q219 0 385 133l110 576q-114 129 -326 129t-367 -160t-155 -358q0 -143 98 -231t255 -89zM193 440q0 276 210 483q211 206 478 205q219 0 362 -116l105 532h168l-299 -1544h-168l18 106q-164 -114 -391 -114t-355 119t-128 329z" />
    <glyph glyph-name="e" unicode="e" horiz-adv-x="1284" 
d="M1153 692q0 137 -82 217q-81 80 -231 80t-276 -100t-177 -252h762q4 37 4 55zM356 465q0 -147 96 -237t248 -91q238 0 394 162l94 -90q-211 -221 -535 -221q-217 0 -339 126t-121 324q0 279 199 485q200 206 482 205q209 0 324 -120t115 -316q0 -75 -25 -188h-930
q-2 -12 -2 -39z" />
    <glyph glyph-name="f" unicode="f" horiz-adv-x="780" 
d="M895 1409q-135 0 -191 -70t-90 -231h357l-27 -141h-356l-189 -977q-72 -373 -391 -373q-68 0 -123 10l29 137l55 -2q109 0 173 60t91 198l185 947h-187l27 141h186l11 51q78 395 364 395q146 1 250 -30l-27 -129q-72 14 -147 14z" />
    <glyph glyph-name="g" unicode="g" horiz-adv-x="1372" 
d="M362 471q0 -133 100 -219t263 -86q221 0 377 123l106 557q-110 131 -322 131q-212 -1 -368 -155t-156 -351zM541 -381q-197 0 -406 70l58 127q338 -109 572 -32q164 54 248 205q34 60 50 134q-188 -111 -400 -111t-340 121t-128 318q1 283 205 481t481 196
q223 0 360 -120l19 100h170l-185 -948q-106 -541 -704 -541z" />
    <glyph glyph-name="h" unicode="h" horiz-adv-x="1304" 
d="M520 1008q172 122 378 122q411 -1 413 -350q0 -66 -19 -162l-121 -616h-170l121 616q12 74 13 111q0 123 -74 186t-203 64q-197 0 -369 -125l-163 -854h-170l299 1544h170z" />
    <glyph glyph-name="i" unicode="i" horiz-adv-x="491" 
d="M519 1503q44 -1 73 -29t29 -72t-35 -77t-78 -33t-72 29q-28 29 -28 74t34 77t77 31zM160 0l213 1108h170l-213 -1108h-170z" />
    <glyph glyph-name="j" unicode="j" horiz-adv-x="489" 
d="M618 1403q0 -45 -34 -78t-78 -33q-43 0 -72 29q-28 29 -28 74t34 77t77 31q44 0 73 -27q28 -28 28 -73zM-63 -383q-59 0 -121 12l26 138q16 -2 56 -3q109 0 173 62t91 194l211 1088h170l-224 -1157q-31 -160 -139 -247t-243 -87z" />
    <glyph glyph-name="k" unicode="k" horiz-adv-x="1247" 
d="M911 682l299 -682h-192l-246 553l-401 -322l-45 -231h-170l299 1544h170l-211 -1089l800 653h207z" />
    <glyph glyph-name="l" unicode="l" horiz-adv-x="489" 
d="M158 0l299 1544h172l-299 -1544h-172z" />
    <glyph glyph-name="m" unicode="m" horiz-adv-x="2033" 
d="M1268 764q0 -47 -21 -150l-117 -614h-169l118 616q12 55 13 115q0 119 -66 182t-180 64q-190 0 -357 -125l-163 -852h-170l215 1108h168l-19 -107q162 127 381 127q250 0 332 -165q178 166 412 165q188 0 291 -88t104 -262q0 -66 -19 -162l-118 -616h-170l118 616
q12 66 13 109q0 123 -74 187t-201 65q-171 0 -325 -129q4 -37 4 -84z" />
    <glyph glyph-name="n" unicode="n" horiz-adv-x="1306" 
d="M896 1128q412 0 415 -350q0 -66 -19 -162l-121 -616h-170l121 616q12 74 13 111q0 123 -74 186t-203 64q-197 0 -369 -125l-163 -852h-170l213 1108h170l-21 -107q172 127 378 127z" />
    <glyph glyph-name="o" unicode="o" horiz-adv-x="1386" 
d="M727 139q211 0 367 133t155 367q0 143 -104 241t-262 97q-229 1 -373 -147t-145 -353q0 -141 102 -239t260 -99zM899 1128q221 0 371 -137t149 -332q0 -163 -61 -295q-60 -132 -162 -212q-208 -164 -485 -164q-217 0 -368 138t-150 331q0 281 192 476t514 195z" />
    <glyph glyph-name="p" unicode="p" horiz-adv-x="1376" 
d="M700 139q214 0 370 158t155 356q1 141 -97 233t-256 91q-219 0 -385 -133l-110 -576q109 -129 323 -129zM919 1128q218 0 347 -122t129 -322q0 -280 -210 -488t-478 -208q-223 0 -363 116l-90 -462h-170l285 1466h170l-19 -100q181 120 399 120z" />
    <glyph glyph-name="q" unicode="q" horiz-adv-x="1376" 
d="M362 457q0 -139 100 -227t261 -87q219 0 379 125l110 576q-112 133 -326 133q-214 1 -369 -159t-155 -361zM197 440q0 287 209 488t477 200q221 0 362 -120l19 100h170l-285 -1466h-170l90 462q-168 -110 -391 -110t-352 116t-129 330z" />
    <glyph glyph-name="r" unicode="r" horiz-adv-x="890" 
d="M539 1108l-41 -217q164 238 409 237q68 0 131 -32l-47 -176q-78 33 -153 32q-152 0 -262 -112t-142 -279l-108 -561h-170l215 1108h168z" />
    <glyph glyph-name="s" unicode="s" horiz-adv-x="1083" 
d="M582 125q121 0 220 56t99 159q0 61 -67 95q-68 34 -230 69t-254 88q-90 53 -90 160q0 174 146 275t340 101q196 0 393 -86l-82 -127q-154 74 -350 74q-107 0 -197 -52t-92 -140q0 -59 66 -92t230 -67q166 -34 256 -91t91 -163q0 -106 -47 -186q-80 -138 -290 -190
q-85 -20 -173 -20q-236 0 -447 102l91 127q211 -92 387 -92z" />
    <glyph glyph-name="t" unicode="t" horiz-adv-x="823" 
d="M461 268q0 -133 178 -133q92 0 160 15l-25 -130q-98 -32 -217 -32t-198 60t-78 190q0 37 12 98l123 631h-185l27 141h184l84 436h172l-86 -436h377l-26 -141h-377l-119 -643q-6 -31 -6 -56z" />
    <glyph glyph-name="u" unicode="u" horiz-adv-x="1320" 
d="M606 -8q-182 0 -287 85q-104 85 -104 240q-1 92 19 194t31 159t37 189t48 249h170q-131 -666 -131 -721q0 -121 74 -184t203 -64q201 0 381 133l163 836h168l-213 -1108h-170l23 115q-164 -123 -412 -123z" />
    <glyph glyph-name="v" unicode="v" horiz-adv-x="1253" 
d="M1241 1108h180l-749 -1108h-86l-326 1108h180l242 -832z" />
    <glyph glyph-name="w" unicode="w" horiz-adv-x="1746" 
d="M1755 1108h172l-639 -1108h-88l-162 852l-489 -852h-88l-213 1108h172l153 -832l467 832h93l147 -832z" />
    <glyph glyph-name="x" unicode="x" horiz-adv-x="1193" 
d="M680 422l-436 -422h-189l555 559l-340 549h197l264 -422l430 422h197l-553 -549l342 -559h-193z" />
    <glyph glyph-name="y" unicode="y" horiz-adv-x="1318" 
d="M662 139q203 0 382 133l162 836h170l-145 -756q-55 -287 -105 -399q-146 -336 -575 -336q-143 0 -197 8q-53 8 -67 10q-14 3 -48 11t-43 11l-50 15t-52 17l58 127q212 -66 358 -66t232 31q187 68 272 332q-176 -125 -408 -125q-184 0 -290 90q-105 90 -105 254q0 31 2 47
l135 729h170l-127 -702q-4 -20 -4 -56q1 -211 275 -211z" />
    <glyph glyph-name="z" unicode="z" horiz-adv-x="1191" 
d="M1317 1024l-948 -885h768l-25 -139h-1026l16 88l947 879h-740l27 141h997z" />
    <glyph glyph-name="braceleft" unicode="{" horiz-adv-x="847" 
d="M582 401q0 -89 -39 -249t-39 -229t60 -95t179 -27l-24 -114q-272 -1 -329 91q-26 42 -26 116t38 232q38 159 38 242q0 82 -57 112t-217 30l24 127q206 0 265 55q27 24 44 46q34 43 79 276l28 151q39 210 215 258q92 25 240 25l-23 -115q-143 0 -213 -46t-94 -177
l-37 -190q-33 -164 -83 -243t-152 -104q123 -29 123 -172z" />
    <glyph glyph-name="bar" unicode="|" horiz-adv-x="583" 
d="M164 -262l368 1896h136l-369 -1896h-135z" />
    <glyph glyph-name="braceright" unicode="}" horiz-adv-x="843" 
d="M702 1230q0 -66 -32 -211q-32 -146 -31 -232q0 -86 56 -118t212 -32l-24 -127q-160 0 -212 -24q-51 -24 -73 -44q-40 -36 -72 -162q-10 -44 -26 -133l-33 -178q-32 -181 -167 -238q-68 -28 -132 -36t-158 -8l23 114q143 0 212 45t95 179l43 215q33 164 81 238t150 95
q-121 31 -120 175q0 74 32 238t33 200q0 86 -54 116t-175 31l22 115q213 0 282 -50q68 -51 68 -168z" />
    <glyph glyph-name="asciitilde" unicode="~" horiz-adv-x="970" 
d="M449 756q82 0 183 -47t147 -47t91 38t74 109l88 -12q-36 -123 -108 -192t-146 -69t-178 48q-106 47 -147 47q-113 -1 -181 -148l-88 11q35 126 109 194t156 68z" />
    <glyph glyph-name="exclamdown" unicode="&#xa1;" horiz-adv-x="477" 
d="M547 1241q-43 0 -73 29q-30 30 -30 74t35 77t79 33t72 -29t28 -73t-34 -78q-34 -33 -77 -33zM436 1028h113l-166 -1028h-176z" />
    <glyph glyph-name="cent" unicode="&#xa2;" horiz-adv-x="1177" 
d="M358 676q0 -121 70 -211t188 -125l273 846q-201 0 -366 -148t-165 -362zM203 671q0 179 105 331q104 152 272 236q168 85 354 87l43 137h121l-51 -157q156 -35 256 -175l-125 -92q-32 47 -84 82t-93 43l-272 -848q199 0 348 154l94 -94q-203 -199 -454 -199l-33 2
l-57 -178h-121l63 197q-180 41 -273 168t-93 306z" />
    <glyph glyph-name="sterling" unicode="&#xa3;" horiz-adv-x="1308" 
d="M1044 1456q144 0 250 -71t150 -189l-135 -94q-35 90 -114 140t-189 50q-199 0 -315 -166t-128 -411h588l-27 -133h-575q-27 -319 -33 -437h748l-27 -145h-1149l16 84l232 55q8 221 35 443h-156l25 133h147q35 345 201 543t456 198z" />
    <glyph glyph-name="KB" unicode="&#xa4;" horiz-adv-x="1992" 
d="M440 -311q0 8 8 8t9 -8q-1 -8 -9 -8t-8 8zM1679 -311q1 8 9 8t8 -8t-8 -8t-9 8zM885 -231h8v-86h-8v86zM1473 -231h8v-86h-8v86zM479 -231h8v-86h-8v86zM1532 184h-31v-22h29q14 0 14 11t-12 11zM817 -231h8v-78h41v-8h-49v86zM750 -231h8v-78h41v-8h-49v86zM623 -240
h-27v9h61v-9h-26v-77h-8v77zM1190 -240h-27v9h62v-9h-27v-77h-8v77zM1426 -309q17 0 18 16q0 11 -21 19t-20 22q0 23 22 23q16 0 23 -15l-6 -4q-6 10 -18 10t-13 -14q1 -10 21 -17t20 -24q0 -25 -25 -24q-23 0 -30 18l6 4q6 -14 23 -14zM1808 -291h15q25 4 24 27
q0 25 -24 24h-15v-51zM678 -231h53v-9h-45v-36h41v-9h-41v-24h45v-8h-53v86zM1329 -231h53v-9h-45v-36h41v-9h-41v-24h45v-8h-53v86zM1008 -231h53v-9h-45v-36h41v-9h-41v-24h45v-8h-53v86zM961 -291v8h28v-22q-13 -12 -33 -12q-43 0 -45 43q-1 18 13 31q31 30 63 -1l-6 -6
q-9 12 -25 12t-26 -11t-10 -25t11 -24t25 -11l25 8v10h-20zM1548 -291v8h29v-22q-13 -12 -33 -12t-33 12q-12 13 -12 31t13 31q31 31 63 -1l-6 -6q-9 12 -25 12t-26 -11q-24 -27 1 -50q11 -10 25 -10l25 8v10h-21zM1753 -291v8h29v-22q-12 -12 -32 -12t-34 12q-12 13 -12 31
t13 31q31 31 63 -1l-6 -6q-10 12 -26 12t-26 -11t-10 -25t11 -24t26 -11l25 8v10h-21zM1501 84h23q31 0 30 22q0 20 -36 21h-17v-43zM569 -231h9v-86h-9l-51 73v-73h-8v86h8l51 -72v72zM1657 -231h8v-86h-8l-51 73v-73h-9v86h9l51 -72v72zM1139 -231h8v-86h-8l-52 73v-73h-8
v86h8l52 -72v72zM276 -305l25 76h8l-28 -86h-9l-18 71l-16 -71h-9l-28 86h8l24 -76l17 76h8zM154 -305l24 76h8l-28 -86h-8l-19 71l-16 -71h-9l-28 86h8l25 -76l16 76h8zM403 -305l25 76h8l-28 -86h-9l-18 71l-16 -71h-9l-28 86h8l24 -76l17 76h8zM1268 -309q14 0 24 10
q10 11 10 25t-10 24t-24 10h-17v-69h17zM1823 -231q32 -1 32 -39q0 -18 -18 -25l21 -22h-13l-16 18h-21v-18h-8v86h23zM1290 88h15q16 0 27 13t11 33t-12 32q-12 14 -28 14h-13v-92zM203 88h14q16 0 28 13q11 13 11 33t-12 32q-12 14 -29 14h-12v-92zM1268 -231q18 1 30 -13
t13 -31t-13 -29t-30 -13h-25v86h25zM684 45h-49v180h49v-180zM1710 45h-49v59l-68 119h56l37 -65l36 65h58l-70 -119v-59zM369 125v-41h86v-39h-136v180h130v-41h-80v-24h53v-35h-53zM1133 125v-41h86v-39h-136v180h131v-41h-81v-24h55v-35h-55zM542 82q26 0 25 11
q0 11 -28 20q-68 14 -68 57q0 25 18 41q17 16 49 16t74 -14l-20 -39q-33 12 -52 12t-20 -12q0 -10 31 -18q68 -14 67 -56q0 -59 -73 -59q-41 0 -78 18l18 37q31 -14 57 -14zM791 135h83v-67q-30 -23 -74 -25t-73 26q-29 29 -29 67t28 65t70 27t72 -27l-32 -33q-18 14 -38 14
t-34 -13t-14 -33t13 -36t29 -16t31 8v8h-32v35zM1012 225h49v-180h-23l-96 92v-92h-49v180h22l97 -94v94zM1393 135q0 -37 -25 -63t-59 -27h-68v180h62q39 -1 65 -27t25 -63zM305 135q-1 -37 -25 -63t-59 -27h-67v180h61q39 0 65 -26q25 -27 25 -64zM1606 108q0 -64 -56 -63
h-96v180h80q53 0 53 -39q0 -20 -16 -32q35 -14 35 -46zM692 965h230v274l-142 -141v141h-88v-274zM922 877h-230v-275h88v141l142 -141v275zM1010 965h180q49 45 49 113t-46 114q-46 47 -112 47h-71v-274zM1010 602h71q66 0 112 47t46 115t-49 113h-180v-275zM385 921
q0 116 65 211t168 136q44 104 138 169t210 65t211 -66q95 -64 136 -168q104 -41 169 -136q64 -95 64 -211t-64 -210t-169 -138q-41 -104 -136 -169q-95 -64 -211 -64t-210 64t-138 169q-104 43 -168 137t-65 211z" />
    <glyph glyph-name="yen" unicode="&#xa5;" horiz-adv-x="1449" 
d="M1649 1444l-633 -797h327l-22 -121h-397l-29 -49l-6 -37h414l-23 -121h-414l-61 -319h-178l63 319h-416l23 121h416l6 37l-8 49h-396l21 121h326l-318 797h201l301 -766l600 766h203z" />
    <glyph glyph-name="brokenbar" unicode="&#xa6;" horiz-adv-x="571" 
d="M166 -260l151 784h136l-152 -784h-135zM381 850l154 784h135l-154 -784h-135z" />
    <glyph glyph-name="section" unicode="&#xa7;" horiz-adv-x="1282" 
d="M416 731q0 -57 96 -92t242 -61t200 -50q164 55 164 152q0 45 -60 80q-60 34 -224 74t-230 65q-60 -19 -124 -71t-64 -97zM1116 342q0 -160 -159 -256t-330 -96q-266 0 -451 100l88 119q88 -47 165 -67t195 -21q118 0 218 53t100 148q0 48 -70 78t-250 70t-251 87
q-86 61 -87 149t64 149q66 60 154 95q-94 56 -94 164t74 190q143 154 395 154q205 0 448 -90l-78 -129q-239 86 -371 86t-222 -54t-89 -147q0 -98 243 -144q102 -19 204 -44t173 -82t71 -140q0 -84 -57 -146q-56 -62 -132 -95q49 -47 49 -131z" />
    <glyph glyph-name="dieresis" unicode="&#xa8;" horiz-adv-x="1024" 
d="M662 1753q36 1 60 -23t24 -63t-32 -69q-30 -30 -68 -30t-62 24t-23 63q0 39 32 69t69 29zM915 1657q0 39 31 67t68 29q38 1 62 -23t24 -63t-31 -69t-69 -30t-62 26q-24 24 -23 63z" />
    <glyph glyph-name="copyright" unicode="&#xa9;" horiz-adv-x="1699" 
d="M563 690q-1 184 141 324t340 139q198 0 299 -160q-6 -4 -92 -67q-74 123 -215 123q-141 1 -251 -105q-109 -106 -109 -238t72 -218q72 -85 210 -85t242 123q59 -47 78 -71q-131 -145 -317 -158q-176 0 -287 104q-111 105 -111 289zM893 53q317 0 539 222q221 222 221 524
q0 252 -164 425t-418 173q-305 0 -533 -221t-229 -523q0 -252 165 -426t419 -174zM1720 801q0 -209 -104 -394t-298 -303t-429 -116q-283 0 -464 192t-181 473q0 321 246 561t585 248q281 0 463 -191t182 -470z" />
    <glyph glyph-name="ordfeminine" unicode="&#xaa;" horiz-adv-x="1001" 
d="M774 1319q-140 1 -246 -103t-106 -233q0 -98 66 -164t186 -66t233 78l78 408q-70 80 -211 80zM619 639q-145 0 -235 91q-89 91 -89 226q0 190 146 334t333 144q137 0 236 -72l12 57h127l-150 -764h-127l11 58q-119 -74 -264 -74z" />
    <glyph glyph-name="guillemotleft" unicode="&#xab;" horiz-adv-x="1130" 
d="M457 18l-254 527l461 526l94 -80l-400 -446l228 -445zM926 18l-254 527l461 526l94 -80l-400 -446l228 -445z" />
    <glyph glyph-name="logicalnot" unicode="&#xac;" horiz-adv-x="1216" 
d="M1292 967l-94 -488h-147l65 342h-874l28 146h1022z" />
    <glyph glyph-name="uni00AD" unicode="&#xad;" horiz-adv-x="835" 
d="M885 752l-27 -144h-645l27 144h645z" />
    <glyph glyph-name="registered" unicode="&#xae;" horiz-adv-x="1699" 
d="M975 657q119 0 195 70t75 174q0 66 -41 108t-129 42h-215l-76 -394h191zM967 569h-199l-51 -254h-113l162 832h342q134 1 196 -59t62 -166t-60 -194q-60 -89 -163 -126l141 -233l-94 -74l-174 276q-14 -2 -49 -2zM893 53q317 0 539 222q221 222 221 524q0 252 -164 425
t-418 173q-305 0 -533 -221t-229 -523q0 -252 165 -426t419 -174zM1720 801q0 -209 -104 -394t-298 -303t-429 -116q-283 0 -464 192t-181 473q0 321 246 561t585 248q281 0 463 -191t182 -470z" />
    <glyph glyph-name="macron" unicode="&#xaf;" horiz-adv-x="1024" 
d="M498 1602l24 112h647l-24 -112h-647z" />
    <glyph glyph-name="degree" unicode="&#xb0;" horiz-adv-x="966" 
d="M668 844q112 0 205 91t93 199t-68 175q-70 67 -180 67t-203 -92t-93 -200t67 -174t179 -66zM662 745q-154 -1 -248 93t-94 240t126 272q126 125 278 125q152 -1 248 -95t97 -240q0 -146 -127 -271q-126 -124 -280 -124z" />
    <glyph glyph-name="plusminus" unicode="&#xb1;" horiz-adv-x="1310" 
d="M1169 0h-1024l29 141h1022zM1354 954l-29 -141h-440l-86 -440h-142l86 440h-440l29 141h440l86 441h141l-86 -441h441z" />
    <glyph glyph-name="twosuperior" unicode="&#xb2;" horiz-adv-x="849" 
d="M680 1464q128 0 204 -70q77 -70 77 -185t-69 -201t-152 -127t-179 -88t-129 -82h445l-19 -99h-645l8 50q72 110 294 217q83 39 162 82q177 96 177 227q0 94 -54 134t-136 40t-157 -67t-93 -167h-101q29 148 134 242t233 94z" />
    <glyph glyph-name="threesuperior" unicode="&#xb3;" horiz-adv-x="849" 
d="M893 913q0 -153 -127 -233t-284 -80t-285 62l59 88q115 -53 268 -54q100 0 179 54t79 145q0 59 -54 94t-150 35h-43l-13 45l275 277h-424q16 86 18 96h592l-10 -49l-293 -293q96 -12 154 -60t59 -127z" />
    <glyph glyph-name="acute" unicode="&#xb4;" horiz-adv-x="1024" 
d="M1022 1868l-395 -322h-119l323 336z" />
    <glyph glyph-name="mu" unicode="&#xb5;" horiz-adv-x="1341" 
d="M643 -12q-104 0 -180 45t-107 129l-100 -512h-170l283 1458h170l-121 -621q-33 -168 41 -258t225 -90q215 0 381 125l164 844h170l-215 -1108h-168l20 111q-168 -123 -393 -123z" />
    <glyph glyph-name="paragraph" unicode="&#xb6;" horiz-adv-x="1157" 
d="M823 1280q-163 0 -281 -104t-118 -261q0 -98 80 -160t201 -63h45l114 588h-41zM846 1434h448l-278 -1434h-129l248 1280h-142l-248 -1280h-129l101 528h-43q-199 0 -318 87t-118 249q0 260 178 415t430 155z" />
    <glyph glyph-name="periodcentered" unicode="&#xb7;" horiz-adv-x="415" 
d="M331 748q41 0 71 -30t30 -74t-35 -77t-79 -33t-72 30q-28 28 -27 73q0 45 35 78t77 33z" />
    <glyph glyph-name="cedilla" unicode="&#xb8;" horiz-adv-x="878" 
d="M296 -311q62 1 104 29t42 67q0 59 -133 59l146 158h108q-2 -4 -36 -53t-44 -64q31 -1 55 -23t23 -61q0 -70 -63 -125t-187 -55l-129 8l15 70q37 -10 99 -10z" />
    <glyph glyph-name="onesuperior" unicode="&#xb9;" horiz-adv-x="731" 
d="M723 1444h47l-162 -832h-110l139 721l-197 -41l-4 90z" />
    <glyph glyph-name="ordmasculine" unicode="&#xba;" horiz-adv-x="1038" 
d="M673 756q127 0 233 92q105 92 106 242q0 100 -70 166t-176 67q-141 0 -249 -100t-107 -236q0 -99 68 -165t195 -66zM788 1438q154 0 252 -93t99 -235q0 -213 -154 -341t-350 -128q-154 0 -253 93t-99 233q0 203 154 337t351 134z" />
    <glyph glyph-name="guillemotright" unicode="&#xbb;" horiz-adv-x="1126" 
d="M680 545l-459 -527l-96 82l399 445l-225 446l127 80zM1147 545l-459 -527l-94 82l397 445l-225 446l129 80z" />
    <glyph glyph-name="onequarter" unicode="&#xbc;" horiz-adv-x="1769" 
d="M1550 1436h133l-1267 -1436h-133zM1442 293l69 362l-383 -362h314zM1550 293h156l-20 -94h-156l-37 -199h-109l37 199h-440l-14 63l604 572h84zM690 1444h49l-161 -832h-113l139 721l-194 -41l-7 90z" />
    <glyph glyph-name="onehalf" unicode="&#xbd;" horiz-adv-x="1867" 
d="M1544 852q127 0 204 -71t77 -185t-69 -200q-70 -87 -152 -128t-178 -88t-130 -82h445l-19 -98h-645l8 49q74 114 294 217q83 39 162 82q177 96 177 227q0 95 -54 135t-136 40t-157 -67t-93 -167h-100q29 148 134 242t232 94zM1552 1436h131l-1267 -1436h-131zM690 1444
h49l-161 -832h-113l139 721l-194 -41l-7 90z" />
    <glyph glyph-name="threequarters" unicode="&#xbe;" horiz-adv-x="1822" 
d="M1520 293l69 362l-383 -362h314zM1628 293h156l-21 -94h-155l-37 -199h-109l37 199h-440l-15 63l605 572h84zM893 911q0 -80 -40 -143q-68 -107 -240 -151q-71 -17 -142 -17q-143 0 -274 62l59 88q115 -53 268 -54q100 0 179 54t79 145q0 59 -54 94t-150 35h-43l-13 45
l275 277h-424q16 86 18 96h592l-10 -49l-293 -293q96 -12 154 -60t59 -129zM1630 1436h131l-1267 -1436h-132z" />
    <glyph glyph-name="questiondown" unicode="&#xbf;" horiz-adv-x="1105" 
d="M906 1454q44 0 72 -29t28 -73t-35 -78q-35 -33 -77 -33q-42 1 -72 29t-28 73q1 45 34 78q34 33 78 33zM610 -14q-214 0 -332 98t-118 276q0 217 167 343t398 131l53 223h123l-47 -295l-27 -41h-57q-178 0 -315 -89t-138 -249q0 -115 86 -183t230 -67q238 0 434 90
l35 -133q-130 -60 -234 -82t-258 -22z" />
    <glyph glyph-name="Agrave" unicode="&#xc0;" 
d="M989 1546l-295 322l195 14l219 -336h-119zM987 1204l-442 -698h616zM1288 0l-92 362h-743l-230 -362h-184l948 1444h96l390 -1444h-185z" />
    <glyph glyph-name="Aacute" unicode="&#xc1;" 
d="M1507 1868l-395 -322h-119l324 336zM987 1204l-442 -698h616zM1288 0l-92 362h-743l-230 -362h-184l948 1444h96l390 -1444h-185z" />
    <glyph glyph-name="Acircumflex" unicode="&#xc2;" 
d="M705 1546l350 293h108l240 -293h-135l-176 199l-252 -199h-135zM987 1204l-442 -698h616zM1288 0l-92 362h-743l-230 -362h-184l948 1444h96l390 -1444h-185z" />
    <glyph glyph-name="Atilde" unicode="&#xc3;" 
d="M1258 1720q46 0 92 38q45 38 71 108l90 -13q-35 -123 -109 -191t-148 -69q-72 0 -176 47t-146 48q-119 -1 -180 -148l-90 10q35 125 108 194q74 69 172 68q66 0 168 -46t148 -46zM987 1204l-442 -698h616zM1288 0l-92 362h-743l-230 -362h-184l948 1444h96l390 -1444
h-185z" />
    <glyph glyph-name="Adieresis" unicode="&#xc4;" 
d="M899 1753q37 1 61 -23t23 -63q0 -39 -31 -69q-30 -30 -68 -30t-62 24t-24 63t32 69t69 29zM1251 1753q37 1 62 -23t25 -63t-32 -69q-30 -30 -68 -30t-62 26q-24 24 -23 63t31 67t67 29zM987 1204l-442 -698h616zM1288 0l-92 362h-743l-230 -362h-184l948 1444h96
l390 -1444h-185z" />
    <glyph glyph-name="Aring" unicode="&#xc5;" 
d="M1161 1585q0 49 -29 79q-30 30 -77 30t-87 -38t-40 -87t28 -79t77 -30q48 0 88 38t40 87zM987 1204l-442 -698h616zM1241 1594q0 -73 -40 -127t-103 -76l375 -1391h-185l-92 362h-743l-230 -362h-184l915 1395q-48 20 -76 66t-28 100q0 92 63 152q63 61 143 61t132 -54
q53 -54 53 -126z" />
    <glyph glyph-name="AE" unicode="&#xc6;" horiz-adv-x="2064" 
d="M1114 1282l-551 -776h455l149 776h-53zM1118 150h875l-29 -150h-1044l69 362h-522l-256 -362h-186l1036 1444h1141l-31 -150h-832l-100 -520h705l-29 -147h-705z" />
    <glyph glyph-name="Ccedilla" unicode="&#xc7;" horiz-adv-x="1548" 
d="M1080 1458q208 0 356 -74t233 -200l-147 -115q-64 101 -182 163t-261 62q-270 0 -466 -196t-195 -465q0 -207 137 -344t350 -137q133 0 262 60t226 163l110 -113q-117 -120 -271 -192t-317 -80l-69 -105q30 -1 54 -23t24 -61q0 -70 -64 -125t-186 -55l-129 8l14 70
q37 -10 99 -10q62 1 104 29q43 28 43 67q0 59 -133 59l135 148q-244 25 -408 201q-163 175 -163 417t119 439q120 197 319 303q198 106 406 106z" />
    <glyph glyph-name="Egrave" unicode="&#xc8;" horiz-adv-x="1318" 
d="M922 1546l-295 322l194 14l219 -336h-118zM373 150h874l-28 -150h-1045l281 1444h1001l-29 -150h-831l-102 -520h704l-27 -147h-704z" />
    <glyph glyph-name="Eacute" unicode="&#xc9;" horiz-adv-x="1318" 
d="M1423 1868l-395 -322h-119l324 336zM373 150h874l-28 -150h-1045l281 1444h1001l-29 -150h-831l-102 -520h704l-27 -147h-704z" />
    <glyph glyph-name="Ecircumflex" unicode="&#xca;" horiz-adv-x="1318" 
d="M635 1546l350 293h109l239 -293h-135l-176 199l-252 -199h-135zM373 150h874l-28 -150h-1045l281 1444h1001l-29 -150h-831l-102 -520h704l-27 -147h-704z" />
    <glyph glyph-name="Edieresis" unicode="&#xcb;" horiz-adv-x="1318" 
d="M733 1655q0 39 32 69t69 29q36 1 60 -23t24 -63t-31 -69t-69 -30t-62 24t-23 63zM1087 1657q0 39 31 67t68 29q38 1 62 -23t24 -63t-31 -69t-69 -30t-62 26q-24 24 -23 63zM373 150h874l-28 -150h-1045l281 1444h1001l-29 -150h-831l-102 -520h704l-27 -147h-704z" />
    <glyph glyph-name="Igrave" unicode="&#xcc;" horiz-adv-x="530" 
d="M508 1573l-295 321l195 15l219 -336h-119zM635 1444l-281 -1444h-178l281 1444h178z" />
    <glyph glyph-name="Iacute" unicode="&#xcd;" horiz-adv-x="530" 
d="M1028 1894l-395 -321h-119l324 336zM635 1444l-281 -1444h-178l281 1444h178z" />
    <glyph glyph-name="Icircumflex" unicode="&#xce;" horiz-adv-x="530" 
d="M223 1573l350 293h109l240 -293h-136l-176 199l-252 -199h-135zM635 1444l-281 -1444h-178l281 1444h178z" />
    <glyph glyph-name="Idieresis" unicode="&#xcf;" horiz-adv-x="530" 
d="M424 1780q36 0 60 -24t24 -62t-31 -69q-31 -30 -69 -30t-61 24q-23 25 -23 63t31 68q32 30 69 30zM776 1780q37 0 62 -24q24 -24 24 -62t-31 -69q-31 -30 -69 -30t-61 25q-23 26 -23 64t30 67t68 29zM635 1444l-281 -1444h-178l281 1444h178z" />
    <glyph glyph-name="Eth" unicode="&#xd0;" horiz-adv-x="1568" 
d="M797 158q163 0 317 102t246 265t92 343t-130 299t-337 119h-332l-96 -493h373l-29 -142h-371l-96 -493h363zM1016 1444q264 0 432 -161t168 -404q0 -351 -253 -615t-581 -264h-549l125 651h-200l28 142h201l127 651h502z" />
    <glyph glyph-name="Ntilde" unicode="&#xd1;" horiz-adv-x="1583" 
d="M1289 1720q46 0 91 38t72 108l90 -13q-36 -123 -110 -191t-146 -69q-72 0 -178 47q-104 47 -145 48q-120 -1 -181 -148l-90 10q35 125 109 194t172 68q66 0 168 -46t148 -46zM1516 1444h174l-281 -1444h-92l-752 1114l-215 -1114h-176l281 1444h92l751 -1114z" />
    <glyph glyph-name="Ograve" unicode="&#xd2;" horiz-adv-x="1740" 
d="M1094 1546l-295 322l194 14l219 -336h-118zM928 150q274 0 470 181t195 464q0 211 -146 354t-368 143q-283 0 -474 -196t-191 -465q0 -205 146 -343t368 -138zM1096 1454q290 0 484 -185t194 -458q0 -369 -252 -596t-611 -227q-291 0 -485 181t-193 447q0 344 244 591
t619 247z" />
    <glyph glyph-name="Oacute" unicode="&#xd3;" horiz-adv-x="1740" 
d="M1581 1868l-395 -322h-119l324 336zM928 150q274 0 470 181t195 464q0 211 -146 354t-368 143q-283 0 -474 -196t-191 -465q0 -205 146 -343t368 -138zM1096 1454q290 0 484 -185t194 -458q0 -369 -252 -596t-611 -227q-291 0 -485 181t-193 447q0 344 244 591t619 247z
" />
    <glyph glyph-name="Ocircumflex" unicode="&#xd4;" horiz-adv-x="1740" 
d="M809 1546l350 293h109l239 -293h-135l-176 199l-252 -199h-135zM928 150q274 0 470 181t195 464q0 211 -146 354t-368 143q-283 0 -474 -196t-191 -465q0 -205 146 -343t368 -138zM1096 1454q290 0 484 -185t194 -458q0 -369 -252 -596t-611 -227q-291 0 -485 181
t-193 447q0 344 244 591t619 247z" />
    <glyph glyph-name="Otilde" unicode="&#xd5;" horiz-adv-x="1740" 
d="M1365 1720q46 0 91 38t72 108l90 -13q-35 -123 -110 -191t-147 -69q-73 0 -177 47t-146 48q-119 -1 -180 -148l-90 10q35 125 109 194t172 68q66 0 168 -46t148 -46zM928 150q274 0 470 181t195 464q0 211 -146 354t-368 143q-283 0 -474 -196t-191 -465q0 -205 146 -343
t368 -138zM1096 1454q290 0 484 -185t194 -458q0 -369 -252 -596t-611 -227q-291 0 -485 181t-193 447q0 344 244 591t619 247z" />
    <glyph glyph-name="Odieresis" unicode="&#xd6;" horiz-adv-x="1740" 
d="M913 1655q0 39 32 69t69 29q36 1 60 -23t24 -63t-31 -69t-69 -30t-62 24t-23 63zM1366 1753q38 1 62 -23t24 -63t-31 -69t-69 -30t-61 26q-23 24 -23 63t30 67t68 29zM928 150q274 0 470 181t195 464q0 211 -146 354t-368 143q-283 0 -474 -196t-191 -465
q0 -205 146 -343t368 -138zM1096 1454q290 0 484 -185t194 -458q0 -369 -252 -596t-611 -227q-291 0 -485 181t-193 447q0 344 244 591t619 247z" />
    <glyph glyph-name="multiply" unicode="&#xd7;" horiz-adv-x="1189" 
d="M838 647l315 -389l-121 -102l-315 391l-465 -389l-80 100l465 389l-315 389l120 103l314 -394l467 394l82 -101z" />
    <glyph glyph-name="Oslash" unicode="&#xd8;" horiz-adv-x="1718" 
d="M928 150q274 0 470 181t195 464q0 168 -102 292l-903 -821q137 -116 340 -116zM1079 1292q-283 0 -474 -196t-191 -465q0 -168 102 -289l907 825q-141 125 -344 125zM911 -12q-266 0 -452 157l-160 -145h-154l238 215q-150 166 -150 401q0 344 244 591t619 247
q270 0 456 -164l172 154h154l-250 -230q145 -172 146 -403q0 -369 -252 -596t-611 -227z" />
    <glyph glyph-name="Ugrave" unicode="&#xd9;" horiz-adv-x="1546" 
d="M1014 1546l-295 322l194 14l220 -336h-119zM799 147q211 0 348 126t180 343l162 828h170l-168 -864q-47 -266 -237 -426t-451 -160q-260 0 -397 121t-138 342q0 55 19 147l159 840h172q-165 -835 -172 -957q0 -340 353 -340z" />
    <glyph glyph-name="Uacute" unicode="&#xda;" horiz-adv-x="1546" 
d="M1513 1868l-395 -322h-119l324 336zM799 147q211 0 348 126t180 343l162 828h170l-168 -864q-47 -266 -237 -426t-451 -160q-260 0 -397 121t-138 342q0 55 19 147l159 840h172q-165 -835 -172 -957q0 -340 353 -340z" />
    <glyph glyph-name="Ucircumflex" unicode="&#xdb;" horiz-adv-x="1546" 
d="M727 1546l350 293h109l239 -293h-135l-176 199l-252 -199h-135zM799 147q211 0 348 126t180 343l162 828h170l-168 -864q-47 -266 -237 -426t-451 -160q-260 0 -397 121t-138 342q0 55 19 147l159 840h172q-165 -835 -172 -957q0 -340 353 -340z" />
    <glyph glyph-name="Udieresis" unicode="&#xdc;" horiz-adv-x="1546" 
d="M825 1655q0 39 32 69t69 29q36 1 60 -23t24 -63t-31 -69t-69 -30t-62 24t-23 63zM1278 1753q38 1 62 -23t24 -63t-31 -69t-69 -30t-61 26q-23 24 -23 63t30 67t68 29zM799 147q211 0 348 126t180 343l162 828h170l-168 -864q-47 -266 -237 -426t-451 -160
q-260 0 -397 121t-138 342q0 55 19 147l159 840h172q-165 -835 -172 -957q0 -340 353 -340z" />
    <glyph glyph-name="Yacute" unicode="&#xdd;" horiz-adv-x="1374" 
d="M1434 1868l-396 -322h-118l323 336zM1419 1444h203l-750 -948l-96 -496h-176l94 496l-379 948h201l303 -766z" />
    <glyph glyph-name="Thorn" unicode="&#xde;" horiz-adv-x="1351" 
d="M774 385q209 0 344 137t135 334q0 106 -76 167q-77 60 -233 60h-385l-137 -698h352zM942 1231q244 0 367 -90t123 -258q0 -201 -94 -349t-248 -222q-152 -74 -340 -72h-355l-47 -240h-174l281 1444h174l-43 -213h356z" />
    <glyph glyph-name="germandbls" unicode="&#xdf;" horiz-adv-x="1327" 
d="M1159 1204q0 210 -267 211q-126 0 -228 -100t-134 -260l-272 -1405h-172l268 1378q47 240 209 384q161 144 353 144t300 -80t107 -218q1 -138 -65 -244t-175 -154q121 -29 185 -111q63 -83 63 -188q0 -249 -187 -411t-421 -162q-109 0 -186 26l38 144q68 -23 152 -23
q178 2 306 123t128 285q0 100 -76 168t-229 67h-37l27 133h31q123 11 203 99t79 194z" />
    <glyph glyph-name="agrave" unicode="&#xe0;" horiz-adv-x="1370" 
d="M866 1257l-295 322l195 14l219 -336h-119zM886 977q-214 0 -368 -158t-153 -358q0 -143 96 -233t254 -89q219 0 385 129l110 576q-110 133 -324 133zM666 -12q-216 0 -344 124t-127 322q0 281 205 488q206 207 483 206q223 0 358 -122l21 102h170l-215 -1108h-168l20 111
q-187 -123 -403 -123z" />
    <glyph glyph-name="aacute" unicode="&#xe1;" horiz-adv-x="1370" 
d="M1354 1579l-396 -322h-118l323 336zM886 977q-214 0 -368 -158t-153 -358q0 -143 96 -233t254 -89q219 0 385 129l110 576q-110 133 -324 133zM666 -12q-216 0 -344 124t-127 322q0 281 205 488q206 207 483 206q223 0 358 -122l21 102h170l-215 -1108h-168l20 111
q-187 -123 -403 -123z" />
    <glyph glyph-name="acircumflex" unicode="&#xe2;" horiz-adv-x="1370" 
d="M592 1257l350 293h109l239 -293h-135l-176 199l-252 -199h-135zM886 977q-214 0 -368 -158t-153 -358q0 -143 96 -233t254 -89q219 0 385 129l110 576q-110 133 -324 133zM666 -12q-216 0 -344 124t-127 322q0 281 205 488q206 207 483 206q223 0 358 -122l21 102h170
l-215 -1108h-168l20 111q-187 -123 -403 -123z" />
    <glyph glyph-name="atilde" unicode="&#xe3;" horiz-adv-x="1370" 
d="M813 1524q82 0 184 -46q103 -46 149 -46t91 38t72 107l90 -12q-35 -123 -110 -192t-147 -69t-176 48q-104 47 -147 47q-119 -1 -180 -148l-90 11q35 126 109 194t155 68zM886 977q-214 0 -368 -158t-153 -358q0 -143 96 -233t254 -89q219 0 385 129l110 576
q-110 133 -324 133zM666 -12q-216 0 -344 124t-127 322q0 281 205 488q206 207 483 206q223 0 358 -122l21 102h170l-215 -1108h-168l20 111q-187 -123 -403 -123z" />
    <glyph glyph-name="adieresis" unicode="&#xe4;" horiz-adv-x="1370" 
d="M791 1464q37 0 61 -24t22 -62q0 -38 -30 -68t-69 -30q-37 0 -61 24t-24 62t32 68t69 30zM1143 1464q37 0 61 -24t25 -62q0 -38 -31 -68t-69 -30q-37 0 -61 25t-24 63t31 68q31 28 68 28zM886 977q-214 0 -368 -158t-153 -358q0 -143 96 -233t254 -89q219 0 385 129
l110 576q-110 133 -324 133zM666 -12q-216 0 -344 124t-127 322q0 281 205 488q206 207 483 206q223 0 358 -122l21 102h170l-215 -1108h-168l20 111q-187 -123 -403 -123z" />
    <glyph glyph-name="aring" unicode="&#xe5;" horiz-adv-x="1370" 
d="M1083 1484q0 48 -29 79q-30 31 -77 31t-87 -39q-40 -38 -40 -87q0 -48 29 -78t77 -30t87 38q40 38 40 86zM1163 1484q0 -84 -63 -144q-62 -60 -144 -60t-133 53t-51 136t64 143t142 61q79 0 132 -53t53 -136zM886 977q-214 0 -368 -158t-153 -358q0 -143 96 -233t254 -89
q219 0 385 129l110 576q-110 133 -324 133zM666 -12q-216 0 -344 124t-127 322q0 281 205 488q206 207 483 206q223 0 358 -122l21 102h170l-215 -1108h-168l20 111q-187 -123 -403 -123z" />
    <glyph glyph-name="ae" unicode="&#xe6;" horiz-adv-x="2293" 
d="M2159 692q0 135 -78 216t-231 81q-154 0 -280 -100t-177 -252h761q5 37 5 55zM886 977q-212 0 -368 -159t-156 -361q0 -143 108 -229t273 -85q210 6 357 125l110 576q-112 133 -324 133zM1362 457q0 -147 91 -239t249 -91q231 0 397 172l94 -90q-98 -101 -237 -161
q-138 -60 -290 -60t-256 66q-103 67 -148 179l-43 -233h-170l20 111q-178 -119 -394 -119t-350 120t-135 312q0 280 210 492t483 212q225 0 360 -122l21 102h168l-43 -227q174 244 495 243q207 0 321 -116t113 -314q1 -67 -24 -190h-930q-2 -16 -2 -47z" />
    <glyph glyph-name="ccedilla" unicode="&#xe7;" horiz-adv-x="1193" 
d="M190 436q0 316 212 504t509 188q256 0 377 -200l-131 -103q-89 152 -287 152q-198 -1 -355 -147t-157 -367q0 -139 102 -231t273 -93q170 0 322 156l88 -102q-172 -174 -398 -197q-36 -61 -73 -111q30 -1 54 -23t24 -61q0 -70 -64 -125t-186 -55l-129 8l14 70
q37 -10 99 -10q62 1 104 29q43 28 43 67q0 59 -133 59l137 150q-203 14 -324 136t-121 306z" />
    <glyph glyph-name="egrave" unicode="&#xe8;" horiz-adv-x="1284" 
d="M829 1257l-294 322l194 14l219 -336h-119zM1153 692q0 137 -82 217q-81 80 -231 80t-276 -100t-177 -252h762q4 37 4 55zM356 465q0 -147 96 -237t248 -91q238 0 394 162l94 -90q-211 -221 -535 -221q-217 0 -339 126t-121 324q0 279 199 485q200 206 482 205
q209 0 324 -120t115 -316q0 -75 -25 -188h-930q-2 -12 -2 -39z" />
    <glyph glyph-name="eacute" unicode="&#xe9;" horiz-adv-x="1284" 
d="M1339 1579l-395 -322h-119l324 336zM1153 692q0 137 -82 217q-81 80 -231 80t-276 -100t-177 -252h762q4 37 4 55zM356 465q0 -147 96 -237t248 -91q238 0 394 162l94 -90q-211 -221 -535 -221q-217 0 -339 126t-121 324q0 279 199 485q200 206 482 205q209 0 324 -120
t115 -316q0 -75 -25 -188h-930q-2 -12 -2 -39z" />
    <glyph glyph-name="ecircumflex" unicode="&#xea;" horiz-adv-x="1284" 
d="M541 1257l350 293h108l240 -293h-135l-176 199l-252 -199h-135zM1153 692q0 137 -82 217q-81 80 -231 80t-276 -100t-177 -252h762q4 37 4 55zM356 465q0 -147 96 -237t248 -91q238 0 394 162l94 -90q-211 -221 -535 -221q-217 0 -339 126t-121 324q0 279 199 485
q200 206 482 205q209 0 324 -120t115 -316q0 -75 -25 -188h-930q-2 -12 -2 -39z" />
    <glyph glyph-name="edieresis" unicode="&#xeb;" horiz-adv-x="1284" 
d="M739 1464q37 0 61 -24t24 -62t-32 -68q-30 -30 -68 -30t-62 24t-23 62q-1 38 31 68t69 30zM1092 1464q38 0 62 -24t24 -62t-31 -68t-69 -30t-62 25t-23 63q0 38 31 68q31 28 68 28zM1153 692q0 137 -82 217q-81 80 -231 80t-276 -100t-177 -252h762q4 37 4 55zM356 465
q0 -147 96 -237t248 -91q238 0 394 162l94 -90q-211 -221 -535 -221q-217 0 -339 126t-121 324q0 279 199 485q200 206 482 205q209 0 324 -120t115 -316q0 -75 -25 -188h-930q-2 -12 -2 -39z" />
    <glyph glyph-name="igrave" unicode="&#xec;" horiz-adv-x="491" 
d="M160 0l213 1108h172l-215 -1108h-170zM418 1237l-295 322l194 14l220 -336h-119z" />
    <glyph glyph-name="iacute" unicode="&#xed;" horiz-adv-x="491" 
d="M160 0l213 1108h172l-215 -1108h-170zM940 1559l-395 -322h-119l324 336z" />
    <glyph glyph-name="icircumflex" unicode="&#xee;" horiz-adv-x="491" 
d="M137 1237l350 293h109l240 -293h-136l-176 199l-252 -199h-135zM160 0l213 1108h172l-215 -1108h-170z" />
    <glyph glyph-name="idieresis" unicode="&#xef;" horiz-adv-x="491" 
d="M160 0l213 1108h172l-215 -1108h-170zM336 1444q36 0 60 -24t24 -62t-31 -69q-31 -29 -69 -29t-62 24t-22 62q0 38 31 68q32 30 69 30zM688 1444q37 0 62 -24q24 -24 24 -62t-31 -69q-31 -29 -69 -29t-61 24t-23 64q0 38 30 67t68 29z" />
    <glyph glyph-name="eth" unicode="&#xf0;" horiz-adv-x="1349" 
d="M708 133q180 0 338 140q159 140 158 325q0 133 -104 210t-260 77q-205 0 -360 -125t-154 -307q0 -135 101 -227t281 -93zM154 428q0 240 199 417q200 177 476 177q190 0 306 -102q-70 147 -203 315l-359 -117l-49 90l353 117l-164 219h192l133 -168l297 97l45 -91
l-284 -94q278 -383 278 -644t-215 -459t-497 -197q-221 0 -365 126q-143 126 -143 314z" />
    <glyph glyph-name="ntilde" unicode="&#xf1;" horiz-adv-x="1306" 
d="M1096 1411q46 0 92 38q45 38 72 107l90 -12q-35 -124 -110 -192q-76 -68 -148 -68t-176 47t-146 47q-119 0 -180 -147l-90 10q35 125 108 194q74 69 172 68q66 0 168 -46t148 -46zM896 1128q412 0 415 -350q0 -66 -19 -162l-121 -616h-170l121 616q12 74 13 111
q0 123 -74 186t-203 64q-197 0 -369 -125l-163 -852h-170l213 1108h170l-21 -107q172 127 378 127z" />
    <glyph glyph-name="ograve" unicode="&#xf2;" horiz-adv-x="1386" 
d="M860 1237l-295 322l195 14l219 -336h-119zM727 139q211 0 367 133t155 367q0 143 -104 241t-262 97q-229 1 -373 -147t-145 -353q0 -141 102 -239t260 -99zM899 1128q221 0 371 -137t149 -332q0 -163 -61 -295q-60 -132 -162 -212q-208 -164 -485 -164q-217 0 -368 138
t-150 331q0 281 192 476t514 195z" />
    <glyph glyph-name="oacute" unicode="&#xf3;" horiz-adv-x="1386" 
d="M1368 1559l-395 -322h-119l324 336zM727 139q211 0 367 133t155 367q0 143 -104 241t-262 97q-229 1 -373 -147t-145 -353q0 -141 102 -239t260 -99zM899 1128q221 0 371 -137t149 -332q0 -163 -61 -295q-60 -132 -162 -212q-208 -164 -485 -164q-217 0 -368 138
t-150 331q0 281 192 476t514 195z" />
    <glyph glyph-name="ocircumflex" unicode="&#xf4;" horiz-adv-x="1386" 
d="M575 1237l351 293h108l240 -293h-135l-176 199l-252 -199h-136zM727 139q211 0 367 133t155 367q0 143 -104 241t-262 97q-229 1 -373 -147t-145 -353q0 -141 102 -239t260 -99zM899 1128q221 0 371 -137t149 -332q0 -163 -61 -295q-60 -132 -162 -212
q-208 -164 -485 -164q-217 0 -368 138t-150 331q0 281 192 476t514 195z" />
    <glyph glyph-name="otilde" unicode="&#xf5;" horiz-adv-x="1386" 
d="M1129 1411q46 0 92 38q45 38 71 107l90 -12q-36 -124 -110 -192t-146 -68t-178 47q-104 47 -145 47q-119 0 -180 -147l-91 10q35 125 109 194t172 68q66 0 168 -46t148 -46zM727 139q211 0 367 133t155 367q0 143 -104 241t-262 97q-229 1 -373 -147t-145 -353
q0 -141 102 -239t260 -99zM899 1128q221 0 371 -137t149 -332q0 -163 -61 -295q-60 -132 -162 -212q-208 -164 -485 -164q-217 0 -368 138t-150 331q0 281 192 476t514 195z" />
    <glyph glyph-name="odieresis" unicode="&#xf6;" horiz-adv-x="1386" 
d="M774 1444q37 0 61 -24q23 -24 23 -62t-31 -69q-31 -29 -69 -29t-61 24t-23 62t32 68t68 30zM1028 1348q0 38 30 67t68 29q37 0 62 -24q24 -24 24 -62t-30 -69q-30 -29 -69 -29q-37 0 -61 24q-24 26 -24 64zM727 139q211 0 367 133t155 367q0 143 -104 241t-262 97
q-229 1 -373 -147t-145 -353q0 -141 102 -239t260 -99zM899 1128q221 0 371 -137t149 -332q0 -163 -61 -295q-60 -132 -162 -212q-208 -164 -485 -164q-217 0 -368 138t-150 331q0 281 192 476t514 195z" />
    <glyph glyph-name="divide" unicode="&#xf7;" horiz-adv-x="1077" 
d="M659 173q1 -42 -31 -72q-32 -29 -73 -29t-67 26t-26 68q0 41 33 72q31 30 71 30t67 -26q26 -27 26 -69zM850 1158q0 -42 -32 -72t-72 -30t-66 28t-27 69q0 41 32 71t72 30q41 0 67 -28q26 -26 26 -68zM1133 752l-29 -142h-891l27 142h893z" />
    <glyph glyph-name="oslash" unicode="&#xf8;" horiz-adv-x="1386" 
d="M727 139q213 0 366 131t152 365q0 104 -78 203l-667 -623q96 -76 227 -76zM883 977q-233 -1 -377 -147t-144 -355q0 -113 74 -192l672 622q-94 72 -225 72zM1419 658q0 -165 -60 -296q-59 -130 -161 -210q-209 -164 -487 -164q-195 0 -338 112l-109 -100h-135l176 162
q-113 131 -112 295q0 287 191 479t515 192q193 1 334 -108l104 98h136l-175 -160q121 -135 121 -300z" />
    <glyph glyph-name="ugrave" unicode="&#xf9;" horiz-adv-x="1320" 
d="M838 1237l-295 322l194 14l219 -336h-118zM606 -8q-182 0 -287 85q-104 85 -104 240q-1 92 19 194t31 159t37 189t48 249h170q-131 -666 -131 -721q0 -121 74 -184t203 -64q201 0 381 133l163 836h168l-213 -1108h-170l23 115q-164 -123 -412 -123z" />
    <glyph glyph-name="uacute" unicode="&#xfa;" horiz-adv-x="1320" 
d="M1354 1559l-396 -322h-118l323 336zM606 -8q-182 0 -287 85q-104 85 -104 240q-1 92 19 194t31 159t37 189t48 249h170q-131 -666 -131 -721q0 -121 74 -184t203 -64q201 0 381 133l163 836h168l-213 -1108h-170l23 115q-164 -123 -412 -123z" />
    <glyph glyph-name="ucircumflex" unicode="&#xfb;" horiz-adv-x="1320" 
d="M539 1237l350 293h108l240 -293h-135l-176 199l-252 -199h-135zM606 -8q-182 0 -287 85q-104 85 -104 240q-1 92 19 194t31 159t37 189t48 249h170q-131 -666 -131 -721q0 -121 74 -184t203 -64q201 0 381 133l163 836h168l-213 -1108h-170l23 115q-164 -123 -412 -123z
" />
    <glyph glyph-name="udieresis" unicode="&#xfc;" horiz-adv-x="1320" 
d="M735 1444q37 0 61 -24t24 -62t-32 -69q-30 -29 -68 -29t-62 24t-24 62t32 68t69 30zM1088 1444q38 0 62 -24t24 -62t-31 -69q-31 -29 -69 -29t-62 24t-23 64q0 38 31 67t68 29zM606 -8q-182 0 -287 85q-104 85 -104 240q-1 92 19 194t31 159t37 189t48 249h170
q-131 -666 -131 -721q0 -121 74 -184t203 -64q201 0 381 133l163 836h168l-213 -1108h-170l23 115q-164 -123 -412 -123z" />
    <glyph glyph-name="yacute" unicode="&#xfd;" horiz-adv-x="1318" 
d="M1325 1559l-395 -322h-119l324 336zM662 139q203 0 382 133l162 836h170l-145 -756q-55 -287 -105 -399q-146 -336 -575 -336q-143 0 -197 8q-53 8 -67 10q-14 3 -48 11t-43 11l-50 15t-52 17l58 127q212 -66 358 -66t232 31q187 68 272 332q-176 -125 -408 -125
q-184 0 -290 90q-105 90 -105 254q0 31 2 47l135 729h170l-127 -702q-4 -20 -4 -56q1 -211 275 -211z" />
    <glyph glyph-name="thorn" unicode="&#xfe;" horiz-adv-x="1376" 
d="M699 139q213 0 369 155t157 359q1 141 -97 233t-256 91q-219 0 -385 -133l-110 -576q109 -129 322 -129zM919 1128q218 0 347 -122t129 -320q0 -276 -209 -487t-479 -211q-223 0 -363 116l-90 -462h-170l371 1902h170l-105 -536q181 120 399 120z" />
    <glyph glyph-name="ydieresis" unicode="&#xff;" horiz-adv-x="1318" 
d="M727 1444q37 0 61 -24t23 -62q0 -38 -31 -69q-30 -29 -68 -29t-62 24t-24 62t32 68t69 30zM981 1348q1 38 31 67t67 29t62 -24t25 -62t-32 -69q-30 -29 -68 -29t-62 24q-24 26 -23 64zM662 139q203 0 382 133l162 836h170l-145 -756q-55 -287 -105 -399
q-146 -336 -575 -336q-143 0 -197 8q-53 8 -67 10q-14 3 -48 11t-43 11l-50 15t-52 17l58 127q212 -66 358 -66t232 31q187 68 272 332q-176 -125 -408 -125q-184 0 -290 90q-105 90 -105 254q0 31 2 47l135 729h170l-127 -702q-4 -20 -4 -56q1 -211 275 -211z" />
    <glyph glyph-name="Amacron" unicode="&#x100;" 
d="M739 1602l25 112h647l-25 -112h-647zM987 1204l-442 -698h616zM1288 0l-92 362h-743l-230 -362h-184l948 1444h96l390 -1444h-185z" />
    <glyph glyph-name="amacron" unicode="&#x101;" horiz-adv-x="1370" 
d="M612 1313l25 112h647l-24 -112h-648zM886 977q-214 0 -368 -158t-153 -358q0 -143 96 -233t254 -89q219 0 385 129l110 576q-110 133 -324 133zM666 -12q-216 0 -344 124t-127 322q0 281 205 488q206 207 483 206q223 0 358 -122l21 102h170l-215 -1108h-168l20 111
q-187 -123 -403 -123z" />
    <glyph glyph-name="Abreve" unicode="&#x102;" 
d="M1083 1692q186 0 244 172l117 -9q-38 -139 -140 -209t-243 -69q-141 0 -213 70t-57 208l114 9q-8 -172 178 -172zM987 1204l-442 -698h616zM1288 0l-92 362h-743l-230 -362h-184l948 1444h96l390 -1444h-185z" />
    <glyph glyph-name="abreve" unicode="&#x103;" horiz-adv-x="1370" 
d="M958 1403q186 0 244 172l117 -8q-39 -139 -141 -209t-242 -70q-141 0 -213 70t-57 209l114 8q-8 -172 178 -172zM886 977q-214 0 -368 -158t-153 -358q0 -143 96 -233t254 -89q219 0 385 129l110 576q-110 133 -324 133zM666 -12q-216 0 -344 124t-127 322q0 281 205 488
q206 207 483 206q223 0 358 -122l21 102h170l-215 -1108h-168l20 111q-187 -123 -403 -123z" />
    <glyph glyph-name="Aogonek" unicode="&#x104;" 
d="M987 1204l-442 -698h616zM1327 -190q0 -66 86 -66q10 0 64 8q-2 -31 -11 -92q-64 -12 -128 -12t-106 30t-42 90q0 62 44 128t105 104h-51l-92 362h-743l-230 -362h-184l948 1444h96l390 -1444h-3q-143 -106 -143 -190z" />
    <glyph glyph-name="aogonek" unicode="&#x105;" horiz-adv-x="1370" 
d="M886 977q-214 0 -368 -158t-153 -358q0 -143 96 -233t254 -89q219 0 385 129l110 576q-110 133 -324 133zM1083 -352q-63 0 -105 30t-42 90q0 62 44 128t105 104h-36l20 111q-187 -123 -403 -123t-344 124t-127 322q0 281 205 488q206 207 483 206q223 0 358 -122l21 102
h170l-215 -1108q-143 -106 -144 -190q0 -66 86 -66q10 0 64 8q-3 -31 -11 -92q-66 -12 -129 -12z" />
    <glyph glyph-name="Cacute" unicode="&#x106;" horiz-adv-x="1548" 
d="M1573 1868l-395 -322h-119l323 336zM905 152q133 0 262 60t226 163l110 -113q-125 -127 -290 -201t-334 -73q-268 0 -456 181q-187 181 -187 432t119 448q120 197 319 303q198 106 406 106t356 -74t233 -200l-147 -115q-64 101 -182 163t-261 62q-270 0 -466 -196
t-195 -465q0 -207 137 -344t350 -137z" />
    <glyph glyph-name="cacute" unicode="&#x107;" horiz-adv-x="1193" 
d="M1356 1579l-395 -322h-119l323 336zM688 -8q-223 0 -360 125t-138 319q0 316 212 504t509 188q256 0 377 -200l-131 -103q-89 152 -287 152q-198 -1 -355 -147t-157 -367q0 -139 102 -231t273 -93q170 0 322 156l88 -102q-197 -201 -455 -201z" />
    <glyph glyph-name="Ccircumflex" unicode="&#x108;" horiz-adv-x="1548" 
d="M797 1546l350 293h108l240 -293h-135l-176 199l-252 -199h-135zM905 152q133 0 262 60t226 163l110 -113q-125 -127 -290 -201t-334 -73q-268 0 -456 181q-187 181 -187 432t119 448q120 197 319 303q198 106 406 106t356 -74t233 -200l-147 -115q-64 101 -182 163
t-261 62q-270 0 -466 -196t-195 -465q0 -207 137 -344t350 -137z" />
    <glyph glyph-name="ccircumflex" unicode="&#x109;" horiz-adv-x="1193" 
d="M573 1257l351 293h108l240 -293h-135l-176 199l-252 -199h-136zM688 -8q-223 0 -360 125t-138 319q0 316 212 504t509 188q256 0 377 -200l-131 -103q-89 152 -287 152q-198 -1 -355 -147t-157 -367q0 -139 102 -231t273 -93q170 0 322 156l88 -102q-197 -201 -455 -201z
" />
    <glyph glyph-name="Cdotaccent" unicode="&#x10a;" horiz-adv-x="1548" 
d="M1085 1659q0 39 30 67t68 27q39 -1 63 -25t24 -63t-30 -68t-68 -29t-62 26t-25 65zM905 152q133 0 262 60t226 163l110 -113q-125 -127 -290 -201t-334 -73q-268 0 -456 181q-187 181 -187 432t119 448q120 197 319 303q198 106 406 106t356 -74t233 -200l-147 -115
q-64 101 -182 163t-261 62q-270 0 -466 -196t-195 -465q0 -207 137 -344t350 -137z" />
    <glyph glyph-name="cdotaccent" unicode="&#x10b;" horiz-adv-x="1193" 
d="M1053 1376q0 -40 -30 -68t-68 -28q-39 0 -63 26t-24 64t30 67q30 27 68 27t62 -24t25 -64zM688 -8q-223 0 -360 125t-138 319q0 316 212 504t509 188q256 0 377 -200l-131 -103q-89 152 -287 152q-198 -1 -355 -147t-157 -367q0 -139 102 -231t273 -93q170 0 322 156
l88 -102q-197 -201 -455 -201z" />
    <glyph glyph-name="Ccaron" unicode="&#x10c;" horiz-adv-x="1548" 
d="M1108 1546l-238 293h131l175 -199l251 199h138l-353 -293h-104zM905 152q133 0 262 60t226 163l110 -113q-125 -127 -290 -201t-334 -73q-268 0 -456 181q-187 181 -187 432t119 448q120 197 319 303q198 106 406 106t356 -74t233 -200l-147 -115q-64 101 -182 163
t-261 62q-270 0 -466 -196t-195 -465q0 -207 137 -344t350 -137z" />
    <glyph glyph-name="ccaron" unicode="&#x10d;" horiz-adv-x="1193" 
d="M889 1257l-238 293h131l174 -198l252 198h138l-353 -293h-104zM688 -8q-223 0 -360 125t-138 319q0 316 212 504t509 188q256 0 377 -200l-131 -103q-89 152 -287 152q-198 -1 -355 -147t-157 -367q0 -139 102 -231t273 -93q170 0 322 156l88 -102q-197 -201 -455 -201z
" />
    <glyph glyph-name="Dcaron" unicode="&#x10e;" 
d="M913 1546l-237 293h131l174 -199l252 199h137l-352 -293h-105zM735 158q250 0 444 202t193 451q0 213 -119 344t-329 131h-332l-219 -1128h362zM1554 842q0 -215 -116 -411q-116 -195 -309 -313q-194 -118 -406 -118h-549l279 1444h499q252 0 427 -167t175 -435z" />
    <glyph glyph-name="dcaron" unicode="&#x10f;" horiz-adv-x="1570" 
d="M1743 1444q84 0 84 -88q0 -142 -93 -232t-229 -94l-12 72q166 6 199 141q-31 4 -51 27q-19 24 -19 62t38 75t83 37zM715 139q219 0 385 133l110 576q-114 129 -326 129t-367 -160t-155 -358q0 -143 98 -231t255 -89zM193 440q0 276 210 483q211 206 478 205
q219 0 362 -116l105 532h168l-299 -1544h-168l18 106q-164 -114 -391 -114t-355 119t-128 329z" />
    <glyph glyph-name="Dcroat" unicode="&#x110;" horiz-adv-x="1531" 
d="M692 1602l25 112h647l-25 -112h-647zM758 158q164 0 318 102t245 265q92 163 92 343t-130 299t-337 119h-332l-96 -493h373l-29 -142h-370l-97 -493h363zM977 1444q264 0 432 -161t168 -404q0 -351 -253 -615t-581 -264h-548l124 651h-200l28 142h201l127 651h502z" />
    <glyph glyph-name="dcroat" unicode="&#x111;" horiz-adv-x="1372" 
d="M715 139q219 0 385 133l110 576q-114 129 -326 129t-367 -160t-155 -358q0 -143 98 -231t255 -89zM193 440q0 276 210 483q211 206 478 205q219 0 362 -116l41 211h-235l26 143h238l35 178h168l-35 -178h239l-26 -143h-242l-235 -1223h-168l18 106q-164 -114 -391 -114
t-355 119t-128 329z" />
    <glyph glyph-name="Emacron" unicode="&#x112;" horiz-adv-x="1318" 
d="M668 1602l24 112h647l-24 -112h-647zM373 150h874l-28 -150h-1045l281 1444h1001l-29 -150h-831l-102 -520h704l-27 -147h-704z" />
    <glyph glyph-name="emacron" unicode="&#x113;" horiz-adv-x="1284" 
d="M590 1313l24 112h648l-25 -112h-647zM1153 692q0 137 -82 217q-81 80 -231 80t-276 -100t-177 -252h762q4 37 4 55zM356 465q0 -147 96 -237t248 -91q238 0 394 162l94 -90q-211 -221 -535 -221q-217 0 -339 126t-121 324q0 279 199 485q200 206 482 205q209 0 324 -120
t115 -316q0 -75 -25 -188h-930q-2 -12 -2 -39z" />
    <glyph glyph-name="Ebreve" unicode="&#x114;" horiz-adv-x="1318" 
d="M1014 1692q186 0 243 172l117 -9q-38 -139 -140 -209t-243 -69q-141 0 -213 70t-57 208l115 9q-8 -172 178 -172zM373 150h874l-28 -150h-1045l281 1444h1001l-29 -150h-831l-102 -520h704l-27 -147h-704z" />
    <glyph glyph-name="ebreve" unicode="&#x115;" horiz-adv-x="1284" 
d="M920 1403q186 0 243 172l117 -8q-38 -139 -140 -209t-243 -70t-213 70t-57 209l114 8q-7 -172 179 -172zM1153 692q0 137 -82 217q-81 80 -231 80t-276 -100t-177 -252h762q4 37 4 55zM356 465q0 -147 96 -237t248 -91q238 0 394 162l94 -90q-211 -221 -535 -221
q-217 0 -339 126t-121 324q0 279 199 485q200 206 482 205q209 0 324 -120t115 -316q0 -75 -25 -188h-930q-2 -12 -2 -39z" />
    <glyph glyph-name="Edotaccent" unicode="&#x116;" horiz-adv-x="1318" 
d="M911 1659q0 39 30 67t68 27q39 -1 63 -25t24 -63t-30 -68t-68 -29t-62 26t-25 65zM373 150h874l-28 -150h-1045l281 1444h1001l-29 -150h-831l-102 -520h704l-27 -147h-704z" />
    <glyph glyph-name="edotaccent" unicode="&#x117;" horiz-adv-x="1284" 
d="M1001 1376q1 -40 -29 -68t-68 -28t-62 26t-25 64q0 38 30 67q29 27 67 27t63 -24q24 -25 24 -64zM1153 692q0 137 -82 217q-81 80 -231 80t-276 -100t-177 -252h762q4 37 4 55zM356 465q0 -147 96 -237t248 -91q238 0 394 162l94 -90q-211 -221 -535 -221
q-217 0 -339 126t-121 324q0 279 199 485q200 206 482 205q209 0 324 -120t115 -316q0 -75 -25 -188h-930q-2 -12 -2 -39z" />
    <glyph glyph-name="Eogonek" unicode="&#x118;" horiz-adv-x="1318" 
d="M1086 -352q-64 0 -106 30t-42 90q0 62 44 128t105 104h-913l281 1444h1001l-29 -150h-831l-102 -520h704l-27 -147h-704l-94 -477h874l-28 -150q-143 -106 -144 -190q0 -66 86 -66q10 0 64 8q-3 -31 -11 -92q-64 -12 -128 -12z" />
    <glyph glyph-name="eogonek" unicode="&#x119;" horiz-adv-x="1284" 
d="M1153 692q0 137 -82 217q-81 80 -231 80t-276 -100t-177 -252h762q4 37 4 55zM678 -346q-64 0 -106 30t-42 83q0 125 125 221h-2q-217 0 -339 126t-121 324q0 279 199 485q200 206 482 205q209 0 324 -120t115 -316q0 -76 -25 -188h-930q-2 -12 -2 -39q0 -147 96 -237
t248 -91q238 0 394 162l94 -90q-162 -172 -387 -209q-133 -98 -133 -184q0 -66 86 -66q10 0 63 8q-2 -31 -10 -92q-65 -12 -129 -12z" />
    <glyph glyph-name="Ecaron" unicode="&#x11a;" horiz-adv-x="1318" 
d="M934 1546l-238 293h131l174 -199l252 199h138l-353 -293h-104zM373 150h874l-28 -150h-1045l281 1444h1001l-29 -150h-831l-102 -520h704l-27 -147h-704z" />
    <glyph glyph-name="ecaron" unicode="&#x11b;" horiz-adv-x="1284" 
d="M840 1257l-238 293h131l174 -198l252 198h137l-352 -293h-104zM1153 692q0 137 -82 217q-81 80 -231 80t-276 -100t-177 -252h762q4 37 4 55zM356 465q0 -147 96 -237t248 -91q238 0 394 162l94 -90q-211 -221 -535 -221q-217 0 -339 126t-121 324q0 279 199 485
q200 206 482 205q209 0 324 -120t115 -316q0 -75 -25 -188h-930q-2 -12 -2 -39z" />
    <glyph glyph-name="Gcircumflex" unicode="&#x11c;" horiz-adv-x="1619" 
d="M799 1546l350 293h108l240 -293h-135l-176 199l-252 -199h-135zM864 -12q-276 0 -452 165t-176 409t129 451q129 205 342 323t452 118q350 0 531 -207l-136 -121q-150 166 -428 166t-495 -211t-217 -489q0 -193 136 -321t368 -128t456 142l53 272h-483l27 135h659
l-96 -493q-309 -211 -670 -211z" />
    <glyph glyph-name="gcircumflex" unicode="&#x11d;" horiz-adv-x="1372" 
d="M582 1257l350 293h108l240 -293h-135l-176 199l-252 -199h-135zM362 471q0 -133 100 -219t263 -86q221 0 377 123l106 557q-110 131 -322 131q-212 -1 -368 -155t-156 -351zM541 -381q-197 0 -406 70l58 127q338 -109 572 -32q164 54 248 205q34 60 50 134
q-188 -111 -400 -111t-340 121t-128 318q1 283 205 481t481 196q223 0 360 -120l19 100h170l-185 -948q-106 -541 -704 -541z" />
    <glyph glyph-name="Gbreve" unicode="&#x11e;" horiz-adv-x="1619" 
d="M1178 1692q186 0 243 172l117 -9q-38 -139 -140 -209t-243 -69q-141 0 -213 70t-57 208l114 9q-7 -172 179 -172zM864 -12q-276 0 -452 165t-176 409t129 451q129 205 342 323t452 118q350 0 531 -207l-136 -121q-150 166 -428 166t-495 -211t-217 -489q0 -193 136 -321
t368 -128t456 142l53 272h-483l27 135h659l-96 -493q-309 -211 -670 -211z" />
    <glyph glyph-name="gbreve" unicode="&#x11f;" horiz-adv-x="1372" 
d="M960 1403q186 0 244 172l117 -8q-39 -139 -141 -209t-242 -70q-141 0 -213 70t-57 209l114 8q-8 -172 178 -172zM362 471q0 -133 100 -219t263 -86q221 0 377 123l106 557q-110 131 -322 131q-212 -1 -368 -155t-156 -351zM541 -381q-197 0 -406 70l58 127
q338 -109 572 -32q164 54 248 205q34 60 50 134q-188 -111 -400 -111t-340 121t-128 318q1 283 205 481t481 196q223 0 360 -120l19 100h170l-185 -948q-106 -541 -704 -541z" />
    <glyph glyph-name="Gdotaccent" unicode="&#x120;" horiz-adv-x="1619" 
d="M1075 1659q0 39 30 67t68 27q39 -1 63 -25t24 -63t-30 -68t-68 -29t-62 26t-25 65zM864 -12q-276 0 -452 165t-176 409t129 451q129 205 342 323t452 118q350 0 531 -207l-136 -121q-150 166 -428 166t-495 -211t-217 -489q0 -193 136 -321t368 -128t456 142l53 272h-483
l27 135h659l-96 -493q-309 -211 -670 -211z" />
    <glyph glyph-name="gdotaccent" unicode="&#x121;" horiz-adv-x="1372" 
d="M1042 1376q0 -40 -30 -68t-67 -28q-39 0 -63 26t-24 64t30 67q30 27 68 27t62 -24q24 -25 24 -64zM362 471q0 -133 100 -219t263 -86q221 0 377 123l106 557q-110 131 -322 131q-212 -1 -368 -155t-156 -351zM541 -381q-197 0 -406 70l58 127q338 -109 572 -32
q164 54 248 205q34 60 50 134q-188 -111 -400 -111t-340 121t-128 318q1 283 205 481t481 196q223 0 360 -120l19 100h170l-185 -948q-106 -541 -704 -541z" />
    <glyph glyph-name="Gcommaaccent" unicode="&#x122;" horiz-adv-x="1619" 
d="M844 -127q84 0 84 -90q0 -141 -94 -231t-228 -93l-10 72q166 4 197 141q-68 10 -68 80q0 47 37 84t82 37zM864 -12q-276 0 -452 165t-176 409t129 451q129 205 342 323t452 118q350 0 531 -207l-136 -121q-150 166 -428 166t-495 -211t-217 -489q0 -193 136 -321
t368 -128t456 142l53 272h-483l27 135h659l-96 -493q-309 -211 -670 -211z" />
    <glyph glyph-name="gcommaaccent" unicode="&#x123;" horiz-adv-x="1372" 
d="M938 1298q-84 0 -84 91q0 141 94 231t228 92l10 -72q-166 -4 -197 -141q68 -10 68 -80q0 -47 -37 -84t-82 -37zM362 471q0 -133 100 -219t263 -86q221 0 377 123l106 557q-110 131 -322 131q-212 -1 -368 -155t-156 -351zM541 -381q-197 0 -406 70l58 127
q338 -109 572 -32q164 54 248 205q34 60 50 134q-188 -111 -400 -111t-340 121t-128 318q1 283 205 481t481 196q223 0 360 -120l19 100h170l-185 -948q-106 -541 -704 -541z" />
    <glyph glyph-name="Hcircumflex" unicode="&#x124;" 
d="M719 1546l350 293h109l239 -293h-135l-176 199l-252 -199h-135zM1444 1444h172l-281 -1444h-172l107 555h-819l-107 -555h-170l281 1444h170l-144 -739h819z" />
    <glyph glyph-name="hcircumflex" unicode="&#x125;" horiz-adv-x="1304" 
d="M631 1546l350 293h109l239 -293h-135l-176 199l-252 -199h-135zM520 1008q172 122 378 122q411 -1 413 -350q0 -66 -19 -162l-121 -616h-170l121 616q12 74 13 111q0 123 -74 186t-203 64q-197 0 -369 -125l-163 -854h-170l299 1544h170z" />
    <glyph glyph-name="Hbar" unicode="&#x126;" 
d="M481 705h819l89 452h-820zM1663 1276l-25 -119h-79l-224 -1157h-172l107 555h-819l-107 -555h-170l225 1157h-96l25 119h94l33 168h170l-33 -168h819l33 168h172l-33 -168h80z" />
    <glyph glyph-name="hbar" unicode="&#x127;" horiz-adv-x="1304" 
d="M201 1157l20 117h180l54 270h170l-54 -270h199l-20 -117h-201l-29 -149q172 122 378 122q411 -1 413 -350q0 -66 -19 -162l-121 -616h-170l121 616q12 74 13 111q0 123 -74 186t-203 64q-197 0 -369 -125l-163 -854h-170l223 1157h-178z" />
    <glyph glyph-name="Itilde" unicode="&#x128;" horiz-adv-x="530" 
d="M445 1839q82 0 184 -46t148 -46t91 38t72 107l90 -12q-36 -124 -110 -192t-146 -68t-178 47q-104 47 -145 47q-120 0 -181 -147l-90 10q35 125 109 193t156 69zM635 1444l-281 -1444h-178l281 1444h178z" />
    <glyph glyph-name="itilde" unicode="&#x129;" horiz-adv-x="491" 
d="M160 0l213 1108h172l-215 -1108h-170zM691 1411q46 0 91 38t72 107l90 -12q-36 -124 -110 -192t-146 -68t-178 47q-104 47 -145 47q-120 0 -181 -147l-90 10q35 125 109 194t172 68q66 0 168 -46t148 -46z" />
    <glyph glyph-name="Imacron" unicode="&#x12a;" horiz-adv-x="530" 
d="M256 1628l25 113h647l-25 -113h-647zM635 1444l-281 -1444h-178l281 1444h178z" />
    <glyph glyph-name="imacron" unicode="&#x12b;" horiz-adv-x="491" 
d="M160 0l213 1108h172l-215 -1108h-170zM172 1292l25 113h647l-25 -113h-647z" />
    <glyph glyph-name="Ibreve" unicode="&#x12c;" horiz-adv-x="530" 
d="M600 1718q186 0 244 172l117 -8q-39 -138 -141 -208t-242 -70q-141 0 -213 70t-58 208l115 8q-8 -172 178 -172zM635 1444l-281 -1444h-178l281 1444h178z" />
    <glyph glyph-name="ibreve" unicode="&#x12d;" horiz-adv-x="491" 
d="M160 0l213 1108h172l-215 -1108h-170zM516 1382q186 0 244 172l117 -8q-39 -138 -141 -208t-242 -70q-141 0 -213 70t-58 208l115 8q-8 -172 178 -172z" />
    <glyph glyph-name="Iogonek" unicode="&#x12e;" horiz-adv-x="530" 
d="M220 -352q-64 0 -104 30q-42 30 -42 90q0 62 44 128t105 104h-47l281 1444h178l-281 -1444q-143 -106 -143 -190q0 -66 86 -66q10 0 63 8q-2 -31 -10 -92q-66 -12 -130 -12z" />
    <glyph glyph-name="iogonek" unicode="&#x12f;" horiz-adv-x="491" 
d="M519 1503q44 -1 73 -29t29 -72t-35 -77t-78 -33t-72 29q-28 29 -28 74t34 77t77 31zM272 -256q10 0 64 8q-2 -31 -10 -92q-66 -12 -130 -12t-105 30q-42 30 -42 90q0 62 44 128t106 104h-39l213 1108h170l-213 -1108q-143 -106 -144 -190q0 -66 86 -66z" />
    <glyph glyph-name="Idotaccent" unicode="&#x130;" horiz-adv-x="530" 
d="M597 1780q39 0 63 -24t24 -64q0 -39 -30 -68t-68 -29t-62 26q-24 27 -24 65t29 66q30 28 68 28zM635 1444l-281 -1444h-178l281 1444h178z" />
    <glyph glyph-name="dotlessi" unicode="&#x131;" horiz-adv-x="491" 
d="M160 0l213 1108h172l-215 -1108h-170z" />
    <glyph glyph-name="IJ" unicode="&#x132;" horiz-adv-x="1742" 
d="M1708 1444h174l-168 -854q-57 -289 -220 -446t-409 -156q-193 0 -305 123t-110 313l157 14q0 -127 78 -208t209 -80q164 0 274 110t144 289zM635 1444l-281 -1444h-178l281 1444h178z" />
    <glyph glyph-name="ij" unicode="&#x133;" horiz-adv-x="985" 
d="M1001 1292q-43 0 -71 29t-29 74q0 45 34 77t78 31q45 1 73 -27t28 -73t-35 -78t-78 -33zM432 -383q-59 0 -121 12l27 138q16 -2 55 -3q109 0 173 62t91 194l211 1088h170l-223 -1157q-31 -160 -139 -247t-244 -87zM519 1503q44 -1 73 -29t29 -72t-35 -77t-78 -33t-72 29
q-28 29 -28 74t34 77t77 31zM160 0l213 1108h170l-213 -1108h-170z" />
    <glyph glyph-name="Jcircumflex" unicode="&#x134;" horiz-adv-x="1216" 
d="M639 1546l350 293h109l239 -293h-135l-176 199l-252 -199h-135zM1169 1444h174l-167 -854q-56 -289 -220 -446t-409 -156q-193 0 -305 123t-111 313l158 14q0 -127 78 -208t208 -80q162 0 273 110t145 289z" />
    <glyph glyph-name="jcircumflex" unicode="&#x135;" horiz-adv-x="489" 
d="M141 1257l351 293h108l240 -293h-135l-177 199l-252 -199h-135zM-63 -383q-59 0 -121 12l26 138q72 -2 107 12q73 11 133 77t80 164l211 1088h170l-224 -1157q-31 -160 -139 -247t-243 -87z" />
    <glyph glyph-name="Kcommaaccent" unicode="&#x136;" horiz-adv-x="1429" 
d="M668 -127q84 0 84 -90q0 -141 -94 -231t-228 -93l-10 72q166 4 196 141q-68 10 -67 80q0 47 37 84t82 37zM850 739l514 -739h-234l-421 610l-299 -268l-66 -342h-170l281 1444h170l-166 -858l952 858h215z" />
    <glyph glyph-name="kcommaaccent" unicode="&#x137;" horiz-adv-x="1247" 
d="M604 -127q84 0 84 -90q0 -141 -94 -231t-227 -93l-11 72q166 4 197 141q-68 10 -68 80q0 47 37 84t82 37zM911 682l299 -682h-192l-246 553l-401 -322l-45 -231h-170l299 1544h170l-211 -1089l800 653h207z" />
    <glyph glyph-name="kgreenlandic" unicode="&#x138;" horiz-adv-x="1247" 
d="M911 682l299 -682h-192l-246 553l-401 -322l-45 -231h-170l213 1108h172l-127 -653l800 653h207z" />
    <glyph glyph-name="Lacute" unicode="&#x139;" horiz-adv-x="1226" 
d="M1026 1868l-395 -322h-119l324 336zM377 145h801l-27 -145h-977l281 1444h176z" />
    <glyph glyph-name="lacute" unicode="&#x13a;" horiz-adv-x="489" 
d="M1022 1968l-395 -321h-119l323 335zM158 0l299 1544h172l-299 -1544h-172z" />
    <glyph glyph-name="Lcommaaccent" unicode="&#x13b;" horiz-adv-x="1226" 
d="M637 -127q84 0 84 -90q0 -141 -94 -231t-228 -93l-10 72q166 4 197 141q-68 10 -68 80q0 47 37 84t82 37zM377 145h801l-27 -145h-977l281 1444h176z" />
    <glyph glyph-name="lcommaaccent" unicode="&#x13c;" horiz-adv-x="489" 
d="M209 -127q84 0 84 -90q0 -141 -94 -231t-228 -93l-10 72q166 4 197 141q-68 10 -68 80q0 47 37 84t82 37zM158 0l299 1544h172l-299 -1544h-172z" />
    <glyph glyph-name="Lcaron" unicode="&#x13d;" horiz-adv-x="1226" 
d="M948 1446q84 0 84 -88q0 -142 -93 -232t-228 -94l-13 72q166 6 199 141q-31 4 -50 27q-19 24 -19 62t37 75q38 37 83 37zM377 145h801l-27 -145h-977l281 1444h176z" />
    <glyph glyph-name="lcaron" unicode="&#x13e;" horiz-adv-x="737" 
d="M913 1444q84 0 84 -88q0 -142 -93 -232t-228 -94l-12 72q166 6 198 141q-31 4 -50 27q-19 24 -19 62t37 75q38 37 83 37zM158 0l299 1544h172l-299 -1544h-172z" />
    <glyph glyph-name="Ldot" unicode="&#x13f;" horiz-adv-x="1226" 
d="M801 1159q43 -1 71 -29t29 -73q0 -45 -35 -78t-79 -33q-43 0 -71 29t-28 73t35 78q35 33 78 33zM377 145h801l-27 -145h-977l281 1444h176z" />
    <glyph glyph-name="ldot" unicode="&#x140;" horiz-adv-x="673" 
d="M749 1159q41 -1 71 -29t30 -73t-35 -78t-79 -33t-72 29t-27 73q0 44 35 78q35 33 77 33zM158 0l299 1544h172l-299 -1544h-172z" />
    <glyph glyph-name="Lslash" unicode="&#x141;" horiz-adv-x="1224" 
d="M94 547l31 164l197 53l133 680h176l-123 -629l487 135l-32 -164l-488 -133l-98 -508h801l-27 -145h-977l115 602z" />
    <glyph glyph-name="lslash" unicode="&#x142;" horiz-adv-x="673" 
d="M72 543l32 164l258 71l150 766h174l-139 -717l278 78l-32 -162l-277 -77l-129 -666h-174l117 614z" />
    <glyph glyph-name="Nacute" unicode="&#x143;" horiz-adv-x="1583" 
d="M1536 1868l-395 -322h-119l324 336zM1516 1444h174l-281 -1444h-92l-752 1114l-215 -1114h-176l281 1444h92l751 -1114z" />
    <glyph glyph-name="nacute" unicode="&#x144;" horiz-adv-x="1306" 
d="M1337 1559l-395 -322h-119l324 336zM896 1128q412 0 415 -350q0 -66 -19 -162l-121 -616h-170l121 616q12 74 13 111q0 123 -74 186t-203 64q-197 0 -369 -125l-163 -852h-170l213 1108h170l-21 -107q172 127 378 127z" />
    <glyph glyph-name="Ncommaaccent" unicode="&#x145;" horiz-adv-x="1583" 
d="M778 -127q84 0 84 -90q0 -141 -94 -231t-227 -93l-11 72q166 4 197 141q-68 10 -68 80q0 47 37 84t82 37zM1516 1444h174l-281 -1444h-92l-752 1114l-215 -1114h-176l281 1444h92l751 -1114z" />
    <glyph glyph-name="ncommaaccent" unicode="&#x146;" horiz-adv-x="1306" 
d="M653 -127q84 0 84 -90q0 -141 -94 -231t-227 -93l-10 72q166 4 196 141q-68 10 -67 80q0 47 36 84q37 37 82 37zM896 1128q412 0 415 -350q0 -66 -19 -162l-121 -616h-170l121 616q12 74 13 111q0 123 -74 186t-203 64q-197 0 -369 -125l-163 -852h-170l213 1108h170
l-21 -107q172 127 378 127z" />
    <glyph glyph-name="Ncaron" unicode="&#x147;" horiz-adv-x="1583" 
d="M1040 1546l-237 293h131l174 -199l252 199h137l-352 -293h-105zM1516 1444h174l-281 -1444h-92l-752 1114l-215 -1114h-176l281 1444h92l751 -1114z" />
    <glyph glyph-name="ncaron" unicode="&#x148;" horiz-adv-x="1306" 
d="M829 1237l-237 293h131l174 -199l252 199h137l-352 -293h-105zM896 1128q412 0 415 -350q0 -66 -19 -162l-121 -616h-170l121 616q12 74 13 111q0 123 -74 186t-203 64q-197 0 -369 -125l-163 -852h-170l213 1108h170l-21 -107q172 127 378 127z" />
    <glyph glyph-name="napostrophe" unicode="&#x149;" horiz-adv-x="1306" 
d="M606 1647q84 0 84 -91q0 -141 -94 -231t-227 -92l-11 72q166 4 197 141q-68 10 -68 80q0 47 37 84t82 37zM896 1128q412 0 415 -350q0 -66 -19 -162l-121 -616h-170l121 616q12 74 13 111q0 123 -74 186t-203 64q-197 0 -369 -125l-163 -852h-170l213 1108h170l-21 -107
q172 127 378 127z" />
    <glyph glyph-name="Eng" unicode="&#x14a;" horiz-adv-x="1583" 
d="M806 -387q222 0 321 147q81 121 124 322l-682 1051l-219 -1133h-176l281 1444h92l747 -1133l222 1133h174l-277 -1424q-111 -569 -622 -569q-182 0 -302 116q-119 116 -118 290l2 28l155 17q2 -127 81 -208t197 -81z" />
    <glyph glyph-name="eng" unicode="&#x14b;" horiz-adv-x="1306" 
d="M896 1128q409 0 411 -354q0 -72 -15 -145l-131 -678q-33 -168 -145 -250t-264 -82q-59 0 -97 10l27 138q16 -2 57 -3q215 0 260 230l123 635q10 55 11 94q0 123 -74 189t-201 65q-201 0 -369 -125l-163 -852h-170l213 1108h170l-21 -107q172 127 378 127z" />
    <glyph glyph-name="Omacron" unicode="&#x14c;" horiz-adv-x="1740" 
d="M844 1602l24 112h648l-25 -112h-647zM928 150q274 0 470 181t195 464q0 211 -146 354t-368 143q-283 0 -474 -196t-191 -465q0 -205 146 -343t368 -138zM1096 1454q290 0 484 -185t194 -458q0 -369 -252 -596t-611 -227q-291 0 -485 181t-193 447q0 344 244 591t619 247z
" />
    <glyph glyph-name="omacron" unicode="&#x14d;" horiz-adv-x="1386" 
d="M618 1292l25 113h647l-24 -113h-648zM727 139q211 0 367 133t155 367q0 143 -104 241t-262 97q-229 1 -373 -147t-145 -353q0 -141 102 -239t260 -99zM899 1128q221 0 371 -137t149 -332q0 -163 -61 -295q-60 -132 -162 -212q-208 -164 -485 -164q-217 0 -368 138
t-150 331q0 281 192 476t514 195z" />
    <glyph glyph-name="Obreve" unicode="&#x14e;" horiz-adv-x="1740" 
d="M1190 1692q186 0 244 172l116 -9q-38 -139 -140 -209t-243 -69q-141 0 -213 70t-57 208l115 9q-8 -172 178 -172zM928 150q274 0 470 181t195 464q0 211 -146 354t-368 143q-283 0 -474 -196t-191 -465q0 -205 146 -343t368 -138zM1096 1454q290 0 484 -185t194 -458
q0 -369 -252 -596t-611 -227q-291 0 -485 181t-193 447q0 344 244 591t619 247z" />
    <glyph glyph-name="obreve" unicode="&#x14f;" horiz-adv-x="1386" 
d="M958 1382q186 0 244 172l117 -8q-39 -139 -140 -209q-102 -69 -243 -69t-213 70t-57 208l114 8q-8 -172 178 -172zM727 139q211 0 367 133t155 367q0 143 -104 241t-262 97q-229 1 -373 -147t-145 -353q0 -141 102 -239t260 -99zM899 1128q221 0 371 -137t149 -332
q0 -163 -61 -295q-60 -132 -162 -212q-208 -164 -485 -164q-217 0 -368 138t-150 331q0 281 192 476t514 195z" />
    <glyph glyph-name="Ohungarumlaut" unicode="&#x150;" horiz-adv-x="1740" 
d="M1253 1552l256 328l152 -53l-281 -275h-127zM1190 1880l143 -51l-270 -277h-129zM928 150q274 0 470 181t195 464q0 211 -146 354t-368 143q-283 0 -474 -196t-191 -465q0 -205 146 -343t368 -138zM1096 1454q290 0 484 -185t194 -458q0 -369 -252 -596t-611 -227
q-291 0 -485 181t-193 447q0 344 244 591t619 247z" />
    <glyph glyph-name="ohungarumlaut" unicode="&#x151;" horiz-adv-x="1386" 
d="M1014 1243l256 328l151 -53l-280 -275h-127zM950 1571l144 -51l-271 -277h-129zM727 139q211 0 367 133t155 367q0 143 -104 241t-262 97q-229 1 -373 -147t-145 -353q0 -141 102 -239t260 -99zM899 1128q221 0 371 -137t149 -332q0 -163 -61 -295q-60 -132 -162 -212
q-208 -164 -485 -164q-217 0 -368 138t-150 331q0 281 192 476t514 195z" />
    <glyph glyph-name="OE" unicode="&#x152;" horiz-adv-x="2113" 
d="M918 150h79l230 1144h-70q-309 0 -525 -194t-216 -520q0 -209 140 -320q141 -110 362 -110zM233 567q-1 375 263 626t639 251h1118l-31 -150h-831l-101 -520h705l-29 -147h-704l-93 -477h875l-29 -150h-1179q-262 0 -432 162t-171 405z" />
    <glyph glyph-name="oe" unicode="&#x153;" horiz-adv-x="2316" 
d="M2181 692q0 137 -82 217q-81 80 -231 80t-276 -100t-177 -252h762q4 37 4 55zM721 139q211 0 356 133t146 367q-1 143 -97 241t-249 97q-233 1 -375 -145t-144 -355q0 -141 102 -239t261 -99zM1384 465q0 -147 96 -237t249 -91q238 0 393 162l94 -90q-211 -221 -535 -221
q-157 0 -267 68t-159 190q-90 -125 -237 -192t-313 -66q-227 0 -374 136t-147 324t83 338q83 152 247 247t379 95q160 0 285 -80t174 -206q96 133 240 210t311 76q209 0 323 -120t115 -316q0 -75 -25 -188h-930q-2 -12 -2 -39z" />
    <glyph glyph-name="Racute" unicode="&#x154;" horiz-adv-x="1400" 
d="M1411 1868l-395 -322h-119l324 336zM811 588q219 0 361 118t143 314q0 137 -75 206t-247 68h-393l-137 -706h348zM758 442h-324l-84 -442h-176l281 1444h532q266 0 387 -104t121 -281q0 -217 -114 -367t-314 -211l272 -481h-211l-243 446q-82 -4 -127 -4z" />
    <glyph glyph-name="racute" unicode="&#x155;" horiz-adv-x="890" 
d="M956 1579l-395 -322h-119l324 336zM539 1108l-41 -217q164 238 409 237q68 0 131 -32l-47 -176q-78 33 -153 32q-152 0 -262 -112t-142 -279l-108 -561h-170l215 1108h168z" />
    <glyph glyph-name="Rcommaaccent" unicode="&#x156;" horiz-adv-x="1400" 
d="M700 -127q84 0 84 -90q0 -141 -94 -231t-227 -93l-10 72q166 4 196 141q-68 10 -67 80q0 47 36 84q37 37 82 37zM811 588q219 0 361 118t143 314q0 137 -75 206t-247 68h-393l-137 -706h348zM758 442h-324l-84 -442h-176l281 1444h532q266 0 387 -104t121 -281
q0 -217 -114 -367t-314 -211l272 -481h-211l-243 446q-82 -4 -127 -4z" />
    <glyph glyph-name="rcommaaccent" unicode="&#x157;" horiz-adv-x="890" 
d="M221 -127q84 0 84 -90q0 -141 -94 -231t-227 -93l-11 72q166 4 197 141q-68 10 -68 80q0 47 37 84t82 37zM539 1108l-41 -217q164 238 409 237q68 0 131 -32l-47 -176q-78 33 -153 32q-152 0 -262 -112t-142 -279l-108 -561h-170l215 1108h168z" />
    <glyph glyph-name="Rcaron" unicode="&#x158;" horiz-adv-x="1400" 
d="M930 1546l-238 293h131l174 -199l252 199h137l-352 -293h-104zM811 588q219 0 361 118t143 314q0 137 -75 206t-247 68h-393l-137 -706h348zM758 442h-324l-84 -442h-176l281 1444h532q266 0 387 -104t121 -281q0 -217 -114 -367t-314 -211l272 -481h-211l-243 446
q-82 -4 -127 -4z" />
    <glyph glyph-name="rcaron" unicode="&#x159;" horiz-adv-x="890" 
d="M659 1257l-237 293h131l174 -198l252 198h137l-352 -293h-105zM539 1108l-41 -217q164 238 409 237q68 0 131 -32l-47 -176q-78 33 -153 32q-152 0 -262 -112t-142 -279l-108 -561h-170l215 1108h168z" />
    <glyph glyph-name="Sacute" unicode="&#x15a;" horiz-adv-x="1310" 
d="M1391 1868l-396 -322h-118l323 336zM707 135q157 0 281 74t124 209q0 96 -96 145q-68 37 -210 73t-212 60q-72 24 -144 64q-142 77 -141 227q0 151 91 261q173 210 505 210q283 0 496 -110l-94 -140q-82 45 -206 73t-249 28t-243 -75t-117 -202q0 -86 88 -135t288 -101
t312 -129t112 -215t-61 -234q-61 -95 -163 -143q-197 -93 -427 -91q-158 0 -262 26t-248 107l88 135q135 -72 233 -94t255 -23z" />
    <glyph glyph-name="sacute" unicode="&#x15b;" horiz-adv-x="1083" 
d="M1200 1559l-395 -322h-119l324 336zM582 125q121 0 220 56t99 159q0 61 -67 95q-68 34 -230 69t-254 88q-90 53 -90 160q0 174 146 275t340 101q196 0 393 -86l-82 -127q-154 74 -350 74q-107 0 -197 -52t-92 -140q0 -59 66 -92t230 -67q166 -34 256 -91t91 -163
q0 -106 -47 -186q-80 -138 -290 -190q-85 -20 -173 -20q-236 0 -447 102l91 127q211 -92 387 -92z" />
    <glyph glyph-name="Scircumflex" unicode="&#x15c;" horiz-adv-x="1310" 
d="M594 1546l350 293h109l239 -293h-135l-176 199l-252 -199h-135zM707 135q157 0 281 74t124 209q0 96 -96 145q-68 37 -210 73t-212 60q-72 24 -144 64q-142 77 -141 227q0 151 91 261q173 210 505 210q283 0 496 -110l-94 -140q-82 45 -206 73t-249 28t-243 -75
t-117 -202q0 -86 88 -135t288 -101t312 -129t112 -215t-61 -234q-61 -95 -163 -143q-197 -93 -427 -91q-158 0 -262 26t-248 107l88 135q135 -72 233 -94t255 -23z" />
    <glyph glyph-name="scircumflex" unicode="&#x15d;" horiz-adv-x="1083" 
d="M410 1237l350 293h108l240 -293h-135l-176 199l-252 -199h-135zM582 125q121 0 220 56t99 159q0 61 -67 95q-68 34 -230 69t-254 88q-90 53 -90 160q0 174 146 275t340 101q196 0 393 -86l-82 -127q-154 74 -350 74q-107 0 -197 -52t-92 -140q0 -59 66 -92t230 -67
q166 -34 256 -91t91 -163q0 -106 -47 -186q-80 -138 -290 -190q-85 -20 -173 -20q-236 0 -447 102l91 127q211 -92 387 -92z" />
    <glyph glyph-name="Scedilla" unicode="&#x15e;" horiz-adv-x="1310" 
d="M707 135q157 0 281 74t124 209q0 96 -96 145q-68 37 -210 73t-212 60q-72 24 -144 64q-142 77 -141 227q0 151 91 261q173 210 505 210q283 0 496 -110l-94 -140q-82 45 -206 73t-249 28t-243 -75t-117 -202q0 -86 88 -135t288 -101t312 -129q113 -77 112 -221
q0 -231 -164 -335q-164 -105 -372 -121l-70 -105q30 -1 54 -23t24 -61q0 -70 -64 -125t-186 -55l-129 8l14 70q37 -10 99 -10q62 1 104 29t43 67q0 59 -133 59l127 140q-156 0 -260 26t-248 107l88 135q135 -72 233 -94t255 -23z" />
    <glyph glyph-name="scedilla" unicode="&#x15f;" horiz-adv-x="1083" 
d="M582 125q121 0 220 56t99 159q0 61 -67 95q-68 34 -230 69t-254 88q-90 53 -90 160q0 174 146 275t340 101q196 0 393 -86l-82 -127q-154 74 -350 74q-107 0 -197 -52t-92 -140q0 -59 66 -92t230 -67q166 -34 256 -91t91 -173q0 -116 -70 -206q-123 -158 -373 -176
l-71 -107q31 -1 55 -23t23 -61q1 -70 -63 -125t-187 -55l-129 8l14 70q36 -10 98 -10q62 1 105 29t43 67q0 59 -133 59l133 146q-217 8 -402 100l91 127q211 -92 387 -92z" />
    <glyph glyph-name="Scaron" unicode="&#x160;" horiz-adv-x="1310" 
d="M891 1546l-238 293h131l174 -199l252 199h138l-353 -293h-104zM707 135q157 0 281 74t124 209q0 96 -96 145q-68 37 -210 73t-212 60q-72 24 -144 64q-142 77 -141 227q0 151 91 261q173 210 505 210q283 0 496 -110l-94 -140q-82 45 -206 73t-249 28t-243 -75t-117 -202
q0 -86 88 -135t288 -101t312 -129t112 -215t-61 -234q-61 -95 -163 -143q-197 -93 -427 -91q-158 0 -262 26t-248 107l88 135q135 -72 233 -94t255 -23z" />
    <glyph glyph-name="scaron" unicode="&#x161;" horiz-adv-x="1083" 
d="M727 1237l-238 293h132l174 -199l252 199h137l-353 -293h-104zM582 125q121 0 220 56t99 159q0 61 -67 95q-68 34 -230 69t-254 88q-90 53 -90 160q0 174 146 275t340 101q196 0 393 -86l-82 -127q-154 74 -350 74q-107 0 -197 -52t-92 -140q0 -59 66 -92t230 -67
q166 -34 256 -91t91 -163q0 -106 -47 -186q-80 -138 -290 -190q-85 -20 -173 -20q-236 0 -447 102l91 127q211 -92 387 -92z" />
    <glyph glyph-name="Tcedilla" unicode="&#x162;" horiz-adv-x="1351" 
d="M768 0h-2q-10 -14 -78 -115q30 -1 54 -23t24 -61q0 -70 -64 -125t-186 -55l-129 8l14 70q37 -10 99 -10q62 1 104 29t43 67q0 59 -133 59l143 156h-67l252 1294h-496l31 150h1167l-31 -150h-495l-250 -1292v-2z" />
    <glyph glyph-name="tcedilla" unicode="&#x163;" horiz-adv-x="823" 
d="M569 -12q-131 0 -210 60t-78 190q0 37 12 98l123 631h-185l27 141h184l84 436h172l-86 -436h377l-26 -141h-377l-119 -643q-6 -31 -6 -56q0 -133 178 -133q92 0 160 15l-25 -130q-59 -16 -82 -20l-78 -115q31 -1 55 -23t23 -61q0 -70 -63 -125t-187 -55l-129 8l15 70
q36 -10 98 -10q62 1 104 29t43 67q0 59 -133 59l131 144h-2z" />
    <glyph glyph-name="Tcaron" unicode="&#x164;" horiz-adv-x="1351" 
d="M932 1546l-238 293h131l174 -199l252 199h138l-353 -293h-104zM1544 1444l-31 -150h-495l-250 -1294h-178l252 1294h-496l31 150h1167z" />
    <glyph glyph-name="tcaron" unicode="&#x165;" horiz-adv-x="894" 
d="M1184 1567q84 0 84 -88q0 -141 -93 -231t-229 -95l-12 72q166 6 199 141q-31 4 -51 27q-19 23 -19 61t38 76q38 37 83 37zM461 268q0 -133 178 -133q92 0 160 15l-25 -130q-98 -32 -217 -32t-198 60t-78 190q0 37 12 98l123 631h-185l27 141h184l84 436h172l-86 -436h377
l-26 -141h-377l-119 -643q-6 -31 -6 -56z" />
    <glyph glyph-name="Tbar" unicode="&#x166;" horiz-adv-x="1351" 
d="M494 707l24 112h230l94 475h-496l31 150h1167l-31 -150h-495l-92 -475h239l-24 -112h-238l-135 -707h-178l137 707h-233z" />
    <glyph glyph-name="tbar" unicode="&#x167;" horiz-adv-x="823" 
d="M461 268q0 -133 178 -133q92 0 160 15l-25 -130q-98 -32 -217 -32t-198 60t-78 190q0 37 12 98l59 311h-145l24 113h144l41 207h-185l27 141h184l84 436h172l-86 -436h377l-26 -141h-377l-39 -207h332l-25 -113h-328l-59 -323q-6 -31 -6 -56z" />
    <glyph glyph-name="Utilde" unicode="&#x168;" horiz-adv-x="1546" 
d="M1281 1720q46 0 91 38t72 108l90 -13q-35 -123 -110 -191t-147 -69q-73 0 -177 47t-146 48q-119 -1 -180 -148l-90 10q35 125 109 194t172 68q66 0 168 -46t148 -46zM799 147q211 0 348 126t180 343l162 828h170l-168 -864q-47 -266 -237 -426t-451 -160q-260 0 -397 121
t-138 342q0 55 19 147l159 840h172q-165 -835 -172 -957q0 -340 353 -340z" />
    <glyph glyph-name="utilde" unicode="&#x169;" horiz-adv-x="1320" 
d="M1098 1411q46 0 92 38q45 38 72 107l90 -12q-35 -124 -110 -192q-76 -68 -148 -68t-176 47t-146 47q-119 0 -180 -147l-90 10q35 125 108 194q74 69 172 68q66 0 168 -46t148 -46zM606 -8q-182 0 -287 85q-104 85 -104 240q-1 92 19 194t31 159t37 189t48 249h170
q-131 -666 -131 -721q0 -121 74 -184t203 -64q201 0 381 133l163 836h168l-213 -1108h-170l23 115q-164 -123 -412 -123z" />
    <glyph glyph-name="Umacron" unicode="&#x16a;" horiz-adv-x="1546" 
d="M760 1602l24 112h648l-25 -112h-647zM799 147q211 0 348 126t180 343l162 828h170l-168 -864q-47 -266 -237 -426t-451 -160q-260 0 -397 121t-138 342q0 55 19 147l159 840h172q-165 -835 -172 -957q0 -340 353 -340z" />
    <glyph glyph-name="umacron" unicode="&#x16b;" horiz-adv-x="1320" 
d="M578 1292l24 113h647l-24 -113h-647zM606 -8q-182 0 -287 85q-104 85 -104 240q-1 92 19 194t31 159t37 189t48 249h170q-131 -666 -131 -721q0 -121 74 -184t203 -64q201 0 381 133l163 836h168l-213 -1108h-170l23 115q-164 -123 -412 -123z" />
    <glyph glyph-name="Ubreve" unicode="&#x16c;" horiz-adv-x="1546" 
d="M1106 1692q186 0 244 172l116 -9q-38 -139 -140 -209t-243 -69q-141 0 -213 70t-57 208l115 9q-8 -172 178 -172zM799 147q211 0 348 126t180 343l162 828h170l-168 -864q-47 -266 -237 -426t-451 -160q-260 0 -397 121t-138 342q0 55 19 147l159 840h172
q-165 -835 -172 -957q0 -340 353 -340z" />
    <glyph glyph-name="ubreve" unicode="&#x16d;" horiz-adv-x="1320" 
d="M922 1382q186 0 243 172l117 -8q-39 -139 -140 -209q-102 -69 -243 -69t-213 70t-57 208l114 8q-7 -172 179 -172zM606 -8q-182 0 -287 85q-104 85 -104 240q-1 92 19 194t31 159t37 189t48 249h170q-131 -666 -131 -721q0 -121 74 -184t203 -64q201 0 381 133l163 836
h168l-213 -1108h-170l23 115q-164 -123 -412 -123z" />
    <glyph glyph-name="Uring" unicode="&#x16e;" horiz-adv-x="1546" 
d="M1184 1585q0 49 -31 79t-77 30t-86 -38t-40 -87t29 -79t77 -30t88 38t40 87zM1264 1584q0 -83 -64 -143q-64 -61 -144 -61q-81 0 -132 54q-52 54 -52 136q0 83 64 143q64 61 142 61t132 -54t54 -136zM799 147q211 0 348 126t180 343l162 828h170l-168 -864
q-47 -266 -237 -426t-451 -160q-260 0 -397 121t-138 342q0 55 19 147l159 840h172q-165 -835 -172 -957q0 -340 353 -340z" />
    <glyph glyph-name="uring" unicode="&#x16f;" horiz-adv-x="1320" 
d="M1049 1484q0 48 -31 79t-77 31t-86 -39q-40 -38 -40 -87q0 -48 29 -78q28 -30 76 -30t89 38q40 38 40 86zM1128 1484q0 -84 -63 -144t-145 -60t-132 53q-51 53 -51 136q-1 83 63 143t143 61q79 0 132 -53t53 -136zM606 -8q-182 0 -287 85q-104 85 -104 240q-1 92 19 194
t31 159t37 189t48 249h170q-131 -666 -131 -721q0 -121 74 -184t203 -64q201 0 381 133l163 836h168l-213 -1108h-170l23 115q-164 -123 -412 -123z" />
    <glyph glyph-name="Uhungarumlaut" unicode="&#x170;" horiz-adv-x="1546" 
d="M1169 1552l256 328l152 -53l-281 -275h-127zM1106 1880l143 -51l-270 -277h-129zM799 147q211 0 348 126t180 343l162 828h170l-168 -864q-47 -266 -237 -426t-451 -160q-260 0 -397 121t-138 342q0 55 19 147l159 840h172q-165 -835 -172 -957q0 -340 353 -340z" />
    <glyph glyph-name="uhungarumlaut" unicode="&#x171;" horiz-adv-x="1320" 
d="M979 1243l256 328l151 -53l-280 -275h-127zM915 1571l144 -51l-271 -277h-129zM606 -8q-182 0 -287 85q-104 85 -104 240q-1 92 19 194t31 159t37 189t48 249h170q-131 -666 -131 -721q0 -121 74 -184t203 -64q201 0 381 133l163 836h168l-213 -1108h-170l23 115
q-164 -123 -412 -123z" />
    <glyph glyph-name="Uogonek" unicode="&#x172;" horiz-adv-x="1546" 
d="M799 147q211 0 348 126t180 343l162 828h170l-168 -864q-43 -242 -204 -396t-388 -184q-143 -106 -143 -190q0 -66 86 -66q10 0 63 8q-2 -31 -10 -92q-63 -12 -128 -12t-107 30t-42 90t41 123t101 105q-240 8 -366 128t-126 333q0 55 19 147l159 840h172
q-165 -835 -172 -957q0 -340 353 -340z" />
    <glyph glyph-name="uogonek" unicode="&#x173;" horiz-adv-x="1320" 
d="M1033 -352q-65 0 -107 30t-41 90q0 62 44 128t105 104h-39l23 115q-164 -123 -412 -123q-182 0 -287 85q-104 85 -104 240q-1 92 19 194t31 159t37 189t48 249h170q-131 -666 -131 -721q0 -121 74 -184t203 -64q201 0 381 133l163 836h168l-213 -1108
q-143 -106 -143 -190q0 -66 86 -66q10 0 63 8q-2 -31 -10 -92q-63 -12 -128 -12z" />
    <glyph glyph-name="Wcircumflex" unicode="&#x174;" horiz-adv-x="2287" 
d="M1083 1546l351 293h108l240 -293h-135l-177 199l-251 -199h-136zM2497 1444l-836 -1444h-80l-221 1153l-668 -1153h-80l-276 1444h188l195 -1118l657 1118h82l217 -1118l633 1118h189z" />
    <glyph glyph-name="wcircumflex" unicode="&#x175;" horiz-adv-x="1746" 
d="M756 1219l350 292h108l240 -292h-135l-176 198l-252 -198h-135zM1755 1108h172l-639 -1108h-88l-162 852l-489 -852h-88l-213 1108h172l153 -832l467 832h93l147 -832z" />
    <glyph glyph-name="Ycircumflex" unicode="&#x176;" horiz-adv-x="1374" 
d="M639 1546l350 293h109l239 -293h-135l-176 199l-252 -199h-135zM1419 1444h203l-750 -948l-96 -496h-176l94 496l-379 948h201l303 -766z" />
    <glyph glyph-name="ycircumflex" unicode="&#x177;" horiz-adv-x="1255" 
d="M528 1237l351 293h108l240 -293h-135l-177 199l-251 -199h-136zM662 139q203 0 382 133l162 836h170l-145 -756q-55 -287 -105 -399q-146 -336 -575 -336q-143 0 -197 8q-53 8 -67 10q-14 3 -48 11t-43 11l-50 15t-52 17l58 127q212 -66 358 -66t232 31q187 68 272 332
q-176 -125 -408 -125q-184 0 -290 90q-105 90 -105 254q0 31 2 47l135 729h170l-127 -702q-4 -20 -4 -56q1 -211 275 -211z" />
    <glyph glyph-name="Ydieresis" unicode="&#x178;" horiz-adv-x="1374" 
d="M737 1655q0 39 32 69t69 29q36 1 60 -23t24 -63t-31 -69t-69 -30t-62 24t-23 63zM1190 1753q38 1 62 -23t24 -63t-31 -69t-69 -30t-61 26q-23 24 -23 63t30 67t68 29zM1419 1444h203l-750 -948l-96 -496h-176l94 496l-379 948h201l303 -766z" />
    <glyph glyph-name="Zacute" unicode="&#x179;" horiz-adv-x="1359" 
d="M1434 1868l-396 -322h-118l323 336zM1538 1444l-16 -78l-1143 -1216h917l-28 -150h-1172l15 76l1142 1218h-858l31 150h1112z" />
    <glyph glyph-name="zacute" unicode="&#x17a;" horiz-adv-x="1191" 
d="M1255 1559l-395 -322h-119l324 336zM1317 1024l-948 -885h768l-25 -139h-1026l16 88l947 879h-740l27 141h997z" />
    <glyph glyph-name="Zdotaccent" unicode="&#x17b;" horiz-adv-x="1359" 
d="M1118 1665q0 -39 -30 -68t-67 -29q-38 0 -63 26q-24 26 -24 65t30 67t68 27q38 0 62 -24q24 -25 24 -64zM1538 1444l-16 -78l-1143 -1216h917l-28 -150h-1172l15 76l1142 1218h-858l31 150h1112z" />
    <glyph glyph-name="zdotaccent" unicode="&#x17c;" horiz-adv-x="1191" 
d="M956 1356q0 -39 -30 -68q-30 -28 -67 -28q-39 0 -63 26t-24 64t30 66t68 28t62 -24t24 -64zM1317 1024l-948 -885h768l-25 -139h-1026l16 88l947 879h-740l27 141h997z" />
    <glyph glyph-name="Zcaron" unicode="&#x17d;" horiz-adv-x="1359" 
d="M952 1546l-237 293h131l174 -199l252 199h137l-352 -293h-105zM1538 1444l-16 -78l-1143 -1216h917l-28 -150h-1172l15 76l1142 1218h-858l31 150h1112z" />
    <glyph glyph-name="zcaron" unicode="&#x17e;" horiz-adv-x="1191" 
d="M803 1237l-238 293h131l174 -199l252 199h138l-353 -293h-104zM1317 1024l-948 -885h768l-25 -139h-1026l16 88l947 879h-740l27 141h997z" />
    <glyph glyph-name="florin" unicode="&#x192;" horiz-adv-x="1132" 
d="M1217 1395q-211 0 -306 -244l-53 -137h305l-28 -140h-332l-174 -458q-63 -166 -185 -250t-264 -84q-64 0 -100 18l26 138q35 -10 62 -11q219 0 321 273l144 374h-207l27 140h235l74 192q61 160 185 247q125 87 245 87q158 0 180 -45l-24 -131q-61 31 -131 31z" />
    <glyph glyph-name="Aringacute" unicode="&#x1fa;" 
d="M1163 1585q0 49 -30 79q-31 30 -77 30t-86 -38t-40 -87t28 -79t77 -30q48 0 88 38t40 87zM987 1204l-442 -698h616zM1243 1600q0 -81 -41 -135t-104 -74l375 -1391h-185l-92 362h-743l-230 -362h-184l915 1397q-46 23 -74 67t-28 97q0 92 63 152t148 61q12 0 18 -2
l252 262l191 -15l-350 -284q69 -54 69 -135z" />
    <glyph glyph-name="aringacute" unicode="&#x1fb;" horiz-adv-x="1370" 
d="M1077 1484q0 48 -30 79q-31 31 -77 31t-86 -39q-40 -38 -40 -87q0 -48 28 -78t77 -30q48 0 88 38t40 86zM1157 1491q0 -91 -63 -151q-62 -60 -144 -60t-133 53t-51 136t63 143t148 61q12 0 18 -2l250 260l191 -14l-349 -283q70 -53 70 -143zM886 977q-214 0 -368 -158
t-153 -358q0 -143 96 -233t254 -89q219 0 385 129l110 576q-110 133 -324 133zM666 -12q-216 0 -344 124t-127 322q0 281 205 488q206 207 483 206q223 0 358 -122l21 102h170l-215 -1108h-168l20 111q-187 -123 -403 -123z" />
    <glyph glyph-name="AEacute" unicode="&#x1fc;" horiz-adv-x="2064" 
d="M1694 1868l-396 -322h-118l323 336zM1114 1282l-551 -776h455l149 776h-53zM1118 150h875l-29 -150h-1044l69 362h-522l-256 -362h-186l1036 1444h1141l-31 -150h-832l-100 -520h705l-29 -147h-705z" />
    <glyph glyph-name="aeacute" unicode="&#x1fd;" horiz-adv-x="2293" 
d="M1827 1579l-395 -322h-119l323 336zM2159 692q0 135 -78 216t-231 81q-154 0 -280 -100t-177 -252h761q5 37 5 55zM886 977q-212 0 -368 -159t-156 -361q0 -143 108 -229t273 -85q210 6 357 125l110 576q-112 133 -324 133zM1362 457q0 -147 91 -239t249 -91
q231 0 397 172l94 -90q-98 -101 -237 -161q-138 -60 -290 -60t-256 66q-103 67 -148 179l-43 -233h-170l20 111q-178 -119 -394 -119t-350 120t-135 312q0 280 210 492t483 212q225 0 360 -122l21 102h168l-43 -227q174 244 495 243q207 0 321 -116t113 -314q1 -67 -24 -190
h-930q-2 -16 -2 -47z" />
    <glyph glyph-name="Oslashacute" unicode="&#x1fe;" horiz-adv-x="1740" 
d="M948 150q274 0 470 181t196 464q0 168 -103 292l-903 -821q137 -116 340 -116zM1100 1292q-283 0 -474 -196t-192 -465q0 -168 103 -289l907 825q-141 125 -344 125zM1794 811q0 -369 -252 -596t-610 -227q-266 0 -453 157l-160 -145h-153l237 215q-150 166 -149 401
q0 344 244 591t618 247q270 0 457 -164l172 154h153l-249 -230q145 -172 145 -403zM1575 1868l-395 -322h-119l323 336z" />
    <glyph glyph-name="oslashacute" unicode="&#x1ff;" horiz-adv-x="1384" 
d="M727 139q213 0 366 131t152 365q0 104 -78 203l-667 -623q96 -76 227 -76zM883 977q-233 -1 -377 -147t-144 -355q0 -113 74 -192l672 622q-94 72 -225 72zM1419 658q0 -165 -60 -296q-59 -130 -161 -210q-209 -164 -487 -164q-195 0 -338 112l-109 -100h-135l176 162
q-113 131 -112 295q0 287 191 479t515 192q193 1 334 -108l104 98h136l-175 -160q121 -135 121 -300zM1335 1579l-395 -322h-119l324 336z" />
    <glyph glyph-name="Scommaaccent" unicode="&#x218;" horiz-adv-x="1310" 
d="M645 -127q84 0 84 -90q0 -141 -94 -231t-227 -93l-11 72q166 4 197 141q-68 10 -68 80q0 47 37 84t82 37zM707 135q157 0 281 74t124 209q0 96 -96 145q-68 37 -210 73t-212 60q-72 24 -144 64q-142 77 -141 227q0 151 91 261q173 210 505 210q283 0 496 -110l-94 -140
q-82 45 -206 73t-249 28t-243 -75t-117 -202q0 -86 88 -135t288 -101t312 -129t112 -215t-61 -234q-61 -95 -163 -143q-197 -93 -427 -91q-158 0 -262 26t-248 107l88 135q135 -72 233 -94t255 -23z" />
    <glyph glyph-name="scommaaccent" unicode="&#x219;" horiz-adv-x="1083" 
d="M535 -127q84 0 83 -90q0 -141 -94 -231t-227 -93l-10 72q166 4 196 141q-68 10 -67 80q0 47 37 84t82 37zM582 125q121 0 220 56t99 159q0 61 -67 95q-68 34 -230 69t-254 88q-90 53 -90 160q0 174 146 275t340 101q196 0 393 -86l-82 -127q-154 74 -350 74
q-107 0 -197 -52t-92 -140q0 -59 66 -92t230 -67q166 -34 256 -91t91 -163q0 -106 -47 -186q-80 -138 -290 -190q-85 -20 -173 -20q-236 0 -447 102l91 127q211 -92 387 -92z" />
    <glyph glyph-name="uni021A" unicode="&#x21a;" horiz-adv-x="1351" 
d="M649 -127q84 0 84 -90q0 -141 -94 -231t-227 -93l-11 72q166 4 197 141q-68 10 -68 80q0 47 37 84t82 37zM1544 1444l-31 -150h-495l-250 -1294h-178l252 1294h-496l31 150h1167z" />
    <glyph glyph-name="uni021B" unicode="&#x21b;" horiz-adv-x="823" 
d="M467 -129q84 0 84 -90q0 -141 -94 -231t-228 -93l-10 72q166 4 197 141q-68 10 -68 80q0 47 37 84t82 37zM461 268q0 -133 178 -133q92 0 160 15l-25 -130q-98 -32 -217 -32t-198 60t-78 190q0 37 12 98l123 631h-185l27 141h184l84 436h172l-86 -436h377l-26 -141h-377
l-119 -643q-6 -31 -6 -56z" />
    <glyph glyph-name="dotlessj" unicode="&#x237;" horiz-adv-x="489" 
d="M-63 -383q-59 0 -121 12l26 138q72 -2 107 12q73 11 133 77t80 164l211 1088h170l-224 -1157q-31 -160 -139 -247t-243 -87z" />
    <glyph glyph-name="circumflex" unicode="&#x2c6;" horiz-adv-x="1024" 
d="M459 1546l350 293h109l239 -293h-135l-176 199l-252 -199h-135z" />
    <glyph glyph-name="caron" unicode="&#x2c7;" horiz-adv-x="1024" 
d="M758 1546l-238 293h131l174 -199l252 199h137l-352 -293h-104z" />
    <glyph glyph-name="breve" unicode="&#x2d8;" horiz-adv-x="1024" 
d="M842 1692q186 0 243 172l117 -9q-38 -139 -140 -209t-243 -69q-141 0 -213 70t-57 208l115 9q-8 -172 178 -172z" />
    <glyph glyph-name="dotaccent" unicode="&#x2d9;" horiz-adv-x="776" 
d="M772 1665q0 -39 -30 -68t-68 -29t-62 26t-24 65t30 67t67 27q38 0 63 -24q24 -25 24 -64z" />
    <glyph glyph-name="ring" unicode="&#x2da;" horiz-adv-x="1024" 
d="M918 1585q0 49 -31 79t-77 30t-86 -38t-40 -87t29 -79t77 -30t88 38t40 87zM606 1570q0 83 64 143q64 61 142 61q79 0 132 -54t53 -136q0 -83 -63 -143q-62 -61 -144 -61t-133 54t-51 136z" />
    <glyph glyph-name="ogonek" unicode="&#x2db;" horiz-adv-x="1024" 
d="M462 -352q-65 0 -107 30t-42 94q-1 64 51 133t115 105l115 -10q-143 -106 -143 -190q0 -66 86 -66q10 0 63 8q-2 -31 -10 -92q-63 -12 -128 -12z" />
    <glyph glyph-name="tilde" unicode="&#x2dc;" horiz-adv-x="1024" 
d="M1008 1720q46 0 92 38q45 38 71 108l91 -13q-35 -123 -110 -191q-76 -68 -148 -69q-72 0 -176 47t-146 48q-119 -1 -180 -148l-90 10q35 125 108 194q74 69 172 68q66 0 168 -46t148 -46z" />
    <glyph glyph-name="hungarumlaut" unicode="&#x2dd;" horiz-adv-x="1024" 
d="M774 1552l256 328l152 -53l-281 -275h-127zM711 1880l143 -51l-270 -277h-129z" />
    <glyph glyph-name="uni037E" unicode="&#x37e;" horiz-adv-x="450" 
d="M258 201q84 0 84 -119q-14 -152 -108 -243t-222 -99l-12 74q74 6 129 53t76 123q-74 10 -74 84q0 51 38 89t89 38zM418 1104q42 0 72 -28t30 -74q0 -45 -35 -78t-79 -33t-71 29q-28 30 -28 74t34 77t77 33z" />
    <glyph glyph-name="tonos" unicode="&#x384;" horiz-adv-x="845" 
d="M1018 1446l-434 -324h-125l370 340z" />
    <glyph glyph-name="dieresistonos" unicode="&#x385;" horiz-adv-x="1167" 
d="M1149 1245q-37 0 -61 24q-24 25 -23 63t31 68t67 30t62 -24t25 -62t-32 -69q-32 -30 -69 -30zM515 1245q-37 0 -61 24q-24 25 -24 63t30 68t68 30q37 0 62 -25q24 -25 24 -63t-30 -67q-30 -30 -69 -30zM938 1602l131 -29l-231 -367h-103z" />
    <glyph glyph-name="Alphatonos" unicode="&#x386;" 
d="M768 1446l-434 -324h-125l371 340zM987 1204l-442 -698h616zM1288 0l-92 362h-743l-230 -362h-184l948 1444h96l390 -1444h-185z" />
    <glyph glyph-name="anoteleia" unicode="&#x387;" horiz-adv-x="415" 
d="M416 1108q44 0 72 -30t28 -73q0 -44 -35 -77t-78 -33t-71 29q-28 30 -29 74q0 44 35 77t78 33z" />
    <glyph glyph-name="Epsilontonos" unicode="&#x388;" horiz-adv-x="1318" 
d="M373 150h874l-28 -150h-1045l281 1444h1001l-29 -150h-831l-102 -520h704l-27 -147h-704zM336 1446l-434 -324h-125l370 340z" />
    <glyph glyph-name="Etatonos" unicode="&#x389;" 
d="M336 1446l-434 -324h-125l370 340zM1444 1444h172l-281 -1444h-172l107 555h-819l-107 -555h-170l281 1444h170l-144 -739h819z" />
    <glyph glyph-name="Iotatonos" unicode="&#x38a;" horiz-adv-x="530" 
d="M336 1446l-434 -324h-125l370 340zM635 1444l-281 -1444h-178l281 1444h178z" />
    <glyph glyph-name="Omicrontonos" unicode="&#x38c;" horiz-adv-x="1740" 
d="M928 150q274 0 470 181t195 464q0 211 -146 354t-368 143q-283 0 -474 -196t-191 -465q0 -205 146 -343t368 -138zM1096 1454q290 0 484 -185t194 -458q0 -369 -252 -596t-611 -227q-291 0 -485 181t-193 447q0 344 244 591t619 247zM524 1446l-434 -324h-125l371 340z
" />
    <glyph glyph-name="Upsilontonos" unicode="&#x38e;" horiz-adv-x="1374" 
d="M1419 1444h203l-750 -948l-96 -496h-176l94 496l-379 948h201l303 -766zM254 1446l-434 -324h-125l371 340z" />
    <glyph glyph-name="Omegatonos" unicode="&#x38f;" horiz-adv-x="1712" 
d="M516 1446l-434 -324h-125l371 340zM238 629q0 252 118 441q119 188 313 284t429 96q293 0 477 -151t184 -415t-142 -454t-366 -280h363l-29 -150h-602l29 156q233 68 404 250t171 409t-132 353t-390 126t-456 -182t-197 -496q0 -172 106 -299t242 -161l-29 -156h-602
l29 150h360q-117 66 -199 194q-81 129 -81 285z" />
    <glyph glyph-name="iotadieresistonos" unicode="&#x390;" horiz-adv-x="491" 
d="M848 1415q38 1 62 -23t24 -63t-32 -69t-69 -29q-37 -1 -61 23t-22 63q0 39 30 69t68 29zM213 1415q37 1 61 -23t25 -63q0 -39 -31 -69q-30 -30 -68 -29q-38 -1 -62 23t-24 63t32 69q30 30 67 29zM623 1587l131 -28l-232 -367h-102zM160 0l213 1108h172l-215 -1108h-170z
" />
    <glyph glyph-name="Alpha" unicode="&#x391;" 
d="M987 1204l-442 -698h616zM1288 0l-92 362h-743l-230 -362h-184l948 1444h96l390 -1444h-185z" />
    <glyph glyph-name="Beta" unicode="&#x392;" horiz-adv-x="1435" 
d="M856 150q170 0 288 112t118 268q0 123 -76 197t-230 74h-454l-127 -651h481zM918 934q84 0 143 62t59 136t-50 118t-132 44h-342l-72 -360h394zM1442 537q0 -221 -158 -379t-375 -158h-735l281 1444h569q118 0 192 -73t74 -170t-42 -171t-113 -112q147 -18 227 -122
t80 -259z" />
    <glyph glyph-name="Gamma" unicode="&#x393;" horiz-adv-x="1226" 
d="M1432 1444l-31 -150h-801l-250 -1294h-176l281 1444h977z" />
    <glyph glyph-name="uni0394" unicode="&#x394;" horiz-adv-x="1505" 
d="M985 1192l-666 -1045h924zM1081 1444l381 -1444h-1419l942 1444h96z" />
    <glyph glyph-name="Epsilon" unicode="&#x395;" horiz-adv-x="1318" 
d="M373 150h874l-28 -150h-1045l281 1444h1001l-29 -150h-831l-102 -520h704l-27 -147h-704z" />
    <glyph glyph-name="Zeta" unicode="&#x396;" horiz-adv-x="1359" 
d="M1538 1444l-16 -78l-1143 -1216h917l-28 -150h-1172l15 76l1142 1218h-858l31 150h1112z" />
    <glyph glyph-name="Eta" unicode="&#x397;" 
d="M1444 1444h172l-281 -1444h-172l107 555h-819l-107 -555h-170l281 1444h170l-144 -739h819z" />
    <glyph glyph-name="Theta" unicode="&#x398;" horiz-adv-x="1740" 
d="M928 150q272 0 469 181t196 464q0 211 -146 354t-370 143q-283 0 -473 -196t-190 -465q0 -205 146 -343t368 -138zM1094 1454q294 0 486 -184t192 -459q0 -369 -251 -596t-610 -227q-291 0 -485 181t-195 447q0 344 244 591t619 247zM571 655l23 133h852l-25 -133h-850z
" />
    <glyph glyph-name="Iota" unicode="&#x399;" horiz-adv-x="530" 
d="M635 1444l-281 -1444h-178l281 1444h178z" />
    <glyph glyph-name="Kappa" unicode="&#x39a;" horiz-adv-x="1429" 
d="M850 739l514 -739h-234l-421 610l-299 -268l-66 -342h-170l281 1444h170l-166 -858l952 858h215z" />
    <glyph glyph-name="Lambda" unicode="&#x39b;" horiz-adv-x="1499" 
d="M1069 1444l385 -1444h-184l-291 1190l-750 -1190h-184l928 1444h96z" />
    <glyph glyph-name="Mu" unicode="&#x39c;" horiz-adv-x="1785" 
d="M1800 1444h92l-280 -1444h-176l202 1044l-708 -851l-377 851l-203 -1044h-176l281 1444h92l440 -959z" />
    <glyph glyph-name="Nu" unicode="&#x39d;" horiz-adv-x="1583" 
d="M1516 1444h174l-281 -1444h-92l-752 1114l-215 -1114h-176l281 1444h92l751 -1114z" />
    <glyph glyph-name="Xi" unicode="&#x39e;" horiz-adv-x="1402" 
d="M1313 653h-948l28 144h948zM1567 1444l-31 -148h-1145l29 148h1147zM152 147h1179l-28 -147h-1180z" />
    <glyph glyph-name="Omicron" unicode="&#x39f;" horiz-adv-x="1740" 
d="M928 150q274 0 470 181t195 464q0 211 -146 354t-368 143q-283 0 -474 -196t-191 -465q0 -205 146 -343t368 -138zM1096 1454q290 0 484 -185t194 -458q0 -369 -252 -596t-611 -227q-291 0 -485 181t-193 447q0 344 244 591t619 247z" />
    <glyph glyph-name="Pi" unicode="&#x3a0;" horiz-adv-x="1527" 
d="M455 1444h1179l-280 -1444h-170l250 1296h-838l-250 -1296h-172z" />
    <glyph glyph-name="Rho" unicode="&#x3a1;" horiz-adv-x="1339" 
d="M788 588q217 0 361 125q143 125 143 329q0 123 -74 188q-75 65 -247 64h-371l-137 -706h325zM1026 1444q234 0 340 -106t107 -277q0 -297 -195 -458t-502 -161h-342l-84 -442h-176l281 1444h571z" />
    <glyph glyph-name="Sigma" unicode="&#x3a3;" horiz-adv-x="1345" 
d="M379 150h899l-27 -150h-1159l14 78l619 643l-358 645l16 78h1143l-31 -150h-889l318 -573z" />
    <glyph glyph-name="Tau" unicode="&#x3a4;" horiz-adv-x="1351" 
d="M1544 1444l-31 -150h-495l-250 -1294h-178l252 1294h-496l31 150h1167z" />
    <glyph glyph-name="Upsilon" unicode="&#x3a5;" horiz-adv-x="1374" 
d="M1419 1444h203l-750 -948l-96 -496h-176l94 496l-379 948h201l303 -766z" />
    <glyph glyph-name="Phi" unicode="&#x3a6;" horiz-adv-x="1843" 
d="M1718 831q0 181 -131 275t-348 94l-182 -936q170 0 317 62t246 194q98 131 98 311zM410 637q0 -288 309 -355q78 -18 166 -18l182 936q-374 -4 -559 -249q-98 -130 -98 -314zM1890 848q0 -236 -123 -406t-312 -251t-415 -80l-12 2l-20 -113h-172l20 113q-281 0 -452 141
t-171 377q0 139 51 259q92 220 322 342q231 122 490 122l18 90h172l-18 -90q276 0 449 -135t173 -371z" />
    <glyph glyph-name="Chi" unicode="&#x3a7;" horiz-adv-x="1505" 
d="M924 854l594 590h200l-706 -719l432 -725h-203l-371 596l-596 -596h-204l714 725l-426 719h201z" />
    <glyph glyph-name="Psi" unicode="&#x3a8;" horiz-adv-x="1771" 
d="M299 803q0 45 16 137l99 504h170l-99 -508q-14 -68 -14 -115q0 -350 418 -350l190 973h172l-190 -973h59q188 0 337 123q148 123 188 321l104 529h170l-104 -537q-27 -135 -89 -241t-139 -170q-216 -176 -555 -179l-61 -317h-172l61 317l-69 2q-217 7 -355 141t-137 343z
" />
    <glyph glyph-name="uni03A9" unicode="&#x3a9;" horiz-adv-x="1712" 
d="M238 629q0 252 118 441q119 188 313 284t429 96q293 0 477 -151t184 -415t-142 -454t-366 -280h363l-29 -150h-602l29 156q233 68 404 250t171 409t-132 353t-390 126t-456 -182t-197 -496q0 -172 106 -299t242 -161l-29 -156h-602l29 150h360q-117 66 -199 194
q-81 129 -81 285z" />
    <glyph glyph-name="Iotadieresis" unicode="&#x3aa;" horiz-adv-x="530" 
d="M424 1780q36 0 60 -24t24 -62t-31 -69q-31 -30 -69 -30t-61 24q-23 25 -23 63t31 68q32 30 69 30zM776 1780q37 0 62 -24q24 -24 24 -62t-31 -69q-31 -30 -69 -30t-61 25q-23 26 -23 64t30 67t68 29zM635 1444l-281 -1444h-178l281 1444h178z" />
    <glyph glyph-name="Upsilondieresis" unicode="&#x3ab;" horiz-adv-x="1374" 
d="M844 1780q36 0 60 -24t24 -62t-31 -69q-31 -30 -69 -30t-62 24q-24 25 -23 63q0 38 32 68t69 30zM1196 1780q38 0 62 -24t24 -62t-31 -69q-31 -30 -69 -30t-61 25q-23 26 -23 64t30 67q31 29 68 29zM1419 1444h203l-750 -948l-96 -496h-176l94 496l-379 948h201l303 -766
z" />
    <glyph glyph-name="alphatonos" unicode="&#x3ac;" horiz-adv-x="1374" 
d="M1411 1552l-434 -323h-125l371 340zM888 977q-214 0 -368 -159t-153 -357q0 -143 97 -233t255 -89q217 0 383 129l110 576q-110 133 -324 133zM670 -8q-224 0 -348 121t-125 321q0 281 206 488q207 207 482 206q225 0 360 -122l19 102h170l-213 -1108h-170l20 111
q-177 -119 -401 -119z" />
    <glyph glyph-name="epsilontonos" unicode="&#x3ad;" horiz-adv-x="1196" 
d="M145 236q0 120 78 208t193 125q-129 63 -129 197q0 100 45 174t125 114q148 74 368 74t455 -131l-88 -110q-203 106 -359 106q-157 0 -271 -52t-113 -171q0 -57 46 -102t140 -45h283l-23 -121h-324q-100 0 -177 -62t-77 -149q0 -166 310 -166q123 1 219 29t244 96
l45 -117q-123 -57 -179 -80q-161 -67 -360 -65q-451 0 -451 248zM1391 1552l-435 -323h-125l371 340z" />
    <glyph glyph-name="etatonos" unicode="&#x3ae;" horiz-adv-x="1304" 
d="M1411 1552l-434 -323h-125l371 340zM896 1128q411 0 413 -350q0 -63 -17 -149l-121 -629h-170l121 629q10 57 11 96q0 123 -74 187t-201 65q-197 0 -369 -125l-163 -852h-170l213 1108h170l-21 -107q172 127 378 127z" />
    <glyph glyph-name="iotatonos" unicode="&#x3af;" horiz-adv-x="491" 
d="M987 1552l-434 -323h-125l371 340zM160 0l213 1108h172l-215 -1108h-170z" />
    <glyph glyph-name="upsilondieresistonos" unicode="&#x3b0;" horiz-adv-x="1290" 
d="M1247 1430q37 0 62 -24t25 -62t-32 -69q-32 -30 -69 -30t-61 24q-24 25 -24 63t32 68q30 30 67 30zM599 1245q-37 0 -61 24q-24 25 -24 63t30 68t69 30q38 0 62 -25q23 -25 23 -63t-30 -67q-30 -30 -69 -30zM1022 1602l131 -29l-231 -367h-103zM658 -12q-194 0 -320 98
q-127 98 -127 272q0 49 8 91l129 659h170l-123 -631q-12 -70 -12 -104q2 -115 86 -176q85 -61 225 -61t248 92q108 93 137 249l123 631h170l-129 -659q-41 -209 -216 -335t-369 -126z" />
    <glyph glyph-name="alpha" unicode="&#x3b1;" horiz-adv-x="1374" 
d="M888 977q-214 0 -368 -159t-153 -357q0 -143 97 -233t255 -89q217 0 383 129l110 576q-110 133 -324 133zM670 -8q-224 0 -348 121t-125 321q0 281 206 488q207 207 482 206q225 0 360 -122l19 102h170l-213 -1108h-170l20 111q-177 -119 -401 -119z" />
    <glyph glyph-name="beta" unicode="&#x3b2;" horiz-adv-x="1323" 
d="M727 135q176 -1 305 105t129 290q0 104 -75 176t-218 72h-391l-96 -495q113 -148 346 -148zM891 1417q-129 0 -228 -100t-133 -262l-28 -144h377q111 0 195 83q84 82 83 198q0 224 -266 225zM1331 532q0 -124 -54 -236q-97 -200 -337 -276q-104 -33 -217 -32
q-238 0 -377 129l-88 -467h-172l268 1378q49 256 207 391q159 135 355 135t302 -81q105 -82 105 -230q0 -279 -229 -383q237 -71 237 -328z" />
    <glyph glyph-name="gamma" unicode="&#x3b3;" horiz-adv-x="1249" 
d="M1239 1108h176l-706 -1108l-68 -350h-170l68 352l-279 1106h176l234 -879z" />
    <glyph glyph-name="delta" unicode="&#x3b4;" horiz-adv-x="1382" 
d="M866 881q-289 1 -438 -189q-78 -100 -78 -235t102 -229t282 -95q180 0 338 133t157 324q1 131 -105 211t-258 80zM1399 623q-1 -143 -63 -267t-164 -202q-217 -166 -460 -166t-388 125t-146 315q0 133 56 247q56 113 148 187q196 156 437 156q131 0 217 -45
q-43 46 -418 383l-122 110l16 78h926l-27 -139h-620q403 -389 444 -432q164 -176 164 -350z" />
    <glyph glyph-name="epsilon" unicode="&#x3b5;" horiz-adv-x="1196" 
d="M145 236q0 120 78 208t193 125q-129 63 -129 197q0 100 45 174t125 114q148 74 368 74t455 -131l-88 -110q-203 106 -359 106q-157 0 -271 -52t-113 -171q0 -57 46 -102t140 -45h283l-23 -121h-324q-100 0 -177 -62t-77 -149q0 -166 310 -166q123 1 219 29t244 96
l45 -117q-123 -57 -179 -80q-161 -67 -360 -65q-451 0 -451 248z" />
    <glyph glyph-name="zeta" unicode="&#x3b6;" horiz-adv-x="1073" 
d="M346 430q0 -121 239 -169q99 -19 198 -42t169 -73t70 -128t-46 -144t-108 -108q-144 -97 -295 -139l-41 99q119 52 214 118q96 66 96 122t-70 88t-168 52t-197 48t-169 91q-70 62 -70 158t59 208t143 207t262 246q177 151 455 341h-700l27 139h940l-19 -98
q-206 -158 -324 -246t-264 -214q-145 -128 -185 -172q-127 -141 -155 -193q-61 -110 -61 -191z" />
    <glyph glyph-name="eta" unicode="&#x3b7;" horiz-adv-x="1304" 
d="M896 1128q411 0 413 -350q0 -63 -17 -149l-121 -629h-170l121 629q10 57 11 96q0 123 -74 187t-201 65q-197 0 -369 -125l-163 -852h-170l213 1108h170l-21 -107q172 127 378 127z" />
    <glyph glyph-name="theta" unicode="&#x3b8;" horiz-adv-x="1339" 
d="M696 129q174 0 321 159q146 159 200 404h-824q-14 -61 -14 -157q0 -186 87 -296t230 -110zM944 1413q-176 0 -324 -162t-200 -420q379 2 825 3q14 94 15 153q0 188 -88 307t-228 119zM982 1554q192 0 314 -150t121 -407q0 -172 -49 -347q-112 -400 -377 -568
q-147 -94 -335 -94t-312 142q-123 142 -123 396q0 365 183 680q89 154 238 251q148 97 340 97z" />
    <glyph glyph-name="iota" unicode="&#x3b9;" horiz-adv-x="491" 
d="M160 0l213 1108h172l-215 -1108h-170z" />
    <glyph glyph-name="kappa" unicode="&#x3ba;" horiz-adv-x="1247" 
d="M911 682l299 -682h-192l-246 553l-401 -322l-45 -231h-170l213 1108h172l-127 -653l800 653h207z" />
    <glyph glyph-name="lambda" unicode="&#x3bb;" horiz-adv-x="1249" 
d="M522 1554q178 0 306 -89t159 -255l225 -1210h-182l-162 961l-61 -46l-561 -915h-185l687 1096l94 61q-23 127 -122 195t-231 67q-20 0 -61 -4l27 135l24 2q27 2 43 2z" />
    <glyph glyph-name="uni03BC" unicode="&#x3bc;" horiz-adv-x="1341" 
d="M643 -12q-104 0 -180 45t-107 129l-100 -512h-170l283 1458h170l-121 -621q-33 -168 41 -258t225 -90q215 0 381 125l164 844h170l-215 -1108h-168l20 111q-168 -123 -393 -123z" />
    <glyph glyph-name="nu" unicode="&#x3bd;" horiz-adv-x="1253" 
d="M1241 1108h180l-751 -1108h-84l-326 1108h180l242 -832z" />
    <glyph glyph-name="xi" unicode="&#x3be;" horiz-adv-x="1067" 
d="M348 391q0 -71 68 -111t164 -54t193 -31t165 -61t68 -122t-52 -148t-124 -117q-146 -92 -232 -114l-59 95q98 36 191 104t93 121t-67 79q-68 26 -164 44t-194 45t-165 89q-68 62 -67 161q0 160 135 263t350 146q-248 80 -248 279q0 115 84 209t244 137h-377l27 139h932
l-23 -114q-338 -20 -527 -116t-190 -249q0 -82 73 -138q138 -106 429 -106l-22 -121q-319 -10 -512 -88t-193 -221z" />
    <glyph glyph-name="omicron" unicode="&#x3bf;" horiz-adv-x="1388" 
d="M727 139q211 0 367 133t155 367q0 143 -104 241t-262 97q-229 1 -373 -147t-145 -353q0 -141 102 -239t260 -99zM899 1128q221 0 371 -137t149 -332q0 -163 -61 -295q-60 -132 -162 -212q-208 -164 -485 -164q-217 0 -368 138t-150 331q0 281 192 476t514 195z" />
    <glyph glyph-name="pi" unicode="&#x3c0;" horiz-adv-x="1349" 
d="M369 1108h1040l-215 -1108h-170l186 963h-698l-186 -963h-170z" />
    <glyph glyph-name="rho" unicode="&#x3c1;" horiz-adv-x="1343" 
d="M674 139q212 0 368 153t156 353q0 145 -96 239t-244 93q-148 0 -278 -94q-129 -94 -158 -242l-74 -373q113 -129 326 -129zM872 1128q226 0 359 -126t133 -330q0 -279 -205 -482t-479 -202q-225 0 -363 116l-88 -454h-172l191 977q43 213 221 357q177 144 403 144z" />
    <glyph glyph-name="uni03C2" unicode="&#x3c2;" horiz-adv-x="1159" 
d="M807 -115q0 29 -27 53q-26 24 -48 34t-96 38q-324 127 -406 291q-38 76 -37 168q0 272 215 466t491 193q127 0 229 -56t158 -157l-133 -100q-41 76 -116 119t-169 43q-196 -1 -352 -147t-156 -341q0 -157 141 -244q61 -39 185 -93q124 -55 174 -81q117 -61 117 -143
q0 -112 -109 -198t-239 -123l-45 92q223 112 223 186z" />
    <glyph glyph-name="sigma" unicode="&#x3c3;" horiz-adv-x="1394" 
d="M719 139q203 1 361 147t157 347q0 139 -100 234t-258 96q-209 -1 -364 -143t-155 -345q0 -143 100 -239t259 -97zM1405 643q0 -275 -222 -465t-493 -190q-221 0 -362 131t-142 330q0 276 215 467t506 192h633l-27 -141h-296q82 -37 135 -124t53 -200z" />
    <glyph glyph-name="tau" unicode="&#x3c4;" horiz-adv-x="1073" 
d="M1233 1108l-27 -141h-395l-186 -967h-170l186 967h-399l26 141h965z" />
    <glyph glyph-name="upsilon" unicode="&#x3c5;" horiz-adv-x="1290" 
d="M658 -12q-194 0 -320 98q-127 98 -127 272q0 49 8 91l129 659h170l-123 -631q-12 -70 -12 -104q2 -115 86 -176q85 -61 225 -61t248 92q108 93 137 249l123 631h170l-129 -659q-41 -209 -216 -335t-369 -126z" />
    <glyph glyph-name="phi" unicode="&#x3c6;" horiz-adv-x="1691" 
d="M1550 682q0 150 -121 230t-307 79l-172 -864q248 2 424 157t176 398zM184 446q0 230 146 392t375 254l30 -127q-168 -66 -274 -200q-107 -134 -107 -294t117 -252t305 -92h15l190 995q72 10 129 11q266 0 438 -111t172 -338q0 -166 -70 -300t-185 -218
q-234 -170 -541 -178l-66 -338h-162l66 338q-242 0 -410 129t-168 329z" />
    <glyph glyph-name="chi" unicode="&#x3c7;" horiz-adv-x="1193" 
d="M680 422l-436 -422h-189l555 559l-340 549h197l264 -422l430 422h197l-553 -549l342 -559h-193z" />
    <glyph glyph-name="psi" unicode="&#x3c8;" horiz-adv-x="1660" 
d="M209 375q0 45 137 733h170q-14 -80 -78 -385t-63 -348q0 -129 102 -183t297 -57l215 1118h166l-217 -1118q444 0 512 342l121 631h170l-127 -659q-43 -223 -221 -341t-484 -120l-65 -338h-166l67 338q-281 0 -409 97t-127 290z" />
    <glyph glyph-name="omega" unicode="&#x3c9;" horiz-adv-x="1814" 
d="M1237 -12q-119 0 -194 66t-95 169q-62 -103 -162 -167t-215 -64q-188 0 -289 105t-102 292q0 299 177 507t456 228l-25 -151q-206 -37 -322 -193t-116 -364q0 -131 67 -204t182 -73t202 91q86 91 108 206l49 250h162l-47 -242q-12 -53 -12 -90q0 -90 53 -152t143 -63
q125 0 224 85q98 85 144 203t46 242q1 124 -73 206t-199 98l35 151q184 -10 297 -123t112 -303q0 -294 -169 -502t-437 -208z" />
    <glyph glyph-name="iotadieresis" unicode="&#x3ca;" horiz-adv-x="491" 
d="M344 1444q36 0 60 -24t24 -62t-31 -69q-31 -29 -69 -29t-61 24t-23 62t31 68q32 30 69 30zM598 1348q0 38 30 67t68 29q37 0 62 -24q24 -24 24 -62t-30 -69q-30 -29 -69 -29q-37 0 -61 24q-24 26 -24 64zM160 0l213 1108h172l-215 -1108h-170z" />
    <glyph glyph-name="upsilondieresis" unicode="&#x3cb;" horiz-adv-x="1290" 
d="M733 1444q37 0 61 -24t24 -62t-32 -69q-30 -29 -68 -29t-62 24t-24 62t32 68t69 30zM987 1348q1 38 31 67t67 29t62 -24t25 -62t-32 -69q-30 -29 -68 -29t-62 24q-24 26 -23 64zM658 -12q-194 0 -320 98q-127 98 -127 272q0 49 8 91l129 659h170l-123 -631
q-12 -70 -12 -104q2 -115 86 -176q85 -61 225 -61t248 92q108 93 137 249l123 631h170l-129 -659q-41 -209 -216 -335t-369 -126z" />
    <glyph glyph-name="omicrontonos" unicode="&#x3cc;" horiz-adv-x="1388" 
d="M727 139q211 0 367 133t155 367q0 143 -104 241t-262 97q-229 1 -373 -147t-145 -353q0 -141 102 -239t260 -99zM899 1128q221 0 371 -137t149 -332q0 -163 -61 -295q-60 -132 -162 -212q-208 -164 -485 -164q-217 0 -368 138t-150 331q0 281 192 476t514 195zM1417 1552
l-434 -323h-125l371 340z" />
    <glyph glyph-name="upsilontonos" unicode="&#x3cd;" horiz-adv-x="1290" 
d="M658 -12q-194 0 -320 98q-127 98 -127 272q0 49 8 91l129 659h170l-123 -631q-12 -70 -12 -104q2 -115 86 -176q85 -61 225 -61t248 92q108 93 137 249l123 631h170l-129 -659q-41 -209 -216 -335t-369 -126zM1376 1552l-434 -323h-125l371 340z" />
    <glyph glyph-name="omegatonos" unicode="&#x3ce;" horiz-adv-x="1814" 
d="M1636 1552l-434 -323h-125l371 340zM1237 -12q-119 0 -194 66t-95 169q-62 -103 -162 -167t-215 -64q-188 0 -289 105t-102 292q0 299 177 507t456 228l-25 -151q-206 -37 -322 -193t-116 -364q0 -131 67 -204t182 -73t202 91q86 91 108 206l49 250h162l-47 -242
q-12 -53 -12 -90q0 -90 53 -152t143 -63q125 0 224 85q98 85 144 203t46 242q1 124 -73 206t-199 98l35 151q184 -10 297 -123t112 -303q0 -294 -169 -502t-437 -208z" />
    <glyph glyph-name="Wgrave" unicode="&#x1e80;" horiz-adv-x="2287" 
d="M1374 1546l-295 322l195 14l219 -336h-119zM2497 1444l-836 -1444h-80l-221 1153l-668 -1153h-80l-276 1444h188l195 -1118l657 1118h82l217 -1118l633 1118h189z" />
    <glyph glyph-name="wgrave" unicode="&#x1e81;" horiz-adv-x="1746" 
d="M1036 1219l-295 321l195 14l219 -335h-119zM1755 1108h172l-639 -1108h-88l-162 852l-489 -852h-88l-213 1108h172l153 -832l467 832h93l147 -832z" />
    <glyph glyph-name="Wacute" unicode="&#x1e82;" horiz-adv-x="2287" 
d="M1888 1868l-395 -322h-119l324 336zM2497 1444l-836 -1444h-80l-221 1153l-668 -1153h-80l-276 1444h188l195 -1118l657 1118h82l217 -1118l633 1118h189z" />
    <glyph glyph-name="wacute" unicode="&#x1e83;" horiz-adv-x="1746" 
d="M1567 1540l-396 -321h-118l323 335zM1755 1108h172l-639 -1108h-88l-162 852l-489 -852h-88l-213 1108h172l153 -832l467 832h93l147 -832z" />
    <glyph glyph-name="Wdieresis" unicode="&#x1e84;" horiz-adv-x="2287" 
d="M1282 1753q36 1 60 -23t24 -63t-31 -69t-69 -30t-61 24t-23 63t32 69t68 29zM1634 1753q37 1 62 -23q24 -24 24 -63t-30 -69t-69 -30q-37 0 -61 26q-24 24 -24 63t30 67t68 29zM2497 1444l-836 -1444h-80l-221 1153l-668 -1153h-80l-276 1444h188l195 -1118l657 1118h82
l217 -1118l633 1118h189z" />
    <glyph glyph-name="wdieresis" unicode="&#x1e85;" horiz-adv-x="1746" 
d="M956 1425q37 1 61 -23q23 -24 23 -62t-30 -69q-30 -30 -69 -30q-37 0 -61 24q-24 25 -24 63t32 68t68 29zM1295 1241q-37 0 -61 25q-24 26 -24 64t31 66t68 29t61 -23t25 -62q0 -38 -31 -69q-31 -30 -69 -30zM1755 1108h172l-639 -1108h-88l-162 852l-489 -852h-88
l-213 1108h172l153 -832l467 832h93l147 -832z" />
    <glyph glyph-name="Ygrave" unicode="&#x1ef2;" horiz-adv-x="1374" 
d="M907 1546l-295 322l195 14l219 -336h-119zM1419 1444h203l-750 -948l-96 -496h-176l94 496l-379 948h201l303 -766z" />
    <glyph glyph-name="ygrave" unicode="&#x1ef3;" horiz-adv-x="1318" 
d="M817 1237l-295 322l195 14l219 -336h-119zM662 139q203 0 382 133l162 836h170l-145 -756q-55 -287 -105 -399q-146 -336 -575 -336q-143 0 -197 8q-53 8 -67 10q-14 3 -48 11t-43 11l-50 15t-52 17l58 127q212 -66 358 -66t232 31q187 68 272 332q-176 -125 -408 -125
q-184 0 -290 90q-105 90 -105 254q0 31 2 47l135 729h170l-127 -702q-4 -20 -4 -56q1 -211 275 -211z" />
    <glyph glyph-name="endash" unicode="&#x2013;" horiz-adv-x="1081" 
d="M1130 752l-26 -144h-893l29 144h890z" />
    <glyph glyph-name="emdash" unicode="&#x2014;" horiz-adv-x="1839" 
d="M1886 752l-26 -144h-1647l27 144h1646z" />
    <glyph glyph-name="quoteleft" unicode="&#x2018;" horiz-adv-x="434" 
d="M412 1030q-84 0 -84 90q0 142 94 232t227 92l10 -72q-166 -4 -196 -141q68 -10 67 -80q0 -47 -36 -84t-82 -37z" />
    <glyph glyph-name="quoteright" unicode="&#x2019;" horiz-adv-x="411" 
d="M512 1444q84 0 84 -88q0 -142 -93 -232t-229 -94l-12 72q166 6 199 141q-31 4 -50 27q-19 24 -19 62t37 75q38 37 83 37z" />
    <glyph glyph-name="quotesinglbase" unicode="&#x201a;" horiz-adv-x="442" 
d="M197 0q-70 10 -70 88q0 40 38 76q38 37 83 37q84 0 84 -88q0 -141 -94 -233t-230 -93l-10 72q166 4 199 141z" />
    <glyph glyph-name="quotedblleft" unicode="&#x201c;" horiz-adv-x="788" 
d="M449 1229q67 -9 67 -89q0 -38 -37 -75t-82 -37q-78 0 -84 78q0 137 85 234t237 102l10 -72q-166 -6 -196 -141zM760 1028q-78 0 -84 78q0 137 85 234t236 102l11 -72q-166 -6 -197 -141q65 -9 67 -89q0 -38 -36 -75q-37 -37 -82 -37z" />
    <glyph glyph-name="quotedblright" unicode="&#x201d;" horiz-adv-x="778" 
d="M829 1243q-71 9 -71 89q0 38 38 75t83 37q84 0 84 -88q1 -142 -93 -232t-229 -94l-10 72q166 6 198 141zM516 1444q84 0 84 -88q0 -142 -93 -232t-228 -94l-11 72q166 6 199 141q-69 9 -71 89q0 38 37 75q38 37 83 37z" />
    <glyph glyph-name="quotedblbase" unicode="&#x201e;" horiz-adv-x="772" 
d="M563 0q-69 10 -69 88q0 40 37 76q38 37 83 37q84 0 84 -88q0 -141 -94 -233t-227 -93l-10 72q164 4 196 141zM252 201q84 0 84 -88q0 -141 -94 -233t-228 -93l-12 72q166 4 199 141q-69 10 -69 88q0 40 37 76q38 37 83 37z" />
    <glyph glyph-name="dagger" unicode="&#x2020;" horiz-adv-x="839" 
d="M975 1200l-21 -106l-227 10h-49l-47 -252l-53 -313h-103l72 313l47 252h-59l-224 -10l21 106l219 -10h57l41 231h101l-54 -231h47z" />
    <glyph glyph-name="daggerdbl" unicode="&#x2021;" horiz-adv-x="880" 
d="M629 719l-84 -404h45l235 11l-20 -105l-232 8h-43l-36 -229h-101l49 229h-49l-231 -10l20 107l226 -11h53l41 207l35 197l41 182l36 207h-53l-229 -10l20 106l226 -10h51l41 229h100l-53 -229h43l235 10l-20 -106l-230 10h-45l-41 -207z" />
    <glyph glyph-name="bullet" unicode="&#x2022;" horiz-adv-x="839" 
d="M784 728q0 -98 -74 -168t-168 -71q-94 1 -156 63t-62 160t73 169q74 69 168 69t157 -62q62 -62 62 -160z" />
    <glyph glyph-name="ellipsis" unicode="&#x2026;" horiz-adv-x="1234" 
d="M1063 201q43 0 71 -29t29 -74q0 -45 -35 -78q-34 -32 -78 -32t-72 28t-28 74q0 45 35 78t78 33zM631 201q43 0 73 -29t29 -74q0 -45 -35 -78q-35 -32 -79 -32q-43 0 -71 28t-28 74q0 45 34 78t77 33zM207 201q43 0 73 -29t29 -74q0 -45 -35 -78q-34 -32 -78 -32t-72 28
t-28 74q0 45 34 78t77 33z" />
    <glyph glyph-name="perthousand" unicode="&#x2030;" horiz-adv-x="2623" 
d="M2183 113q133 -1 223 111t91 259q1 87 -51 137t-134 50q-133 0 -225 -102t-92 -253q0 -94 52 -148t136 -54zM2171 -4q-131 0 -212 85t-81 234q0 197 133 334t313 137q129 0 209 -80t80 -223q0 -193 -130 -340t-312 -147zM1376 113q133 -1 223 111t91 259q0 87 -52 137
t-133 50q-133 0 -225 -102t-92 -253q0 -94 52 -148t136 -54zM1364 -4q-131 0 -212 85t-81 234q0 197 133 334t314 137q128 0 208 -80t80 -223q0 -193 -130 -340t-312 -147zM571 782q133 0 224 112q90 112 90 259q0 88 -51 137t-134 49q-133 0 -225 -102t-92 -252
q0 -95 52 -149t136 -54zM559 666q-131 0 -212 85t-81 234q0 197 133 334t314 137q129 0 209 -81t79 -222q0 -193 -130 -340t-312 -147zM1604 1436h131l-1268 -1436h-131z" />
    <glyph glyph-name="guilsinglleft" unicode="&#x2039;" horiz-adv-x="636" 
d="M424 18l-254 527l459 526l96 -80l-399 -446l225 -445z" />
    <glyph glyph-name="guilsinglright" unicode="&#x203a;" horiz-adv-x="606" 
d="M385 1071l254 -526l-459 -527l-94 82l397 445l-225 446z" />
    <glyph glyph-name="fraction" unicode="&#x2044;" horiz-adv-x="937" 
d="M1198 1436h133l-1268 -1436h-133z" />
    <glyph glyph-name="Euro" unicode="&#x20ac;" horiz-adv-x="1441" 
d="M903 150q244 0 438 208l109 -100q-112 -127 -262 -199t-307 -71q-233 0 -387 152t-166 395h-150l15 92h135q0 90 32 182h-135l15 94h147q92 239 287 393t416 154q367 0 516 -270l-136 -103q-123 211 -364 211q-164 0 -310 -108t-223 -277h537l-12 -94h-561
q-29 -82 -33 -182h561l-14 -92h-537q14 -169 122 -277t267 -108z" />
    <glyph glyph-name="uni2117" unicode="&#x2117;" horiz-adv-x="1771" 
 />
    <glyph glyph-name="trademark" unicode="&#x2122;" horiz-adv-x="1423" 
d="M1595 1432h41l-123 -639h-90l84 434l-311 -346l-180 346l-84 -434h-90l123 639h43l215 -410zM864 1432l-14 -80h-232l-106 -559h-94l108 559h-231l14 80h555z" />
    <glyph glyph-name="Omega" unicode="&#x2126;" horiz-adv-x="1712" 
d="M238 629q0 252 118 441q119 188 313 284t429 96q293 0 477 -151t184 -415t-142 -454t-366 -280h363l-29 -150h-602l29 156q233 68 404 250t171 409t-132 353t-390 126t-456 -182t-197 -496q0 -172 106 -299t242 -161l-29 -156h-602l29 150h360q-117 66 -199 194
q-81 129 -81 285z" />
    <glyph glyph-name="partialdiff" unicode="&#x2202;" horiz-adv-x="1355" 
d="M838 791q-190 1 -336 -105t-146 -285q0 -121 102 -195t271 -75q170 0 307 131q138 132 138 264t-96 198t-240 67zM670 -12q-199 0 -342 110q-144 110 -144 276q0 167 96 299q96 133 238 195q141 62 295 62q153 0 267 -53t161 -144q23 92 23 166q0 203 -110 305t-292 102
t-356 -59l-49 133q182 76 465 76q217 0 353 -136t136 -407q0 -353 -175 -629q-85 -134 -226 -215t-340 -81z" />
    <glyph glyph-name="Delta" unicode="&#x2206;" horiz-adv-x="1505" 
d="M985 1192l-666 -1045h924zM1081 1444l381 -1444h-1419l942 1444h96z" />
    <glyph glyph-name="product" unicode="&#x220f;" horiz-adv-x="1515" 
d="M109 -330l346 1774h1179l-346 -1774h-170l316 1626h-838l-317 -1626h-170z" />
    <glyph glyph-name="summation" unicode="&#x2211;" horiz-adv-x="1368" 
d="M414 1444h1140l-30 -150h-889l332 -735l-617 -739h889l-31 -150h-1140l16 78l682 811l-369 807z" />
    <glyph glyph-name="minus" unicode="&#x2212;" horiz-adv-x="1081" 
d="M1116 752l-26 -144h-867l27 144h866z" />
    <glyph glyph-name="radical" unicode="&#x221a;" horiz-adv-x="1658" 
d="M987 262l1069 1612h166l-1247 -1874h-92l-310 1141h-278l27 141h403z" />
    <glyph glyph-name="infinity" unicode="&#x221e;" horiz-adv-x="1765" 
d="M604 514q90 0 171 58t177 178q-51 119 -108 177t-148 58q-129 0 -212 -85t-83 -208q0 -178 203 -178zM1343 514q129 0 213 84t84 211q0 86 -55 131t-147 45t-174 -58t-179 -177q53 -124 109 -180t149 -56zM1333 383q-117 1 -193 65t-141 201q-115 -135 -218 -201
t-231 -65q-128 0 -210 76t-82 217q0 180 135 309t314 129q113 0 191 -66t140 -200q119 138 220 202q100 64 232 64t210 -79t78 -224q0 -184 -134 -306t-311 -122z" />
    <glyph glyph-name="integral" unicode="&#x222b;" horiz-adv-x="776" 
d="M977 1399q-104 0 -144 -47t-96 -207l-405 -1155q-43 -123 -80 -195q-68 -131 -173 -159q-46 -11 -122 -11l-84 4l43 135h18q106 0 146 48t96 215l404 1149q78 220 148 290t196 70l143 -12l-43 -127q-33 2 -47 2z" />
    <glyph glyph-name="approxequal" unicode="&#x2248;" horiz-adv-x="1282" 
d="M1098 1022q113 0 262 115l24 -140q-164 -121 -301 -120q-80 0 -221 56t-229 56q-133 0 -289 -96l-22 131q166 109 323 109q101 1 237 -55t216 -56zM983 430q115 0 264 115l21 -137q-152 -123 -299 -123q-80 0 -221 56t-230 56q-141 0 -289 -96l-22 131q170 111 321 111
q100 -1 238 -57t217 -56z" />
    <glyph glyph-name="notequal" unicode="&#x2260;" horiz-adv-x="1308" 
d="M401 82h-131l185 260h-228l29 143h301l317 449h-530l27 143h606l184 258h129l-184 -258h244l-27 -143h-317l-320 -449h549l-29 -143h-620z" />
    <glyph glyph-name="lessequal" unicode="&#x2264;" horiz-adv-x="1286" 
d="M1409 1397l-33 -160l-833 -369l692 -366l-33 -160l-895 485l15 82zM1165 141l-26 -141h-994l29 141h991z" />
    <glyph glyph-name="greaterequal" unicode="&#x2265;" horiz-adv-x="1284" 
d="M211 342l31 160l835 366l-692 369l33 160l895 -488l-15 -82zM1165 141l-26 -141h-994l29 141h991z" />
    <glyph glyph-name="lozenge" unicode="&#x25ca;" horiz-adv-x="983" 
d="M377 772l153 -522l361 522l-158 522zM750 1544h67l234 -772l-533 -772h-67l-232 772z" />
    <glyph glyph-name="NULL" horiz-adv-x="0" 
 />
    <glyph glyph-name="CR" horiz-adv-x="567" 
 />
    <glyph glyph-name="intelligentdesign" horiz-adv-x="1980" 
d="M1679 -311q1 8 9 8t8 -8t-8 -8t-9 8zM440 -311q0 8 8 8t9 -8q-1 -8 -9 -8t-8 8zM1473 -231h8v-86h-8v86zM885 -231h8v-86h-8v86zM479 -231h8v-86h-8v86zM750 -231h8v-78h41v-8h-49v86zM817 -231h8v-78h41v-8h-49v86zM1190 -240h-27v9h62v-9h-27v-77h-8v77zM623 -240h-27
v9h61v-9h-26v-77h-8v77zM1426 -309q17 0 18 16q0 11 -21 19t-20 22q0 23 22 23q16 0 23 -15l-6 -4q-6 10 -18 10t-13 -14q1 -10 21 -17t20 -24q0 -25 -25 -24q-23 0 -30 18l6 4q6 -14 23 -14zM1808 -291h15q25 4 24 27q0 25 -24 24h-15v-51zM1008 -231h53v-9h-45v-36h41v-9
h-41v-24h45v-8h-53v86zM1329 -231h53v-9h-45v-36h41v-9h-41v-24h45v-8h-53v86zM678 -231h53v-9h-45v-36h41v-9h-41v-24h45v-8h-53v86zM1753 -291v8h29v-22q-12 -12 -32 -12t-34 12q-12 13 -12 31t13 31q31 31 63 -1l-6 -6q-10 12 -26 12t-26 -11t-10 -25t11 -24t26 -11l25 8
v10h-21zM1548 -291v8h29v-22q-13 -12 -33 -12t-33 12q-12 13 -12 31t13 31q31 31 63 -1l-6 -6q-9 12 -25 12t-26 -11q-24 -27 1 -50q11 -10 25 -10l25 8v10h-21zM961 -291v8h28v-22q-13 -12 -33 -12q-43 0 -45 43q-1 18 13 31q31 30 63 -1l-6 -6q-9 12 -25 12t-26 -11
t-10 -25t11 -24t25 -11l25 8v10h-20zM569 -231h9v-86h-9l-51 73v-73h-8v86h8l51 -72v72zM1657 -231h8v-86h-8l-51 73v-73h-9v86h9l51 -72v72zM1139 -231h8v-86h-8l-52 73v-73h-8v86h8l52 -72v72zM154 -305l24 76h8l-28 -86h-8l-19 71l-16 -71h-9l-28 86h8l25 -76l16 76h8z
M403 -305l25 76h8l-28 -86h-9l-18 71l-16 -71h-9l-28 86h8l24 -76l17 76h8zM276 -305l25 76h8l-28 -86h-9l-18 71l-16 -71h-9l-28 86h8l24 -76l17 76h8zM1268 -309q14 0 24 10q10 11 10 25t-10 24t-24 10h-17v-69h17zM1311 184h-27v-65h23q35 2 34 33q1 32 -30 32z
M1823 -231q32 -1 32 -39q0 -18 -18 -25l21 -22h-13l-16 18h-21v-18h-8v86h23zM1114 88h14q16 0 28 13q11 13 11 33t-12 32q-12 14 -29 14h-12v-92zM1268 -231q18 1 30 -13t13 -31t-13 -29t-30 -13h-25v86h25zM564 86q19 0 33 14q13 14 13 34t-13 34t-33 14t-32 -13
q-14 -13 -14 -33t13 -36q14 -14 33 -14zM459 225v-41h-37v-65h35v-35h-35v-39h-49v39h-11v35h11v106h86zM1503 45h-49v59l-68 119h56l37 -65l37 65h55l-68 -119v-59zM795 223h49v-106q0 -33 -25 -55t-59 -22t-59 22q-26 22 -25 55v106h49v-94q0 -43 35 -43t35 43v94z
M987 225h49v-180h-22l-96 92v-92h-50v180h23l96 -94v94zM1217 135q0 -37 -25 -63t-59 -27h-68v180h61q39 -1 65 -27t26 -63zM1284 84v-39h-49v180h84q74 0 74 -69q0 -40 -25 -58q10 -10 31 -20l-19 -43q-37 14 -65 49h-31zM565 227q41 -1 69 -27t28 -65t-29 -67t-68 -27
q-39 0 -67 28q-28 29 -29 67t27 64t69 27zM924 965v274h-142v-274h142zM924 602v275h-142v-275h142zM1012 877v-269q98 18 164 94t65 175h-229zM1012 965h229q0 98 -65 175q-66 77 -164 93v-268zM385 921q0 116 65 211t168 136q44 104 138 169t211 65t211 -66
q94 -64 137 -168q104 -41 169 -136q64 -95 64 -211t-64 -210t-169 -138q-43 -104 -137 -169q-94 -64 -211 -64t-211 64t-138 169q-104 43 -168 137t-65 211z" />
    </font>
</defs>
</svg>
