<?xml version="1.0" standalone="no"?>
<!DOCTYPE svg PUBLIC "-//W3C//DTD SVG 1.1//EN" "http://www.w3.org/Graphics/SVG/1.1/DTD/svg11.dtd" >
<svg xmlns="http://www.w3.org/2000/svg">
<metadata>
Created by FontPrep 20130207 at Wed Sep 24 10:47:11 2014
 By 1
Copyright (c) 2014 by Intelligent Design - Kostas Bartsokas. All rights reserved.
</metadata>
<defs>
<font id="bb1fe4599c1fb6494adcac51c11eb979" horiz-adv-x='1024' >
  <font-face 
    font-family="ZonaPro"
    font-weight="325"
    font-stretch="normal"
    units-per-em="2048"
    panose-1="2 1 5 3 4 0 2 2 0 4"
    ascent="1690"
    descent="-358"
    x-height="1108"
    cap-height="1444"
    bbox="-522 -549 2537 2034"
    underline-thickness="40"
    underline-position="-231"
    unicode-range="U+0020-FB04"
  />
<missing-glyph horiz-adv-x="1024" 
 />
    <glyph glyph-name="f_igrave" unicode="f&#xec;" horiz-adv-x="1228" 
d="M401 1196v-88h668v-1108h-172v967h-496v-1016q0 -160 -90 -247t-229 -87q-59 0 -125 12v138q16 -2 59 -3q109 0 162 62t53 194v947h-186v141h186v74q0 96 33 167t82 109q122 96 399 96l310 -346h-123l-264 236q-135 0 -201 -68t-66 -180z" />
    <glyph glyph-name="f_f" unicode="ff" horiz-adv-x="1538" 
d="M231 20v947h-186v141h186v57q0 338 336 338q113 0 205 -28v-129q-94 16 -188 16t-138 -49t-45 -158v-47h586v90q0 201 90 278t246 76q98 1 207 -28v-129q-82 14 -152 14q-129 0 -175 -54t-46 -181v-66h356v-141h-356v-981q0 -174 -101 -253t-261 -79l-82 8v139
q37 -4 59 -4q215 0 215 258v912h-586v-1016q0 -164 -95 -249t-243 -85l-106 10v137l59 -2q215 0 215 258z" />
    <glyph glyph-name="f_i" unicode="fi" horiz-adv-x="1228" 
d="M983 1292q-45 0 -76 31t-30 76q0 45 30 75q31 30 76 30t76 -30t31 -75t-31 -76t-76 -31zM401 1161v-53h668v-1108h-172v967h-496v-1016q0 -160 -90 -247t-229 -87q-59 0 -125 12v138q16 -2 59 -3q109 0 162 62t53 194v947h-186v141h186v80q0 110 37 188q38 78 98 114
q108 64 228 64q121 0 178 -20v-129q-76 14 -151 14q-127 0 -174 -65q-46 -66 -46 -193z" />
    <glyph glyph-name="f_l" unicode="fl" horiz-adv-x="1267" 
d="M231 20v947h-186v141h186q1 448 445 448q202 0 318 -110t116 -293v-1153h-172v1112q0 303 -262 303q-152 0 -213 -72t-62 -235h355v-141h-355v-1016q0 -168 -98 -250t-250 -82l-96 8v137l59 -2q215 0 215 258z" />
    <glyph glyph-name="f_f_i" unicode="ffi" horiz-adv-x="2000" 
d="M1157 1157v-49h684v-1108h-172v967h-512v-981q0 -160 -90 -246t-229 -86q-70 0 -125 10v137q18 -2 59 -2q109 -1 162 61t53 195v912h-586v-1016q0 -160 -90 -247t-229 -87q-59 0 -125 12v138q16 -2 59 -3q109 0 162 62t53 194v947h-186v141h186v55q0 340 355 340
q100 0 186 -28v-129q-94 16 -188 16t-138 -50t-45 -161v-43h586v78q0 211 95 289t259 77q96 0 189 -28v-129q-82 14 -152 14q-131 -1 -176 -61t-45 -191zM1755 1292q-45 0 -76 31t-30 76q0 45 30 75q31 30 76 30t76 -30t31 -75t-31 -76t-76 -31z" />
    <glyph glyph-name="f_f_l" unicode="ffl" horiz-adv-x="2025" 
d="M231 20v947h-186v141h186v66q-1 160 89 246t222 87q132 0 230 -32v-129q-94 16 -181 16t-138 -49t-52 -146v-59h586v49q0 185 119 291q118 106 312 106t321 -101t127 -300v-1153h-172v1112q0 154 -71 228t-193 73q-122 0 -197 -63q-76 -63 -76 -195v-47h354v-141h-354
v-981q0 -160 -90 -247t-229 -87l-125 10v139q37 -4 59 -4q215 0 215 258v912h-586v-1016q0 -160 -90 -247t-229 -87l-125 10v137l59 -2q215 0 215 258z" />
    <glyph glyph-name=".notdef" horiz-adv-x="1024" 
 />
    <glyph glyph-name=".null" horiz-adv-x="0" 
 />
    <glyph glyph-name="nonmarkingreturn" horiz-adv-x="681" 
 />
    <glyph glyph-name="space" unicode=" " horiz-adv-x="659" 
 />
    <glyph glyph-name="exclam" unicode="!" horiz-adv-x="464" 
d="M236 201q46 0 76 -31t30 -76t-31 -76q-31 -30 -75 -30t-76 30q-31 30 -31 76q0 45 31 76t76 31zM291 414h-115l-31 1028h177z" />
    <glyph glyph-name="quotedbl" unicode="&#x22;" horiz-adv-x="712" 
d="M72 854l37 580h186l-131 -580h-92zM422 854l37 580h186l-131 -580h-92z" />
    <glyph glyph-name="numbersign" unicode="#" horiz-adv-x="1392" 
d="M838 528l69 406h-368l-70 -406h369zM1333 1075v-141h-295l-69 -406h297v-141h-322l-65 -381h-129l63 381h-369l-63 -381h-131l65 381h-254v141h277l70 406h-281v141h305l55 330h131l-57 -330h371l55 330h129l-55 -330h272z" />
    <glyph glyph-name="dollar" unicode="$" horiz-adv-x="1312" 
d="M1038 374q0 106 -82 160t-245 97v-496q151 5 239 69t88 170zM301 1072q0 -99 81 -152t236 -97v484q-147 -2 -232 -69t-85 -166zM711 -145h-93v129q-150 4 -252 30t-257 103l67 135q131 -63 223 -88t219 -29v518q-221 55 -358 139t-137 262q0 176 134 288t361 116v82h93
v-84q258 -18 446 -110l-74 -140q-149 76 -372 94v-501q227 -54 367 -140q139 -86 139 -268q1 -182 -137 -291t-369 -116v-129z" />
    <glyph glyph-name="percent" unicode="%" horiz-adv-x="1841" 
d="M1350 1436h131l-989 -1436h-132zM1390 104q103 0 173 78t69 205q0 127 -69 205q-70 78 -173 78t-173 -78t-70 -205t70 -205t173 -78zM1390 784q155 0 258 -108t103 -290q0 -183 -103 -291q-103 -107 -258 -107t-258 108t-104 291q0 185 104 291t258 106zM209 1058
q0 -128 70 -206t173 -78t173 78q69 78 69 206t-69 205q-70 77 -173 77t-173 -78q-70 -76 -70 -204zM813 1058q0 -183 -103 -292t-258 -109t-258 109q-104 109 -104 292t104 291q104 107 258 107q155 0 258 -108t103 -290z" />
    <glyph glyph-name="ampersand" unicode="&#x26;" horiz-adv-x="1398" 
d="M589 127q161 0 316 135l-399 389q-246 -98 -246 -274q0 -104 84 -177t245 -73zM854 1092q0 96 -62 164t-170 69q-106 0 -169 -71t-63 -147q-1 -123 80 -221q26 -30 85 -89q299 106 299 295zM588 -10q-236 0 -367 106t-131 275q0 254 320 385q-86 88 -127 165t-41 173
q0 156 105 257t276 101t273 -102t101 -236q0 -281 -350 -409l352 -345q99 103 218 293l124 -43q-145 -231 -245 -344l188 -180l-104 -96l-181 176q-209 -176 -411 -176z" />
    <glyph glyph-name="quotesingle" unicode="'" horiz-adv-x="423" 
d="M104 854l35 580h191l-131 -580h-95z" />
    <glyph glyph-name="parenleft" unicode="(" horiz-adv-x="819" 
d="M276 618q0 -244 125 -436t351 -319l-58 -101q-274 140 -428 358t-154 498t154 499q154 218 428 360l58 -101q-225 -127 -351 -320q-125 -194 -125 -438z" />
    <glyph glyph-name="parenright" unicode=")" horiz-adv-x="819" 
d="M543 618q0 244 -125 438t-350 320l59 101q274 -141 427 -359t153 -500t-153 -498t-427 -358l-59 101q227 127 351 319t124 436z" />
    <glyph glyph-name="asterisk" unicode="*" horiz-adv-x="845" 
d="M760 938l-51 -86l-246 156l12 -291h-98l12 291l-248 -156l-47 86l258 133l-260 135l49 86l248 -157l-12 292h98l-12 -292l246 157l49 -86l-258 -135z" />
    <glyph glyph-name="plus" unicode="+" horiz-adv-x="1310" 
d="M1169 831v-141h-442v-440h-139v440h-443v141h443v441h139v-441h442z" />
    <glyph glyph-name="comma" unicode="," horiz-adv-x="391" 
d="M86 96q0 42 32 74q32 31 71 31q40 0 75 -30t35 -105q0 -162 -86 -243t-180 -83l-27 74q55 8 111 54q55 46 61 122q-40 4 -66 34t-26 72z" />
    <glyph glyph-name="hyphen" unicode="-" horiz-adv-x="835" 
d="M741 752v-144h-647v144h647z" />
    <glyph glyph-name="period" unicode="." horiz-adv-x="376" 
d="M293 94q0 -45 -31 -76q-31 -30 -76 -30q-46 0 -76 30t-30 76q0 45 31 76t75 31t76 -31q31 -31 31 -76z" />
    <glyph glyph-name="slash" unicode="/" horiz-adv-x="942" 
d="M-61 -262l907 1896h147l-907 -1896h-147z" />
    <glyph glyph-name="zero" unicode="0" horiz-adv-x="1495" 
d="M750 1303q-206 0 -346 -158t-140 -424t139 -424t347 -158t346 158q139 158 139 424t-139 424t-346 158zM751 1454q280 0 467 -199t187 -535t-187 -534t-467 -198t-468 198t-189 535q0 337 188 535t469 198z" />
    <glyph glyph-name="one" unicode="1" horiz-adv-x="802" 
d="M580 1444v-1444h-177v1278l-309 -70l-35 142l424 94h97z" />
    <glyph glyph-name="two" unicode="2" horiz-adv-x="1277" 
d="M1178 150v-150h-1084v72q146 189 462 352q116 59 222 124q230 141 232 361q0 162 -113 275q-113 112 -265 112t-266 -108t-116 -277v-22h-156v33q0 227 159 381q159 153 378 153t380 -156t160 -380q0 -256 -189 -411q-89 -73 -180 -126q-90 -53 -208 -117t-186 -116h770z
" />
    <glyph glyph-name="three" unicode="3" horiz-adv-x="1259" 
d="M1180 444q0 -214 -156 -336t-414 -122q-162 0 -272 19t-234 75l66 137q188 -80 444 -80q178 0 287 83t109 212t-100 219t-304 92h-69l-33 72l387 479h-746v150h1000v-84l-406 -506q199 -18 320 -130t121 -280z" />
    <glyph glyph-name="four" unicode="4" horiz-adv-x="1349" 
d="M885 514v664l-572 -664h572zM1057 514h219v-147h-219v-367h-172v367h-787l-35 82l861 995h133v-930z" />
    <glyph glyph-name="five" unicode="5" horiz-adv-x="1267" 
d="M694 930q232 0 362 -130t130 -350t-156 -342t-414 -122q-164 0 -276 18t-234 70l62 137q186 -74 453 -74q179 0 287 86q108 87 108 231t-93 235t-274 91q-94 0 -217 -18t-182 -39l-78 45l8 676h940v-152h-788l-2 -422q178 60 364 60z" />
    <glyph glyph-name="six" unicode="6" horiz-adv-x="1359" 
d="M700 780q-168 0 -284 -81t-115 -211q0 -130 116 -238t265 -107q196 0 304 91q108 92 108 238t-113 227t-281 81zM700 932q236 0 401 -120t165 -340t-167 -352t-411 -132t-408 177t-163 447q0 436 167 640t427 204t481 -149l-78 -136q-190 133 -392 133t-323 -149
q-121 -150 -120 -422q51 87 167 143t254 56z" />
    <glyph glyph-name="seven" unicode="7" horiz-adv-x="1198" 
d="M100 1444h1030v-84l-694 -1360h-190l663 1294h-809v150z" />
    <glyph glyph-name="eight" unicode="8" horiz-adv-x="1298" 
d="M653 139q174 0 286 72t112 199q0 128 -112 206t-286 78q-175 0 -287 -79t-112 -205t112 -199q112 -72 287 -72zM653 1309q-145 -1 -237 -57t-92 -164t92 -172t237 -64t238 64q92 64 92 172q-1 108 -93 164t-237 57zM653 1456q213 0 349 -94t137 -277q-1 -106 -63 -188
t-158 -113q133 -33 218 -134t85 -238q0 -203 -161 -314q-161 -110 -408 -110q-246 0 -406 110t-160 314q0 137 85 239t218 133q-96 29 -159 112q-62 83 -62 189q0 183 136 277t349 94z" />
    <glyph glyph-name="nine" unicode="9" horiz-adv-x="1357" 
d="M686 1307q-196 -1 -304 -95t-108 -242t113 -228q113 -78 279 -78t284 86t117 211q0 125 -117 235t-264 111zM668 512q-233 0 -399 120q-165 120 -165 340t162 352t407 132t411 -177t167 -448q0 -436 -167 -640q-167 -203 -427 -203t-481 149l78 129q182 -127 386 -127
q204 -1 321 147t129 425q-51 -87 -168 -143t-254 -56z" />
    <glyph glyph-name="colon" unicode=":" horiz-adv-x="452" 
d="M221 201q45 0 76 -31t31 -76t-31 -76q-31 -30 -76 -30t-76 30t-30 76q0 45 30 76q31 31 76 31zM221 893q-45 0 -76 30q-31 31 -31 75t31 75t76 31t76 -31t31 -76t-31 -75t-76 -29z" />
    <glyph glyph-name="semicolon" unicode=";" horiz-adv-x="448" 
d="M223 201q47 0 76 -34t29 -97q0 -144 -70 -236t-197 -94l-24 74q66 6 117 56t53 120q-39 4 -66 35t-27 73t31 72q31 31 78 31zM328 998q0 -44 -32 -74t-76 -31q-44 0 -75 30q-31 31 -31 75t31 75t75 31t76 -31t32 -75z" />
    <glyph glyph-name="less" unicode="&#x3c;" horiz-adv-x="1265" 
d="M1112 1243v-160l-764 -368l764 -367v-160l-991 486v84z" />
    <glyph glyph-name="equal" unicode="=" horiz-adv-x="1282" 
d="M150 1077h978v-143h-978v143zM150 342v143h978v-143h-978z" />
    <glyph glyph-name="greater" unicode="&#x3e;" horiz-adv-x="1267" 
d="M168 188v160l762 367l-762 368v160l991 -485v-84z" />
    <glyph glyph-name="question" unicode="?" horiz-adv-x="1105" 
d="M468 201q44 0 76 -31t32 -76t-32 -76q-32 -30 -76 -30t-75 30t-31 76q0 45 31 76t75 31zM494 1456q242 0 385 -124t143 -341q0 -167 -128 -275t-351 -108l-11 -223h-122l-11 295l19 41h57q186 0 290 75q103 74 103 208t-103 220t-267 85q-238 0 -416 -90l-59 133
q115 60 216 82t255 22z" />
    <glyph glyph-name="at" unicode="@" horiz-adv-x="1976" 
d="M930 944q-122 0 -224 -110t-102 -250q0 -138 76 -224t198 -86t224 115q100 115 102 275q0 120 -76 200t-198 80zM995 -317q-373 0 -637 264t-264 637t264 636t637 263t636 -262t263 -633q0 -201 -128 -342t-314 -142q-123 0 -186 58t-64 162v14q-47 -94 -148 -152
t-210 -57q-174 0 -284 124t-109 300q0 213 140 375t333 162q116 0 204 -62t127 -168l29 189l143 -23q-94 -618 -94 -629q0 -199 154 -198q143 -1 232 117t89 270q0 336 -236 572t-577 237q-341 0 -577 -237q-236 -238 -236 -574t238 -575t566 -239t546 187l53 -55
q-252 -219 -590 -219z" />
    <glyph glyph-name="A" unicode="A" 
d="M754 1204l-308 -698h617zM1288 0l-162 362h-743l-160 -362h-184l668 1444h96l670 -1444h-185z" />
    <glyph glyph-name="B" unicode="B" horiz-adv-x="1435" 
d="M346 150h481q164 0 250 92t86 228t-88 233t-246 98h-483v-651zM344 1294v-360h393q84 0 126 55t42 128t-61 125t-156 52h-344zM743 1444q133 0 227 -84t93 -224q0 -140 -107 -218q176 -18 282 -152t108 -316q0 -182 -116 -316t-321 -134h-735v1444h569z" />
    <glyph glyph-name="C" unicode="C" horiz-adv-x="1548" 
d="M866 152q137 0 256 59t199 164l135 -113q-106 -129 -260 -202t-330 -72q-315 0 -537 215t-223 518q0 303 222 519t538 216q174 0 329 -74t261 -202l-135 -113q-80 105 -199 165t-256 60q-242 0 -410 -165t-169 -407q1 -242 169 -404q168 -164 410 -164z" />
    <glyph glyph-name="D" unicode="D" 
d="M344 158h365q213 0 367 169t153 399q0 230 -162 396q-162 164 -391 164h-332v-1128zM1403 725q0 -295 -200 -510t-480 -215h-549v1444h502q301 0 514 -212t213 -507z" />
    <glyph glyph-name="E" unicode="E" horiz-adv-x="1318" 
d="M344 150h875v-150h-1045v1444h1002v-150h-832v-520h705v-147h-705v-477z" />
    <glyph glyph-name="F" unicode="F" horiz-adv-x="1286" 
d="M1196 1294h-852v-641h739v-149h-739v-504h-170v1444h1022v-150z" />
    <glyph glyph-name="G" unicode="G" horiz-adv-x="1619" 
d="M836 692h659v-493q-262 -211 -625 -211q-315 0 -539 215t-225 518q0 303 224 518t556 215t556 -207l-111 -121q-183 166 -443 166t-432 -167t-171 -407q0 -240 171 -407q172 -168 422 -168t441 142v262h-483v145z" />
    <glyph glyph-name="H" unicode="H" 
d="M1163 1444h172v-1444h-172v555h-819v-555h-170v1444h170v-739h819v739z" />
    <glyph glyph-name="I" unicode="I" horiz-adv-x="530" 
d="M354 1444v-1444h-178v1444h178z" />
    <glyph glyph-name="J" unicode="J" horiz-adv-x="1216" 
d="M889 1444h174v-854q0 -276 -129 -439t-383 -163q-190 0 -333 125q-142 125 -169 311l154 14q25 -127 119 -208t225 -80q164 0 253 110t89 289v895z" />
    <glyph glyph-name="K" unicode="K" horiz-adv-x="1429" 
d="M344 0h-170v1444h170v-858l786 858h216l-639 -705l657 -739h-234l-538 610l-248 -268v-342z" />
    <glyph glyph-name="L" unicode="L" horiz-adv-x="1226" 
d="M350 145h801v-145h-977v1444h176v-1299z" />
    <glyph glyph-name="M" unicode="M" horiz-adv-x="1785" 
d="M1612 1444v-1444h-176v1044l-543 -851l-543 851v-1044h-176v1444h92l627 -959l627 959h92z" />
    <glyph glyph-name="N" unicode="N" horiz-adv-x="1583" 
d="M1235 1444h174v-1444h-92l-967 1114v-1114h-176v1444h92l969 -1114v1114z" />
    <glyph glyph-name="O" unicode="O" horiz-adv-x="1740" 
d="M868 150q242 0 413 166t171 405t-171 405t-413 166t-412 -168t-171 -404q1 -236 171 -402q170 -168 412 -168zM869 1454q315 0 539 -215t224 -518t-223 -518t-539 -215t-540 215q-223 215 -224 518q0 303 224 518t539 215z" />
    <glyph glyph-name="P" unicode="P" horiz-adv-x="1351" 
d="M350 588h326q200 0 308 91t108 255t-90 262t-281 98h-371v-706zM174 1444h571q275 0 403 -138t128 -350q0 -264 -157 -389t-429 -125h-340v-442h-176v1444z" />
    <glyph glyph-name="Q" unicode="Q" horiz-adv-x="1740" 
d="M868 150q170 0 310 88l-109 92l84 102l121 -104q178 158 178 394t-171 404q-171 166 -413 166t-412 -168t-171 -404q1 -236 171 -402q170 -168 412 -168zM868 -12q-315 0 -538 215t-224 518q0 303 224 518t538 215q316 0 540 -215t224 -515t-221 -511l154 -129l-84 -100
l-168 141q-199 -137 -445 -137z" />
    <glyph glyph-name="R" unicode="R" horiz-adv-x="1400" 
d="M350 1294v-706h346q201 0 310 91q108 91 108 255t-89 262t-282 98h-393zM702 442h-352v-442h-176v1444h592q276 0 403 -137t127 -351q0 -375 -321 -475l364 -481h-213l-327 446q-61 -4 -97 -4z" />
    <glyph glyph-name="S" unicode="S" horiz-adv-x="1310" 
d="M1208 393q0 -190 -145 -300t-389 -109q-182 0 -293 24t-279 109l66 135q146 -72 250 -94t264 -23q160 0 254 66t94 175q0 108 -93 166t-241 93t-214 54q-68 19 -144 54t-119 74q-104 94 -102 240q0 178 137 289q138 110 400 110t497 -113l-74 -139q-92 45 -220 73
t-258 28t-218 -66t-88 -171q0 -106 98 -162t263 -95t248 -69q209 -76 269 -189q37 -68 37 -160z" />
    <glyph glyph-name="T" unicode="T" horiz-adv-x="1351" 
d="M1264 1444v-150h-496v-1294h-178v1294h-494v150h1168z" />
    <glyph glyph-name="U" unicode="U" horiz-adv-x="1546" 
d="M1380 1444v-864q0 -256 -160 -424t-448 -168t-446 167t-158 425v864h172v-828q0 -217 112 -343t322 -126t323 126q114 126 113 343v828h170z" />
    <glyph glyph-name="V" unicode="V" horiz-adv-x="1556" 
d="M782 289l525 1155h192l-672 -1444h-88l-671 1444h190z" />
    <glyph glyph-name="W" unicode="W" horiz-adv-x="2287" 
d="M2216 1444l-555 -1444h-80l-444 1153l-445 -1153h-80l-557 1444h189l413 -1118l439 1118h82l436 -1118l414 1118h188z" />
    <glyph glyph-name="X" unicode="X" horiz-adv-x="1449" 
d="M731 854l455 590h198l-540 -719l547 -725h-203l-457 594l-459 -594h-202l548 725l-540 719h198z" />
    <glyph glyph-name="Y" unicode="Y" horiz-adv-x="1374" 
d="M776 0h-176v496l-565 948h201l452 -766l451 766h202l-565 -948v-496z" />
    <glyph glyph-name="Z" unicode="Z" horiz-adv-x="1359" 
d="M1257 1444v-78l-907 -1216h918v-150h-1172v76l908 1218h-859v150h1112z" />
    <glyph glyph-name="bracketleft" unicode="[" horiz-adv-x="696" 
d="M637 1309h-315v-1442h315v-127h-461v1696h461v-127z" />
    <glyph glyph-name="backslash" unicode="\" horiz-adv-x="925" 
d="M860 -262l-907 1896h145l908 -1896h-146z" />
    <glyph glyph-name="bracketright" unicode="]" horiz-adv-x="718" 
d="M82 -133h315v1442h-315v127h459v-1696h-459v127z" />
    <glyph glyph-name="asciicircum" unicode="^" horiz-adv-x="927" 
d="M211 1004h-131l344 440h84l344 -440h-133l-254 327z" />
    <glyph glyph-name="underscore" unicode="_" horiz-adv-x="1198" 
d="M1204 -63v-105h-1210v105h1210z" />
    <glyph glyph-name="grave" unicode="`" horiz-adv-x="935" 
d="M582 1546l-357 322l193 14l284 -336h-120z" />
    <glyph glyph-name="a" unicode="a" horiz-adv-x="1370" 
d="M704 977q-200 0 -322 -123t-122 -295t123 -296t303 -124q219 0 358 129v576q-140 133 -340 133zM1044 1108h170v-1108h-170v111q-162 -123 -396 -123t-392 168q-160 168 -160 402t160 402t394 168t394 -122v102z" />
    <glyph glyph-name="b" unicode="b" horiz-adv-x="1372" 
d="M684 139q180 0 303 120t123 297t-123 299t-303 122q-223 0 -358 -129v-576q139 -133 358 -133zM720 1128q230 0 394 -162q166 -162 166 -408t-166 -408t-398 -162t-390 121v-109h-170v1544h170v-532q164 116 394 116z" />
    <glyph glyph-name="c" unicode="c" horiz-adv-x="1193" 
d="M695 -12q-251 0 -428 167t-177 403t177 404q177 166 430 166t413 -200l-113 -103q-119 152 -301 152t-310 -123t-128 -296t128 -296t310 -123t301 156l111 -102q-162 -205 -413 -205z" />
    <glyph glyph-name="d" unicode="d" horiz-adv-x="1372" 
d="M688 139q221 0 361 133v576q-139 129 -361 129q-178 0 -302 -122t-124 -299t124 -297t302 -120zM1049 1544h168v-1544h-168v106q-159 -118 -391 -118t-399 163t-167 407t167 408q167 162 395 162t395 -116v532z" />
    <glyph glyph-name="e" unicode="e" horiz-adv-x="1284" 
d="M661 989q-161 0 -269 -100t-128 -252h762q-12 158 -107 255q-96 97 -258 97zM655 -12q-247 0 -405 165t-158 405t159 405t405 165t391 -160q145 -161 145 -419l-2 -45h-928q20 -160 142 -263t280 -104q219 0 352 162l113 -90q-78 -101 -207 -161t-287 -60z" />
    <glyph glyph-name="f" unicode="f" horiz-adv-x="780" 
d="M231 20v947h-186v141h186v51q0 187 84 291t252 104q109 1 205 -30v-129q-76 14 -151 14q-129 0 -175 -60t-45 -198v-43h355v-141h-355v-1016q0 -147 -93 -239t-232 -93q-57 0 -119 8v137l59 -2q109 0 162 60t53 198z" />
    <glyph glyph-name="g" unicode="g" horiz-adv-x="1372" 
d="M260 568q0 -172 124 -288t304 -116q223 0 359 125v557q-141 131 -340 131t-323 -119t-124 -290zM1047 1108h170v-948q1 -227 -139 -385t-410 -158q-122 0 -172 5t-72 7q-25 2 -101 22t-126 38l32 127q215 -66 404 -66q188 0 291 97q102 97 114 241q0 4 1 16t1 19
q-164 -111 -390 -111t-392 160t-166 398t166 399q166 159 396 159t393 -120v100z" />
    <glyph glyph-name="h" unicode="h" horiz-adv-x="1304" 
d="M696 1128q227 0 352 -124q124 -125 123 -375v-629h-170v629q0 168 -91 258t-240 90q-201 0 -344 -123v-854h-170v1544h170v-536q143 120 370 120z" />
    <glyph glyph-name="i" unicode="i" horiz-adv-x="491" 
d="M350 1399q0 -45 -30 -76t-75 -31q-44 0 -76 31t-32 76t32 75t76 30q45 0 75 -30t30 -75zM160 0v1108h170v-1108h-170z" />
    <glyph glyph-name="j" unicode="j" horiz-adv-x="489" 
d="M242 1292q-45 0 -76 31t-31 76t31 75t76 30q46 0 76 -30t30 -75t-30 -76t-76 -31zM158 20v1088h172v-1157q0 -160 -90 -247t-230 -87q-59 0 -125 12v138q16 -2 58 -3q109 0 162 60t53 196z" />
    <glyph glyph-name="k" unicode="k" horiz-adv-x="1247" 
d="M326 0h-170v1544h170v-1089l673 653h209l-428 -426l430 -682h-192l-352 553l-340 -322v-231z" />
    <glyph glyph-name="l" unicode="l" horiz-adv-x="489" 
d="M158 0v1544h172v-1544h-172z" />
    <glyph glyph-name="m" unicode="m" horiz-adv-x="2033" 
d="M1130 0h-169v629q0 166 -82 257t-222 91q-197 0 -331 -125v-852h-170v1108h170v-107q140 127 372 127t349 -165q145 165 375 165t356 -124q125 -125 125 -375v-629h-170v629q-1 168 -91 258t-252 90t-290 -127q31 -88 30 -221v-629z" />
    <glyph glyph-name="n" unicode="n" horiz-adv-x="1306" 
d="M696 1128q227 0 352 -124q124 -125 123 -375v-629h-170v629q0 168 -90 258t-241 90q-203 0 -344 -125v-852h-170v1108h170v-107q143 127 370 127z" />
    <glyph glyph-name="o" unicode="o" horiz-adv-x="1386" 
d="M692 139q180 0 307 123t127 296t-127 296t-307 123t-308 -123t-128 -296t128 -296t308 -123zM692 1128q250 0 426 -168t176 -403q0 -237 -177 -403t-426 -166t-426 167t-177 403t177 404q177 166 427 166z" />
    <glyph glyph-name="p" unicode="p" horiz-adv-x="1376" 
d="M684 139q180 0 303 121t123 298t-123 298t-303 121q-221 0 -358 -133v-576q135 -129 358 -129zM716 1128q232 0 398 -162t166 -408t-166 -408t-395 -162t-393 116v-462h-170v1466h170v-100q158 120 390 120z" />
    <glyph glyph-name="q" unicode="q" horiz-adv-x="1376" 
d="M264 558q0 -177 124 -298t322 -121t341 129v576q-139 133 -359 133q-180 0 -304 -121t-124 -298zM1051 1108h170v-1466h-170v462q-167 -116 -395 -116t-394 164t-166 408t166 406t396 162t393 -120v100z" />
    <glyph glyph-name="r" unicode="r" horiz-adv-x="890" 
d="M326 1108v-217q53 109 146 172t218 65q68 0 135 -32l-12 -166q-84 33 -158 33q-153 0 -241 -118t-88 -284v-561h-170v1108h170z" />
    <glyph glyph-name="s" unicode="s" horiz-adv-x="1083" 
d="M542 125q160 0 228 53t68 130t-75 118t-259 79q-184 39 -289 109q-106 70 -106 204t115 222q116 88 308 88t406 -86l-57 -127q-168 74 -365 74q-114 0 -184 -46t-70 -118q0 -71 73 -111t260 -77t293 -111t107 -214t-111 -232t-338 -92t-458 102l64 127q230 -92 390 -92z
" />
    <glyph glyph-name="t" unicode="t" horiz-adv-x="823" 
d="M774 967h-375v-557q-1 -150 51 -212t143 -62t177 14v-130q-106 -32 -234 -32t-219 87q-90 87 -90 247v645h-182v141h182v436h172v-436h375v-141z" />
    <glyph glyph-name="u" unicode="u" horiz-adv-x="1320" 
d="M995 1108h170v-1108h-170v115q-150 -127 -380 -127t-354 125t-124 374v621h168v-621q0 -168 91 -258t243 -90q213 0 356 125v844z" />
    <glyph glyph-name="v" unicode="v" horiz-adv-x="1253" 
d="M1026 1108h182l-536 -1108h-86l-541 1108h182l402 -832z" />
    <glyph glyph-name="w" unicode="w" horiz-adv-x="1746" 
d="M1542 1108h170l-424 -1108h-88l-326 852l-325 -852h-88l-428 1108h172l315 -832l307 832h93l307 -832z" />
    <glyph glyph-name="x" unicode="x" horiz-adv-x="1193" 
d="M600 422l-356 -422h-189l447 559l-445 549h197l346 -422l346 422h197l-445 -549l449 -559h-193z" />
    <glyph glyph-name="y" unicode="y" horiz-adv-x="1255" 
d="M129 -250q350 0 446 250h-45l-475 1108h181l391 -907h37l356 907h176l-465 -1167q-74 -177 -231 -248q-158 -72 -336 -74q-55 0 -80 2l18 129h27z" />
    <glyph glyph-name="z" unicode="z" horiz-adv-x="1191" 
d="M1112 139v-139h-1026v88l774 879h-739v141h999v-84l-778 -885h770z" />
    <glyph glyph-name="braceleft" unicode="{" horiz-adv-x="847" 
d="M782 1448v-115q-143 0 -204 -46t-62 -177v-190q0 -164 -35 -243t-133 -104q98 -23 133 -97t35 -236v-215q0 -131 62 -177t204 -47v-114q-155 0 -223 20q-69 20 -102 50q-78 71 -76 212v178q1 254 -39 295q-54 55 -124 62q-70 6 -150 6v127q173 0 219 32q23 15 39 26
t26 39t20 58t9 222v151q0 211 165 258q88 25 236 25z" />
    <glyph glyph-name="bar" unicode="|" horiz-adv-x="583" 
d="M215 -262v1896h135v-1896h-135z" />
    <glyph glyph-name="braceright" unicode="}" horiz-adv-x="843" 
d="M72 1333v115q247 0 325 -71t76 -212v-151q0 -190 9 -221q24 -83 46 -98q59 -41 92 -45q90 -13 164 -13v-127q-80 0 -130 -4t-87 -24t-54 -40q-40 -44 -40 -295v-178q0 -211 -165 -258q-84 -24 -236 -24v114q143 0 203 45t61 179v215q0 164 35 238t135 95q-98 25 -134 104
t-36 243v190q0 133 -60 178t-204 45z" />
    <glyph glyph-name="asciitilde" unicode="~" horiz-adv-x="970" 
d="M302 756q81 0 193 -47q111 -47 157 -47t84 38t52 109l91 -12q-11 -123 -71 -192t-134 -69t-188 48q-114 47 -154 47q-113 -1 -154 -148l-88 11q10 126 70 194t142 68z" />
    <glyph glyph-name="exclamdown" unicode="&#xa1;" horiz-adv-x="477" 
d="M236 1241q-45 0 -76 31t-31 76q0 46 31 76t76 30q46 0 76 -31t30 -75t-30 -76q-30 -31 -76 -31zM176 1028h115l31 -1028h-177z" />
    <glyph glyph-name="cent" unicode="&#xa2;" horiz-adv-x="1177" 
d="M221 752q0 -131 75 -240t196 -158l167 836q-186 -10 -312 -136t-126 -302zM776 1165l-170 -839q41 -8 96 -9q170 12 285 154l109 -96q-162 -190 -410 -197q-66 0 -108 10l-37 -188h-121l43 213q-174 61 -284 209t-109 330q0 252 184 412t434 161l29 137h119l-31 -155
q172 -37 293 -174l-111 -95q-90 102 -211 127z" />
    <glyph glyph-name="sterling" unicode="&#xa3;" horiz-adv-x="1308" 
d="M1237 145v-145h-1149v84l221 55q-39 279 -51 443h-156v133h148q-6 78 -6 139q0 310 141 456t379 146q141 0 261 -71t187 -189l-116 -94q-48 88 -136 141t-192 53q-172 0 -260 -110t-88 -305q0 -74 6 -166h586v-133h-576q20 -178 53 -437h748z" />
    <glyph glyph-name="KB" unicode="&#xa4;" horiz-adv-x="1992" 
d="M1700 -310q0 7 7 7t7 -7t-7 -7t-7 7zM461 -310q0 7 7 7t7 -7t-7 -7t-7 7zM500 -231h8v-86h-8v86zM903 -231h8v-86h-8v86zM1491 -231h8v-86h-8v86zM1552 184h-30v-22h28q14 0 15 10q-1 12 -13 12zM838 -231h8v-76h41v-10h-49v86zM1210 -240h-26v9h61v-9h-26v-77h-9v77z
M768 -231h10v-76h39v-10h-49v86zM641 -240h-25v9h62v-9h-27v-77h-10v77zM1444 -309q18 0 18 14q0 15 -20 23t-21 20q0 23 25 23q12 0 20 -15l-6 -4q-4 10 -16 10t-12 -12t20 -18q20 -10 20 -30t-25 -20q-26 0 -30 19l6 4q3 -14 21 -14zM1829 -240v-51h12l10 2q14 6 15 25
q0 25 -25 24h-12zM698 -231h52v-9h-43v-36h41v-9h-41v-22h45v-10h-54v86zM1028 -231h51v-9h-43v-36h41v-9h-41v-22h45v-10h-53v86zM1348 -231h51v-9h-43v-36h41v-9h-41v-22h45v-10h-53v86zM1769 -291v8h31v-22q-6 -12 -30 -12q-46 0 -48 43q0 18 12 31t31 13q18 0 33 -14
l-6 -6q-10 12 -26 12t-25 -11q-10 -11 -10 -25t10 -24t25 -11q15 0 26 8v10h-23zM1522 84h22q31 0 31 21t-37 22h-16v-43zM1567 -291v8h30v-22q-12 -12 -33 -12t-34 12q-12 13 -12 31t13 31t31 13t33 -14l-8 -6q-10 12 -24 12q-35 0 -35 -36q0 -14 10 -24t26 -11q16 0 23 8
v10h-20zM979 -291v8h31v-22q-12 -12 -32 -12t-35 12q-13 13 -13 31t13 31t31 13t34 -14l-7 -6q-12 12 -26 12q-15 0 -25 -11t-10 -25t10 -24t26 -11q16 0 23 8v10h-20zM588 -231h8v-86h-8l-45 67q-4 4 -4 6v-73h-9v86h9l45 -64q0 -2 4 -6v70zM1673 -231h8v-86h-8l-47 67v2
q-2 2 -2 4v-73h-8v86h8l45 -64l4 -8v72zM1157 -231h8v-86h-8l-47 67l-2 2v-69h-10v86h10l43 -64l6 -6v70zM129 -305q0 4 2 10l16 66h9l16 -66l4 -10q0 4 2 8l21 68h8l-27 -86h-10l-16 59l-2 10q0 -4 -2 -10l-17 -59h-8l-29 86h10l21 -68q0 -8 2 -8zM428 -297l21 68h8
l-27 -86h-10l-17 59l-2 10q0 -4 -2 -10l-16 -59h-8l-29 86h10l21 -68l2 -8q0 4 2 10l16 66h9l16 -66l4 -10q0 4 2 8zM301 -297l21 68h8l-27 -86h-10l-14 59l-5 10q0 -4 -2 -10l-16 -59h-8l-29 86h10l21 -68l2 -8q0 4 2 10l16 66h11l16 -66l2 -10q0 4 2 8zM1286 -307
q35 0 35 33q0 14 -10 24t-25 10h-14v-67h14zM1829 -299v-18h-8v86h20q15 -1 25 -11t10 -27t-21 -26l21 -22h-12l-17 20l-2 -2h-16zM1325 88q16 0 28 13q11 13 11 33t-12 32q-12 14 -29 14h-12v-92h14zM236 88q16 0 28 13t12 33t-12 32q-12 14 -28 14h-15v-92h15zM1286 -231
q44 0 43 -43q0 -23 -15 -33t-28 -10h-24v86h24zM705 45h-50v180h50v-180zM1731 45h-50v59l-67 119h55l37 -65l37 65h57l-69 -119v-59zM389 125v-41h86v-39h-135v180h129v-41h-80v-24h53v-35h-53zM1153 125v-41h86v-39h-135v180h131v-41h-82v-24h55v-35h-55zM562 82
q25 0 26 12v2q0 8 -29 17q-68 14 -67 57q0 25 18 41t49 16t74 -14l-21 -39q-33 12 -52 12t-19 -11t30 -19q68 -14 68 -56q0 -59 -74 -59q-41 0 -78 18l19 37q31 -14 56 -14zM719 136q0 38 27 65q28 27 70 27t73 -27l-33 -33q-18 14 -38 14t-34 -13t-14 -33t13 -36t29 -16
t32 8v8h-33v35h84v-67q-89 -57 -147 1q-29 29 -29 67zM1032 225h49v-180h-22l-96 92v-92h-50v180h23l96 -94v94zM326 135q0 -37 -25 -63t-61 -27h-66v180h62q38 -1 64 -27t26 -63zM1413 135q-1 -37 -25 -63t-59 -27h-67v180h61q37 -1 63 -27t27 -63zM1626 108q0 -64 -55 -63
h-96v180h79q53 0 54 -39q-1 -20 -17 -32q35 -14 35 -46zM713 965h229v274l-141 -141v141h-88v-274zM942 877h-229v-275h88v141l141 -141v275zM1030 965h180q50 45 50 113t-46 114q-46 47 -112 47h-72v-274zM1030 602h72q66 0 112 47t46 115t-50 113h-180v-275zM1567 921
q0 -116 -65 -210t-169 -138q-41 -104 -136 -169q-95 -64 -211 -64t-210 64t-137 169q-104 43 -169 137q-64 94 -64 211q0 116 64 211q65 95 169 136q43 104 137 169t210 65t211 -66q95 -64 136 -168q104 -41 169 -136t65 -211z" />
    <glyph glyph-name="yen" unicode="&#xa5;" horiz-adv-x="1449" 
d="M1219 647v-121h-396l-18 -41v-45h414v-121h-414v-319h-178v319h-414v121h414v45l-19 41h-395v121h324l-474 797h201l451 -766l450 766h203l-475 -797h326z" />
    <glyph glyph-name="brokenbar" unicode="&#xa6;" horiz-adv-x="571" 
d="M217 -260v784h135v-784h-135zM217 850v784h135v-784h-135z" />
    <glyph glyph-name="section" unicode="&#xa7;" horiz-adv-x="1282" 
d="M279 761q0 -76 142 -121q72 -24 225 -58q153 -35 206 -54q39 8 82 46t43 92q-1 54 -61 90t-238 77t-246 66q-61 -20 -107 -60t-46 -78zM1114 663q0 -57 -44 -113t-95 -77q74 -55 74 -160q0 -135 -111 -229t-309 -94q-266 0 -469 100l65 119q98 -47 178 -67t208 -21
q128 0 203 55q75 56 75 120t-65 95q-64 31 -274 82t-278 88q-129 68 -129 187q-1 63 49 120t125 82q-127 70 -127 209t118 219t304 80t449 -90l-53 -129q-254 86 -416 86q-102 0 -175 -48t-73 -127t97 -120t173 -55q350 -70 438 -152q62 -56 62 -160z" />
    <glyph glyph-name="dieresis" unicode="&#xa8;" horiz-adv-x="1024" 
d="M336 1753q40 0 66 -27q26 -28 26 -66t-27 -65t-65 -27t-66 28q-27 26 -26 65q0 39 26 65t66 27zM596 1661q0 39 28 65t65 27q38 0 66 -27q27 -28 27 -66t-28 -65t-65 -27t-65 28q-28 26 -28 65z" />
    <glyph glyph-name="copyright" unicode="&#xa9;" horiz-adv-x="1699" 
d="M868 1049q-138 1 -229 -95q-90 -96 -90 -230t90 -230q91 -96 229 -95q138 0 230 125l84 -69q-124 -160 -312 -160t-311 126t-123 304t123 303t311 125t312 -160l-84 -69q-92 125 -230 125zM1516 725q0 276 -192 473t-471 197t-473 -198t-194 -474t193 -473t471 -197
t472 198t194 474zM853 1462q306 0 518 -217t212 -519t-214 -520t-519 -218t-518 217t-213 519t214 520t520 218z" />
    <glyph glyph-name="ordfeminine" unicode="&#xaa;" horiz-adv-x="1001" 
d="M525 1319q-134 0 -217 -83t-83 -199q0 -115 83 -199t213 -84t224 77v408q-86 80 -220 80zM745 1419h127v-764h-127v58q-107 -74 -263 -74t-268 118q-112 119 -112 281t112 279t266 117t265 -72v57z" />
    <glyph glyph-name="guillemotleft" unicode="&#xab;" horiz-adv-x="1130" 
d="M455 18l-357 527l357 526l112 -80l-313 -446l313 -445zM924 18l-357 527l357 526l112 -80l-313 -446l313 -445z" />
    <glyph glyph-name="logicalnot" unicode="&#xac;" horiz-adv-x="1216" 
d="M1106 967v-488h-148v342h-876v146h1024z" />
    <glyph glyph-name="uni00AD" unicode="&#xad;" horiz-adv-x="835" 
d="M741 752v-144h-647v144h647z" />
    <glyph glyph-name="registered" unicode="&#xae;" horiz-adv-x="1699" 
d="M657 1051v-394h191q109 -1 168 51t59 143t-48 145t-155 55h-215zM856 569h-199v-254h-112v832h342q161 0 233 -79t72 -200q0 -201 -166 -266l188 -233l-79 -74l-230 276q-14 -2 -49 -2zM1516 725q0 276 -192 473t-471 197t-473 -198t-194 -474t193 -473t473 -197t472 198
t192 474zM854 1462q305 0 518 -218t213 -519t-215 -519t-520 -218t-518 218t-213 519t215 519t520 218z" />
    <glyph glyph-name="macron" unicode="&#xaf;" horiz-adv-x="1024" 
d="M188 1602v112h648v-112h-648z" />
    <glyph glyph-name="degree" unicode="&#xb0;" horiz-adv-x="966" 
d="M483 844q111 0 191 78t80 188t-81 188t-191 78t-190 -79t-79 -189q-1 -110 79 -186q80 -78 191 -78zM483 745q-153 0 -263 108t-110 256t112 257t262 109t260 -109q112 -109 112 -258t-110 -256t-263 -107z" />
    <glyph glyph-name="plusminus" unicode="&#xb1;" horiz-adv-x="1310" 
d="M1169 0h-1024v141h1024v-141zM1169 954v-141h-442v-440h-139v440h-443v141h443v441h139v-441h442z" />
    <glyph glyph-name="twosuperior" unicode="&#xb2;" horiz-adv-x="849" 
d="M739 711v-99h-645v50q67 109 252 205q70 36 136 74q148 86 147 200q0 93 -66 157q-65 64 -157 64t-152 -66t-59 -155v-13h-101v19q0 135 92 226t224 91t227 -91q96 -91 96 -226q0 -94 -49 -163q-50 -70 -112 -102q-217 -113 -275 -171h442z" />
    <glyph glyph-name="threesuperior" unicode="&#xb3;" horiz-adv-x="849" 
d="M721 854q0 -110 -91 -182t-258 -72t-302 62l41 88q125 -53 278 -54q98 0 161 46q62 46 62 120t-62 118t-169 44h-43l-23 45l222 277h-424v96h592v-49l-238 -293q113 -14 183 -74t71 -172z" />
    <glyph glyph-name="acute" unicode="&#xb4;" horiz-adv-x="1024" 
d="M791 1868l-357 -322h-119l285 336z" />
    <glyph glyph-name="mu" unicode="&#xb5;" horiz-adv-x="1341" 
d="M1016 1108h168v-1108h-168v111q-144 -123 -368 -123t-322 174v-512h-170v1458h170v-621q0 -168 91 -258t240 -90q215 0 359 125v844z" />
    <glyph glyph-name="paragraph" unicode="&#xb6;" horiz-adv-x="1157" 
d="M616 692v588h-41q-145 0 -240 -76t-95 -211t97 -218t234 -83h45zM567 1434h449v-1434h-129v1280h-142v-1280h-129v528h-43q-231 0 -373 118t-142 334t136 335q137 119 373 119z" />
    <glyph glyph-name="periodcentered" unicode="&#xb7;" horiz-adv-x="415" 
d="M309 641q-1 -45 -31 -76t-75 -31t-76 32q-31 30 -31 75t31 76t76 31t75 -31t31 -76z" />
    <glyph glyph-name="cedilla" unicode="&#xb8;" horiz-adv-x="878" 
d="M356 -311q60 -1 95 25t34 63q0 67 -143 67l113 158h108l-57 -117q42 1 70 -31t28 -87q-6 -61 -58 -105t-157 -45l-135 12l2 70q40 -10 100 -10z" />
    <glyph glyph-name="onesuperior" unicode="&#xb9;" horiz-adv-x="731" 
d="M489 1444v-832h-110v721l-189 -41l-22 90l274 62h47z" />
    <glyph glyph-name="ordmasculine" unicode="&#xba;" horiz-adv-x="1038" 
d="M213 1039q0 -119 87 -201t209 -82t210 83t88 201t-88 200q-88 83 -210 83t-209 -83t-87 -201zM509 1438q175 0 299 -117t124 -282t-124 -281t-298 -117q-174 0 -298 117q-124 118 -124 282t123 281t298 117z" />
    <glyph glyph-name="guillemotright" unicode="&#xbb;" horiz-adv-x="1126" 
d="M575 545l-356 -527l-113 82l314 445l-314 446l113 80zM1042 545l-356 -527l-111 82l312 445l-312 446l111 80z" />
    <glyph glyph-name="onequarter" unicode="&#xbc;" horiz-adv-x="1769" 
d="M1272 1436h133l-989 -1436h-133zM1384 293v371l-319 -371h319zM1493 293h156v-94h-156v-199h-109v199h-440l-29 63l494 572h84v-541zM459 1444v-832h-113v721l-186 -41l-23 90l273 62h49z" />
    <glyph glyph-name="onehalf" unicode="&#xbd;" horiz-adv-x="1867" 
d="M459 1444v-832h-113v721l-186 -41l-23 90l273 62h49zM1274 1436h131l-989 -1436h-131zM1720 98v-98h-645v49q68 110 252 206q69 36 135 74q148 86 148 199q0 92 -66 157t-157 65t-151 -67t-60 -155v-12h-101v19q0 135 92 226q91 91 223 91t228 -91t96 -226
q0 -94 -49 -163t-111 -102t-147 -80q-84 -47 -129 -92h442z" />
    <glyph glyph-name="threequarters" unicode="&#xbe;" horiz-adv-x="1822" 
d="M1462 293v371l-319 -371h319zM1352 1436h131l-989 -1436h-132zM113 1442h592v-49l-238 -293q113 -14 183 -74t71 -172q0 -110 -91 -182t-258 -72t-302 62l41 88q125 -53 278 -54q98 0 161 46q62 46 62 121t-61 118t-170 43h-43l-23 45l222 277h-424v96zM1571 293h158v-94
h-158v-199h-109v199h-440l-27 63l492 572h84v-541z" />
    <glyph glyph-name="questiondown" unicode="&#xbf;" horiz-adv-x="1105" 
d="M638 1241q-44 0 -76 31t-32 76q0 46 32 76t76 30t75 -31t31 -75t-32 -76q-30 -31 -74 -31zM612 -14q-242 0 -385 124t-143 341q0 167 128 275t351 108l10 223h123l11 -295l-19 -41h-57q-185 0 -289 -75q-104 -74 -104 -208t103 -220t267 -85q238 0 416 90l59 -133
q-115 -60 -216 -82t-255 -22z" />
    <glyph glyph-name="Agrave" unicode="&#xc0;" 
d="M696 1546l-356 322l192 14l285 -336h-121zM754 1204l-308 -698h617zM1288 0l-162 362h-743l-160 -362h-184l668 1444h96l670 -1444h-185z" />
    <glyph glyph-name="Aacute" unicode="&#xc1;" 
d="M1176 1868l-357 -322h-119l285 336zM754 1204l-308 -698h617zM1288 0l-162 362h-743l-160 -362h-184l668 1444h96l670 -1444h-185z" />
    <glyph glyph-name="Acircumflex" unicode="&#xc2;" 
d="M406 1546l292 293h111l295 -293h-137l-213 199l-213 -199h-135zM754 1204l-308 -698h617zM1288 0l-162 362h-743l-160 -362h-184l668 1444h96l670 -1444h-185z" />
    <glyph glyph-name="Atilde" unicode="&#xc3;" 
d="M925 1720q46 0 84 38t52 108l90 -13q-13 -123 -73 -191t-132 -69q-72 0 -187 47q-114 47 -155 48q-114 -1 -151 -148l-91 10q10 125 70 194t158 68q66 0 178 -46t157 -46zM754 1204l-308 -698h617zM1288 0l-162 362h-743l-160 -362h-184l668 1444h96l670 -1444h-185z" />
    <glyph glyph-name="Adieresis" unicode="&#xc4;" 
d="M578 1753q40 0 66 -27q26 -28 26 -66t-27 -65t-65 -27t-66 28q-27 26 -27 65t27 65t66 27zM931 1753q37 0 65 -27q28 -28 28 -66t-28 -65t-66 -27t-65 28q-28 26 -27 65q0 39 28 65t65 27zM754 1204l-308 -698h617zM1288 0l-162 362h-743l-160 -362h-184l668 1444h96
l670 -1444h-185z" />
    <glyph glyph-name="Aring" unicode="&#xc5;" 
d="M753 1462q48 0 83 34q34 34 34 82t-34 82q-35 34 -82 34t-82 -35t-35 -82t34 -81t82 -34zM754 1204l-308 -698h617zM555 1586q0 70 59 129q60 59 140 59t139 -58t59 -128t-36 -120t-91 -73l648 -1395h-185l-162 362h-743l-160 -362h-184l643 1393q-55 23 -91 73t-36 120z
" />
    <glyph glyph-name="AE" unicode="&#xc6;" horiz-adv-x="2064" 
d="M920 506v776h-54l-401 -776h455zM1090 150h874v-150h-1044v362h-523l-186 -362h-186l755 1444h1141v-150h-831v-520h704v-147h-704v-477z" />
    <glyph glyph-name="Ccedilla" unicode="&#xc7;" horiz-adv-x="1548" 
d="M106 728q0 296 222 512t538 216q174 0 329 -74t261 -202l-135 -113q-80 105 -199 165t-256 60q-242 0 -410 -165t-169 -407q0 -242 169 -405q169 -164 410 -163q137 0 256 59t199 164l135 -113q-98 -118 -237 -190t-299 -82l-52 -105q41 1 70 -31t29 -87q-7 -61 -59 -105
t-156 -45l-136 12l2 70q41 -10 101 -10q61 -1 95 25t34 63q0 67 -143 67l102 146q-295 22 -498 232t-203 506z" />
    <glyph glyph-name="Egrave" unicode="&#xc8;" horiz-adv-x="1318" 
d="M629 1546l-357 322l193 14l285 -336h-121zM344 150h875v-150h-1045v1444h1002v-150h-832v-520h705v-147h-705v-477z" />
    <glyph glyph-name="Eacute" unicode="&#xc9;" horiz-adv-x="1318" 
d="M1104 1868l-356 -322h-119l284 336zM344 150h875v-150h-1045v1444h1002v-150h-832v-520h705v-147h-705v-477z" />
    <glyph glyph-name="Ecircumflex" unicode="&#xca;" horiz-adv-x="1318" 
d="M336 1546l293 293h110l295 -293h-137l-213 199l-213 -199h-135zM344 150h875v-150h-1045v1444h1002v-150h-832v-520h705v-147h-705v-477z" />
    <glyph glyph-name="Edieresis" unicode="&#xcb;" horiz-adv-x="1318" 
d="M508 1753q40 0 66 -27q26 -28 26 -66t-27 -65t-65 -27t-66 28q-27 26 -26 65q0 39 26 65t66 27zM768 1661q0 39 28 65t65 27q38 0 66 -27q27 -28 27 -66t-28 -65t-65 -27t-65 28q-28 26 -28 65zM344 150h875v-150h-1045v1444h1002v-150h-832v-520h705v-147h-705v-477z
" />
    <glyph glyph-name="Igrave" unicode="&#xcc;" horiz-adv-x="530" 
d="M209 1573l-356 321l192 15l285 -336h-121zM354 1444v-1444h-178v1444h178z" />
    <glyph glyph-name="Iacute" unicode="&#xcd;" horiz-adv-x="530" 
d="M690 1894l-356 -321h-119l285 336zM354 1444v-1444h-178v1444h178z" />
    <glyph glyph-name="Icircumflex" unicode="&#xce;" horiz-adv-x="530" 
d="M-82 1573l293 293h111l294 -293h-137l-213 199l-213 -199h-135zM354 1444v-1444h-178v1444h178z" />
    <glyph glyph-name="Idieresis" unicode="&#xcf;" horiz-adv-x="530" 
d="M92 1780q39 0 66 -27q26 -27 26 -65t-26 -66q-26 -27 -66 -27t-66 27t-26 66q0 40 26 66t66 26zM352 1688q0 40 28 66t65 26q38 0 66 -27t28 -65t-28 -66q-28 -27 -66 -27q-37 0 -65 27t-28 66zM354 1444v-1444h-178v1444h178z" />
    <glyph glyph-name="Eth" unicode="&#xd0;" horiz-adv-x="1568" 
d="M403 158h365q213 0 367 169q153 169 153 399t-162 396q-162 164 -391 164h-332v-493h373v-142h-373v-493zM33 651v142h200v651h502q301 0 514 -212t213 -507t-200 -510t-480 -215h-549v651h-200z" />
    <glyph glyph-name="Ntilde" unicode="&#xd1;" horiz-adv-x="1583" 
d="M956 1720q46 0 83 38q38 38 53 108l90 -13q-12 -123 -72 -191t-134 -69q-72 0 -186 47t-155 48q-115 -1 -152 -148l-90 10q11 125 71 194t157 68q65 0 177 -46t158 -46zM1235 1444h174v-1444h-92l-967 1114v-1114h-176v1444h92l969 -1114v1114z" />
    <glyph glyph-name="Ograve" unicode="&#xd2;" horiz-adv-x="1740" 
d="M801 1546l-357 322l193 14l285 -336h-121zM868 150q242 0 413 166t171 405t-171 405t-413 166t-412 -168t-171 -404q1 -236 171 -402q170 -168 412 -168zM869 1454q315 0 539 -215t224 -518t-223 -518t-539 -215t-540 215q-223 215 -224 518q0 303 224 518t539 215z" />
    <glyph glyph-name="Oacute" unicode="&#xd3;" horiz-adv-x="1740" 
d="M1274 1868l-356 -322h-119l284 336zM868 150q242 0 413 166t171 405t-171 405t-413 166t-412 -168t-171 -404q1 -236 171 -402q170 -168 412 -168zM869 1454q315 0 539 -215t224 -518t-223 -518t-539 -215t-540 215q-223 215 -224 518q0 303 224 518t539 215z" />
    <glyph glyph-name="Ocircumflex" unicode="&#xd4;" horiz-adv-x="1740" 
d="M510 1546l293 293h110l295 -293h-137l-213 199l-213 -199h-135zM868 150q242 0 413 166t171 405t-171 405t-413 166t-412 -168t-171 -404q1 -236 171 -402q170 -168 412 -168zM869 1454q315 0 539 -215t224 -518t-223 -518t-539 -215t-540 215q-223 215 -224 518
q0 303 224 518t539 215z" />
    <glyph glyph-name="Otilde" unicode="&#xd5;" horiz-adv-x="1740" 
d="M1031 1720q46 0 84 38t52 108l90 -13q-12 -123 -72 -191t-133 -69q-73 0 -187 47t-154 48q-115 -1 -152 -148l-90 10q11 125 71 194t156 68q66 0 178 -46t157 -46zM868 150q242 0 413 166t171 405t-171 405t-413 166t-412 -168t-171 -404q1 -236 171 -402
q170 -168 412 -168zM869 1454q315 0 539 -215t224 -518t-223 -518t-539 -215t-540 215q-223 215 -224 518q0 303 224 518t539 215z" />
    <glyph glyph-name="Odieresis" unicode="&#xd6;" horiz-adv-x="1740" 
d="M688 1753q39 0 66 -27q26 -28 26 -66t-26 -65t-66 -27t-66 28q-26 26 -26 65t26 65t66 27zM948 1661q0 39 28 65t65 27q38 0 66 -27q28 -28 28 -66t-28 -65t-66 -27q-37 0 -65 28q-28 26 -28 65zM868 150q242 0 413 166t171 405t-171 405t-413 166t-412 -168t-171 -404
q1 -236 171 -402q170 -168 412 -168zM869 1454q315 0 539 -215t224 -518t-223 -518t-539 -215t-540 215q-223 215 -224 518q0 303 224 518t539 215z" />
    <glyph glyph-name="multiply" unicode="&#xd7;" horiz-adv-x="1189" 
d="M713 647l389 -389l-98 -102l-392 391l-389 -389l-102 100l391 389l-391 389l100 103l391 -394l392 394l100 -101z" />
    <glyph glyph-name="Oslash" unicode="&#xd8;" horiz-adv-x="1740" 
d="M868 150q242 0 413 166t171 400q0 232 -166 392l-741 -858q145 -100 323 -100zM868 1292q-242 0 -412 -168t-171 -400q0 -232 172 -398l745 860q-147 106 -334 106zM106 714q0 310 224 525t538 215q248 0 445 -139l110 129h154l-174 -201q229 -219 229 -522t-223 -518
t-541 -215q-240 0 -434 133l-104 -121h-152l164 190q-236 214 -236 524z" />
    <glyph glyph-name="Ugrave" unicode="&#xd9;" horiz-adv-x="1546" 
d="M721 1546l-356 322l192 14l285 -336h-121zM1380 1444v-864q0 -256 -160 -424t-448 -168t-446 167t-158 425v864h172v-828q0 -217 112 -343t322 -126t323 126q114 126 113 343v828h170z" />
    <glyph glyph-name="Uacute" unicode="&#xda;" horiz-adv-x="1546" 
d="M1196 1868l-356 -322h-119l285 336zM1380 1444v-864q0 -256 -160 -424t-448 -168t-446 167t-158 425v864h172v-828q0 -217 112 -343t322 -126t323 126q114 126 113 343v828h170z" />
    <glyph glyph-name="Ucircumflex" unicode="&#xdb;" horiz-adv-x="1546" 
d="M428 1546l293 293h110l295 -293h-137l-213 199l-213 -199h-135zM1380 1444v-864q0 -256 -160 -424t-448 -168t-446 167t-158 425v864h172v-828q0 -217 112 -343t322 -126t323 126q114 126 113 343v828h170z" />
    <glyph glyph-name="Udieresis" unicode="&#xdc;" horiz-adv-x="1546" 
d="M600 1753q39 0 66 -27q26 -28 26 -66t-26 -65t-66 -27t-66 28q-26 26 -26 65t26 65t66 27zM860 1661q0 39 28 65t65 27q38 0 66 -27q28 -28 28 -66t-28 -65t-66 -27q-37 0 -65 28q-28 26 -28 65zM1380 1444v-864q0 -256 -160 -424t-448 -168t-446 167t-158 425v864h172
v-828q0 -217 112 -343t322 -126t323 126q114 126 113 343v828h170z" />
    <glyph glyph-name="Yacute" unicode="&#xdd;" horiz-adv-x="1374" 
d="M1112 1868l-356 -322h-119l285 336zM776 0h-176v496l-565 948h201l452 -766l451 766h202l-565 -948v-496z" />
    <glyph glyph-name="Thorn" unicode="&#xde;" horiz-adv-x="1351" 
d="M348 385h352q184 0 291 89t107 256t-89 260t-276 93h-385v-698zM174 0v1444h174v-213h395q263 0 397 -133t134 -370q0 -236 -154 -362t-415 -126h-357v-240h-174z" />
    <glyph glyph-name="germandbls" unicode="&#xdf;" horiz-adv-x="1327" 
d="M1233 467q0 -227 -144 -353t-364 -126q-109 0 -190 26l12 144q72 -23 158 -23q156 0 258 86t102 246q0 123 -92 217t-256 94h-47v133h30q98 4 165 71q67 66 67 180t-86 184t-220 70t-217 -101q-83 -100 -83 -260v-1405h-170v1378q0 240 134 384t339 144t335 -108
t130 -299q0 -100 -49 -177t-127 -112q150 -38 232 -150t83 -243z" />
    <glyph glyph-name="agrave" unicode="&#xe0;" horiz-adv-x="1370" 
d="M631 1257l-357 322l193 14l285 -336h-121zM704 977q-200 0 -322 -123t-122 -295t123 -296t303 -124q219 0 358 129v576q-140 133 -340 133zM1044 1108h170v-1108h-170v111q-162 -123 -396 -123t-392 168q-160 168 -160 402t160 402t394 168t394 -122v102z" />
    <glyph glyph-name="aacute" unicode="&#xe1;" horiz-adv-x="1370" 
d="M1106 1579l-356 -322h-119l284 336zM704 977q-200 0 -322 -123t-122 -295t123 -296t303 -124q219 0 358 129v576q-140 133 -340 133zM1044 1108h170v-1108h-170v111q-162 -123 -396 -123t-392 168q-160 168 -160 402t160 402t394 168t394 -122v102z" />
    <glyph glyph-name="acircumflex" unicode="&#xe2;" horiz-adv-x="1370" 
d="M350 1257l293 293h111l295 -293h-138l-213 199l-213 -199h-135zM704 977q-200 0 -322 -123t-122 -295t123 -296t303 -124q219 0 358 129v576q-140 133 -340 133zM1044 1108h170v-1108h-170v111q-162 -123 -396 -123t-392 168q-160 168 -160 402t160 402t394 168t394 -122
v102z" />
    <glyph glyph-name="atilde" unicode="&#xe3;" horiz-adv-x="1370" 
d="M520 1524q82 0 192 -46q112 -46 158 -46t83 38q38 38 53 107l90 -12q-12 -123 -72 -192t-134 -69q-72 0 -186 48q-114 47 -155 47q-115 -1 -152 -148l-90 11q11 126 71 194t142 68zM704 977q-200 0 -322 -123t-122 -295t123 -296t303 -124q219 0 358 129v576
q-140 133 -340 133zM1044 1108h170v-1108h-170v111q-162 -123 -396 -123t-392 168q-160 168 -160 402t160 402t394 168t394 -122v102z" />
    <glyph glyph-name="adieresis" unicode="&#xe4;" horiz-adv-x="1370" 
d="M522 1464q39 0 66 -26q26 -26 26 -66t-26 -66t-66 -26t-66 27t-26 65t26 66q26 26 66 26zM782 1372q0 38 28 66q28 26 66 26t66 -26t27 -66q0 -40 -28 -66q-27 -26 -65 -26t-66 27t-28 65zM704 977q-200 0 -322 -123t-122 -295t123 -296t303 -124q219 0 358 129v576
q-140 133 -340 133zM1044 1108h170v-1108h-170v111q-162 -123 -396 -123t-392 168q-160 168 -160 402t160 402t394 168t394 -122v102z" />
    <glyph glyph-name="aring" unicode="&#xe5;" horiz-adv-x="1370" 
d="M695 1362q48 0 83 34t35 82t-35 82t-82 34t-82 -36q-34 -34 -34 -81t34 -81t81 -34zM498 1477q0 80 59 138t139 58t140 -58t59 -138q0 -81 -59 -139q-60 -58 -140 -58t-139 58t-59 139zM704 977q-200 0 -322 -123t-122 -295t123 -296t303 -124q219 0 358 129v576
q-140 133 -340 133zM1044 1108h170v-1108h-170v111q-162 -123 -396 -123t-392 168q-160 168 -160 402t160 402t394 168t394 -122v102z" />
    <glyph glyph-name="ae" unicode="&#xe6;" horiz-adv-x="2293" 
d="M1667 989q-163 0 -273 -100t-130 -252h768q-12 158 -108 255t-257 97zM692 979q-180 0 -306 -122t-126 -299t125 -299t323 -122t343 131v576q-141 135 -359 135zM1219 0h-168v111q-165 -123 -395 -123t-395 163t-165 409t165 407t397 161t393 -122v102h168v-190
q168 210 431 210t407 -164t145 -419q0 -27 -2 -41h-938q20 -160 145 -263t283 -104q219 0 352 162l112 -90q-76 -101 -200 -161t-271 -60q-303 0 -464 209v-197z" />
    <glyph glyph-name="ccedilla" unicode="&#xe7;" horiz-adv-x="1193" 
d="M90 566q0 230 177 396t430 166t413 -200l-113 -103q-119 152 -301 152t-310 -123t-128 -296t128 -296t310 -123t301 156l111 -102q-141 -180 -363 -203l-51 -105q41 1 70 -31t29 -87q-7 -61 -59 -105t-156 -45l-136 12l2 70q41 -10 101 -10q61 -1 95 25t34 63
q-1 67 -144 67l105 148q-231 20 -388 182t-157 392z" />
    <glyph glyph-name="egrave" unicode="&#xe8;" horiz-adv-x="1284" 
d="M592 1257l-356 322l192 14l285 -336h-121zM661 989q-161 0 -269 -100t-128 -252h762q-12 158 -107 255q-96 97 -258 97zM655 -12q-247 0 -405 165t-158 405t159 405t405 165t391 -160q145 -161 145 -419l-2 -45h-928q20 -160 142 -263t280 -104q219 0 352 162l113 -90
q-78 -101 -207 -161t-287 -60z" />
    <glyph glyph-name="eacute" unicode="&#xe9;" horiz-adv-x="1284" 
d="M1067 1579l-356 -322h-119l285 336zM661 989q-161 0 -269 -100t-128 -252h762q-12 158 -107 255q-96 97 -258 97zM655 -12q-247 0 -405 165t-158 405t159 405t405 165t391 -160q145 -161 145 -419l-2 -45h-928q20 -160 142 -263t280 -104q219 0 352 162l113 -90
q-78 -101 -207 -161t-287 -60z" />
    <glyph glyph-name="ecircumflex" unicode="&#xea;" horiz-adv-x="1284" 
d="M299 1257l293 293h110l295 -293h-137l-213 199l-213 -199h-135zM661 989q-161 0 -269 -100t-128 -252h762q-12 158 -107 255q-96 97 -258 97zM655 -12q-247 0 -405 165t-158 405t159 405t405 165t391 -160q145 -161 145 -419l-2 -45h-928q20 -160 142 -263t280 -104
q219 0 352 162l113 -90q-78 -101 -207 -161t-287 -60z" />
    <glyph glyph-name="edieresis" unicode="&#xeb;" horiz-adv-x="1284" 
d="M471 1464q39 0 66 -26t27 -66t-28 -66q-26 -26 -65 -26t-65 27t-27 65q1 38 27 66q26 26 65 26zM918 1372q0 -40 -28 -66t-66 -26t-66 27t-27 65q-1 38 27 66q28 26 66 26t66 -26t28 -66zM661 989q-161 0 -269 -100t-128 -252h762q-12 158 -107 255q-96 97 -258 97z
M655 -12q-247 0 -405 165t-158 405t159 405t405 165t391 -160q145 -161 145 -419l-2 -45h-928q20 -160 142 -263t280 -104q219 0 352 162l113 -90q-78 -101 -207 -161t-287 -60z" />
    <glyph glyph-name="igrave" unicode="&#xec;" horiz-adv-x="491" 
d="M160 0v1108h170v-1108h-170zM190 1237l-356 322l193 14l284 -336h-121z" />
    <glyph glyph-name="iacute" unicode="&#xed;" horiz-adv-x="491" 
d="M160 0v1108h170v-1108h-170zM670 1559l-357 -322h-118l284 336z" />
    <glyph glyph-name="icircumflex" unicode="&#xee;" horiz-adv-x="491" 
d="M-102 1237l292 293h111l295 -293h-137l-213 199l-213 -199h-135zM160 0v1108h170v-1108h-170z" />
    <glyph glyph-name="idieresis" unicode="&#xef;" horiz-adv-x="491" 
d="M160 0v1108h170v-1108h-170zM70 1444q40 0 66 -27t26 -65t-27 -66q-27 -26 -65 -26t-66 26q-27 26 -27 66t27 66t66 26zM423 1444q37 0 65 -27t28 -65t-28 -66q-28 -26 -66 -26t-65 26q-28 26 -27 66q0 40 28 66t65 26z" />
    <glyph glyph-name="eth" unicode="&#xf0;" horiz-adv-x="1349" 
d="M666 133q180 0 307 117q127 116 127 280t-130 258t-309 94t-305 -100t-127 -259q1 -159 129 -275t308 -115zM1268 512q0 -215 -178 -370q-178 -154 -426 -154t-425 158t-177 369q0 213 160 361q161 148 407 148q203 0 334 -104q-104 152 -269 315l-336 -117l-67 90
l332 117l-209 219h192l166 -168l279 97l63 -91l-268 -94q422 -453 422 -776z" />
    <glyph glyph-name="ntilde" unicode="&#xf1;" horiz-adv-x="1306" 
d="M824 1411q46 0 84 38t53 107l90 -12q-13 -124 -73 -192t-132 -68t-188 47q-114 47 -154 47q-115 0 -152 -147l-90 10q10 125 70 194t157 68q66 0 178 -46q111 -46 157 -46zM696 1128q227 0 352 -124q124 -125 123 -375v-629h-170v629q0 168 -90 258t-241 90
q-203 0 -344 -125v-852h-170v1108h170v-107q143 127 370 127z" />
    <glyph glyph-name="ograve" unicode="&#xf2;" horiz-adv-x="1386" 
d="M627 1237l-357 322l193 14l285 -336h-121zM692 139q180 0 307 123t127 296t-127 296t-307 123t-308 -123t-128 -296t128 -296t308 -123zM692 1128q250 0 426 -168t176 -403q0 -237 -177 -403t-426 -166t-426 167t-177 403t177 404q177 166 427 166z" />
    <glyph glyph-name="oacute" unicode="&#xf3;" horiz-adv-x="1386" 
d="M1102 1559l-357 -322h-118l284 336zM692 139q180 0 307 123t127 296t-127 296t-307 123t-308 -123t-128 -296t128 -296t308 -123zM692 1128q250 0 426 -168t176 -403q0 -237 -177 -403t-426 -166t-426 167t-177 403t177 404q177 166 427 166z" />
    <glyph glyph-name="ocircumflex" unicode="&#xf4;" horiz-adv-x="1386" 
d="M338 1237l293 293h110l295 -293h-137l-213 199l-213 -199h-135zM692 139q180 0 307 123t127 296t-127 296t-307 123t-308 -123t-128 -296t128 -296t308 -123zM692 1128q250 0 426 -168t176 -403q0 -237 -177 -403t-426 -166t-426 167t-177 403t177 404q177 166 427 166z
" />
    <glyph glyph-name="otilde" unicode="&#xf5;" horiz-adv-x="1386" 
d="M857 1411q46 0 84 38t52 107l90 -12q-12 -124 -72 -192t-133 -68t-187 47t-154 47q-115 0 -152 -147l-90 10q11 125 71 194t156 68q66 0 178 -46t157 -46zM692 139q180 0 307 123t127 296t-127 296t-307 123t-308 -123t-128 -296t128 -296t308 -123zM692 1128
q250 0 426 -168t176 -403q0 -237 -177 -403t-426 -166t-426 167t-177 403t177 404q177 166 427 166z" />
    <glyph glyph-name="odieresis" unicode="&#xf6;" horiz-adv-x="1386" 
d="M510 1444q40 0 66 -27t26 -65t-27 -66q-27 -26 -65 -26t-66 26q-27 26 -26 66q0 40 26 66t66 26zM770 1352q0 40 28 66t65 26q38 0 66 -27q27 -27 27 -65t-28 -66q-28 -26 -65 -26t-65 26t-28 66zM692 139q180 0 307 123t127 296t-127 296t-307 123t-308 -123t-128 -296
t128 -296t308 -123zM692 1128q250 0 426 -168t176 -403q0 -237 -177 -403t-426 -166t-426 167t-177 403t177 404q177 166 427 166z" />
    <glyph glyph-name="divide" unicode="&#xf7;" horiz-adv-x="1077" 
d="M530 72q-40 0 -70 28t-30 70q0 41 30 70q30 28 70 28t70 -28q29 -28 29 -70t-29 -70t-70 -28zM530 1057q-40 1 -70 29t-30 69t30 70t70 29t70 -30q29 -28 29 -69t-29 -69t-70 -29zM987 752v-142h-893v142h893z" />
    <glyph glyph-name="oslash" unicode="&#xf8;" horiz-adv-x="1386" 
d="M256 562q0 -169 123 -281l551 622q-106 74 -238 74q-180 0 -308 -123t-128 -292zM692 139q180 0 307 123t127 291t-125 283l-548 -623q102 -74 239 -74zM88 558q0 236 177 404q177 167 427 166q188 0 346 -104l82 94h135l-141 -157q180 -164 180 -402q0 -239 -177 -405
t-425 -166q-188 0 -346 104l-84 -92h-133l137 156q-178 166 -178 402z" />
    <glyph glyph-name="ugrave" unicode="&#xf9;" horiz-adv-x="1320" 
d="M604 1237l-356 322l192 14l285 -336h-121zM995 1108h170v-1108h-170v115q-150 -127 -380 -127t-354 125t-124 374v621h168v-621q0 -168 91 -258t243 -90q213 0 356 125v844z" />
    <glyph glyph-name="uacute" unicode="&#xfa;" horiz-adv-x="1320" 
d="M1079 1559l-356 -322h-119l285 336zM995 1108h170v-1108h-170v115q-150 -127 -380 -127t-354 125t-124 374v621h168v-621q0 -168 91 -258t243 -90q213 0 356 125v844z" />
    <glyph glyph-name="ucircumflex" unicode="&#xfb;" horiz-adv-x="1320" 
d="M301 1237l293 293h111l294 -293h-137l-213 199l-213 -199h-135zM995 1108h170v-1108h-170v115q-150 -127 -380 -127t-354 125t-124 374v621h168v-621q0 -168 91 -258t243 -90q213 0 356 125v844z" />
    <glyph glyph-name="udieresis" unicode="&#xfc;" horiz-adv-x="1320" 
d="M471 1444q39 0 66 -27t27 -65t-28 -66q-26 -26 -65 -26t-65 26t-27 66q1 40 27 66t65 26zM731 1352q-1 40 27 66t66 26t66 -27t28 -65t-28 -66q-28 -26 -66 -26t-66 26t-27 66zM995 1108h170v-1108h-170v115q-150 -127 -380 -127t-354 125t-124 374v621h168v-621
q0 -168 91 -258t243 -90q213 0 356 125v844z" />
    <glyph glyph-name="yacute" unicode="&#xfd;" horiz-adv-x="1255" 
d="M1059 1559l-357 -322h-118l284 336zM129 -250q350 0 446 250h-45l-475 1108h181l391 -907h37l356 907h176l-465 -1167q-74 -177 -231 -248q-158 -72 -336 -74q-55 0 -80 2l18 129h27z" />
    <glyph glyph-name="thorn" unicode="&#xfe;" horiz-adv-x="1376" 
d="M684 139q180 0 303 121t123 298t-123 298t-303 121q-221 0 -358 -133v-576q135 -129 358 -129zM716 1128q232 0 398 -162t166 -408t-166 -408t-395 -162t-393 116v-462h-170v1902h170v-536q158 120 390 120z" />
    <glyph glyph-name="ydieresis" unicode="&#xff;" horiz-adv-x="1255" 
d="M463 1444q39 0 65 -27t27 -65q0 -38 -27 -66q-28 -26 -66 -26t-65 26t-26 66t27 66t65 26zM723 1352q-1 40 27 66t66 26t66 -27t28 -65t-28 -66q-28 -26 -66 -26t-66 26t-27 66zM129 -250q350 0 446 250h-45l-475 1108h181l391 -907h37l356 907h176l-465 -1167
q-74 -177 -231 -248q-158 -72 -336 -74q-55 0 -80 2l18 129h27z" />
    <glyph glyph-name="Amacron" unicode="&#x100;" 
d="M430 1602v112h647v-112h-647zM754 1204l-308 -698h617zM1288 0l-162 362h-743l-160 -362h-184l668 1444h96l670 -1444h-185z" />
    <glyph glyph-name="amacron" unicode="&#x101;" horiz-adv-x="1370" 
d="M360 1313v112h648v-112h-648zM704 977q-200 0 -322 -123t-122 -295t123 -296t303 -124q219 0 358 129v576q-140 133 -340 133zM1044 1108h170v-1108h-170v111q-162 -123 -396 -123t-392 168q-160 168 -160 402t160 402t394 168t394 -122v102z" />
    <glyph glyph-name="Abreve" unicode="&#x102;" 
d="M755 1577q-142 0 -228 70q-85 70 -95 208l113 9q25 -172 212 -172t208 172l114 -9q-12 -139 -97 -209t-227 -69zM754 1204l-308 -698h617zM1288 0l-162 362h-743l-160 -362h-184l668 1444h96l670 -1444h-185z" />
    <glyph glyph-name="abreve" unicode="&#x103;" horiz-adv-x="1370" 
d="M687 1288q-142 0 -227 70t-95 209l112 8q25 -172 212 -172t208 172l115 -8q-12 -139 -98 -209t-227 -70zM704 977q-200 0 -322 -123t-122 -295t123 -296t303 -124q219 0 358 129v576q-140 133 -340 133zM1044 1108h170v-1108h-170v111q-162 -123 -396 -123t-392 168
q-160 168 -160 402t160 402t394 168t394 -122v102z" />
    <glyph glyph-name="Aogonek" unicode="&#x104;" 
d="M754 1204l-308 -698h617zM1364 -182q0 -30 27 -52t55 -22t82 8l6 -92q-66 -12 -113 -12q-188 0 -188 153q0 86 113 199h-58l-162 362h-743l-160 -362h-184l668 1444h96l670 -1444h-3l-12 -14q-94 -94 -94 -168z" />
    <glyph glyph-name="aogonek" unicode="&#x105;" horiz-adv-x="1370" 
d="M704 977q-200 0 -322 -123t-122 -295t123 -296t303 -124q219 0 358 129v576q-140 133 -340 133zM1108 -172q0 -40 27 -62t55 -22t82 8l6 -92q-66 -12 -113 -12q-188 0 -188 153q0 86 113 199h-46v111q-162 -123 -396 -123t-392 168q-160 168 -160 402t160 402t394 168
t394 -122v102h170v-1108q-106 -106 -106 -172z" />
    <glyph glyph-name="Cacute" unicode="&#x106;" horiz-adv-x="1548" 
d="M1266 1868l-357 -322h-118l284 336zM866 152q137 0 256 59t199 164l135 -113q-106 -129 -260 -202t-330 -72q-315 0 -537 215t-223 518q0 303 222 519t538 216q174 0 329 -74t261 -202l-135 -113q-80 105 -199 165t-256 60q-242 0 -410 -165t-169 -407q1 -242 169 -404
q168 -164 410 -164z" />
    <glyph glyph-name="cacute" unicode="&#x107;" horiz-adv-x="1193" 
d="M1092 1579l-357 -322h-119l285 336zM695 -12q-251 0 -428 167t-177 403t177 404q177 166 430 166t413 -200l-113 -103q-119 152 -301 152t-310 -123t-128 -296t128 -296t310 -123t301 156l111 -102q-162 -205 -413 -205z" />
    <glyph glyph-name="Ccircumflex" unicode="&#x108;" horiz-adv-x="1548" 
d="M498 1546l293 293h110l295 -293h-137l-213 199l-213 -199h-135zM866 152q137 0 256 59t199 164l135 -113q-106 -129 -260 -202t-330 -72q-315 0 -537 215t-223 518q0 303 222 519t538 216q174 0 329 -74t261 -202l-135 -113q-80 105 -199 165t-256 60q-242 0 -410 -165
t-169 -407q1 -242 169 -404q168 -164 410 -164z" />
    <glyph glyph-name="ccircumflex" unicode="&#x109;" horiz-adv-x="1193" 
d="M317 1257l293 293h111l295 -293h-137l-213 199l-213 -199h-136zM695 -12q-251 0 -428 167t-177 403t177 404q177 166 430 166t413 -200l-113 -103q-119 152 -301 152t-310 -123t-128 -296t128 -296t310 -123t301 156l111 -102q-162 -205 -413 -205z" />
    <glyph glyph-name="Cdotaccent" unicode="&#x10a;" horiz-adv-x="1548" 
d="M858 1753q39 0 66 -27q26 -28 26 -66t-26 -65t-66 -27t-66 28q-26 26 -26 65t26 65t66 27zM866 152q137 0 256 59t199 164l135 -113q-106 -129 -260 -202t-330 -72q-315 0 -537 215t-223 518q0 303 222 519t538 216q174 0 329 -74t261 -202l-135 -113q-80 105 -199 165
t-256 60q-242 0 -410 -165t-169 -407q1 -242 169 -404q168 -164 410 -164z" />
    <glyph glyph-name="cdotaccent" unicode="&#x10b;" horiz-adv-x="1193" 
d="M684 1464q39 0 66 -26q26 -26 26 -66t-26 -66t-66 -26q-39 0 -66 27q-26 27 -26 65t26 66q27 26 66 26zM695 -12q-251 0 -428 167t-177 403t177 404q177 166 430 166t413 -200l-113 -103q-119 152 -301 152t-310 -123t-128 -296t128 -296t310 -123t301 156l111 -102
q-162 -205 -413 -205z" />
    <glyph glyph-name="Ccaron" unicode="&#x10c;" horiz-adv-x="1548" 
d="M803 1546l-293 293h135l213 -199l213 199h137l-295 -293h-110zM866 152q137 0 256 59t199 164l135 -113q-106 -129 -260 -202t-330 -72q-315 0 -537 215t-223 518q0 303 222 519t538 216q174 0 329 -74t261 -202l-135 -113q-80 105 -199 165t-256 60q-242 0 -410 -165
t-169 -407q1 -242 169 -404q168 -164 410 -164z" />
    <glyph glyph-name="ccaron" unicode="&#x10d;" horiz-adv-x="1193" 
d="M614 1257l-292 293h135l213 -198l213 198h137l-295 -293h-111zM695 -12q-251 0 -428 167t-177 403t177 404q177 166 430 166t413 -200l-113 -103q-119 152 -301 152t-310 -123t-128 -296t128 -296t310 -123t301 156l111 -102q-162 -205 -413 -205z" />
    <glyph glyph-name="Dcaron" unicode="&#x10e;" 
d="M608 1546l-293 293h136l213 -199l213 199h137l-295 -293h-111zM344 158h365q213 0 367 169t153 399q0 230 -162 396q-162 164 -391 164h-332v-1128zM1403 725q0 -295 -200 -510t-480 -215h-549v1444h502q301 0 514 -212t213 -507z" />
    <glyph glyph-name="dcaron" unicode="&#x10f;" horiz-adv-x="1570" 
d="M1462 1444q106 0 107 -141q0 -111 -65 -192t-197 -81l-25 72q164 6 170 141q-36 6 -62 35q-26 28 -26 68t30 69t68 29zM688 139q221 0 361 133v576q-139 129 -361 129q-178 0 -302 -122t-124 -299t124 -297t302 -120zM1049 1544h168v-1544h-168v106q-159 -118 -391 -118
t-399 163t-167 407t167 408q167 162 395 162t395 -116v532z" />
    <glyph glyph-name="Dcroat" unicode="&#x110;" horiz-adv-x="1568" 
d="M338 1602v112h647v-112h-647zM403 158h365q213 0 367 169q153 169 153 399t-162 396q-162 164 -391 164h-332v-493h373v-142h-373v-493zM33 651v142h200v651h502q301 0 514 -212t213 -507t-200 -510t-480 -215h-549v651h-200z" />
    <glyph glyph-name="dcroat" unicode="&#x111;" horiz-adv-x="1372" 
d="M688 139q221 0 361 133v576q-139 129 -361 129q-178 0 -302 -122t-124 -299t124 -297t302 -120zM1458 1366v-143h-241v-1223h-168v106q-159 -118 -391 -118t-399 163t-167 407t167 408q167 162 395 162t395 -116v211h-238v143h238v178h168v-178h241z" />
    <glyph glyph-name="Emacron" unicode="&#x112;" horiz-adv-x="1318" 
d="M358 1602v112h648v-112h-648zM344 150h875v-150h-1045v1444h1002v-150h-832v-520h705v-147h-705v-477z" />
    <glyph glyph-name="emacron" unicode="&#x113;" horiz-adv-x="1284" 
d="M338 1313v112h647v-112h-647zM661 989q-161 0 -269 -100t-128 -252h762q-12 158 -107 255q-96 97 -258 97zM655 -12q-247 0 -405 165t-158 405t159 405t405 165t391 -160q145 -161 145 -419l-2 -45h-928q20 -160 142 -263t280 -104q219 0 352 162l113 -90
q-78 -101 -207 -161t-287 -60z" />
    <glyph glyph-name="Ebreve" unicode="&#x114;" horiz-adv-x="1318" 
d="M685 1577q-142 0 -227 70t-96 208l113 9q25 -172 212 -172t208 172l115 -9q-12 -139 -98 -209t-227 -69zM344 150h875v-150h-1045v1444h1002v-150h-832v-520h705v-147h-705v-477z" />
    <glyph glyph-name="ebreve" unicode="&#x115;" horiz-adv-x="1284" 
d="M648 1288q-142 0 -227 70t-95 209l112 8q25 -172 212 -172t208 172l115 -8q-11 -139 -97 -209t-228 -70zM661 989q-161 0 -269 -100t-128 -252h762q-12 158 -107 255q-96 97 -258 97zM655 -12q-247 0 -405 165t-158 405t159 405t405 165t391 -160q145 -161 145 -419
l-2 -45h-928q20 -160 142 -263t280 -104q219 0 352 162l113 -90q-78 -101 -207 -161t-287 -60z" />
    <glyph glyph-name="Edotaccent" unicode="&#x116;" horiz-adv-x="1318" 
d="M684 1753q39 0 66 -27q26 -28 26 -66t-26 -65t-66 -27q-39 0 -66 28q-27 26 -26 65q0 39 26 65t66 27zM344 150h875v-150h-1045v1444h1002v-150h-832v-520h705v-147h-705v-477z" />
    <glyph glyph-name="edotaccent" unicode="&#x117;" horiz-adv-x="1284" 
d="M647 1464q39 0 66 -26t27 -66t-28 -66q-26 -26 -65 -26t-65 27t-27 65q1 38 27 66q26 26 65 26zM661 989q-161 0 -269 -100t-128 -252h762q-12 158 -107 255q-96 97 -258 97zM655 -12q-247 0 -405 165t-158 405t159 405t405 165t391 -160q145 -161 145 -419l-2 -45h-928
q20 -160 142 -263t280 -104q219 0 352 162l113 -90q-78 -101 -207 -161t-287 -60z" />
    <glyph glyph-name="Eogonek" unicode="&#x118;" horiz-adv-x="1318" 
d="M1169 -352q-188 0 -188 153q0 86 113 199h-920v1444h1002v-150h-832v-520h705v-147h-705v-477h875v-150l-15 -14q-62 -73 -77 -105q-15 -33 -15 -63t27 -52t55 -22t82 8l6 -92q-66 -12 -113 -12z" />
    <glyph glyph-name="eogonek" unicode="&#x119;" horiz-adv-x="1284" 
d="M661 989q-161 0 -269 -100t-128 -252h762q-12 158 -107 255q-96 97 -258 97zM762 -346q-188 0 -189 153q0 78 97 181h-15q-247 0 -405 165t-158 405t159 405t405 165t391 -160q145 -161 145 -419l-2 -45h-928q20 -160 142 -263t280 -104q219 0 352 162l113 -90
q-121 -160 -340 -207q-104 -104 -104 -168q1 -40 27 -62t54 -22t82 8l6 -92q-66 -12 -112 -12z" />
    <glyph glyph-name="Ecaron" unicode="&#x11a;" horiz-adv-x="1318" 
d="M629 1546l-293 293h135l213 -199l213 199h137l-295 -293h-110zM344 150h875v-150h-1045v1444h1002v-150h-832v-520h705v-147h-705v-477z" />
    <glyph glyph-name="ecaron" unicode="&#x11b;" horiz-adv-x="1284" 
d="M592 1257l-293 293h135l213 -198l213 198h137l-295 -293h-110zM661 989q-161 0 -269 -100t-128 -252h762q-12 158 -107 255q-96 97 -258 97zM655 -12q-247 0 -405 165t-158 405t159 405t405 165t391 -160q145 -161 145 -419l-2 -45h-928q20 -160 142 -263t280 -104
q219 0 352 162l113 -90q-78 -101 -207 -161t-287 -60z" />
    <glyph glyph-name="Gcircumflex" unicode="&#x11c;" horiz-adv-x="1619" 
d="M500 1546l293 293h110l295 -293h-137l-213 199l-213 -199h-135zM836 692h659v-493q-262 -211 -625 -211q-315 0 -539 215t-225 518q0 303 224 518t556 215t556 -207l-111 -121q-183 166 -443 166t-432 -167t-171 -407q0 -240 171 -407q172 -168 422 -168t441 142v262
h-483v145z" />
    <glyph glyph-name="gcircumflex" unicode="&#x11d;" horiz-adv-x="1372" 
d="M340 1257l293 293h110l295 -293h-137l-213 199l-213 -199h-135zM260 568q0 -172 124 -288t304 -116q223 0 359 125v557q-141 131 -340 131t-323 -119t-124 -290zM1047 1108h170v-948q1 -227 -139 -385t-410 -158q-122 0 -172 5t-72 7q-25 2 -101 22t-126 38l32 127
q215 -66 404 -66q188 0 291 97q102 97 114 241q0 4 1 16t1 19q-164 -111 -390 -111t-392 160t-166 398t166 399q166 159 396 159t393 -120v100z" />
    <glyph glyph-name="Gbreve" unicode="&#x11e;" horiz-adv-x="1619" 
d="M849 1577q-142 0 -227 70t-96 208l113 9q25 -172 212 -172t208 172l115 -9q-12 -139 -98 -209t-227 -69zM836 692h659v-493q-262 -211 -625 -211q-315 0 -539 215t-225 518q0 303 224 518t556 215t556 -207l-111 -121q-183 166 -443 166t-432 -167t-171 -407
q0 -240 171 -407q172 -168 422 -168t441 142v262h-483v145z" />
    <glyph glyph-name="gbreve" unicode="&#x11f;" horiz-adv-x="1372" 
d="M689 1288q-142 0 -227 70t-95 209l112 8q25 -172 212 -172t208 172l115 -8q-12 -139 -98 -209t-227 -70zM260 568q0 -172 124 -288t304 -116q223 0 359 125v557q-141 131 -340 131t-323 -119t-124 -290zM1047 1108h170v-948q1 -227 -139 -385t-410 -158q-122 0 -172 5
t-72 7q-25 2 -101 22t-126 38l32 127q215 -66 404 -66q188 0 291 97q102 97 114 241q0 4 1 16t1 19q-164 -111 -390 -111t-392 160t-166 398t166 399q166 159 396 159t393 -120v100z" />
    <glyph glyph-name="Gdotaccent" unicode="&#x120;" horiz-adv-x="1619" 
d="M848 1753q40 0 66 -27q26 -28 26 -66t-27 -65t-65 -27t-66 28q-27 26 -26 65q0 39 26 65t66 27zM836 692h659v-493q-262 -211 -625 -211q-315 0 -539 215t-225 518q0 303 224 518t556 215t556 -207l-111 -121q-183 166 -443 166t-432 -167t-171 -407q0 -240 171 -407
q172 -168 422 -168t441 142v262h-483v145z" />
    <glyph glyph-name="gdotaccent" unicode="&#x121;" horiz-adv-x="1372" 
d="M688 1464q39 0 66 -26q26 -26 26 -66t-26 -66t-66 -26t-66 27t-26 65t26 66q26 26 66 26zM260 568q0 -172 124 -288t304 -116q223 0 359 125v557q-141 131 -340 131t-323 -119t-124 -290zM1047 1108h170v-948q1 -227 -139 -385t-410 -158q-122 0 -172 5t-72 7
q-25 2 -101 22t-126 38l32 127q215 -66 404 -66q188 0 291 97q102 97 114 241q0 4 1 16t1 19q-164 -111 -390 -111t-392 160t-166 398t166 399q166 159 396 159t393 -120v100z" />
    <glyph glyph-name="Gcommaaccent" unicode="&#x122;" horiz-adv-x="1619" 
d="M868 -127q104 0 105 -143q1 -111 -63 -191t-199 -80l-25 72q164 4 170 141q-38 4 -62 33t-24 69t28 70t70 29zM836 692h659v-493q-262 -211 -625 -211q-315 0 -539 215t-225 518q0 303 224 518t556 215t556 -207l-111 -121q-183 166 -443 166t-432 -167t-171 -407
q0 -240 171 -407q172 -168 422 -168t441 142v262h-483v145z" />
    <glyph glyph-name="gcommaaccent" unicode="&#x123;" horiz-adv-x="1372" 
d="M686 1298q-104 0 -104 144q0 110 63 190t199 80l24 -72q-164 -4 -170 -141q37 -4 62 -33q24 -28 24 -68t-28 -70t-70 -30zM260 568q0 -172 124 -288t304 -116q223 0 359 125v557q-141 131 -340 131t-323 -119t-124 -290zM1047 1108h170v-948q1 -227 -139 -385t-410 -158
q-122 0 -172 5t-72 7q-25 2 -101 22t-126 38l32 127q215 -66 404 -66q188 0 291 97q102 97 114 241q0 4 1 16t1 19q-164 -111 -390 -111t-392 160t-166 398t166 399q166 159 396 159t393 -120v100z" />
    <glyph glyph-name="Hcircumflex" unicode="&#x124;" 
d="M432 1546l293 293h111l294 -293h-137l-213 199l-213 -199h-135zM1163 1444h172v-1444h-172v555h-819v-555h-170v1444h170v-739h819v739z" />
    <glyph glyph-name="hcircumflex" unicode="&#x125;" horiz-adv-x="1304" 
d="M332 1546l293 293h110l295 -293h-137l-213 199l-213 -199h-135zM696 1128q227 0 352 -124q124 -125 123 -375v-629h-170v629q0 168 -91 258t-240 90q-201 0 -344 -123v-854h-170v1544h170v-536q143 120 370 120z" />
    <glyph glyph-name="Hbar" unicode="&#x126;" 
d="M344 705h819v452h-819v-452zM90 1157v119h84v168h170v-168h819v168h172v-168h82v-119h-82v-1157h-172v555h-819v-555h-170v1157h-84z" />
    <glyph glyph-name="hbar" unicode="&#x127;" horiz-adv-x="1304" 
d="M-33 1159v117h189v268h170v-268h190v-117h-190v-151q143 120 370 120t352 -124q124 -125 123 -375v-629h-170v629q0 168 -91 258t-240 90q-201 0 -344 -123v-854h-170v1159h-189z" />
    <glyph glyph-name="Itilde" unicode="&#x128;" horiz-adv-x="530" 
d="M87 1839q81 0 193 -46t158 -46t83 38q38 38 52 107l91 -12q-12 -124 -72 -192t-134 -68q-72 0 -186 47t-155 47q-115 0 -152 -147l-90 10q11 125 71 193t141 69zM354 1444v-1444h-178v1444h178z" />
    <glyph glyph-name="itilde" unicode="&#x129;" horiz-adv-x="491" 
d="M160 0v1108h170v-1108h-170zM417 1411q46 0 84 38t52 107l90 -12q-13 -124 -73 -192t-132 -68t-187 47q-114 47 -155 47q-114 0 -151 -147l-90 10q10 125 70 194t157 68q66 0 178 -46t157 -46z" />
    <glyph glyph-name="Imacron" unicode="&#x12a;" horiz-adv-x="530" 
d="M-59 1628v113h647v-113h-647zM354 1444v-1444h-178v1444h178z" />
    <glyph glyph-name="imacron" unicode="&#x12b;" horiz-adv-x="491" 
d="M160 0v1108h170v-1108h-170zM-78 1292v113h647v-113h-647z" />
    <glyph glyph-name="Ibreve" unicode="&#x12c;" horiz-adv-x="530" 
d="M265 1604q-142 0 -227 70t-95 208l112 8q25 -172 212 -172t208 172l115 -8q-12 -139 -97 -209q-86 -69 -228 -69zM354 1444v-1444h-178v1444h178z" />
    <glyph glyph-name="ibreve" unicode="&#x12d;" horiz-adv-x="491" 
d="M160 0v1108h170v-1108h-170zM247 1268q-142 0 -228 69q-85 70 -95 209l113 8q25 -172 212 -172t208 172l114 -8q-12 -138 -97 -208t-227 -70z" />
    <glyph glyph-name="Iogonek" unicode="&#x12e;" horiz-adv-x="530" 
d="M248 -172q0 -40 26 -62t56 -22q29 0 82 8l6 -92q-63 -12 -113 -12q-188 0 -188 153q0 86 112 199h-53v1444h178v-1444q-106 -106 -106 -172z" />
    <glyph glyph-name="iogonek" unicode="&#x12f;" horiz-adv-x="491" 
d="M350 1399q0 -45 -30 -76t-75 -31q-44 0 -76 31t-32 76t32 75t76 30q45 0 75 -30t30 -75zM160 0v1108h170v-1108l-15 -14q-62 -73 -77 -105q-15 -33 -15 -63t27 -52q28 -22 56 -22t81 8l6 -92q-66 -12 -112 -12q-188 0 -189 153q0 86 113 199h-45z" />
    <glyph glyph-name="Idotaccent" unicode="&#x130;" horiz-adv-x="530" 
d="M266 1780q39 0 66 -27q26 -27 26 -65t-26 -66q-26 -27 -66 -27t-66 27t-26 66q0 40 26 66t66 26zM354 1444v-1444h-178v1444h178z" />
    <glyph glyph-name="dotlessi" unicode="&#x131;" horiz-adv-x="491" 
d="M160 0v1108h170v-1108h-170z" />
    <glyph glyph-name="IJ" unicode="&#x132;" horiz-adv-x="1742" 
d="M1427 1444h175v-854q0 -276 -129 -439t-383 -163q-190 0 -333 125q-142 125 -169 311l153 14q25 -127 119 -208t225 -80q164 0 253 110t89 289v895zM354 1444v-1444h-178v1444h178z" />
    <glyph glyph-name="ij" unicode="&#x133;" horiz-adv-x="985" 
d="M737 1292q-45 0 -75 31t-31 76q0 45 31 75q32 30 76 30t75 -30t31 -75t-31 -76t-76 -31zM653 20v1088h172v-1157q0 -160 -90 -247t-229 -87q-59 0 -125 12v138q16 -2 57 -3q109 0 162 60t53 196zM350 1399q0 -45 -30 -76t-75 -31q-44 0 -76 31t-32 76t32 75t76 30
q45 0 75 -30t30 -75zM160 0v1108h170v-1108h-170z" />
    <glyph glyph-name="Jcircumflex" unicode="&#x134;" horiz-adv-x="1216" 
d="M340 1546l293 293h110l295 -293h-137l-213 199l-213 -199h-135zM889 1444h174v-854q0 -276 -129 -439t-383 -163q-190 0 -333 125q-142 125 -169 311l154 14q25 -127 119 -208t225 -80q164 0 253 110t89 289v895z" />
    <glyph glyph-name="jcircumflex" unicode="&#x135;" horiz-adv-x="489" 
d="M-102 1257l292 293h111l295 -293h-137l-213 199l-213 -199h-135zM158 20v1088h172v-1157q0 -160 -90 -247t-230 -87q-59 0 -125 12v138q16 -2 58 -3q109 0 162 60t53 196z" />
    <glyph glyph-name="Kcommaaccent" unicode="&#x136;" horiz-adv-x="1429" 
d="M692 -127q104 0 105 -143q1 -111 -63 -191t-199 -80l-25 72q164 4 170 141q-37 4 -62 33q-24 29 -24 69t28 70t70 29zM344 0h-170v1444h170v-858l786 858h216l-639 -705l657 -739h-234l-538 610l-248 -268v-342z" />
    <glyph glyph-name="kcommaaccent" unicode="&#x137;" horiz-adv-x="1247" 
d="M629 -127q104 0 104 -143q0 -111 -63 -191t-199 -80l-25 72q164 4 170 141q-38 4 -62 33t-24 69t29 70t70 29zM326 0h-170v1544h170v-1089l673 653h209l-428 -426l430 -682h-192l-352 553l-340 -322v-231z" />
    <glyph glyph-name="kgreenlandic" unicode="&#x138;" horiz-adv-x="1247" 
d="M326 0h-170v1108h170v-653l673 653h209l-428 -426l430 -682h-192l-352 553l-340 -322v-231z" />
    <glyph glyph-name="Lacute" unicode="&#x139;" horiz-adv-x="1226" 
d="M664 1868l-357 -322h-119l285 336zM350 145h801v-145h-977v1444h176v-1299z" />
    <glyph glyph-name="lacute" unicode="&#x13a;" horiz-adv-x="489" 
d="M670 1968l-357 -321h-118l284 335zM158 0v1544h172v-1544h-172z" />
    <glyph glyph-name="Lcommaaccent" unicode="&#x13b;" horiz-adv-x="1226" 
d="M662 -127q104 0 104 -143q0 -111 -64 -191t-198 -80l-25 72q164 4 170 141q-37 4 -61 33t-25 69q0 40 29 70t70 29zM350 145h801v-145h-977v1444h176v-1299z" />
    <glyph glyph-name="lcommaaccent" unicode="&#x13c;" horiz-adv-x="489" 
d="M236 -127q104 0 104 -143q0 -111 -64 -191t-198 -80l-25 72q164 4 170 141q-37 4 -61 33t-25 69q0 40 29 70t70 29zM158 0v1544h172v-1544h-172z" />
    <glyph glyph-name="Lcaron" unicode="&#x13d;" horiz-adv-x="1226" 
d="M668 1446q106 0 106 -141q0 -111 -64 -192t-198 -81l-25 72q164 6 170 141q-37 6 -63 35t-25 69q0 41 30 69t69 28zM350 145h801v-145h-977v1444h176v-1299z" />
    <glyph glyph-name="lcaron" unicode="&#x13e;" horiz-adv-x="737" 
d="M633 1444q106 0 106 -141q-1 -111 -65 -192t-197 -81l-24 72q164 6 170 141q-37 6 -63 35q-26 28 -26 68t30 69t69 29zM158 0v1544h172v-1544h-172z" />
    <glyph glyph-name="Ldot" unicode="&#x13f;" horiz-adv-x="1226" 
d="M698 1053q0 -45 -30 -76t-76 -31q-45 0 -76 31t-31 76t31 75t76 31q46 -1 76 -31t30 -75zM350 145h801v-145h-977v1444h176v-1299z" />
    <glyph glyph-name="ldot" unicode="&#x140;" horiz-adv-x="673" 
d="M647 1053q0 -45 -31 -76q-32 -31 -76 -31t-75 31t-31 76t31 75t76 31q45 -1 75 -31t31 -75zM158 0v1544h172v-1544h-172z" />
    <glyph glyph-name="Lslash" unicode="&#x141;" horiz-adv-x="1226" 
d="M174 1444h176v-629l461 135v-164l-461 -133v-508h801v-145h-977v602l-186 -55v164l186 53v680z" />
    <glyph glyph-name="lslash" unicode="&#x142;" horiz-adv-x="673" 
d="M213 1544h174v-717l262 78v-162l-262 -77v-666h-174v614l-246 -71v164l246 71v766z" />
    <glyph glyph-name="Nacute" unicode="&#x143;" horiz-adv-x="1583" 
d="M1210 1868l-356 -322h-119l285 336zM1235 1444h174v-1444h-92l-967 1114v-1114h-176v1444h92l969 -1114v1114z" />
    <glyph glyph-name="nacute" unicode="&#x144;" horiz-adv-x="1306" 
d="M1061 1559l-356 -322h-119l284 336zM696 1128q227 0 352 -124q124 -125 123 -375v-629h-170v629q0 168 -90 258t-241 90q-203 0 -344 -125v-852h-170v1108h170v-107q143 127 370 127z" />
    <glyph glyph-name="Ncommaaccent" unicode="&#x145;" horiz-adv-x="1583" 
d="M803 -127q104 0 104 -143q0 -111 -63 -191t-199 -80l-24 72q164 4 170 141q-37 4 -62 33t-25 69t30 70q28 30 69 29zM1235 1444h174v-1444h-92l-967 1114v-1114h-176v1444h92l969 -1114v1114z" />
    <glyph glyph-name="ncommaaccent" unicode="&#x146;" horiz-adv-x="1306" 
d="M678 -127q104 0 104 -143q0 -111 -63 -191t-199 -80l-24 72q164 4 170 141q-37 4 -62 33q-24 29 -24 69t28 70t70 29zM696 1128q227 0 352 -124q124 -125 123 -375v-629h-170v629q0 168 -90 258t-241 90q-203 0 -344 -125v-852h-170v1108h170v-107q143 127 370 127z" />
    <glyph glyph-name="Ncaron" unicode="&#x147;" horiz-adv-x="1583" 
d="M735 1546l-293 293h136l213 -199l213 199h137l-295 -293h-111zM1235 1444h174v-1444h-92l-967 1114v-1114h-176v1444h92l969 -1114v1114z" />
    <glyph glyph-name="ncaron" unicode="&#x148;" horiz-adv-x="1306" 
d="M586 1237l-293 293h135l213 -199l213 199h137l-295 -293h-110zM696 1128q227 0 352 -124q124 -125 123 -375v-629h-170v629q0 168 -90 258t-241 90q-203 0 -344 -125v-852h-170v1108h170v-107q143 127 370 127z" />
    <glyph glyph-name="napostrophe" unicode="&#x149;" horiz-adv-x="1306" 
d="M287 1647q104 0 104 -144q0 -111 -63 -191t-199 -79l-25 72q164 4 170 141q-38 4 -62 33t-24 69t29 69q29 30 70 30zM696 1128q227 0 352 -124q124 -125 123 -375v-629h-170v629q0 168 -90 258t-241 90q-203 0 -344 -125v-852h-170v1108h170v-107q143 127 370 127z" />
    <glyph glyph-name="Eng" unicode="&#x14a;" horiz-adv-x="1583" 
d="M1235 1444h174v-1424q0 -260 -132 -414t-380 -155q-190 0 -333 124q-142 124 -169 310l154 17q25 -127 119 -208t225 -81q190 0 265 121t75 348l-883 1051v-1133h-176v1444h92l969 -1133v1133z" />
    <glyph glyph-name="eng" unicode="&#x14b;" horiz-adv-x="1306" 
d="M696 1128q227 0 352 -124q124 -125 123 -375v-678q0 -160 -90 -247t-229 -87q-59 0 -125 12v138q16 -2 59 -3q215 0 215 230v635q0 168 -91 258t-240 90q-203 0 -344 -125v-852h-170v1108h170v-107q143 127 370 127z" />
    <glyph glyph-name="Omacron" unicode="&#x14c;" horiz-adv-x="1740" 
d="M535 1602v112h647v-112h-647zM868 150q242 0 413 166t171 405t-171 405t-413 166t-412 -168t-171 -404q1 -236 171 -402q170 -168 412 -168zM869 1454q315 0 539 -215t224 -518t-223 -518t-539 -215t-540 215q-223 215 -224 518q0 303 224 518t539 215z" />
    <glyph glyph-name="omacron" unicode="&#x14d;" horiz-adv-x="1386" 
d="M371 1292v113h647v-113h-647zM692 139q180 0 307 123t127 296t-127 296t-307 123t-308 -123t-128 -296t128 -296t308 -123zM692 1128q250 0 426 -168t176 -403q0 -237 -177 -403t-426 -166t-426 167t-177 403t177 404q177 166 427 166z" />
    <glyph glyph-name="Obreve" unicode="&#x14e;" horiz-adv-x="1740" 
d="M861 1577q-142 0 -227 70t-95 208l112 9q25 -172 212 -172t208 172l115 -9q-12 -139 -98 -209t-227 -69zM868 150q242 0 413 166t171 405t-171 405t-413 166t-412 -168t-171 -404q1 -236 171 -402q170 -168 412 -168zM869 1454q315 0 539 -215t224 -518t-223 -518
t-539 -215t-540 215q-223 215 -224 518q0 303 224 518t539 215z" />
    <glyph glyph-name="obreve" unicode="&#x14f;" horiz-adv-x="1386" 
d="M691 1268q-142 0 -227 70t-95 208l112 8q25 -172 212 -172t208 172l115 -8q-12 -139 -97 -209q-86 -69 -228 -69zM692 139q180 0 307 123t127 296t-127 296t-307 123t-308 -123t-128 -296t128 -296t308 -123zM692 1128q250 0 426 -168t176 -403q0 -237 -177 -403
t-426 -166t-426 167t-177 403t177 404q177 166 427 166z" />
    <glyph glyph-name="Ohungarumlaut" unicode="&#x150;" horiz-adv-x="1740" 
d="M1145 1880l162 -53l-226 -275h-127zM825 1880l154 -51l-217 -277h-129zM868 150q242 0 413 166t171 405t-171 405t-413 166t-412 -168t-171 -404q1 -236 171 -402q170 -168 412 -168zM869 1454q315 0 539 -215t224 -518t-223 -518t-539 -215t-540 215q-223 215 -224 518
q0 303 224 518t539 215z" />
    <glyph glyph-name="ohungarumlaut" unicode="&#x151;" horiz-adv-x="1386" 
d="M967 1571l161 -53l-225 -275h-127zM647 1571l154 -51l-217 -277h-129zM692 139q180 0 307 123t127 296t-127 296t-307 123t-308 -123t-128 -296t128 -296t308 -123zM692 1128q250 0 426 -168t176 -403q0 -237 -177 -403t-426 -166t-426 167t-177 403t177 404
q177 166 427 166z" />
    <glyph glyph-name="OE" unicode="&#x152;" horiz-adv-x="2113" 
d="M969 150v1144h-119q-238 0 -404 -156t-166 -421q0 -266 164 -417t406 -150h119zM836 0q-302 0 -516 212t-214 511t218 510t528 211h1120v-150h-831v-520h704v-147h-704v-477h874v-150h-1179z" />
    <glyph glyph-name="oe" unicode="&#x153;" horiz-adv-x="2316" 
d="M1694 989q-162 0 -270 -100t-128 -252h762q-12 158 -107 255t-257 97zM688 137q176 0 302 124t126 297t-125 296t-304 123t-304 -122t-125 -297t127 -298t303 -123zM1686 -12q-160 0 -289 77t-201 205q-70 -130 -206 -206t-302 -76q-248 0 -423 167t-175 403t175 404
q175 167 425 166q168 0 302 -76t204 -208q72 131 200 208t292 76q246 0 391 -160t145 -419l-2 -45h-928q20 -160 142 -263t280 -104q219 0 352 162l113 -90q-78 -101 -207 -161q-128 -60 -288 -60z" />
    <glyph glyph-name="Racute" unicode="&#x154;" horiz-adv-x="1400" 
d="M1087 1868l-356 -322h-119l285 336zM350 1294v-706h346q201 0 310 91q108 91 108 255t-89 262t-282 98h-393zM702 442h-352v-442h-176v1444h592q276 0 403 -137t127 -351q0 -375 -321 -475l364 -481h-213l-327 446q-61 -4 -97 -4z" />
    <glyph glyph-name="racute" unicode="&#x155;" horiz-adv-x="890" 
d="M670 1579l-357 -322h-118l284 336zM326 1108v-217q53 109 146 172t218 65q68 0 135 -32l-12 -166q-84 33 -158 33q-153 0 -241 -118t-88 -284v-561h-170v1108h170z" />
    <glyph glyph-name="Rcommaaccent" unicode="&#x156;" horiz-adv-x="1400" 
d="M727 -127q104 0 104 -143q0 -111 -63 -191t-199 -80l-24 72q164 4 170 141q-37 4 -62 33t-25 69t30 70q28 30 69 29zM350 1294v-706h346q201 0 310 91q108 91 108 255t-89 262t-282 98h-393zM702 442h-352v-442h-176v1444h592q276 0 403 -137t127 -351q0 -375 -321 -475
l364 -481h-213l-327 446q-61 -4 -97 -4z" />
    <glyph glyph-name="rcommaaccent" unicode="&#x157;" horiz-adv-x="890" 
d="M246 -127q104 0 104 -143q0 -111 -63 -191t-199 -80l-25 72q164 4 170 141q-37 4 -61 33t-25 69q0 40 29 70t70 29zM326 1108v-217q53 109 146 172t218 65q68 0 135 -32l-12 -166q-84 33 -158 33q-153 0 -241 -118t-88 -284v-561h-170v1108h170z" />
    <glyph glyph-name="Rcaron" unicode="&#x158;" horiz-adv-x="1400" 
d="M625 1546l-293 293h135l213 -199l213 199h137l-295 -293h-110zM350 1294v-706h346q201 0 310 91q108 91 108 255t-89 262t-282 98h-393zM702 442h-352v-442h-176v1444h592q276 0 403 -137t127 -351q0 -375 -321 -475l364 -481h-213l-327 446q-61 -4 -97 -4z" />
    <glyph glyph-name="rcaron" unicode="&#x159;" horiz-adv-x="890" 
d="M410 1257l-293 293h135l213 -198l213 198h137l-295 -293h-110zM326 1108v-217q53 109 146 172t218 65q68 0 135 -32l-12 -166q-84 33 -158 33q-153 0 -241 -118t-88 -284v-561h-170v1108h170z" />
    <glyph glyph-name="Sacute" unicode="&#x15a;" horiz-adv-x="1310" 
d="M1061 1868l-356 -322h-119l284 336zM1208 393q0 -190 -145 -300t-389 -109q-182 0 -293 24t-279 109l66 135q146 -72 250 -94t264 -23q160 0 254 66t94 175q0 108 -93 166t-241 93t-214 54q-68 19 -144 54t-119 74q-104 94 -102 240q0 178 137 289q138 110 400 110
t497 -113l-74 -139q-92 45 -220 73t-258 28t-218 -66t-88 -171q0 -106 98 -162t263 -95t248 -69q209 -76 269 -189q37 -68 37 -160z" />
    <glyph glyph-name="sacute" unicode="&#x15b;" horiz-adv-x="1083" 
d="M932 1559l-357 -322h-118l284 336zM542 125q160 0 228 53t68 130t-75 118t-259 79q-184 39 -289 109q-106 70 -106 204t115 222q116 88 308 88t406 -86l-57 -127q-168 74 -365 74q-114 0 -184 -46t-70 -118q0 -71 73 -111t260 -77t293 -111t107 -214t-111 -232t-338 -92
t-458 102l64 127q230 -92 390 -92z" />
    <glyph glyph-name="Scircumflex" unicode="&#x15c;" horiz-adv-x="1310" 
d="M295 1546l293 293h110l295 -293h-137l-213 199l-213 -199h-135zM1208 393q0 -190 -145 -300t-389 -109q-182 0 -293 24t-279 109l66 135q146 -72 250 -94t264 -23q160 0 254 66t94 175q0 108 -93 166t-241 93t-214 54q-68 19 -144 54t-119 74q-104 94 -102 240
q0 178 137 289q138 110 400 110t497 -113l-74 -139q-92 45 -220 73t-258 28t-218 -66t-88 -171q0 -106 98 -162t263 -95t248 -69q209 -76 269 -189q37 -68 37 -160z" />
    <glyph glyph-name="scircumflex" unicode="&#x15d;" horiz-adv-x="1083" 
d="M170 1237l293 293h110l295 -293h-137l-213 199l-213 -199h-135zM542 125q160 0 228 53t68 130t-75 118t-259 79q-184 39 -289 109q-106 70 -106 204t115 222q116 88 308 88t406 -86l-57 -127q-168 74 -365 74q-114 0 -184 -46t-70 -118q0 -71 73 -111t260 -77t293 -111
t107 -214t-111 -232t-338 -92t-458 102l64 127q230 -92 390 -92z" />
    <glyph glyph-name="Scedilla" unicode="&#x15e;" horiz-adv-x="1310" 
d="M682 135q160 0 254 66t94 175q0 108 -93 166t-241 93t-214 54q-68 19 -144 54t-119 74q-104 94 -102 240q0 178 137 289q138 110 400 110t497 -113l-74 -139q-92 45 -220 73t-258 28t-218 -66t-88 -171q0 -106 98 -162t263 -95t248 -69q209 -76 269 -189q37 -68 37 -160
q0 -173 -121 -281t-329 -124l-49 -103q41 1 69 -31t29 -87q-6 -61 -58 -105t-157 -45l-135 12l2 70q41 -10 101 -10q60 -1 94 25t34 63q0 67 -143 67l98 140q-165 2 -273 28t-268 105l66 135q146 -72 250 -94t264 -23z" />
    <glyph glyph-name="scedilla" unicode="&#x15f;" horiz-adv-x="1083" 
d="M542 125q160 0 228 53t68 130t-75 118t-259 79q-184 39 -289 109q-106 70 -106 204t115 222q116 88 308 88t406 -86l-57 -127q-168 74 -365 74q-114 0 -184 -46t-70 -118q0 -71 73 -111t260 -77t293 -111t107 -209q0 -135 -95 -225t-279 -102l-52 -105q41 1 70 -31
t29 -87q-6 -61 -58 -105t-157 -45l-136 12l2 70q41 -10 101 -10q60 -1 94 25t35 63q0 67 -143 67l102 146q-217 8 -420 100l64 127q230 -92 390 -92z" />
    <glyph glyph-name="Scaron" unicode="&#x160;" horiz-adv-x="1310" 
d="M586 1546l-293 293h135l213 -199l213 199h137l-295 -293h-110zM1208 393q0 -190 -145 -300t-389 -109q-182 0 -293 24t-279 109l66 135q146 -72 250 -94t264 -23q160 0 254 66t94 175q0 108 -93 166t-241 93t-214 54q-68 19 -144 54t-119 74q-104 94 -102 240
q0 178 137 289q138 110 400 110t497 -113l-74 -139q-92 45 -220 73t-258 28t-218 -66t-88 -171q0 -106 98 -162t263 -95t248 -69q209 -76 269 -189q37 -68 37 -160z" />
    <glyph glyph-name="scaron" unicode="&#x161;" horiz-adv-x="1083" 
d="M467 1237l-293 293h135l213 -199l213 199h137l-294 -293h-111zM542 125q160 0 228 53t68 130t-75 118t-259 79q-184 39 -289 109q-106 70 -106 204t115 222q116 88 308 88t406 -86l-57 -127q-168 74 -365 74q-114 0 -184 -46t-70 -118q0 -71 73 -111t260 -77t293 -111
t107 -214t-111 -232t-338 -92t-458 102l64 127q230 -92 390 -92z" />
    <glyph glyph-name="Tcedilla" unicode="&#x162;" horiz-adv-x="1351" 
d="M590 0v1294h-494v150h1168v-150h-496v-1294h-2l-55 -115q41 1 69 -31t29 -87q-6 -61 -58 -105t-157 -45l-135 12l2 70q41 -10 101 -10q60 -1 94 25t34 63q0 67 -143 67l110 156h-67z" />
    <glyph glyph-name="tcedilla" unicode="&#x163;" horiz-adv-x="823" 
d="M547 -12q-139 0 -230 87q-90 87 -90 247v645h-182v141h182v436h172v-436h375v-141h-375v-557q-1 -150 51 -212t143 -62t177 14v-130q-55 -16 -78 -20l-55 -115q41 1 70 -31t28 -87q-6 -61 -58 -105t-157 -45l-135 12l2 70q41 -10 101 -10q60 -1 94 25q35 26 34 63
q0 67 -143 67l102 144h-28z" />
    <glyph glyph-name="Tcaron" unicode="&#x164;" horiz-adv-x="1351" 
d="M627 1546l-293 293h135l213 -199l213 199h137l-295 -293h-110zM1264 1444v-150h-496v-1294h-178v1294h-494v150h1168z" />
    <glyph glyph-name="tcaron" unicode="&#x165;" horiz-adv-x="878" 
d="M877 1563q106 0 106 -142q-1 -111 -65 -191t-197 -81l-25 72q164 6 170 141q-36 6 -62 35t-26 69t30 68q30 29 69 29zM774 967h-375v-557q-1 -150 51 -212t143 -62t177 14v-130q-106 -32 -234 -32t-219 87q-90 87 -90 247v645h-182v141h182v436h172v-436h375v-141z" />
    <glyph glyph-name="Tbar" unicode="&#x166;" horiz-adv-x="1351" 
d="M356 707v112h234v475h-494v150h1168v-150h-496v-475h236v-112h-236v-707h-178v707h-234z" />
    <glyph glyph-name="tbar" unicode="&#x167;" horiz-adv-x="823" 
d="M82 647v113h145v207h-182v141h182v436h172v-436h375v-141h-375v-207h330v-113h-330v-237q-1 -150 51 -212t143 -62t177 14v-130q-106 -32 -234 -32t-219 87q-90 87 -90 247v325h-145z" />
    <glyph glyph-name="Utilde" unicode="&#x168;" horiz-adv-x="1546" 
d="M948 1720q46 0 83 38q38 38 52 108l91 -13q-12 -123 -72 -191t-134 -69q-73 0 -187 47t-154 48q-115 -1 -152 -148l-90 10q11 125 71 194t156 68q66 0 178 -46t158 -46zM1380 1444v-864q0 -256 -160 -424t-448 -168t-446 167t-158 425v864h172v-828q0 -217 112 -343
t322 -126t323 126q114 126 113 343v828h170z" />
    <glyph glyph-name="utilde" unicode="&#x169;" horiz-adv-x="1320" 
d="M826 1411q46 0 84 38t53 107l90 -12q-13 -124 -73 -192t-132 -68t-188 47q-114 47 -154 47q-115 0 -152 -147l-90 10q10 125 70 194t158 68q66 0 178 -46q110 -46 156 -46zM995 1108h170v-1108h-170v115q-150 -127 -380 -127t-354 125t-124 374v621h168v-621
q0 -168 91 -258t243 -90q213 0 356 125v844z" />
    <glyph glyph-name="Umacron" unicode="&#x16a;" horiz-adv-x="1546" 
d="M451 1602v112h647v-112h-647zM1380 1444v-864q0 -256 -160 -424t-448 -168t-446 167t-158 425v864h172v-828q0 -217 112 -343t322 -126t323 126q114 126 113 343v828h170z" />
    <glyph glyph-name="umacron" unicode="&#x16b;" horiz-adv-x="1320" 
d="M330 1292v113h647v-113h-647zM995 1108h170v-1108h-170v115q-150 -127 -380 -127t-354 125t-124 374v621h168v-621q0 -168 91 -258t243 -90q213 0 356 125v844z" />
    <glyph glyph-name="Ubreve" unicode="&#x16c;" horiz-adv-x="1546" 
d="M777 1577q-142 0 -227 70t-95 208l112 9q25 -172 212 -172t208 172l115 -9q-12 -139 -98 -209t-227 -69zM1380 1444v-864q0 -256 -160 -424t-448 -168t-446 167t-158 425v864h172v-828q0 -217 112 -343t322 -126t323 126q114 126 113 343v828h170z" />
    <glyph glyph-name="ubreve" unicode="&#x16d;" horiz-adv-x="1320" 
d="M654 1268q-142 0 -227 70t-95 208l112 8q25 -172 212 -172t208 172l115 -8q-12 -139 -97 -209q-86 -69 -228 -69zM995 1108h170v-1108h-170v115q-150 -127 -380 -127t-354 125t-124 374v621h168v-621q0 -168 91 -258t243 -90q213 0 356 125v844z" />
    <glyph glyph-name="Uring" unicode="&#x16e;" horiz-adv-x="1546" 
d="M775 1462q48 0 83 34t35 82t-35 82t-82 34t-82 -35t-35 -82t34 -81t82 -34zM578 1577q0 80 59 138q59 59 139 59t139 -58t59 -139q0 -80 -58 -138q-60 -59 -140 -59t-139 58t-59 139zM1380 1444v-864q0 -256 -160 -424t-448 -168t-446 167t-158 425v864h172v-828
q0 -217 112 -343t322 -126t323 126q114 126 113 343v828h170z" />
    <glyph glyph-name="uring" unicode="&#x16f;" horiz-adv-x="1320" 
d="M661 1362q49 0 83 34t34 82t-35 82t-81 34t-82 -36q-35 -34 -35 -81t34 -81t82 -34zM463 1477q0 80 59 138q60 58 140 58t139 -58t59 -138q0 -81 -59 -139t-139 -58t-140 58q-59 59 -59 139zM995 1108h170v-1108h-170v115q-150 -127 -380 -127t-354 125t-124 374v621h168
v-621q0 -168 91 -258t243 -90q213 0 356 125v844z" />
    <glyph glyph-name="Uhungarumlaut" unicode="&#x170;" horiz-adv-x="1546" 
d="M1061 1880l162 -53l-226 -275h-127zM741 1880l154 -51l-217 -277h-129zM1380 1444v-864q0 -256 -160 -424t-448 -168t-446 167t-158 425v864h172v-828q0 -217 112 -343t322 -126t323 126q114 126 113 343v828h170z" />
    <glyph glyph-name="uhungarumlaut" unicode="&#x171;" horiz-adv-x="1320" 
d="M932 1571l162 -53l-226 -275h-127zM612 1571l154 -51l-217 -277h-129zM995 1108h170v-1108h-170v115q-150 -127 -380 -127t-354 125t-124 374v621h168v-621q0 -168 91 -258t243 -90q213 0 356 125v844z" />
    <glyph glyph-name="Uogonek" unicode="&#x172;" horiz-adv-x="1546" 
d="M850 -352q-188 0 -188 153q0 90 102 187q-284 2 -440 169t-156 423v864h172v-828q0 -217 112 -343t322 -126t323 126q114 126 113 343v828h170v-864q0 -227 -127 -386t-356 -196q-104 -104 -104 -170q1 -40 27 -62t54 -22t82 8l7 -92q-66 -12 -113 -12z" />
    <glyph glyph-name="uogonek" unicode="&#x173;" horiz-adv-x="1320" 
d="M1059 -172q1 -40 27 -62t55 -22t82 8l6 -92q-66 -12 -113 -12q-188 0 -188 153q0 86 112 199h-45v115q-150 -127 -380 -127t-354 125t-124 374v621h168v-621q0 -168 91 -258t243 -90q213 0 356 125v844h170v-1108q-106 -106 -106 -172z" />
    <glyph glyph-name="Wcircumflex" unicode="&#x174;" horiz-adv-x="2287" 
d="M784 1546l293 293h111l295 -293h-137l-213 199l-213 -199h-136zM2216 1444l-555 -1444h-80l-444 1153l-445 -1153h-80l-557 1444h189l413 -1118l439 1118h82l436 -1118l414 1118h188z" />
    <glyph glyph-name="wcircumflex" unicode="&#x175;" horiz-adv-x="1746" 
d="M522 1219l293 292h111l295 -292h-138l-213 198l-213 -198h-135zM1542 1108h170l-424 -1108h-88l-326 852l-325 -852h-88l-428 1108h172l315 -832l307 832h93l307 -832z" />
    <glyph glyph-name="Ycircumflex" unicode="&#x176;" horiz-adv-x="1374" 
d="M340 1546l293 293h110l295 -293h-137l-213 199l-213 -199h-135zM776 0h-176v496l-565 948h201l452 -766l451 766h202l-565 -948v-496z" />
    <glyph glyph-name="ycircumflex" unicode="&#x177;" horiz-adv-x="1255" 
d="M291 1237l293 293h110l295 -293h-137l-213 199l-213 -199h-135zM129 -250q350 0 446 250h-45l-475 1108h181l391 -907h37l356 907h176l-465 -1167q-74 -177 -231 -248q-158 -72 -336 -74q-55 0 -80 2l18 129h27z" />
    <glyph glyph-name="Ydieresis" unicode="&#x178;" horiz-adv-x="1374" 
d="M512 1753q39 0 66 -27q26 -28 26 -66t-26 -65t-66 -27q-39 0 -66 28q-27 26 -26 65q0 39 26 65t66 27zM772 1661q0 39 28 65t65 27q38 0 66 -27q27 -28 27 -66t-28 -65t-65 -27t-65 28q-28 26 -28 65zM776 0h-176v496l-565 948h201l452 -766l451 766h202l-565 -948v-496z
" />
    <glyph glyph-name="Zacute" unicode="&#x179;" horiz-adv-x="1359" 
d="M1139 1868l-357 -322h-118l284 336zM1257 1444v-78l-907 -1216h918v-150h-1172v76l908 1218h-859v150h1112z" />
    <glyph glyph-name="zacute" unicode="&#x17a;" horiz-adv-x="1191" 
d="M993 1559l-356 -322h-119l285 336zM1112 139v-139h-1026v88l774 879h-739v141h999v-84l-778 -885h770z" />
    <glyph glyph-name="Zdotaccent" unicode="&#x17b;" horiz-adv-x="1359" 
d="M707 1753q39 0 65 -27q26 -28 27 -66q0 -38 -27 -65q-28 -27 -66 -27t-65 28q-27 26 -27 65t27 65t66 27zM1257 1444v-78l-907 -1216h918v-150h-1172v76l908 1218h-859v150h1112z" />
    <glyph glyph-name="zdotaccent" unicode="&#x17c;" horiz-adv-x="1191" 
d="M606 1444q39 0 66 -27q26 -27 26 -65t-26 -66q-26 -26 -66 -26t-66 26t-26 66t26 66t66 26zM1112 139v-139h-1026v88l774 879h-739v141h999v-84l-778 -885h770z" />
    <glyph glyph-name="Zcaron" unicode="&#x17d;" horiz-adv-x="1359" 
d="M647 1546l-293 293h135l213 -199l213 199h138l-295 -293h-111zM1257 1444v-78l-907 -1216h918v-150h-1172v76l908 1218h-859v150h1112z" />
    <glyph glyph-name="zcaron" unicode="&#x17e;" horiz-adv-x="1191" 
d="M559 1237l-293 293h135l213 -199l213 199h138l-295 -293h-111zM1112 139v-139h-1026v88l774 879h-739v141h999v-84l-778 -885h770z" />
    <glyph glyph-name="florin" unicode="&#x192;" horiz-adv-x="1132" 
d="M946 1395q-211 0 -258 -244l-26 -137h305v-140h-332l-86 -458q-29 -160 -137 -247t-246 -87q-48 0 -74 9t-31 9v138q35 -10 64 -11q219 0 268 273l72 374h-209v140h236l36 192q31 160 139 247q107 87 239 87t177 -45v-131q-66 31 -137 31z" />
    <glyph glyph-name="Aringacute" unicode="&#x1fa;" 
d="M755 1462q48 0 83 34q34 34 34 82t-34 82q-35 34 -82 34t-82 -35t-35 -82t34 -81t82 -34zM754 1204l-308 -698h617zM954 1577q0 -61 -36 -112q-37 -50 -93 -72l648 -1393h-185l-162 362h-743l-160 -362h-184l645 1395q-55 23 -91 71t-36 120q0 71 59 129t140 59h8
l221 260l191 -15l-312 -280q90 -59 90 -162z" />
    <glyph glyph-name="aringacute" unicode="&#x1fb;" horiz-adv-x="1370" 
d="M689 1362q48 0 83 34t35 82t-35 82t-82 34t-82 -36q-35 -34 -35 -81t34 -81t82 -34zM889 1486q1 -90 -59 -148t-140 -58t-139 58t-59 138t59 139q59 58 139 58h15l219 258l190 -14l-311 -281q86 -61 86 -150zM704 977q-200 0 -322 -123t-122 -295t123 -296t303 -124
q219 0 358 129v576q-140 133 -340 133zM1044 1108h170v-1108h-170v111q-162 -123 -396 -123t-392 168q-160 168 -160 402t160 402t394 168t394 -122v102z" />
    <glyph glyph-name="AEacute" unicode="&#x1fc;" horiz-adv-x="2064" 
d="M1354 1868l-357 -322h-118l284 336zM920 506v776h-54l-401 -776h455zM1090 150h874v-150h-1044v362h-523l-186 -362h-186l755 1444h1141v-150h-831v-520h704v-147h-704v-477z" />
    <glyph glyph-name="aeacute" unicode="&#x1fd;" horiz-adv-x="2293" 
d="M1563 1579l-357 -322h-119l285 336zM1667 989q-163 0 -273 -100t-130 -252h768q-12 158 -108 255t-257 97zM692 979q-180 0 -306 -122t-126 -299t125 -299t323 -122t343 131v576q-141 135 -359 135zM1219 0h-168v111q-165 -123 -395 -123t-395 163t-165 409t165 407
t397 161t393 -122v102h168v-190q168 210 431 210t407 -164t145 -419q0 -27 -2 -41h-938q20 -160 145 -263t283 -104q219 0 352 162l112 -90q-76 -101 -200 -161t-271 -60q-303 0 -464 209v-197z" />
    <glyph glyph-name="Oslashacute" unicode="&#x1fe;" horiz-adv-x="1740" 
d="M868 150q242 0 413 166t171 400q0 232 -166 392l-741 -858q145 -100 323 -100zM868 1292q-242 0 -412 -168t-171 -400q0 -232 172 -398l745 860q-147 106 -334 106zM106 714q0 310 224 525t538 215q248 0 445 -139l110 129h154l-174 -201q229 -219 229 -522t-223 -518
t-541 -215q-240 0 -434 133l-104 -121h-152l164 190q-236 214 -236 524zM1268 1868l-357 -322h-118l284 336z" />
    <glyph glyph-name="oslashacute" unicode="&#x1ff;" horiz-adv-x="1384" 
d="M256 562q0 -169 123 -281l551 622q-106 74 -238 74q-180 0 -308 -123t-128 -292zM692 139q180 0 307 123t127 291t-125 283l-548 -623q102 -74 239 -74zM88 558q0 236 177 404q177 167 427 166q188 0 346 -104l82 94h135l-141 -157q180 -164 180 -402q0 -239 -177 -405
t-425 -166q-188 0 -346 104l-84 -92h-133l137 156q-178 166 -178 402zM1090 1579l-357 -322h-119l285 336z" />
    <glyph glyph-name="Scommaaccent" unicode="&#x218;" horiz-adv-x="1310" 
d="M672 -127q104 0 104 -143q0 -111 -63 -191t-199 -80l-25 72q164 4 170 141q-37 4 -61 33t-25 69q0 40 29 70t70 29zM1208 393q0 -190 -145 -300t-389 -109q-182 0 -293 24t-279 109l66 135q146 -72 250 -94t264 -23q160 0 254 66t94 175q0 108 -93 166t-241 93t-214 54
q-68 19 -144 54t-119 74q-104 94 -102 240q0 178 137 289q138 110 400 110t497 -113l-74 -139q-92 45 -220 73t-258 28t-218 -66t-88 -171q0 -106 98 -162t263 -95t248 -69q209 -76 269 -189q37 -68 37 -160z" />
    <glyph glyph-name="scommaaccent" unicode="&#x219;" horiz-adv-x="1083" 
d="M559 -127q104 0 105 -143q0 -111 -64 -191t-199 -80l-24 72q164 4 170 141q-37 4 -62 33t-25 69t30 70q28 30 69 29zM542 125q160 0 228 53t68 130t-75 118t-259 79q-184 39 -289 109q-106 70 -106 204t115 222q116 88 308 88t406 -86l-57 -127q-168 74 -365 74
q-114 0 -184 -46t-70 -118q0 -71 73 -111t260 -77t293 -111t107 -214t-111 -232t-338 -92t-458 102l64 127q230 -92 390 -92z" />
    <glyph glyph-name="uni021A" unicode="&#x21a;" horiz-adv-x="1351" 
d="M674 -127q104 0 104 -143q0 -111 -63 -191t-199 -80l-24 72q164 4 170 141q-37 4 -62 33t-25 69t29 70t70 29zM1264 1444v-150h-496v-1294h-178v1294h-494v150h1168z" />
    <glyph glyph-name="uni021B" unicode="&#x21b;" horiz-adv-x="823" 
d="M494 -129q104 0 104 -143q0 -111 -63 -191t-199 -80l-25 72q164 4 170 141q-37 4 -61 33t-25 69q0 40 29 70t70 29zM774 967h-375v-557q-1 -150 51 -212t143 -62t177 14v-130q-106 -32 -234 -32t-219 87q-90 87 -90 247v645h-182v141h182v436h172v-436h375v-141z" />
    <glyph glyph-name="dotlessj" unicode="&#x237;" horiz-adv-x="489" 
d="M158 20v1088h172v-1157q0 -160 -90 -247t-230 -87q-59 0 -125 12v138q16 -2 58 -3q109 0 162 60t53 196z" />
    <glyph glyph-name="circumflex" unicode="&#x2c6;" horiz-adv-x="1024" 
d="M160 1546l293 293h110l295 -293h-137l-213 199l-213 -199h-135z" />
    <glyph glyph-name="caron" unicode="&#x2c7;" horiz-adv-x="1024" 
d="M453 1546l-293 293h135l213 -199l213 199h137l-295 -293h-110z" />
    <glyph glyph-name="breve" unicode="&#x2d8;" horiz-adv-x="1024" 
d="M513 1577q-142 0 -227 70t-96 208l113 9q25 -172 212 -172t208 172l115 -9q-12 -139 -98 -209t-227 -69z" />
    <glyph glyph-name="dotaccent" unicode="&#x2d9;" horiz-adv-x="776" 
d="M360 1753q39 0 66 -27q27 -28 27 -66t-27 -65t-66 -27q-40 0 -66 28q-26 26 -26 65t26 65t66 27z" />
    <glyph glyph-name="ring" unicode="&#x2da;" horiz-adv-x="1024" 
d="M509 1462q48 0 83 34t35 82t-35 82t-82 34t-82 -35t-35 -82t34 -81t82 -34zM311 1577q-1 80 59 138q60 59 140 59t139 -58t59 -139q0 -80 -58 -138q-60 -59 -140 -59t-140 58t-59 139z" />
    <glyph glyph-name="ogonek" unicode="&#x2db;" horiz-adv-x="1024" 
d="M545 -352q-188 0 -189 153q0 84 123 207l115 -8l-41 -45q-63 -72 -65 -119q-3 -92 100 -92q10 0 63 8l6 -92q-63 -12 -112 -12z" />
    <glyph glyph-name="tilde" unicode="&#x2dc;" horiz-adv-x="1024" 
d="M675 1720q46 0 84 38t52 108l90 -13q-13 -123 -73 -191t-132 -69q-72 0 -187 47q-114 47 -155 48q-114 -1 -151 -148l-90 10q10 125 70 194t157 68q66 0 178 -46t157 -46z" />
    <glyph glyph-name="hungarumlaut" unicode="&#x2dd;" horiz-adv-x="1024" 
d="M666 1880l161 -53l-225 -275h-127zM346 1880l154 -51l-217 -277h-129z" />
    <glyph glyph-name="uni037E" unicode="&#x37e;" horiz-adv-x="450" 
d="M223 201q47 0 76 -34t29 -97q0 -144 -70 -236t-197 -94l-24 74q66 6 117 56t53 120q-39 4 -66 35t-27 73t31 72q31 31 78 31zM328 998q0 -44 -32 -74t-76 -31q-44 0 -75 30q-31 31 -31 75t31 75t75 31t76 -31t32 -75z" />
    <glyph glyph-name="tonos" unicode="&#x384;" horiz-adv-x="845" 
d="M737 1446l-370 -324h-125l305 340z" />
    <glyph glyph-name="dieresistonos" unicode="&#x385;" horiz-adv-x="1167" 
d="M502 1206l125 396l137 -29l-160 -367h-102zM898 1245q-38 0 -66 27q-28 28 -27 66q-1 38 27 65t66 27t66 -27t28 -66t-28 -65t-66 -27zM264 1430q39 0 66 -27q26 -27 26 -66t-26 -65t-66 -27q-38 0 -66 27q-28 28 -28 66t28 65t66 27z" />
    <glyph glyph-name="Alphatonos" unicode="&#x386;" 
d="M514 1446l-371 -324h-125l306 340zM754 1204l-308 -698h617zM1288 0l-162 362h-743l-160 -362h-184l668 1444h96l670 -1444h-185z" />
    <glyph glyph-name="anoteleia" unicode="&#x387;" horiz-adv-x="415" 
d="M295 985q0 -45 -31 -76t-76 -31q-46 0 -76 32q-30 30 -30 75t31 76t75 31t76 -31q31 -31 31 -76z" />
    <glyph glyph-name="Epsilontonos" unicode="&#x388;" horiz-adv-x="1318" 
d="M344 150h875v-150h-1045v1444h1002v-150h-832v-520h705v-147h-705v-477zM55 1446l-370 -324h-125l305 340z" />
    <glyph glyph-name="Etatonos" unicode="&#x389;" 
d="M55 1446l-370 -324h-125l305 340zM1163 1444h172v-1444h-172v555h-819v-555h-170v1444h170v-739h819v739z" />
    <glyph glyph-name="Iotatonos" unicode="&#x38a;" horiz-adv-x="530" 
d="M55 1446l-370 -324h-125l305 340zM354 1444v-1444h-178v1444h178z" />
    <glyph glyph-name="Omicrontonos" unicode="&#x38c;" horiz-adv-x="1740" 
d="M868 150q242 0 413 166t171 405t-171 405t-413 166t-412 -168t-171 -404q1 -236 171 -402q170 -168 412 -168zM869 1454q315 0 539 -215t224 -518t-223 -518t-539 -215t-540 215q-223 215 -224 518q0 303 224 518t539 215zM244 1446l-371 -324h-125l305 340z" />
    <glyph glyph-name="Upsilontonos" unicode="&#x38e;" horiz-adv-x="1374" 
d="M776 0h-176v496l-565 948h201l452 -766l451 766h202l-565 -948v-496zM-27 1446l-370 -324h-125l305 340z" />
    <glyph glyph-name="Omegatonos" unicode="&#x38f;" horiz-adv-x="1712" 
d="M236 1446l-371 -324h-125l305 340zM1606 750q0 -213 -112 -371t-263 -232h352v-147h-596v160q155 39 288 184q67 72 109 178q43 106 43 228q0 266 -161 410q-162 144 -411 144t-411 -144t-161 -410q1 -158 75 -290q135 -240 365 -300v-160h-594v147h350q-153 74 -263 232
t-110 371q0 346 210 526t540 180t540 -180t210 -526z" />
    <glyph glyph-name="iotadieresistonos" unicode="&#x390;" horiz-adv-x="491" 
d="M174 1192l125 395l137 -28l-160 -367h-102zM477 1323q-1 39 27 65t66 27q38 -1 66 -27t28 -65t-28 -66t-66 -27t-66 28q-28 26 -27 65zM-63 1415q39 -1 65 -27t27 -65q0 -39 -27 -66q-28 -27 -66 -27t-66 28q-28 26 -28 65t28 65t67 27zM160 0v1108h170v-1108h-170z" />
    <glyph glyph-name="Alpha" unicode="&#x391;" 
d="M754 1204l-308 -698h617zM1288 0l-162 362h-743l-160 -362h-184l668 1444h96l670 -1444h-185z" />
    <glyph glyph-name="Beta" unicode="&#x392;" horiz-adv-x="1435" 
d="M346 150h481q164 0 250 92t86 228t-88 233t-246 98h-483v-651zM344 1294v-360h393q84 0 126 55t42 128t-61 125t-156 52h-344zM743 1444q133 0 227 -84t93 -224q0 -140 -107 -218q176 -18 282 -152t108 -316q0 -182 -116 -316t-321 -134h-735v1444h569z" />
    <glyph glyph-name="Gamma" unicode="&#x393;" horiz-adv-x="1226" 
d="M1151 1444v-150h-801v-1294h-176v1444h977z" />
    <glyph glyph-name="uni0394" unicode="&#x394;" horiz-adv-x="1505" 
d="M752 1198l-463 -1051h925zM801 1444l661 -1444h-1419l662 1444h96z" />
    <glyph glyph-name="Epsilon" unicode="&#x395;" horiz-adv-x="1318" 
d="M344 150h875v-150h-1045v1444h1002v-150h-832v-520h705v-147h-705v-477z" />
    <glyph glyph-name="Zeta" unicode="&#x396;" horiz-adv-x="1359" 
d="M1257 1444v-78l-907 -1216h918v-150h-1172v76l908 1218h-859v150h1112z" />
    <glyph glyph-name="Eta" unicode="&#x397;" 
d="M1163 1444h172v-1444h-172v555h-819v-555h-170v1444h170v-739h819v739z" />
    <glyph glyph-name="Theta" unicode="&#x398;" horiz-adv-x="1740" 
d="M444 651v144h850v-144h-850zM868 150q242 0 413 166t171 405t-171 405t-413 166t-412 -168t-171 -404q1 -236 171 -402q170 -168 412 -168zM868 1454q316 0 540 -215t224 -518t-224 -518t-540 -215t-538 215q-223 215 -224 518q0 303 224 518t538 215z" />
    <glyph glyph-name="Iota" unicode="&#x399;" horiz-adv-x="530" 
d="M354 1444v-1444h-178v1444h178z" />
    <glyph glyph-name="Kappa" unicode="&#x39a;" horiz-adv-x="1429" 
d="M344 0h-170v1444h170v-858l786 858h216l-639 -705l657 -739h-234l-538 610l-248 -268v-342z" />
    <glyph glyph-name="Lambda" unicode="&#x39b;" horiz-adv-x="1499" 
d="M797 1444l657 -1444h-184l-520 1190l-521 -1190h-184l657 1444h95z" />
    <glyph glyph-name="Mu" unicode="&#x39c;" horiz-adv-x="1785" 
d="M1612 1444v-1444h-176v1044l-543 -851l-543 851v-1044h-176v1444h92l627 -959l627 959h92z" />
    <glyph glyph-name="Nu" unicode="&#x39d;" horiz-adv-x="1583" 
d="M1235 1444h174v-1444h-92l-967 1114v-1114h-176v1444h92l969 -1114v1114z" />
    <glyph glyph-name="Xi" unicode="&#x39e;" horiz-adv-x="1402" 
d="M1188 653h-950v144h950v-144zM1286 1444v-148h-1147v148h1147zM123 147h1180v-147h-1180v147z" />
    <glyph glyph-name="Omicron" unicode="&#x39f;" horiz-adv-x="1740" 
d="M868 150q242 0 413 166t171 405t-171 405t-413 166t-412 -168t-171 -404q1 -236 171 -402q170 -168 412 -168zM869 1454q315 0 539 -215t224 -518t-223 -518t-539 -215t-540 215q-223 215 -224 518q0 303 224 518t539 215z" />
    <glyph glyph-name="Pi" unicode="&#x3a0;" horiz-adv-x="1527" 
d="M174 1444h1180v-1444h-170v1296h-838v-1296h-172v1444z" />
    <glyph glyph-name="Rho" unicode="&#x3a1;" horiz-adv-x="1339" 
d="M350 588h326q200 0 308 91t108 255t-90 262t-281 98h-371v-706zM174 1444h571q275 0 403 -138t128 -350q0 -264 -157 -389t-429 -125h-340v-442h-176v1444z" />
    <glyph glyph-name="Sigma" unicode="&#x3a3;" horiz-adv-x="1345" 
d="M1251 150v-150h-1159v78l494 643l-484 645v78h1143v-150h-889l428 -573l-432 -571h899z" />
    <glyph glyph-name="Tau" unicode="&#x3a4;" horiz-adv-x="1351" 
d="M1264 1444v-150h-496v-1294h-178v1294h-494v150h1168z" />
    <glyph glyph-name="Upsilon" unicode="&#x3a5;" horiz-adv-x="1374" 
d="M776 0h-176v496l-565 948h201l452 -766l451 766h202l-565 -948v-496z" />
    <glyph glyph-name="Phi" unicode="&#x3a6;" horiz-adv-x="1843" 
d="M766 1200q-206 0 -348 -136t-142 -334t144 -331t346 -133h70v934h-70zM1008 1200v-934h69q201 0 346 133t145 331t-142 334q-144 136 -349 136h-69zM1739 743v-18q-2 -258 -201 -435t-461 -177h-69v-113h-172v113h-68q-260 4 -462 177t-202 435v18q2 251 199 431t463 180
h70v90h172v-90h69q266 0 464 -178t198 -433z" />
    <glyph glyph-name="Chi" unicode="&#x3a7;" horiz-adv-x="1505" 
d="M758 854l479 590h201l-568 -719l574 -725h-203l-483 596l-484 -596h-204l573 725l-565 719h201z" />
    <glyph glyph-name="Psi" unicode="&#x3a8;" horiz-adv-x="1771" 
d="M1468 1444h170v-529q0 -249 -182 -423t-426 -175h-57v-317h-172v317h-60q-244 -1 -426 175t-182 423v529h172v-529q0 -186 127 -315t309 -129h60v973h172v-973h57q184 0 311 129t127 315v529z" />
    <glyph glyph-name="uni03A9" unicode="&#x3a9;" horiz-adv-x="1712" 
d="M1606 750q0 -213 -112 -371t-263 -232h352v-147h-596v160q155 39 288 184q67 72 109 178q43 106 43 228q0 266 -161 410q-162 144 -411 144t-411 -144t-161 -410q1 -158 75 -290q135 -240 365 -300v-160h-594v147h350q-153 74 -263 232t-110 371q0 346 210 526t540 180
t540 -180t210 -526z" />
    <glyph glyph-name="Iotadieresis" unicode="&#x3aa;" horiz-adv-x="530" 
d="M90 1780q39 0 66 -27q26 -27 26 -65t-26 -66q-26 -27 -66 -27t-66 27t-26 66q0 40 26 66t66 26zM350 1688q0 40 28 66t65 26q38 0 66 -27t28 -65t-28 -66q-28 -27 -66 -27q-37 0 -65 27t-28 66zM354 1444v-1444h-178v1444h178z" />
    <glyph glyph-name="Upsilondieresis" unicode="&#x3ab;" horiz-adv-x="1374" 
d="M512 1780q39 0 66 -27q26 -27 26 -65t-26 -66q-26 -27 -66 -27q-39 0 -66 27t-26 66q0 40 26 66t66 26zM772 1688q0 40 28 66t65 26q38 0 66 -27q27 -27 27 -65t-28 -66q-28 -27 -65 -27t-65 27t-28 66zM776 0h-176v496l-565 948h201l452 -766l451 766h202l-565 -948
v-496z" />
    <glyph glyph-name="alphatonos" unicode="&#x3ac;" horiz-adv-x="1374" 
d="M1096 1552l-371 -323h-125l305 340zM692 977q-180 0 -304 -121t-124 -299t123 -298t324 -120t340 129v576q-139 133 -359 133zM1051 1108h168v-1108h-168v111q-167 -123 -395 -123t-394 164t-166 408t166 406t396 162t393 -122v102z" />
    <glyph glyph-name="epsilontonos" unicode="&#x3ad;" horiz-adv-x="1196" 
d="M598 -12q-506 0 -506 321q0 88 56 159t159 101q-80 35 -127 104t-47 136q0 176 127 248q127 71 346 71t481 -131l-65 -110q-227 106 -383 106q-340 0 -340 -200q0 -57 57 -113t162 -57h281v-123h-326q-101 0 -157 -54t-56 -120q0 -201 342 -201q123 1 214 29t224 96
l70 -117q-147 -77 -258 -111t-254 -34zM1075 1552l-370 -323h-125l305 340z" />
    <glyph glyph-name="etatonos" unicode="&#x3ae;" horiz-adv-x="1304" 
d="M1096 1552l-371 -323h-125l305 340zM696 1128q227 0 352 -124q124 -125 123 -375v-629h-170v629q0 168 -91 258t-240 90q-203 0 -344 -125v-852h-170v1108h170v-107q143 127 370 127z" />
    <glyph glyph-name="iotatonos" unicode="&#x3af;" horiz-adv-x="491" 
d="M670 1552l-371 -323h-125l305 340zM160 0v1108h170v-1108h-170z" />
    <glyph glyph-name="upsilondieresistonos" unicode="&#x3b0;" horiz-adv-x="1290" 
d="M571 1206l125 396l138 -29l-160 -367h-103zM968 1430q38 0 66 -27t27 -66q0 -39 -28 -65q-27 -26 -65 -27q-38 0 -66 27q-28 28 -28 66t28 65t66 27zM334 1430q40 0 66 -27t26 -66t-27 -65t-65 -27q-38 0 -67 27q-27 28 -27 66t27 65q28 27 67 27zM1157 1108v-659
q-1 -209 -151 -335t-357 -126t-361 124t-155 337v659h170v-631q0 -160 96 -251t248 -91t246 93t94 249v631h170z" />
    <glyph glyph-name="alpha" unicode="&#x3b1;" horiz-adv-x="1374" 
d="M692 977q-180 0 -304 -121t-124 -299t123 -298t324 -120t340 129v576q-139 133 -359 133zM1051 1108h168v-1108h-168v111q-167 -123 -395 -123t-394 164t-166 408t166 406t396 162t393 -122v102z" />
    <glyph glyph-name="beta" unicode="&#x3b2;" horiz-adv-x="1323" 
d="M700 135q158 0 262 86q103 86 103 246q0 123 -92 217t-256 94h-391v-495q143 -148 374 -148zM932 1162q0 116 -85 182t-222 67q-137 0 -218 -97t-81 -259v-144h376q98 0 164 67q66 68 66 184zM1233 467q0 -227 -144 -353t-373 -126t-390 129v-467h-170v1378
q0 240 134 383t339 143t335 -106t130 -301t-166 -287q145 -44 225 -154t80 -239z" />
    <glyph glyph-name="gamma" unicode="&#x3b3;" horiz-adv-x="1249" 
d="M711 -350h-172v352l-494 1106h176l404 -879l401 879h176l-491 -1108v-350z" />
    <glyph glyph-name="delta" unicode="&#x3b4;" horiz-adv-x="1382" 
d="M254 524q0 -160 128 -276t307 -115q179 0 307 116t128 267q0 152 -128 258t-310 106t-307 -98t-125 -258zM1139 1405h-621q18 -15 252 -203t260 -213q262 -233 262 -465t-186 -384t-426 -152t-417 158t-177 367q0 210 161 358t382 149q129 0 211 -43l-627 489v78h926
v-139z" />
    <glyph glyph-name="epsilon" unicode="&#x3b5;" horiz-adv-x="1196" 
d="M598 -12q-506 0 -506 321q0 88 56 159t159 101q-80 35 -127 104t-47 136q0 176 127 248q127 71 346 71t481 -131l-65 -110q-227 106 -383 106q-340 0 -340 -200q0 -57 57 -113t162 -57h281v-123h-326q-101 0 -157 -54t-56 -120q0 -201 342 -201q123 1 214 29t224 96
l70 -117q-147 -77 -258 -111t-254 -34z" />
    <glyph glyph-name="zeta" unicode="&#x3b6;" horiz-adv-x="1073" 
d="M1061 1544v-98q-801 -643 -801 -979q0 -78 79 -124t191 -70q112 -25 223 -51q113 -26 191 -87t78 -149t-52 -158t-150 -124t-175 -77l-57 99q260 115 260 235q0 49 -56 82t-193 57t-315 89q-85 32 -142 101q-56 69 -56 167q0 205 216 462t513 486h-700v139h946z" />
    <glyph glyph-name="eta" unicode="&#x3b7;" horiz-adv-x="1304" 
d="M696 1128q227 0 352 -124q124 -125 123 -375v-629h-170v629q0 168 -91 258t-240 90q-203 0 -344 -125v-852h-170v1108h170v-107q143 127 370 127z" />
    <glyph glyph-name="theta" unicode="&#x3b8;" horiz-adv-x="1339" 
d="M670 1413q-172 0 -289 -167t-121 -415q817 2 823 3q-5 252 -123 416t-290 163zM673 129q173 0 290 159t120 404q-821 0 -823 -2q2 -250 121 -406t292 -155zM671 1554q245 0 409 -217t165 -574q0 -357 -164 -566q-163 -209 -409 -209t-411 209t-165 566t165 574t410 217z
" />
    <glyph glyph-name="iota" unicode="&#x3b9;" horiz-adv-x="491" 
d="M160 0v1108h170v-1108h-170z" />
    <glyph glyph-name="kappa" unicode="&#x3ba;" horiz-adv-x="1247" 
d="M326 0h-170v1108h170v-653l673 653h209l-428 -426l430 -682h-192l-352 553l-340 -322v-231z" />
    <glyph glyph-name="lambda" unicode="&#x3bb;" horiz-adv-x="1249" 
d="M219 1554q180 0 326 -88t209 -256l458 -1210h-182l-348 967l-53 -45l-383 -922h-185l484 1094l69 57q-45 127 -157 198q-113 71 -242 70q-20 0 -61 -4v135q37 4 65 4z" />
    <glyph glyph-name="uni03BC" unicode="&#x3bc;" horiz-adv-x="1341" 
d="M1016 1108h168v-1108h-168v111q-144 -123 -368 -123t-322 174v-512h-170v1458h170v-621q0 -168 91 -258t240 -90q215 0 359 125v844z" />
    <glyph glyph-name="nu" unicode="&#x3bd;" horiz-adv-x="1253" 
d="M1026 1108h182l-538 -1108h-84l-541 1108h182l402 -832z" />
    <glyph glyph-name="xi" unicode="&#x3be;" horiz-adv-x="1067" 
d="M1014 1544v-114q-309 -8 -480 -100q-172 -92 -172 -226q0 -133 165 -208t391 -75v-121q-291 -2 -471 -74q-179 -73 -179 -188q0 -90 77 -136t185 -63t218 -35t186 -76t76 -163q0 -181 -274 -306q-46 -22 -66 -26l-78 95q94 39 167 97q73 59 73 119t-77 92t-187 50
t-218 48t-186 107q-76 77 -76 199t111 211q111 88 301 129q-141 43 -226 125q-84 82 -84 199q0 207 256 301h-364v139h932z" />
    <glyph glyph-name="omicron" unicode="&#x3bf;" horiz-adv-x="1388" 
d="M694 139q180 0 307 123t127 296t-127 296t-307 123t-308 -123t-128 -296t128 -296t308 -123zM694 1128q250 0 426 -168t176 -403q0 -237 -177 -403t-426 -166t-426 167t-177 403t177 404q177 166 427 166z" />
    <glyph glyph-name="pi" unicode="&#x3c0;" horiz-adv-x="1349" 
d="M156 1108h1038v-1108h-170v963h-698v-963h-170v1108z" />
    <glyph glyph-name="rho" unicode="&#x3c1;" horiz-adv-x="1343" 
d="M655 139q180 0 304 120t124 298t-121 299q-122 121 -303 121q-139 0 -251 -94t-111 -242v-373q139 -129 358 -129zM676 1128q232 0 404 -162t171 -408q0 -246 -166 -408t-396 -162t-392 116v-454h-170v977q0 209 158 355q159 146 391 146z" />
    <glyph glyph-name="uni03C2" unicode="&#x3c2;" horiz-adv-x="1159" 
d="M780 -212q47 40 47 84t-48 72q-13 7 -22 12t-27 12q-18 8 -28 12t-30 11q-338 118 -460 258t-122 320q0 231 176 395t414 164q129 0 242 -56t186 -157l-113 -100q-53 76 -137 119t-178 43q-170 0 -296 -120t-126 -288q0 -122 61 -198q33 -41 62 -70t97 -65t162 -75
q93 -39 138 -59q87 -38 142 -74q77 -50 77 -145q0 -94 -89 -169t-201 -107q-58 87 -62 92q88 49 135 89z" />
    <glyph glyph-name="sigma" unicode="&#x3c3;" horiz-adv-x="1394" 
d="M694 139q180 0 307 123t127 293t-127 289t-308 119t-308 -119t-127 -289t128 -293t308 -123zM1327 1108v-141h-295q115 -55 188 -164t72 -258q0 -227 -175 -392t-424 -165t-426 167t-177 400t176 393t428 160h633z" />
    <glyph glyph-name="tau" unicode="&#x3c4;" horiz-adv-x="1073" 
d="M1018 1108v-141h-393v-967h-170v967h-402v141h965z" />
    <glyph glyph-name="upsilon" unicode="&#x3c5;" horiz-adv-x="1290" 
d="M1157 1108v-659q-1 -209 -151 -335t-357 -126t-361 124t-155 337v659h170v-631q0 -160 96 -251t248 -91t246 93t94 249v631h170z" />
    <glyph glyph-name="phi" unicode="&#x3c6;" horiz-adv-x="1691" 
d="M926 991v-864h12q215 0 355 121t141 303q0 215 -140 328t-360 112h-8zM1602 547q0 -244 -201 -402t-475 -157v-338h-160v338q-274 0 -475 158t-201 401q0 180 111 325t293 220l55 -127q-135 -51 -213 -164t-78 -250q0 -182 140 -303t356 -121h12v995q199 29 392 -22
q277 -74 385 -284q59 -115 59 -269z" />
    <glyph glyph-name="chi" unicode="&#x3c7;" horiz-adv-x="1193" 
d="M600 422l-356 -422h-189l447 559l-445 549h197l346 -422l346 422h197l-445 -549l449 -559h-193z" />
    <glyph glyph-name="psi" unicode="&#x3c8;" horiz-adv-x="1660" 
d="M1358 1108h170v-659q0 -223 -157 -343t-458 -118v-338h-165v338q-303 0 -459 120t-156 341v659h170v-631q0 -168 112 -254t316 -88h17v1118h165v-1118h17q428 0 428 342v631z" />
    <glyph glyph-name="omega" unicode="&#x3c9;" horiz-adv-x="1814" 
d="M1722 550q0 -256 -128 -409q-128 -154 -353 -153q-119 0 -207 66t-127 169q-41 -102 -129 -169t-205 -66q-227 0 -355 152t-128 410t143 410t363 164l4 -151q-150 -20 -246 -132q-96 -113 -96 -297t84 -294t240 -111q106 0 175 91t68 206v250h162v-250q0 -115 68 -206
t176 -91q155 0 239 112t84 295t-96 295t-248 132l7 151q219 -12 362 -165t143 -409z" />
    <glyph glyph-name="iotadieresis" unicode="&#x3ca;" horiz-adv-x="491" 
d="M72 1444q40 0 66 -27t26 -65t-27 -66q-27 -26 -65 -26t-66 26q-27 26 -26 66q0 40 26 66t66 26zM425 1444q37 0 65 -27t28 -65t-28 -66q-28 -26 -66 -26t-65 26q-28 26 -27 66q0 40 28 66t65 26zM160 0v1108h170v-1108h-170z" />
    <glyph glyph-name="upsilondieresis" unicode="&#x3cb;" horiz-adv-x="1290" 
d="M461 1444q39 0 65 -27t27 -65q0 -38 -27 -66q-28 -26 -66 -26t-65 26t-26 66t27 66t65 26zM721 1352q-1 40 27 66t66 26t66 -27t28 -65t-28 -66q-28 -26 -66 -26t-66 26t-27 66zM1157 1108v-659q-1 -209 -151 -335t-357 -126t-361 124t-155 337v659h170v-631
q0 -160 96 -251t248 -91t246 93t94 249v631h170z" />
    <glyph glyph-name="omicrontonos" unicode="&#x3cc;" horiz-adv-x="1388" 
d="M694 139q180 0 307 123t127 296t-127 296t-307 123t-308 -123t-128 -296t128 -296t308 -123zM694 1128q250 0 426 -168t176 -403q0 -237 -177 -403t-426 -166t-426 167t-177 403t177 404q177 166 427 166zM1108 1552l-371 -323h-125l306 340z" />
    <glyph glyph-name="upsilontonos" unicode="&#x3cd;" horiz-adv-x="1290" 
d="M1157 1108v-659q-1 -209 -151 -335t-357 -126t-361 124t-155 337v659h170v-631q0 -160 96 -251t248 -91t246 93t94 249v631h170zM1063 1552l-371 -323h-125l305 340z" />
    <glyph glyph-name="omegatonos" unicode="&#x3ce;" horiz-adv-x="1814" 
d="M1329 1552l-371 -323h-124l305 340zM1722 550q0 -256 -128 -409q-128 -154 -353 -153q-119 0 -207 66t-127 169q-41 -102 -129 -169t-205 -66q-227 0 -355 152t-128 410t143 410t363 164l4 -151q-150 -20 -246 -132q-96 -113 -96 -297t84 -294t240 -111q106 0 175 91
t68 206v250h162v-250q0 -115 68 -206t176 -91q155 0 239 112t84 295t-96 295t-248 132l7 151q219 -12 362 -165t143 -409z" />
    <glyph glyph-name="Wgrave" unicode="&#x1e80;" horiz-adv-x="2287" 
d="M1075 1546l-356 322l192 14l285 -336h-121zM2216 1444l-555 -1444h-80l-444 1153l-445 -1153h-80l-557 1444h189l413 -1118l439 1118h82l436 -1118l414 1118h188z" />
    <glyph glyph-name="wgrave" unicode="&#x1e81;" horiz-adv-x="1746" 
d="M809 1219l-356 321l192 14l285 -335h-121zM1542 1108h170l-424 -1108h-88l-326 852l-325 -852h-88l-428 1108h172l315 -832l307 832h93l307 -832z" />
    <glyph glyph-name="Wacute" unicode="&#x1e82;" horiz-adv-x="2287" 
d="M1552 1868l-356 -322h-119l285 336zM2216 1444l-555 -1444h-80l-444 1153l-445 -1153h-80l-557 1444h189l413 -1118l439 1118h82l436 -1118l414 1118h188z" />
    <glyph glyph-name="wacute" unicode="&#x1e83;" horiz-adv-x="1746" 
d="M1296 1540l-356 -321h-119l285 335zM1542 1108h170l-424 -1108h-88l-326 852l-325 -852h-88l-428 1108h172l315 -832l307 832h93l307 -832z" />
    <glyph glyph-name="Wdieresis" unicode="&#x1e84;" horiz-adv-x="2287" 
d="M956 1753q39 0 66 -27q27 -28 27 -66t-27 -65t-66 -27q-40 0 -66 28q-26 26 -26 65t26 65t66 27zM1310 1753q38 0 66 -27q28 -28 27 -66q0 -38 -28 -65q-27 -27 -65 -27t-66 28q-28 26 -27 65q-1 39 27 65t66 27zM2216 1444l-555 -1444h-80l-444 1153l-445 -1153h-80
l-557 1444h189l413 -1118l439 1118h82l436 -1118l414 1118h188z" />
    <glyph glyph-name="wdieresis" unicode="&#x1e85;" horiz-adv-x="1746" 
d="M696 1425q39 -1 66 -27q26 -26 26 -65t-26 -65t-66 -27q-40 0 -66 27q-26 28 -26 66t26 64t66 27zM956 1334q0 38 28 64t66 27q38 -1 66 -27t27 -65q0 -39 -28 -65q-27 -26 -65 -27q-38 0 -66 27q-28 28 -28 66zM1542 1108h170l-424 -1108h-88l-326 852l-325 -852h-88
l-428 1108h172l315 -832l307 832h93l307 -832z" />
    <glyph glyph-name="Ygrave" unicode="&#x1ef2;" horiz-adv-x="1374" 
d="M614 1546l-356 322l193 14l284 -336h-121zM776 0h-176v496l-565 948h201l452 -766l451 766h202l-565 -948v-496z" />
    <glyph glyph-name="ygrave" unicode="&#x1ef3;" horiz-adv-x="1255" 
d="M584 1237l-357 322l193 14l285 -336h-121zM129 -250q350 0 446 250h-45l-475 1108h181l391 -907h37l356 907h176l-465 -1167q-74 -177 -231 -248q-158 -72 -336 -74q-55 0 -80 2l18 129h27z" />
    <glyph glyph-name="endash" unicode="&#x2013;" horiz-adv-x="1081" 
d="M985 752v-144h-891v144h891z" />
    <glyph glyph-name="emdash" unicode="&#x2014;" horiz-adv-x="1839" 
d="M1741 752v-144h-1647v144h1647z" />
    <glyph glyph-name="quoteleft" unicode="&#x2018;" horiz-adv-x="434" 
d="M211 1030q-104 0 -105 144q0 110 64 190t199 80l24 -72q-164 -4 -170 -141q37 -4 62 -33t25 -69q0 -39 -30 -69q-28 -30 -69 -30z" />
    <glyph glyph-name="quoteright" unicode="&#x2019;" horiz-adv-x="411" 
d="M231 1444q106 0 107 -141q0 -111 -65 -192t-197 -81l-25 72q164 6 170 141q-37 6 -63 35q-26 28 -25 68q-1 40 29 69t69 29z" />
    <glyph glyph-name="quotesinglbase" unicode="&#x201a;" horiz-adv-x="442" 
d="M209 201q106 0 106 -144q-1 -109 -65 -189t-197 -81l-26 72q166 4 172 141q-37 4 -63 33t-26 69t30 69q30 30 69 30z" />
    <glyph glyph-name="quotedblleft" unicode="&#x201c;" horiz-adv-x="788" 
d="M199 1028q-106 0 -107 141q0 111 65 192t199 81l25 -72q-166 -6 -172 -141q37 -6 63 -35t25 -69q1 -41 -29 -69t-69 -28zM561 1028q-106 0 -106 141q0 111 64 192q65 81 200 81l24 -72q-164 -6 -172 -141q39 -6 64 -34t25 -69q0 -42 -30 -70t-69 -28z" />
    <glyph glyph-name="quotedblright" unicode="&#x201d;" horiz-adv-x="778" 
d="M598 1444q106 0 107 -141q0 -111 -65 -192t-200 -81l-24 72q166 6 172 141q-37 6 -63 35q-25 28 -25 68t29 69q30 29 69 29zM236 1444q106 0 106 -141q0 -111 -64 -192t-200 -81l-25 72q164 6 172 141q-39 6 -63 34q-24 29 -25 69q0 40 30 69t69 29z" />
    <glyph glyph-name="quotedblbase" unicode="&#x201e;" horiz-adv-x="772" 
d="M578 201q104 0 104 -144q0 -111 -64 -191t-198 -79l-25 72q164 4 170 141q-37 4 -61 33t-25 69q0 40 29 69q29 30 70 30zM215 201q104 0 104 -144q0 -111 -63 -191t-199 -79l-24 72q164 4 170 141q-37 4 -62 33t-25 69t29 69q29 30 70 30z" />
    <glyph glyph-name="dagger" unicode="&#x2020;" horiz-adv-x="839" 
d="M465 1104v-252l8 -313h-100l10 313l-2 252h-55l-228 -10v106l228 -10h53l-6 231h100l-6 -231h43l233 10v-106l-231 10h-47z" />
    <glyph glyph-name="daggerdbl" unicode="&#x2021;" horiz-adv-x="880" 
d="M401 315v207l-4 197l4 182v207h-55l-227 -10v106l225 -10h55l-6 229h101l-9 -229h43l236 10v-106l-234 10h-45v-207l4 -182l-6 -197l2 -207h43l236 11v-105l-236 8h-43l9 -229h-101l6 229h-47l-233 -10v107l231 -11h51z" />
    <glyph glyph-name="bullet" unicode="&#x2022;" horiz-adv-x="839" 
d="M649 720q-1 -95 -67 -163t-162 -68t-164 68t-68 164t68 163q68 66 164 66t163 -67q66 -68 66 -163z" />
    <glyph glyph-name="ellipsis" unicode="&#x2026;" horiz-adv-x="1234" 
d="M1040 201q45 0 76 -31t31 -76t-31 -76q-31 -30 -76 -30q-46 0 -76 30t-30 76q0 45 30 76t76 31zM502 94q0 45 32 76t75 31q44 0 75 -31t31 -76t-31 -76q-31 -30 -75 -30q-43 0 -75 30t-32 76zM78 94q0 45 32 76t75 31q44 0 75 -31t31 -76t-31 -76q-31 -30 -75 -30
q-43 0 -75 30t-32 76z" />
    <glyph glyph-name="perthousand" unicode="&#x2030;" horiz-adv-x="2623" 
d="M1327 1436h131l-989 -1436h-131zM2176 104q103 0 173 78t70 205t-70 205t-173 78t-173 -78t-70 -205t70 -205t173 -78zM1815 386q0 182 103 290t258 108t258 -106t103 -290t-103 -293q-103 -107 -258 -107t-258 108t-103 290zM1367 104q103 0 173 78t70 205t-70 205
t-173 78t-173 -78t-70 -205t70 -205t173 -78zM1006 387q0 185 103 291t258 106t258 -108t103 -290q0 -183 -102 -291q-104 -107 -259 -107t-258 108t-103 291zM186 1058q0 -128 70 -206t173 -78t173 78t70 206t-70 205t-173 77t-173 -78q-70 -76 -70 -204zM791 1058
q1 -183 -103 -292t-259 -109t-258 109t-103 292t103 291q103 107 258 107t259 -108t103 -290z" />
    <glyph glyph-name="guilsinglleft" unicode="&#x2039;" horiz-adv-x="636" 
d="M422 18l-356 527l356 526l110 -80l-311 -446l311 -445z" />
    <glyph glyph-name="guilsinglright" unicode="&#x203a;" horiz-adv-x="606" 
d="M178 1071l357 -526l-357 -527l-110 82l311 445l-311 446z" />
    <glyph glyph-name="fraction" unicode="&#x2044;" horiz-adv-x="937" 
d="M920 1436h133l-990 -1436h-133z" />
    <glyph glyph-name="Euro" unicode="&#x20ac;" horiz-adv-x="1441" 
d="M870 150q242 0 404 208l123 -100q-93 -127 -231 -199t-296 -71q-233 0 -412 152t-233 395h-149v92h135q-6 45 -6 90t6 92h-135v94h149q51 243 231 395t414 152q158 0 296 -72t231 -198l-123 -103q-160 211 -404 211q-162 0 -288 -108t-170 -277h536v-94h-561
q-6 -47 -6 -92t6 -90h561v-92h-536q46 -169 172 -277t286 -108z" />
    <glyph glyph-name="uni2117" unicode="&#x2117;" horiz-adv-x="1771" 
 />
    <glyph glyph-name="trademark" unicode="&#x2122;" horiz-adv-x="1423" 
d="M1360 1432v-639h-90v434l-246 -346l-246 346v-434h-90v639h43l293 -410l295 410h41zM588 1432v-80h-230v-559h-94v559h-231v80h555z" />
    <glyph glyph-name="Omega" unicode="&#x2126;" horiz-adv-x="1712" 
d="M1606 750q0 -213 -112 -371t-263 -232h352v-147h-596v160q155 39 288 184q67 72 109 178q43 106 43 228q0 266 -161 410q-162 144 -411 144t-411 -144t-161 -410q1 -158 75 -290q135 -240 365 -300v-160h-594v147h350q-153 74 -263 232t-110 371q0 346 210 526t540 180
t540 -180t210 -526z" />
    <glyph glyph-name="partialdiff" unicode="&#x2202;" horiz-adv-x="1355" 
d="M644 1311q-198 0 -380 -64l-74 133q174 76 472 76q262 0 429 -215t166 -629q1 -270 -163 -447t-407 -177t-407 132t-163 353q0 221 162 340t395 119q137 0 254 -56t168 -143q0 272 -127 425t-325 153zM1073 490q1 130 -117 218t-282 87q-164 0 -279 -87
q-115 -86 -115 -234t110 -245q110 -96 302 -96q147 0 264 113q117 114 117 244z" />
    <glyph glyph-name="Delta" unicode="&#x2206;" horiz-adv-x="1505" 
d="M752 1198l-463 -1051h925zM801 1444l661 -1444h-1419l662 1444h96z" />
    <glyph glyph-name="product" unicode="&#x220f;" horiz-adv-x="1515" 
d="M174 -330v1774h1180v-1774h-170v1626h-840v-1626h-170z" />
    <glyph glyph-name="summation" unicode="&#x2211;" horiz-adv-x="1368" 
d="M133 1444h1141v-150h-889q129 -203 475 -735l-475 -739h889v-150h-1141v78l526 811l-526 807v78z" />
    <glyph glyph-name="minus" unicode="&#x2212;" horiz-adv-x="1081" 
d="M971 752v-144h-865v144h865z" />
    <glyph glyph-name="radical" unicode="&#x221a;" horiz-adv-x="1658" 
d="M74 1141v141h403l461 -1020l756 1612h166l-885 -1874h-92l-531 1141h-278z" />
    <glyph glyph-name="infinity" unicode="&#x221e;" horiz-adv-x="1765" 
d="M496 985q-100 0 -168 -60t-68 -176q0 -115 68 -175t168 -60t169 58t142 178q-74 119 -142 177q-69 58 -169 58zM1254 514q100 0 168 59t67 175q0 116 -68 177q-68 60 -168 60t-168 -56t-143 -179q76 -123 143 -180q69 -56 169 -56zM1630 748q0 -170 -105 -268t-265 -97
q-117 1 -205 65t-181 201q-88 -135 -179 -201t-203 -65q-162 0 -267 98q-104 97 -104 269t105 268t266 96q114 0 204 -66t178 -200q90 138 180 202t206 64q162 0 266 -98t104 -268z" />
    <glyph glyph-name="integral" unicode="&#x222b;" horiz-adv-x="776" 
d="M707 1399q-105 0 -135 -43t-54 -199l-184 -1157q-29 -174 -65 -253t-86 -101q-49 -22 -115 -21q-66 0 -123 4q16 133 16 135h19q106 0 135 43t53 199l186 1155q37 233 91 304t182 71l143 -12l-14 -127q-35 2 -49 2z" />
    <glyph glyph-name="approxequal" unicode="&#x2248;" horiz-adv-x="1282" 
d="M905 1022q119 0 238 106l47 -131q-133 -121 -277 -120q-79 0 -231 56t-240 56q-143 0 -272 -90l-47 125q145 109 311 109q98 1 244 -55t227 -56zM905 430q117 0 238 109l47 -131q-131 -123 -277 -123q-79 0 -231 56t-240 56q-145 0 -272 -88l-47 123q147 111 311 111
q98 -1 244 -57t227 -56z" />
    <glyph glyph-name="notequal" unicode="&#x2260;" horiz-adv-x="1308" 
d="M162 342v143h301l231 449h-532v143h606l133 258h131l-135 -258h246v-143h-320l-229 -449h549v-143h-623l-133 -260h-131l133 260h-227z" />
    <glyph glyph-name="lessequal" unicode="&#x2264;" horiz-adv-x="1286" 
d="M1139 1397v-160l-764 -369l764 -366v-160l-994 485v82zM1139 141v-141h-994v141h994z" />
    <glyph glyph-name="greaterequal" unicode="&#x2265;" horiz-adv-x="1284" 
d="M145 342v160l764 366l-764 369v160l994 -488v-82zM1139 141v-141h-994v141h994z" />
    <glyph glyph-name="lozenge" unicode="&#x25ca;" horiz-adv-x="983" 
d="M227 772l256 -522l258 522l-258 522zM451 1544h67l383 -772l-383 -772h-67l-381 772z" />
    <glyph glyph-name="NULL" horiz-adv-x="0" 
 />
    <glyph glyph-name="CR" horiz-adv-x="567" 
 />
    <glyph glyph-name="intelligentdesign" horiz-adv-x="1980" 
d="M463 -310q0 7 7 7t7 -7t-7 -7t-7 7zM1702 -310q0 7 7 7t7 -7t-7 -7t-7 7zM905 -231h8v-86h-8v86zM1493 -231h8v-86h-8v86zM500 -231h8v-86h-8v86zM838 -231h8v-76h41v-10h-49v86zM770 -231h8v-76h41v-10h-49v86zM1210 -240h-26v9h61v-9h-26v-77h-9v77zM643 -240h-27v9h62
v-9h-27v-77h-8v77zM1475 -293q0 -25 -25 -25t-33 19l6 4q5 -14 23 -14t18 14q0 13 -20 21t-21 22q0 23 23 23q16 0 22 -15l-6 -4q-6 10 -18 10t-12 -12t20 -18q23 -10 23 -25zM1831 -291h16q2 2 11 5t10 22q0 25 -25 24h-12v-51zM698 -231h54v-9h-45v-36h41v-9h-41v-22h45
v-10h-54v86zM1028 -231h53v-9h-45v-36h41v-9h-41v-22h45v-10h-53v86zM1348 -231h53v-9h-45v-36h41v-9h-41v-22h47v-10h-55v86zM981 -291v8h29v-22q-6 -12 -30 -12q-48 0 -48 43q0 18 13 31q31 31 63 -1l-7 -6q-10 12 -25 12q-16 0 -26 -11t-10 -25t11 -24t25 -11q14 0 25 8
v10h-20zM1567 -291v8h30v-22q-6 -12 -29 -12q-48 0 -48 43q0 18 12 31t30 13t33 -14l-6 -6q-10 12 -25 12q-16 0 -26 -11t-10 -25t10 -24t26 -11q16 0 23 8v10h-20zM590 -231h8v-86h-8l-51 73v-73h-9v86h9l45 -64l6 -8v72zM1772 -291v8h30v-22q-12 -12 -32 -12t-34 12
q-14 13 -14 31t14 31q32 31 64 -1l-8 -6q-10 12 -25 12q-35 0 -34 -36q0 -14 10 -24t25 -11q15 0 24 8v10h-20zM1157 -231h10v-86h-10l-45 67q-4 4 -4 6v-73h-8v86h8l45 -64l4 -8v72zM1673 -231h10v-86h-10l-45 67q-4 4 -4 6v-73h-8v86h8l45 -64q3 -2 4 -4v68zM301 -297
l21 68h10l-29 -86h-8l-16 59l-3 10q-2 -4 -2 -10l-16 -59h-10l-27 86h8l21 -68l2 -8q2 4 4 10l16 66h9l16 -66l2 -10q2 0 2 8zM428 -297l21 68h10l-29 -86h-8l-16 59l-3 10q-2 -4 -4 -10l-14 -59h-10l-27 86h8l21 -68l2 -8q2 4 2 10l16 66h11l16 -66l2 -10q2 4 2 8z
M178 -297l21 68h10l-29 -86h-8l-16 59l-2 10q-2 -4 -4 -10l-15 -59h-10l-27 86h8l21 -68l2 -8q2 4 2 10l16 66h11l16 -66l2 -10q2 4 2 8zM1288 -307q33 0 33 34t-33 33h-16v-67h16zM1331 184h-26v-65h22q23 0 33 18l2 15q0 32 -31 32zM1843 -299h-12v-18h-10v86h22
q13 1 23 -9t10 -26t-7 -20t-11 -9l20 -22h-12l-19 20q-2 -2 -4 -2zM1149 88q16 0 28 13q11 13 11 33t-12 32q-12 14 -29 14h-12v-92h14zM1288 -317h-24v86h24q11 0 17 -2q27 -13 27 -37t-19 -39q-16 -8 -25 -8zM585 86q19 0 32 14t13 34t-12 34q-14 14 -33 14t-33 -13
t-13 -33q0 -20 13 -36q14 -14 33 -14zM479 225v-41h-37v-65h35v-35h-35v-39h-49v39h-10v35h10v106h86zM1524 45h-49v59l-68 119h55l37 -65l37 65h55l-67 -119v-59zM696 223h49v-94q0 -43 35 -43t35 43v94h49v-106q0 -55 -49 -70q-16 -6 -35 -6q-68 0 -82 57l-2 19v106z
M1008 225h49v-180h-23l-96 92v-92h-49v180h22l97 -94v94zM1237 135q0 -37 -25 -63t-59 -27h-68v180h62q39 -1 65 -27t25 -63zM1305 84v-39h-50v180h84q74 0 74 -69q1 -40 -24 -58q10 -10 30 -20l-18 -43q-37 14 -66 49h-30zM586 227q40 -1 68 -27t28 -65t-29 -67t-67 -27
q-38 0 -68 28q-29 29 -29 67t28 64t69 27zM944 965v274h-141v-274h141zM944 602v275h-141v-275h141zM1262 877h-230v-269q98 18 164 94t66 175zM1262 965q0 98 -66 175t-164 93v-268h230zM1569 921q0 -116 -65 -210t-169 -138q-43 -104 -137 -169q-94 -64 -211 -64t-211 64
t-137 169q-104 43 -169 137q-64 94 -64 211q0 116 64 211q65 95 169 136q43 104 137 169t211 65t211 -66q94 -64 137 -168q104 -41 169 -136t65 -211z" />
    </font>
</defs>
</svg>
