<?xml version="1.0" standalone="no"?>
<!DOCTYPE svg PUBLIC "-//W3C//DTD SVG 1.1//EN" "http://www.w3.org/Graphics/SVG/1.1/DTD/svg11.dtd" >
<svg xmlns="http://www.w3.org/2000/svg">
<metadata>
Created by FontPrep 20130207 at Wed Sep 24 10:46:55 2014
 By 1
Copyright (c) 2014 by Intelligent Design - Kostas Bartsokas. All rights reserved.
</metadata>
<defs>
<font id="539f28dff6ab3b175f2fd677663c51c6" horiz-adv-x='1024' >
  <font-face 
    font-family="ZonaPro-Light"
    font-weight="300"
    font-stretch="normal"
    units-per-em="2048"
    panose-1="2 1 4 3 4 0 2 2 0 4"
    ascent="1690"
    descent="-358"
    x-height="1104"
    cap-height="1444"
    bbox="-489 -547 2527 2023"
    underline-thickness="40"
    underline-position="-231"
    unicode-range="U+0020-FB04"
  />
<missing-glyph horiz-adv-x="1024" 
 />
    <glyph glyph-name="f_igrave" unicode="f&#xec;" horiz-adv-x="1185" 
d="M360 1212v-108h654v-1104h-117v1004h-537v-1057q0 -156 -87 -241t-222 -85q-61 0 -106 6v101q20 -2 67 -2q231 0 232 260v1018h-199v100h199v123q0 84 31 146q32 62 77 95q115 84 322 84l338 -344h-99l-288 260q-127 0 -196 -68t-69 -188z" />
    <glyph glyph-name="f_f" unicode="ff" horiz-adv-x="1507" 
d="M1314 1448q-114 0 -164 -62t-50 -202v-80h383v-100h-383v-1024q0 -158 -90 -241t-228 -83q-55 0 -98 6v100q37 -4 68 -4q109 0 170 65t61 195v986h-623v-1059q0 -164 -93 -244t-240 -80q-8 0 -82 6v101q41 -4 67 -4q109 0 170 66t62 196v1018h-199v100h199v65
q0 332 317 332q115 0 203 -24v-97q-86 20 -194 20t-158 -58q-51 -58 -52 -181v-57h623v92q0 201 85 278t215 77t218 -25v-96q-73 18 -187 18z" />
    <glyph glyph-name="f_i" unicode="fi" horiz-adv-x="1185" 
d="M596 1448q-133 0 -184 -70t-52 -209v-65h654v-1104h-117v1004h-537v-1057q0 -156 -87 -241t-222 -85q-61 0 -106 6v101q20 -2 67 -2q231 0 232 260v1018h-199v100h199v82q0 360 362 360q76 0 158 -20v-96q-78 18 -168 18zM955 1317q-33 -1 -57 23t-24 57t24 57t58 25
q34 0 57 -25q23 -26 23 -58t-23 -56q-24 -23 -58 -23z" />
    <glyph glyph-name="f_l" unicode="fl" horiz-adv-x="1234" 
d="M648 1550q213 0 315 -105t102 -276v-1169h-117v1147q0 301 -286 301q-170 0 -236 -85t-66 -259h383v-100h-383v-1059q0 -164 -93 -244t-240 -80q-8 0 -82 6v101q41 -4 67 -4q109 0 170 66t62 196v1018h-199v100h199q0 215 95 331q96 115 309 115z" />
    <glyph glyph-name="f_f_i" unicode="ffi" horiz-adv-x="1933" 
d="M1645 0v1004h-545v-1024q0 -156 -88 -241t-224 -85q-47 0 -104 8v100q37 -4 68 -4q109 0 170 66t61 196v984h-623v-1057q0 -156 -87 -241t-222 -85q-61 0 -106 6v101q20 -2 67 -2q231 0 232 260v1018h-199v100h199v61q0 336 327 336q109 0 193 -24v-97q-86 20 -192 20
t-159 -58q-52 -60 -53 -185v-53h623v78q0 213 88 291t240 77q106 0 190 -24v-96q-74 18 -168 18q-133 0 -183 -69t-50 -214v-61h661v-1104h-116zM1622 1397q0 33 25 57t57 25q32 0 56 -25q24 -26 24 -58t-24 -56t-57 -23q-33 -1 -57 23t-24 57z" />
    <glyph glyph-name="f_f_l" unicode="ffl" horiz-adv-x="1972" 
d="M1391 1550q180 0 296 -96t115 -285v-1169h-116v1147q0 153 -78 227t-209 74t-215 -70t-84 -207v-67h383v-100h-383v-1024q0 -156 -88 -241t-224 -85q-47 0 -104 8v100q37 -4 68 -4q109 0 170 65t61 195v986h-623v-1059q0 -156 -88 -241t-221 -85q-45 0 -106 8v101
q41 -4 67 -4q109 0 170 66t62 196v1018h-199v100h199v74q0 156 88 242t214 85q126 0 218 -28v-97q-245 57 -343 -38q-60 -58 -61 -166v-72h623v70q0 178 114 277t294 99z" />
    <glyph glyph-name=".notdef" horiz-adv-x="1024" 
 />
    <glyph glyph-name=".null" horiz-adv-x="0" 
 />
    <glyph glyph-name="nonmarkingreturn" horiz-adv-x="681" 
 />
    <glyph glyph-name="space" unicode=" " horiz-adv-x="659" 
 />
    <glyph glyph-name="exclam" unicode="!" horiz-adv-x="415" 
d="M211 154q33 0 57 -24t23 -58q0 -34 -23 -58q-24 -22 -58 -22t-56 22t-23 58q-1 34 23 58t57 24zM246 387h-74l-22 1055h118z" />
    <glyph glyph-name="quotedbl" unicode="&#x22;" horiz-adv-x="616" 
d="M74 891l32 543h130l-99 -543h-63zM379 891l35 543h129l-101 -543h-63z" />
    <glyph glyph-name="numbersign" unicode="#" horiz-adv-x="1380" 
d="M844 508l76 448h-404l-78 -448h406zM1321 1055v-99h-307l-78 -448h317v-100h-335l-68 -398h-92l67 398h-405l-68 -398h-92l68 398h-267v100h285l76 448h-293v99h309l60 340h92l-60 -340h406l59 340h92l-59 -340h293z" />
    <glyph glyph-name="dollar" unicode="$" horiz-adv-x="1300" 
d="M1073 370q0 124 -115 191q-88 51 -266 96v-563q174 4 278 78q103 74 103 198zM248 1079q0 -115 93 -174t277 -108v551q-172 0 -271 -77t-99 -192zM692 -145h-74v131q-147 2 -247 28t-258 103l47 96q143 -69 235 -93t223 -26v584q-222 55 -345 129q-146 88 -146 260
t132 281t359 110v82h74v-86q262 -14 445 -108l-54 -99q-158 81 -391 99v-570q233 -57 355 -129q149 -88 149 -267q0 -178 -137 -284t-367 -110v-131z" />
    <glyph glyph-name="percent" unicode="%" horiz-adv-x="1841" 
d="M1368 1436h96l-989 -1436h-96zM1114 387q0 -141 78 -226t195 -85q116 0 195 85t79 226t-79 226t-196 85q-116 0 -194 -85t-78 -226zM1028 386q0 182 102 290q102 106 257 106t257 -106t103 -288q0 -182 -103 -290q-104 -106 -258 -106t-256 106t-102 288zM180 1057
q0 -141 79 -227t195 -85q116 0 194 85q78 84 79 226q0 142 -78 227q-79 85 -195 85t-195 -85t-79 -226zM813 1057q0 -183 -102 -289t-256 -106t-257 106q-104 106 -104 288t102 290q102 106 258 106q155 0 257 -106t102 -289z" />
    <glyph glyph-name="ampersand" unicode="&#x26;" horiz-adv-x="1390" 
d="M219 360q-1 -112 97 -190t276 -78t342 154l-434 420q-281 -106 -281 -306zM604 1354q-116 0 -188 -77t-72 -173t45 -165t143 -165q190 66 264 151q72 85 72 190t-73 172q-74 67 -191 67zM602 -8q-244 0 -373 104t-129 262q0 252 328 383q-96 99 -141 181t-45 182
q0 144 100 244t267 100t263 -98t97 -242q0 -270 -369 -403l401 -390q113 115 238 318l88 -37q-135 -217 -256 -348l193 -187l-72 -67l-191 182q-203 -184 -399 -184z" />
    <glyph glyph-name="quotesingle" unicode="'" horiz-adv-x="382" 
d="M113 891l32 543h131l-98 -543h-65z" />
    <glyph glyph-name="parenleft" unicode="(" horiz-adv-x="794" 
d="M229 623q0 -252 132 -450t372 -327l-43 -77q-270 141 -423 358t-153 495t153 495q153 218 423 360l43 -78q-240 -129 -372 -327t-132 -449z" />
    <glyph glyph-name="parenright" unicode=")" horiz-adv-x="794" 
d="M565 623q0 251 -131 449t-371 327l41 78q272 -141 424 -359t152 -496t-152 -495t-424 -358l-41 77q240 129 371 327t131 450z" />
    <glyph glyph-name="asterisk" unicode="*" horiz-adv-x="839" 
d="M748 930l-39 -68l-260 164l12 -305h-76l12 305l-260 -166l-37 70l271 141l-273 143l39 68l260 -164l-12 305h76l-12 -305l260 166l36 -70l-270 -143z" />
    <glyph glyph-name="plus" unicode="+" horiz-adv-x="1310" 
d="M1165 809v-98h-458v-459h-99v459h-458v98h458v459h99v-459h458z" />
    <glyph glyph-name="comma" unicode="," horiz-adv-x="344" 
d="M86 74q0 32 24 56t55 24q33 0 57 -26t24 -83q0 -143 -73 -220t-159 -81l-18 55q57 9 109 61t53 132q-31 4 -52 26q-20 23 -20 56z" />
    <glyph glyph-name="hyphen" unicode="-" horiz-adv-x="835" 
d="M737 729v-100h-639v100h639z" />
    <glyph glyph-name="period" unicode="." horiz-adv-x="323" 
d="M240 72q0 -35 -24 -59q-24 -23 -56 -23t-57 24q-24 24 -23 58q0 34 24 58t56 24t56 -24t24 -58z" />
    <glyph glyph-name="slash" unicode="/" horiz-adv-x="903" 
d="M-57 -262l907 1896h104l-907 -1896h-104z" />
    <glyph glyph-name="zero" unicode="0" horiz-adv-x="1495" 
d="M750 1341q-227 0 -382 -170q-155 -171 -155 -451t155 -450t382 -170t382 170t154 451q0 281 -154 451t-382 169zM751 1450q281 0 465 -197t184 -533t-184 -532q-186 -196 -466 -196t-465 196q-186 196 -187 533q0 337 186 533t467 196z" />
    <glyph glyph-name="one" unicode="1" horiz-adv-x="786" 
d="M543 1444v-1444h-121v1327l-330 -74l-24 101l399 90h76z" />
    <glyph glyph-name="two" unicode="2" horiz-adv-x="1277" 
d="M1171 106v-106h-1071v55q74 88 184 164t211 123q239 111 386 220q76 56 125 146t49 205q0 181 -126 307t-297 126t-297 -123t-126 -308v-26h-109v33q0 226 157 378t375 152t376 -155t157 -377q0 -278 -218 -438q-101 -75 -205 -130t-229 -121q-126 -66 -200 -125h858z
" />
    <glyph glyph-name="three" unicode="3" horiz-adv-x="1255" 
d="M1174 444q0 -214 -154 -334t-414 -120q-160 0 -266 18t-225 72l45 98q184 -82 448 -82q203 0 326 93t123 239t-111 246q-111 98 -328 100h-51l-22 51l416 512h-816v107h992v-62l-424 -526q207 -10 334 -126t127 -286z" />
    <glyph glyph-name="four" unicode="4" horiz-adv-x="1333" 
d="M907 496v749l-651 -749h651zM1024 496h229v-107h-229v-389h-117v389h-805l-26 62l860 993h88v-948z" />
    <glyph glyph-name="five" unicode="5" horiz-adv-x="1261" 
d="M692 926q222 0 356 -133t134 -347t-155 -336q-155 -120 -435 -120t-477 80l41 100q186 -74 460 -74q203 0 326 95t123 261t-108 268q-108 103 -302 103q-92 1 -215 -25t-204 -57l-58 37l4 666h932v-107h-825l-2 -479q184 68 405 68z" />
    <glyph glyph-name="six" unicode="6" horiz-adv-x="1359" 
d="M720 827q-184 0 -322 -95q-138 -96 -138 -244t129 -270t311 -122t314 104q133 104 133 272q0 167 -122 261t-305 94zM727 928q225 0 381 -120t156 -337t-166 -348t-408 -131t-406 182t-163 459q0 423 168 621t422 198t475 -145l-56 -93q-198 134 -414 134t-349 -169
t-134 -517q47 134 181 200t313 66z" />
    <glyph glyph-name="seven" unicode="7" horiz-adv-x="1183" 
d="M102 1444h1012v-64l-711 -1380h-129l689 1337h-861v107z" />
    <glyph glyph-name="eight" unicode="8" horiz-adv-x="1300" 
d="M655 96q193 0 320 84t127 230t-124 231q-124 86 -322 86t-322 -87t-125 -231q1 -145 127 -229t319 -84zM655 1348q-162 0 -265 -66t-103 -190t100 -194q100 -69 267 -69t268 71q100 71 100 195q0 125 -102 189t-265 64zM655 1452q209 0 344 -91t136 -267q0 -121 -70 -201
t-176 -105q141 -31 234 -132t94 -248q0 -201 -159 -309q-159 -107 -403 -107q-243 0 -403 108t-160 308q0 145 93 246t235 134q-104 23 -174 106t-70 200q0 176 135 267t344 91z" />
    <glyph glyph-name="nine" unicode="9" horiz-adv-x="1357" 
d="M662 1348q-176 0 -303 -100q-128 -100 -128 -272q0 -170 128 -264q127 -94 309 -94t309 98t127 248q0 148 -133 266t-309 118zM653 516q-225 0 -382 120t-157 341t161 348t401 127t400 -178t159 -463q0 -819 -594 -819q-244 0 -465 145l57 92q195 -131 410 -131t345 161
t145 491q0 14 -3 41q-33 -129 -167 -202t-310 -73z" />
    <glyph glyph-name="colon" unicode=":" horiz-adv-x="415" 
d="M201 154q33 0 57 -24t23 -58q0 -34 -24 -59q-25 -23 -57 -23t-56 24t-23 58q-1 34 23 58t57 24zM201 938q-33 0 -57 24t-24 58t24 56q24 24 57 24t57 -24t23 -58q1 -34 -23 -56q-24 -24 -57 -24z" />
    <glyph glyph-name="semicolon" unicode=";" horiz-adv-x="409" 
d="M123 72q-1 34 23 58t58 24t56 -29t23 -76q0 -135 -65 -218t-167 -87l-18 55q61 5 110 59t52 134q-31 4 -52 25q-20 22 -20 55zM201 938q-33 0 -57 24t-24 58t24 56q24 24 57 24t57 -24t23 -58q1 -34 -23 -56q-24 -24 -57 -24z" />
    <glyph glyph-name="less" unicode="&#x3c;" horiz-adv-x="1253" 
d="M1102 1229v-113l-830 -401l830 -402v-112l-985 483v61z" />
    <glyph glyph-name="equal" unicode="=" horiz-adv-x="1275" 
d="M150 1047h972v-101h-972v101zM150 352v101h972v-101h-972z" />
    <glyph glyph-name="greater" unicode="&#x3e;" horiz-adv-x="1255" 
d="M168 201v112l829 402l-829 401v113l985 -484v-61z" />
    <glyph glyph-name="question" unicode="?" horiz-adv-x="1105" 
d="M467 154q33 0 57 -24t23 -58q0 -34 -24 -59q-25 -23 -57 -23t-56 24t-23 58q-1 34 23 58t57 24zM483 1452q242 0 385 -123t144 -338q0 -166 -131 -272t-359 -107l-8 -250h-86l-8 302l16 30h39q211 0 322 83t110 216q0 166 -116 261q-117 95 -306 96q-133 0 -227 -20
t-197 -75l-43 95q117 62 216 82t249 20z" />
    <glyph glyph-name="at" unicode="@" horiz-adv-x="1976" 
d="M924 983q-138 0 -252 -123q-114 -122 -113 -278q0 -156 84 -250q83 -94 223 -94t252 129t115 305q0 131 -85 221q-86 90 -224 90zM995 -317q-373 0 -637 264t-264 637t264 636t637 263t636 -262t263 -633q0 -201 -127 -342t-311 -142q-244 0 -244 209q0 27 2 41
q-66 -102 -164 -161t-208 -60q-170 0 -281 122t-110 300q0 215 141 375t334 160q121 0 214 -68t132 -178l33 203l102 -17q-102 -625 -102 -668q0 -184 170 -184q162 0 256 122t94 288q0 344 -242 584t-588 241q-347 0 -589 -242q-242 -241 -242 -587t244 -588t578 -242
t556 195l43 -47q-252 -219 -590 -219z" />
    <glyph glyph-name="A" unicode="A" horiz-adv-x="1480" 
d="M739 1284l-350 -790h703zM1309 0l-174 393h-791l-172 -393h-127l657 1444h76l658 -1444h-127z" />
    <glyph glyph-name="B" unicode="B" horiz-adv-x="1427" 
d="M303 106h545q172 0 265 104t93 254t-94 260t-262 110h-547v-728zM303 1337v-407h453q92 0 136 63t44 145t-69 141q-69 58 -173 58h-391zM725 1444q135 0 229 -83t95 -221q0 -138 -109 -220q178 -18 284 -152t107 -318q0 -182 -116 -316t-320 -134h-709v1444h539z" />
    <glyph glyph-name="C" unicode="C" horiz-adv-x="1562" 
d="M870 106q150 0 279 62t219 174l92 -80q-106 -127 -260 -199t-330 -71q-313 0 -534 213t-221 516t221 517t534 214q174 0 329 -73t261 -199l-92 -80q-90 111 -219 174t-279 63q-262 0 -447 -179t-185 -436q0 -256 185 -436t447 -180z" />
    <glyph glyph-name="D" unicode="D" horiz-adv-x="1497" 
d="M303 111h389q238 18 405 194t167 423t-178 426t-431 179h-352v-1222zM1382 727q0 -293 -198 -501t-482 -226h-516v1444h469q301 0 514 -212t213 -505z" />
    <glyph glyph-name="E" unicode="E" 
d="M303 106h899v-106h-1016v1444h973v-107h-856v-583h729v-107h-729v-541z" />
    <glyph glyph-name="F" unicode="F" horiz-adv-x="1273" 
d="M1178 1337h-875v-694h762v-106h-762v-537h-117v1444h992v-107z" />
    <glyph glyph-name="G" unicode="G" horiz-adv-x="1632" 
d="M840 680h659v-479q-262 -209 -625 -209q-315 0 -537 213t-222 516t222 516q223 213 555 213t554 -205l-78 -86q-190 178 -494 178q-264 0 -451 -181t-187 -437t187 -437q187 -182 463 -182t494 162v313h-540v105z" />
    <glyph glyph-name="H" unicode="H" horiz-adv-x="1497" 
d="M1194 1444h117v-1444h-117v582h-891v-582h-117v1444h117v-756h891v756z" />
    <glyph glyph-name="I" unicode="I" horiz-adv-x="495" 
d="M309 1444v-1444h-121v1444h121z" />
    <glyph glyph-name="J" unicode="J" horiz-adv-x="1232" 
d="M948 1444h119v-854q0 -276 -128 -437t-382 -161q-188 0 -329 121q-140 121 -169 303l107 10q28 -139 136 -230t253 -92q193 0 293 126t100 335v879z" />
    <glyph glyph-name="K" unicode="K" horiz-adv-x="1413" 
d="M303 0h-117v1444h117v-926l858 926h150l-643 -701l661 -743h-162l-579 653l-285 -305v-348z" />
    <glyph glyph-name="L" unicode="L" horiz-adv-x="1216" 
d="M305 104h828v-104h-947v1444h119v-1340z" />
    <glyph glyph-name="M" unicode="M" horiz-adv-x="1787" 
d="M1602 1444v-1444h-119v1171l-590 -946l-588 946v-1171h-119v1444h68l639 -1014l639 1014h70z" />
    <glyph glyph-name="N" unicode="N" horiz-adv-x="1579" 
d="M1274 1444h119v-1444h-70l-1018 1217v-1217h-119v1444h68l1020 -1219v1219z" />
    <glyph glyph-name="O" unicode="O" horiz-adv-x="1748" 
d="M874 104q264 0 452 182t187 435q0 254 -187 435q-188 181 -452 181t-451 -181t-187 -435q0 -253 187 -435t451 -182zM874 1452q316 0 538 -214t222 -517t-222 -516t-538 -213t-538 213q-223 213 -223 516t223 517t538 214z" />
    <glyph glyph-name="P" unicode="P" horiz-adv-x="1345" 
d="M305 575h379q211 1 331 99t120 276q1 178 -97 282q-98 105 -307 105h-426v-762zM186 1444h559q267 0 391 -134t124 -337q0 -258 -153 -380t-415 -122h-387v-471h-119v1444z" />
    <glyph glyph-name="Q" unicode="Q" horiz-adv-x="1748" 
d="M874 104q195 0 351 105l-115 96l61 74l127 -107q98 82 156 199q57 117 57 250q0 256 -186 436q-187 180 -451 180t-451 -181t-187 -435q0 -253 187 -435t451 -182zM874 -8q-315 0 -538 213t-223 516t223 517t538 214q316 0 538 -214t222 -517q0 -156 -64 -293t-179 -238
l155 -129l-59 -73l-168 141q-195 -137 -445 -137z" />
    <glyph glyph-name="R" unicode="R" horiz-adv-x="1384" 
d="M305 1337v-762h391q211 1 331 99t120 276t-97 282q-97 105 -307 105h-438zM698 471h-393v-471h-119v1444h572q266 0 390 -134t124 -337q0 -375 -338 -471l377 -502h-146l-352 479q-47 -8 -115 -8z" />
    <glyph glyph-name="S" unicode="S" horiz-adv-x="1304" 
d="M246 1075q0 -144 179 -216q106 -45 232 -74q125 -30 192 -50q164 -49 253 -132q90 -83 90 -222q0 -185 -141 -287t-381 -102q-178 0 -284 24t-275 109l47 96q154 -77 255 -99t272 -22t279 72t108 200t-114 189q-113 62 -258 97t-212 54q-176 50 -271 134q-94 84 -94 223
q0 171 135 277t363 106q133 0 275 -31t237 -82q-45 -89 -52 -98q-88 45 -220 74t-243 28q-172 1 -272 -73t-100 -195z" />
    <glyph glyph-name="T" unicode="T" horiz-adv-x="1351" 
d="M1253 1444v-107h-514v-1337h-121v1337h-509v107h1144z" />
    <glyph glyph-name="U" unicode="U" horiz-adv-x="1546" 
d="M1364 1444v-864q0 -256 -157 -422t-435 -166t-434 165t-156 423v864h117v-842q0 -225 124 -361q124 -137 350 -137t350 138t124 360v842h117z" />
    <glyph glyph-name="V" unicode="V" horiz-adv-x="1556" 
d="M782 201l576 1243h131l-674 -1444h-63l-672 1444h131z" />
    <glyph glyph-name="W" unicode="W" horiz-adv-x="2287" 
d="M2208 1444l-551 -1444h-60l-462 1237l-463 -1237h-60l-551 1444h129l455 -1219l457 1219h65l455 -1219l457 1219h129z" />
    <glyph glyph-name="X" unicode="X" horiz-adv-x="1437" 
d="M725 815l502 629h137l-563 -721l567 -723h-139l-504 631l-502 -631h-141l565 723l-561 721h139z" />
    <glyph glyph-name="Y" unicode="Y" horiz-adv-x="1347" 
d="M735 0h-121v498l-569 946h137l492 -821l491 821h140l-570 -946v-498z" />
    <glyph glyph-name="Z" unicode="Z" horiz-adv-x="1343" 
d="M1235 1444v-55l-959 -1283h971v-106h-1147v53l959 1284h-905v107h1081z" />
    <glyph glyph-name="bracketleft" unicode="[" horiz-adv-x="636" 
d="M586 1346h-299v-1516h299v-90h-398v1696h398v-90z" />
    <glyph glyph-name="backslash" unicode="\" horiz-adv-x="882" 
d="M860 -262l-907 1896h104l908 -1896h-105z" />
    <glyph glyph-name="bracketright" unicode="]" horiz-adv-x="663" 
d="M78 -170h299v1516h-299v90h397v-1696h-397v90z" />
    <glyph glyph-name="asciicircum" unicode="^" horiz-adv-x="903" 
d="M178 1004h-98l344 440h61l344 -440h-98l-276 354z" />
    <glyph glyph-name="underscore" unicode="_" horiz-adv-x="1191" 
d="M1196 -63v-78h-1202v78h1202z" />
    <glyph glyph-name="grave" unicode="`" horiz-adv-x="913" 
d="M571 1550l-346 314l135 12l304 -326h-93z" />
    <glyph glyph-name="a" unicode="a" horiz-adv-x="1368" 
d="M215 560q0 -190 137 -326t334 -136q249 1 399 144v628q-154 147 -399 148q-199 0 -335 -134t-136 -324zM1085 1104h115v-1104h-115v123q-171 -131 -413 -131t-407 167t-165 400t165 400t409 167t411 -137v115z" />
    <glyph glyph-name="b" unicode="b" horiz-adv-x="1370" 
d="M682 98q197 0 335 133t138 326t-138 327t-335 134q-246 0 -399 -144v-628q153 -148 399 -148zM692 1124q242 0 410 -162t168 -403t-168 -405t-411 -164t-408 133v-123h-115v1544h115v-549q167 129 409 129z" />
    <glyph glyph-name="c" unicode="c" horiz-adv-x="1202" 
d="M700 -8q-250 0 -426 165t-176 401t176 400q176 166 423 166t411 -190l-80 -72q-129 156 -329 156t-343 -134t-143 -326t143 -326t342 -134t330 162l76 -74q-74 -92 -180 -143t-224 -51z" />
    <glyph glyph-name="d" unicode="d" horiz-adv-x="1370" 
d="M688 98q246 0 397 148v628q-154 143 -397 144q-197 0 -335 -134t-138 -327t138 -326t335 -133zM1085 1544h117v-1544h-117v123q-165 -133 -407 -133t-410 165t-168 405t168 402t409 162t408 -129v549z" />
    <glyph glyph-name="e" unicode="e" horiz-adv-x="1296" 
d="M663 1026q-185 0 -309 -119t-139 -297h864q-11 186 -121 301t-295 115zM1194 549v-33h-979q21 -182 153 -300t310 -118q119 0 222 45t169 129l80 -65q-78 -99 -206 -157t-281 -58q-246 0 -405 164t-159 402t159 403q159 163 404 163t389 -160t144 -415z" />
    <glyph glyph-name="f" unicode="f" horiz-adv-x="768" 
d="M596 1448q-133 0 -184 -78t-52 -237v-29h383v-100h-383v-1059q0 -147 -91 -235t-234 -89q-10 0 -90 6v101q41 -4 67 -4q231 0 232 262v1018h-199v100h199v45q0 401 344 401q98 1 176 -24v-96q-78 18 -168 18z" />
    <glyph glyph-name="g" unicode="g" horiz-adv-x="1368" 
d="M213 562q0 -190 138 -326t335 -136q252 0 399 142v630q-152 145 -399 146q-197 0 -335 -132q-138 -134 -138 -324zM1085 1104h115v-979q0 -217 -136 -361t-398 -143q-171 -1 -224 9t-86 18t-43 11t-50 14t-54 16l24 92q127 -37 203 -50t211 -14q209 -1 319 103t115 256
v43q-167 -127 -407 -127t-408 168t-168 404t168 399q168 161 411 161t408 -133v113z" />
    <glyph glyph-name="h" unicode="h" 
d="M670 1124q236 0 364 -126q129 -126 129 -365v-633h-114v633q-1 182 -105 283t-270 102q-233 0 -391 -139v-879h-115v1544h115v-555q151 135 387 135z" />
    <glyph glyph-name="i" unicode="i" horiz-adv-x="460" 
d="M229 1317q-33 -1 -57 23t-22 58q0 34 24 58t56 23q32 0 56 -24q24 -23 24 -57t-24 -58q-24 -23 -57 -23zM172 0v1104h117v-1104h-117z" />
    <glyph glyph-name="j" unicode="j" horiz-adv-x="458" 
d="M226 1317q-34 -1 -58 23t-23 57q0 33 24 57q23 24 57 25q34 0 58 -25q24 -26 24 -58t-24 -56q-24 -23 -58 -23zM170 -14v1118h117v-1157q0 -156 -88 -241t-224 -85q-61 0 -104 6v101q18 -2 68 -2q231 0 231 260z" />
    <glyph glyph-name="k" unicode="k" horiz-adv-x="1251" 
d="M285 0h-117v1544h117v-1163l768 723h147l-438 -422l438 -682h-131l-387 594l-397 -369v-225z" />
    <glyph glyph-name="l" unicode="l" horiz-adv-x="456" 
d="M170 0v1544h117v-1544h-117z" />
    <glyph glyph-name="m" unicode="m" horiz-adv-x="2045" 
d="M1430 1124q217 0 346 -126t129 -365v-633h-115v633q0 182 -104 283q-104 102 -288 102t-329 -152q45 -94 45 -233v-633h-115v633q0 182 -95 283t-247 102q-225 0 -372 -141v-877h-117v1104h117v-119q145 139 389 139t360 -174q140 174 396 174z" />
    <glyph glyph-name="n" unicode="n" horiz-adv-x="1310" 
d="M670 1124q236 0 364 -126q129 -126 129 -365v-633h-114v633q-1 185 -105 285t-270 100q-233 0 -391 -141v-877h-115v1104h115v-119q151 139 387 139z" />
    <glyph glyph-name="o" unicode="o" horiz-adv-x="1396" 
d="M698 98q201 0 343 134q143 134 143 326t-142 326t-344 134q-201 0 -344 -134t-143 -326t143 -326t344 -134zM96 558q0 236 176 400q176 166 425 166t425 -166t176 -402t-176 -400t-425 -164t-425 165t-176 401z" />
    <glyph glyph-name="p" unicode="p" horiz-adv-x="1372" 
d="M682 98q197 0 335 133t138 327t-138 327t-335 133q-246 0 -399 -148v-628q149 -144 399 -144zM691 1124q243 0 411 -162t168 -403q0 -239 -168 -403t-411 -164t-408 127v-477h-115v1462h115v-113q165 133 408 133z" />
    <glyph glyph-name="q" unicode="q" horiz-adv-x="1372" 
d="M219 558q0 -194 137 -327t334 -133q250 0 400 144v628q-154 147 -400 148q-197 0 -334 -133t-137 -327zM1090 1104h114v-1462h-114v477q-170 -127 -411 -127t-409 164t-168 404t168 402t412 162t408 -133v113z" />
    <glyph glyph-name="r" unicode="r" horiz-adv-x="888" 
d="M285 1104v-242q51 123 146 193t224 69q88 0 166 -39l-16 -118q-86 37 -170 37q-158 0 -254 -125t-96 -310v-569h-117v1104h117z" />
    <glyph glyph-name="s" unicode="s" horiz-adv-x="1091" 
d="M548 90q178 0 259 62q80 62 80 150q0 89 -88 136q-87 47 -277 87t-298 109q-108 70 -108 196t116 210t308 84t394 -84l-39 -90q-170 76 -373 76q-129 0 -213 -55t-84 -139t82 -128q83 -44 277 -83t303 -109t109 -205t-110 -225q-108 -90 -334 -90t-456 100l45 92
q229 -94 407 -94z" />
    <glyph glyph-name="t" unicode="t" horiz-adv-x="808" 
d="M764 1004h-408v-627q0 -281 232 -281q88 0 172 19v-97q-86 -26 -215 -26t-217 85t-88 240v687h-195v100h195v440h116v-440h408v-100z" />
    <glyph glyph-name="u" unicode="u" horiz-adv-x="1327" 
d="M1042 1104h115v-1104h-115v131q-156 -139 -421 -139q-217 0 -347 126q-129 126 -129 365v621h115v-621q0 -182 104 -283t271 -102q244 0 407 142v864z" />
    <glyph glyph-name="v" unicode="v" horiz-adv-x="1247" 
d="M1069 1104h127l-541 -1104h-61l-543 1104h127l447 -914z" />
    <glyph glyph-name="w" unicode="w" horiz-adv-x="1742" 
d="M1587 1104h119l-428 -1104h-72l-336 915l-333 -915h-72l-428 1104h119l352 -907l328 907h69l332 -907z" />
    <glyph glyph-name="x" unicode="x" horiz-adv-x="1189" 
d="M600 461l-401 -461h-136l467 555l-464 549h137l397 -461l395 461h138l-465 -549l467 -555h-136z" />
    <glyph glyph-name="y" unicode="y" horiz-adv-x="1249" 
d="M123 -283q387 0 491 283h-55l-496 1104h125l439 -969h45l385 969h123l-467 -1163q-53 -133 -173 -212t-268 -100q-63 -8 -184 -8l10 96h25z" />
    <glyph glyph-name="z" unicode="z" horiz-adv-x="1200" 
d="M1116 100v-100h-1018v66l842 938h-809v100h989v-60l-846 -944h842z" />
    <glyph glyph-name="braceleft" unicode="{" horiz-adv-x="811" 
d="M745 1444v-84q-141 0 -205 -42t-65 -171v-203q0 -178 -34 -262t-132 -107q98 -23 132 -99t34 -253v-235q0 -127 66 -170t204 -43v-84q-164 0 -256 41q-108 49 -108 225v213q1 254 -39 294q-56 56 -125 61t-149 5v91q171 0 219 31q23 14 39 26t26 40t20 58t9 221v181
q0 174 108 226q55 26 111 33t145 7z" />
    <glyph glyph-name="bar" unicode="|" horiz-adv-x="548" 
d="M215 -262v1896h96v-1896h-96z" />
    <glyph glyph-name="braceright" unicode="}" horiz-adv-x="802" 
d="M70 1360v84q90 0 145 -7t111 -33q110 -52 108 -226v-181q0 -191 9 -221t19 -58t27 -39q16 -11 39 -27q47 -32 220 -31v-91q-80 0 -132 -4q-91 -7 -142 -62q-40 -40 -40 -294v-213q0 -176 -108 -225q-90 -41 -256 -41v84q142 0 206 42t64 171v235q0 176 33 253t133 99
q-100 23 -133 107t-33 262v203q0 129 -64 171t-206 42z" />
    <glyph glyph-name="asciitilde" unicode="~" horiz-adv-x="956" 
d="M298 741q78 0 190 -48t161 -48t89 40t53 114l71 -11q-14 -115 -71 -176t-129 -61t-184 48t-156 48q-127 1 -160 -153l-72 8q14 115 72 177t136 62z" />
    <glyph glyph-name="exclamdown" unicode="&#xa1;" horiz-adv-x="430" 
d="M211 1288q-33 0 -57 24t-23 58q0 34 23 58q24 22 58 22t56 -23t23 -57t-23 -58t-57 -24zM172 1055h74l22 -1055h-118z" />
    <glyph glyph-name="cent" unicode="&#xa2;" horiz-adv-x="1177" 
d="M176 752q0 -146 86 -264t225 -169l185 904q-212 -4 -354 -140t-142 -331zM688 285q182 0 320 161l75 -71q-76 -89 -182 -141t-221 -52q-55 0 -127 15l-41 -197h-88l43 217q-174 61 -285 207t-110 328q0 256 185 412t435 157l29 141h90l-31 -151q182 -37 305 -176l-77 -68
q-101 112 -248 141l-187 -911q53 -12 115 -12z" />
    <glyph glyph-name="sterling" unicode="&#xa3;" horiz-adv-x="1308" 
d="M1237 104v-104h-1149v63l225 37q-39 268 -57 502h-150v96h144q-6 90 -6 156q0 308 141 454t379 146q141 0 261 -71t187 -189l-84 -64q-55 96 -151 154t-211 57q-201 0 -302 -126t-102 -347q0 -82 9 -170h624v-96h-616q18 -195 59 -498h799z" />
    <glyph glyph-name="KB" unicode="&#xa4;" horiz-adv-x="1992" 
d="M461 -311q0 8 8 8t8 -8t-8 -8t-8 8zM1700 -311q0 8 8 8t8 -8t-8 -8t-8 8zM905 -231h8v-86h-8v86zM1493 -231h8v-86h-8v86zM500 -231h8v-86h-8v86zM1552 184h-30v-22h28q14 0 15 10q-1 12 -13 12zM838 -231h8v-78h41v-8h-49v86zM770 -231h8v-78h41v-8h-49v86zM643 -240
h-27v9h62v-9h-27v-77h-8v77zM1210 -240h-26v9h61v-9h-26v-77h-9v77zM1473 -293q0 -25 -25 -24q-23 0 -31 18l6 4q5 -14 23 -14t18 16q0 11 -20 19t-21 22q0 23 23 23q16 0 22 -15l-6 -4q-6 10 -18 10t-12 -12t20 -19t21 -24zM1829 -291h14q25 4 25 28t-25 23h-14v-51z
M698 -231h54v-9h-45v-36h41v-9h-41v-24h45v-8h-54v86zM1350 -231h53v-9h-45v-36h41v-9h-41v-24h45v-8h-53v86zM1028 -231h53v-9h-45v-36h41v-9h-41v-24h45v-8h-53v86zM981 -291v8h29v-22q-12 -12 -32 -12t-34 12q-12 13 -12 31t13 31q31 31 63 -1l-7 -6q-10 12 -25 12
q-16 0 -26 -11t-10 -25t11 -24t26 -11l24 8v10h-20zM1569 -291v8h28v-22q-12 -12 -32 -12t-33 12q-12 13 -12 31t13 31q32 32 62 -1l-6 -6q-10 12 -25 12q-16 0 -26 -11t-10 -25t11 -24t26 -11l24 8v10h-20zM1774 -291v8h28v-22q-12 -12 -32 -12q-43 0 -46 43q0 18 14 31
q31 30 62 -1l-6 -6q-8 12 -24 12t-27 -11q-10 -11 -10 -25t11 -24t25 -11l25 8v10h-20zM1522 84h22q31 0 31 21t-37 22h-16v-43zM590 -231h8v-86h-8l-51 73v-73h-9v86h9l51 -72v72zM1677 -231h9v-86h-9l-51 73v-73h-8v86h8l51 -72v72zM1159 -231h8v-86h-8l-51 73v-73h-8v86
h8l51 -72v72zM297 -305l25 76h8l-29 -86h-8l-19 71l-16 -71h-8l-29 86h8l25 -76l16 76h9zM174 -305l25 76h8l-29 -86h-8l-18 71l-17 -71h-8l-29 86h8l25 -76l16 76h9zM424 -305l25 76h8l-29 -86h-8l-19 71l-16 -71h-8l-29 86h8l25 -76l16 76h9zM1288 -309q14 0 25 10
q10 11 10 25t-10 24t-25 10h-16v-69h16zM1829 -299v-18h-8v86h22q13 -1 23 -11t10 -28t-18 -25l20 -22h-12l-17 18h-20zM1311 88h14q16 0 28 13q11 13 11 33t-12 32q-12 14 -29 14h-12v-92zM223 88h15q16 0 27 13t11 33t-12 32q-12 14 -28 14h-13v-92zM1288 -231
q18 1 30 -13t13 -31q0 -17 -13 -29t-30 -13h-24v86h24zM705 45h-50v180h50v-180zM1731 45h-50v59l-67 119h55l37 -65l37 65h57l-69 -119v-59zM389 125v-41h86v-39h-135v180h129v-41h-80v-24h53v-35h-53zM1153 125v-41h86v-39h-135v180h131v-41h-82v-24h55v-35h-55zM562 82
q25 0 26 12q0 10 -29 19q-68 14 -67 57q0 25 18 41t49 16t74 -14l-21 -39q-33 12 -52 12t-19 -11t30 -19q68 -14 68 -56q0 -59 -74 -59q-41 0 -78 18l19 37q31 -14 56 -14zM811 135h84v-67q-29 -23 -74 -25t-73 26q-28 29 -29 67q0 38 27 65q28 27 70 27t73 -27l-33 -33
q-18 14 -38 14t-34 -13t-14 -33t13 -36t29 -16t32 8v8h-33v35zM1032 225h49v-180h-22l-96 92v-92h-50v180h23l96 -94v94zM1413 135q-1 -37 -25 -63t-59 -27h-67v180h61q39 0 65 -26q25 -27 25 -64zM326 135q0 -37 -25 -63t-59 -27h-68v180h62q38 -1 64 -27t26 -63zM1626 108
q0 -64 -55 -63h-96v180h79q53 0 54 -39q-1 -20 -17 -32q35 -14 35 -46zM713 965h229v274l-141 -141v141h-88v-274zM942 877h-229v-275h88v141l141 -141v275zM1030 965h180q50 45 50 113t-46 114q-46 47 -112 47h-72v-274zM1030 602h72q66 0 112 47t46 115t-50 113h-180v-275
zM1567 921q0 -116 -65 -210t-169 -138q-41 -104 -136 -169q-95 -64 -211 -64t-210 64t-137 169q-104 43 -169 137q-64 94 -64 211q0 116 64 211q65 95 169 136q43 104 137 169t210 65t211 -66q95 -64 136 -168q104 -41 169 -136t65 -211z" />
    <glyph glyph-name="yen" unicode="&#xa5;" horiz-adv-x="1439" 
d="M1190 627v-90h-399l-23 -45v-37h422v-93h-422v-362h-121v362h-422v93h422v37l-22 45h-400v90h344l-491 817h137l492 -821l491 821h139l-493 -817h346z" />
    <glyph glyph-name="brokenbar" unicode="&#xa6;" horiz-adv-x="532" 
d="M219 -260v784h92v-784h-92zM219 850v784h92v-784h-92z" />
    <glyph glyph-name="section" unicode="&#xa7;" horiz-adv-x="1282" 
d="M256 773q0 -32 14 -55t65 -52q52 -29 141 -57q89 -27 104 -27q285 -68 288 -70q41 8 94 51q52 43 52 99t-73 100t-262 85q-188 41 -257 66q-70 -23 -118 -65t-48 -75zM1110 662q0 -62 -47 -116t-100 -79q78 -61 77 -160q0 -127 -108 -220t-303 -93q-266 0 -465 98l47 88
q96 -46 178 -68q81 -22 227 -22t231 65t85 139t-73 106t-154 53l-100 25q-143 36 -234 63t-132 60q-87 72 -85 155q0 125 180 198q-137 72 -137 208t117 215q118 79 298 79t435 -88l-35 -96q-264 88 -398 88t-222 -55q-87 -55 -87 -152q0 -46 30 -78q30 -31 72 -50
q80 -36 173 -59t131 -32q223 -57 311 -108t88 -164z" />
    <glyph glyph-name="dieresis" unicode="&#xa8;" horiz-adv-x="1024" 
d="M347 1731q29 0 51 -22q22 -21 22 -51t-22 -52t-52 -21q-30 0 -50 22q-22 21 -22 51t22 52t51 21zM678 1731q31 0 51 -22q21 -21 21 -51t-20 -52t-52 -21q-31 0 -51 22q-21 21 -21 51t20 52t52 21z" />
    <glyph glyph-name="copyright" unicode="&#xa9;" horiz-adv-x="1699" 
d="M866 375q150 0 252 133q61 -51 64 -53q-124 -160 -312 -160t-311 126t-123 304t123 303t311 125t312 -160q-2 -2 -64 -53q-100 133 -250 133t-250 -102q-98 -101 -98 -245t98 -248q98 -103 248 -103zM1524 726q0 278 -195 476t-477 199q-282 0 -476 -200
q-196 -201 -196 -479t195 -476t477 -197q282 0 476 200q196 199 196 477zM853 1458q306 0 517 -216t211 -517t-213 -517t-518 -216t-517 216t-212 517t213 517t519 216z" />
    <glyph glyph-name="ordfeminine" unicode="&#xaa;" horiz-adv-x="989" 
d="M197 1037q0 -128 92 -219q93 -91 235 -91t246 84v446q-94 89 -242 89t-239 -90q-92 -90 -92 -219zM770 1415h90v-756h-90v58q-114 -76 -274 -76t-275 117q-115 118 -115 280t115 278t273 116t276 -78v61z" />
    <glyph glyph-name="guillemotleft" unicode="&#xab;" horiz-adv-x="1091" 
d="M465 18l-356 527l356 526l76 -57l-324 -469l324 -469zM915 18l-354 527l354 526l78 -57l-323 -469l323 -469z" />
    <glyph glyph-name="logicalnot" unicode="&#xac;" horiz-adv-x="1216" 
d="M1102 940v-438h-103v336h-913v102h1016z" />
    <glyph glyph-name="uni00AD" unicode="&#xad;" horiz-adv-x="835" 
d="M737 729v-100h-639v100h639z" />
    <glyph glyph-name="registered" unicode="&#xae;" horiz-adv-x="1699" 
d="M641 1071v-414h211q246 0 246 213q0 86 -54 144t-165 57h-238zM856 588h-215v-273h-84v832h330q153 0 225 -77t72 -193q0 -207 -183 -267l205 -258l-63 -55l-230 293q-18 -2 -57 -2zM1524 726q0 278 -195 476t-477 199q-282 0 -476 -200q-196 -201 -196 -479t195 -476
t477 -197q282 0 476 200q196 199 196 477zM854 1458q305 0 516 -216t211 -517t-213 -517t-518 -216t-516 216t-211 517t213 517t518 216z" />
    <glyph glyph-name="macron" unicode="&#xaf;" horiz-adv-x="1024" 
d="M188 1614v86h648v-86h-648z" />
    <glyph glyph-name="degree" unicode="&#xb0;" horiz-adv-x="966" 
d="M483 821q121 0 208 84t87 203t-88 205t-207 86t-207 -86t-88 -204t87 -203t208 -85zM483 745q-153 0 -263 108t-110 256t112 257t262 109t260 -109q112 -109 112 -258t-110 -256t-263 -107z" />
    <glyph glyph-name="plusminus" unicode="&#xb1;" horiz-adv-x="1310" 
d="M1165 0h-1015v100h1015v-100zM1165 926v-99h-458v-458h-99v458h-458v99h458v458h99v-458h458z" />
    <glyph glyph-name="twosuperior" unicode="&#xb2;" horiz-adv-x="849" 
d="M737 688v-76h-643v37q48 73 148 139t188 107t156 107t68 155q0 90 -74 160q-74 69 -174 69t-167 -74t-67 -184h-78v19q0 135 91 226t223 91t227 -91q96 -91 96 -226q0 -92 -58 -165t-131 -112t-165 -89t-133 -93h493z" />
    <glyph glyph-name="threesuperior" unicode="&#xb3;" horiz-adv-x="849" 
d="M721 854q0 -110 -91 -182t-258 -72t-302 62q25 49 30 67q126 -53 264 -53t208 51t69 135q0 84 -71 131t-183 47h-33l-16 31l237 297h-462v74h592v-37l-250 -305q117 -10 191 -72t75 -174z" />
    <glyph glyph-name="acute" unicode="&#xb4;" horiz-adv-x="1024" 
d="M768 1864l-346 -314h-92l303 326z" />
    <glyph glyph-name="mu" unicode="&#xb5;" horiz-adv-x="1349" 
d="M1065 1104h115v-1104h-115v129q-154 -137 -414 -137q-123 0 -220 53t-148 154v-545h-115v1452h115v-623q0 -184 104 -284t270 -101q244 0 408 142v864z" />
    <glyph glyph-name="paragraph" unicode="&#xb6;" horiz-adv-x="1142" 
d="M596 662v663h-43q-166 0 -268 -86q-103 -86 -103 -241q0 -156 106 -246t265 -90h43zM547 1434h448v-1434h-96v1325h-205v-1325h-98v549h-43q-219 0 -355 116q-136 117 -136 327t130 326q132 116 355 116z" />
    <glyph glyph-name="periodcentered" unicode="&#xb7;" horiz-adv-x="372" 
d="M262 641q0 -33 -24 -57t-57 -23q-33 0 -57 24q-24 25 -24 57t24 56t58 23q34 1 56 -23q24 -24 24 -57z" />
    <glyph glyph-name="cedilla" unicode="&#xb8;" horiz-adv-x="878" 
d="M596 -236q0 -56 -52 -100t-136 -45q-84 0 -125 12l-15 2l6 58q144 -33 201 14q35 29 35 68q-1 73 -148 73l103 156h78l-58 -121q47 0 79 -31q32 -30 32 -86z" />
    <glyph glyph-name="onesuperior" unicode="&#xb9;" horiz-adv-x="702" 
d="M465 1444v-832h-82v746l-201 -45l-18 71l266 60h35z" />
    <glyph glyph-name="ordmasculine" unicode="&#xba;" horiz-adv-x="1038" 
d="M180 1039q0 -128 96 -219t233 -91q136 0 233 91q98 91 98 219t-98 219q-98 92 -233 92q-137 0 -233 -92t-96 -219zM509 1436q175 0 298 -116t123 -281t-123 -281t-297 -115q-174 0 -297 116q-123 117 -123 281t122 280t297 116z" />
    <glyph glyph-name="guillemotright" unicode="&#xbb;" horiz-adv-x="1085" 
d="M547 545l-357 -527l-77 58l323 469l-323 469l77 57zM997 545l-356 -527l-76 58l324 469l-324 469l76 57z" />
    <glyph glyph-name="onequarter" unicode="&#xbc;" horiz-adv-x="1740" 
d="M1272 1436h96l-989 -1436h-96zM1368 283v417l-364 -417h364zM1448 283h168v-74h-168v-209h-80v209h-448l-25 55l491 570h62v-551zM438 1444v-832h-82v746l-200 -45l-19 71l266 60h35z" />
    <glyph glyph-name="onehalf" unicode="&#xbd;" horiz-adv-x="1843" 
d="M1272 1436h96l-989 -1436h-96zM1698 76v-76h-643v37q45 77 144 145t189 108t158 103t68 152t-75 159t-172 70t-167 -68t-70 -174v-16h-75v19q0 135 91 226t222 91t227 -91t97 -226q0 -94 -62 -167t-139 -110q-237 -113 -295 -182h502zM438 1444v-832h-82v746l-200 -45
l-19 71l266 60h35z" />
    <glyph glyph-name="threequarters" unicode="&#xbe;" horiz-adv-x="1808" 
d="M1370 1436h96l-989 -1436h-96zM113 1442h592v-37l-250 -305q117 -10 191 -72t75 -174q0 -110 -91 -182t-258 -72t-302 62l30 67q126 -53 264 -53t208 51t69 135q0 84 -71 131t-183 47h-33l-16 31l237 297h-462v74zM1466 283v417l-364 -417h364zM1546 283h168v-74h-168
v-209h-80v209h-450l-23 55l492 570h61v-551z" />
    <glyph glyph-name="questiondown" unicode="&#xbf;" horiz-adv-x="1105" 
d="M639 1288q-33 0 -57 24t-23 58q0 34 24 58q25 24 57 24t56 -24t23 -58q1 -34 -23 -58t-57 -24zM623 -10q-242 0 -385 123t-144 338q0 166 131 272t359 106l8 250h86l8 -301l-16 -30h-39q-211 0 -322 -83t-110 -216q0 -166 116 -262q117 -95 306 -95q133 0 227 20t196 74
l43 -94q-117 -62 -215 -82t-249 -20z" />
    <glyph glyph-name="Agrave" unicode="&#xc0;" horiz-adv-x="1480" 
d="M696 1550l-346 314l135 12l303 -326h-92zM739 1284l-350 -790h703zM1309 0l-174 393h-791l-172 -393h-127l657 1444h76l658 -1444h-127z" />
    <glyph glyph-name="Aacute" unicode="&#xc1;" horiz-adv-x="1480" 
d="M1139 1864l-346 -314h-93l304 326zM739 1284l-350 -790h703zM1309 0l-174 393h-791l-172 -393h-127l657 1444h76l658 -1444h-127z" />
    <glyph glyph-name="Acircumflex" unicode="&#xc2;" horiz-adv-x="1480" 
d="M408 1550l292 283h78l295 -283h-108l-226 205l-223 -205h-108zM739 1284l-350 -790h703zM1309 0l-174 393h-791l-172 -393h-127l657 1444h76l658 -1444h-127z" />
    <glyph glyph-name="Atilde" unicode="&#xc3;" horiz-adv-x="1480" 
d="M564 1798q79 0 191 -48q113 -48 161 -48t89 40q40 40 52 113l71 -10q-14 -113 -71 -174t-128 -61t-184 48t-157 48q-125 0 -160 -156l-72 9q14 117 72 178t136 61zM739 1284l-350 -790h703zM1309 0l-174 393h-791l-172 -393h-127l657 1444h76l658 -1444h-127z" />
    <glyph glyph-name="Adieresis" unicode="&#xc4;" horiz-adv-x="1480" 
d="M572 1585q-30 0 -52 22q-22 21 -20 51q0 30 21 52t51 21q30 0 52 -22q22 -21 22 -51t-22 -52t-52 -21zM903 1731q31 0 51 -22q20 -21 20 -51t-20 -52t-51 -21q-31 0 -51 22q-20 21 -20 51t20 52t51 21zM739 1284l-350 -790h703zM1309 0l-174 393h-791l-172 -393h-127
l657 1444h76l658 -1444h-127z" />
    <glyph glyph-name="Aring" unicode="&#xc5;" horiz-adv-x="1480" 
d="M739 1462q47 0 82 34t35 81t-35 82t-82 35t-82 -35t-35 -82t36 -81q34 -34 81 -34zM739 1284l-350 -790h703zM555 1584q0 66 55 121q55 54 129 54t129 -54q56 -55 56 -121t-36 -114t-91 -67l639 -1403h-127l-174 393h-791l-172 -393h-127l639 1403q-55 15 -92 65t-37 116
z" />
    <glyph glyph-name="AE" unicode="&#xc6;" horiz-adv-x="2035" 
d="M915 494v835h-53l-444 -835h497zM1032 106h899v-106h-1016v393h-546l-207 -393h-129l768 1444h1087v-107h-856v-583h729v-107h-729v-541z" />
    <glyph glyph-name="Ccedilla" unicode="&#xc7;" horiz-adv-x="1562" 
d="M870 1452q174 0 329 -73t261 -199l-92 -80q-90 111 -219 174t-279 63q-262 0 -447 -179t-185 -436t185 -436t447 -180q150 0 279 62t219 174l92 -80q-102 -120 -248 -192t-311 -76l-53 -113q47 0 79 -31q31 -30 31 -86t-52 -100t-136 -45q-84 0 -125 12l-14 2l6 58
q143 -33 201 14q35 29 34 68q0 73 -147 73l96 148q-297 18 -502 228t-205 506t222 510q221 214 534 214z" />
    <glyph glyph-name="Egrave" unicode="&#xc8;" 
d="M643 1550l-346 314l135 12l303 -326h-92zM303 106h899v-106h-1016v1444h973v-107h-856v-583h729v-107h-729v-541z" />
    <glyph glyph-name="Eacute" unicode="&#xc9;" 
d="M1081 1864l-346 -314h-92l303 326zM303 106h899v-106h-1016v1444h973v-107h-856v-583h729v-107h-729v-541z" />
    <glyph glyph-name="Ecircumflex" unicode="&#xca;" 
d="M352 1550l293 283h78l295 -283h-109l-225 205l-223 -205h-109zM303 106h899v-106h-1016v1444h973v-107h-856v-583h729v-107h-729v-541z" />
    <glyph glyph-name="Edieresis" unicode="&#xcb;" 
d="M519 1731q29 0 51 -22q22 -21 22 -51t-22 -52t-52 -21q-30 0 -50 22q-22 21 -22 51t22 52t51 21zM850 1731q31 0 51 -22q21 -21 21 -51t-20 -52t-52 -21q-31 0 -51 22q-21 21 -21 51t20 52t52 21zM303 106h899v-106h-1016v1444h973v-107h-856v-583h729v-107h-729v-541z
" />
    <glyph glyph-name="Igrave" unicode="&#xcc;" horiz-adv-x="495" 
d="M205 1577l-346 313l135 13l303 -326h-92zM309 1444v-1444h-121v1444h121z" />
    <glyph glyph-name="Iacute" unicode="&#xcd;" horiz-adv-x="495" 
d="M649 1890l-346 -313h-92l303 326zM309 1444v-1444h-121v1444h121z" />
    <glyph glyph-name="Icircumflex" unicode="&#xce;" horiz-adv-x="495" 
d="M-82 1577l293 283h78l295 -283h-109l-225 205l-223 -205h-109zM309 1444v-1444h-121v1444h121z" />
    <glyph glyph-name="Idieresis" unicode="&#xcf;" horiz-adv-x="495" 
d="M87 1757q29 1 51 -21t22 -52t-22 -52t-52 -20q-30 0 -50 22q-22 22 -22 50q0 30 22 52t51 21zM418 1757q31 1 51 -21t20 -52t-20 -52t-51 -20q-31 0 -51 22q-21 22 -21 50q0 30 20 52t52 21zM309 1444v-1444h-121v1444h121z" />
    <glyph glyph-name="Eth" unicode="&#xd0;" horiz-adv-x="1529" 
d="M336 111h389q233 0 402 183t169 432t-178 428t-430 179h-352v-561h401v-100h-401v-561zM8 672v100h211v672h469q301 0 514 -212t213 -507t-200 -510t-480 -215h-516v672h-211z" />
    <glyph glyph-name="Ntilde" unicode="&#xd1;" horiz-adv-x="1579" 
d="M609 1798q79 0 191 -48t161 -48t89 40t52 113l72 -10q-14 -113 -72 -174t-128 -61q-72 0 -184 48t-157 48q-125 0 -160 -156l-72 9q13 117 71 178t137 61zM1274 1444h119v-1444h-70l-1018 1217v-1217h-119v1444h68l1020 -1219v1219z" />
    <glyph glyph-name="Ograve" unicode="&#xd2;" horiz-adv-x="1748" 
d="M817 1550l-346 314l135 12l303 -326h-92zM874 104q264 0 452 182t187 435q0 254 -187 435q-188 181 -452 181t-451 -181t-187 -435q0 -253 187 -435t451 -182zM874 1452q316 0 538 -214t222 -517t-222 -516t-538 -213t-538 213q-223 213 -223 516t223 517t538 214z" />
    <glyph glyph-name="Oacute" unicode="&#xd3;" horiz-adv-x="1748" 
d="M1253 1864l-346 -314h-92l303 326zM874 104q264 0 452 182t187 435q0 254 -187 435q-188 181 -452 181t-451 -181t-187 -435q0 -253 187 -435t451 -182zM874 1452q316 0 538 -214t222 -517t-222 -516t-538 -213t-538 213q-223 213 -223 516t223 517t538 214z" />
    <glyph glyph-name="Ocircumflex" unicode="&#xd4;" horiz-adv-x="1748" 
d="M528 1550l293 283h78l295 -283h-109l-225 205l-223 -205h-109zM874 104q264 0 452 182t187 435q0 254 -187 435q-188 181 -452 181t-451 -181t-187 -435q0 -253 187 -435t451 -182zM874 1452q316 0 538 -214t222 -517t-222 -516t-538 -213t-538 213q-223 213 -223 516
t223 517t538 214z" />
    <glyph glyph-name="Otilde" unicode="&#xd5;" horiz-adv-x="1748" 
d="M689 1798q79 0 191 -48t160 -48t89 40q40 40 53 113l71 -10q-14 -113 -71 -174t-128 -61t-184 48t-157 48q-125 0 -160 -156l-72 9q13 117 71 178t137 61zM874 104q264 0 452 182t187 435q0 254 -187 435q-188 181 -452 181t-451 -181t-187 -435q0 -253 187 -435
t451 -182zM874 1452q316 0 538 -214t222 -517t-222 -516t-538 -213t-538 213q-223 213 -223 516t223 517t538 214z" />
    <glyph glyph-name="Odieresis" unicode="&#xd6;" horiz-adv-x="1748" 
d="M703 1585q-29 0 -51 22q-22 21 -22 51t22 52q21 22 51 21q30 0 52 -22q21 -21 21 -51t-22 -52t-51 -21zM1034 1731q31 0 51 -22q21 -21 21 -51t-20 -52t-52 -21q-31 0 -51 22q-20 21 -20 51t20 52t51 21zM874 104q264 0 452 182t187 435q0 254 -187 435
q-188 181 -452 181t-451 -181t-187 -435q0 -253 187 -435t451 -182zM874 1452q316 0 538 -214t222 -517t-222 -516t-538 -213t-538 213q-223 213 -223 516t223 517t538 214z" />
    <glyph glyph-name="multiply" unicode="&#xd7;" horiz-adv-x="1155" 
d="M668 647l405 -405l-67 -70l-408 403l-403 -403l-70 70l405 405l-405 406l68 69l405 -405l408 405l69 -69z" />
    <glyph glyph-name="Oslash" unicode="&#xd8;" horiz-adv-x="1748" 
d="M874 104q264 0 452 182t187 438q0 257 -198 433l-811 -936q165 -117 370 -117zM236 717q0 -258 204 -441l813 938q-166 123 -379 123q-264 0 -451 -181t-187 -439zM874 1452q254 0 455 -147l121 139h111l-166 -193q239 -217 239 -525t-222 -521t-538 -213
q-252 0 -448 139l-113 -131h-108l157 182q-118 102 -184 242t-65 297q0 303 223 517t538 214z" />
    <glyph glyph-name="Ugrave" unicode="&#xd9;" horiz-adv-x="1546" 
d="M735 1550l-346 314l135 12l303 -326h-92zM1364 1444v-864q0 -256 -157 -422t-435 -166t-434 165t-156 423v864h117v-842q0 -225 124 -361q124 -137 350 -137t350 138t124 360v842h117z" />
    <glyph glyph-name="Uacute" unicode="&#xda;" horiz-adv-x="1546" 
d="M1174 1864l-347 -314h-92l303 326zM1364 1444v-864q0 -256 -157 -422t-435 -166t-434 165t-156 423v864h117v-842q0 -225 124 -361q124 -137 350 -137t350 138t124 360v842h117z" />
    <glyph glyph-name="Ucircumflex" unicode="&#xdb;" horiz-adv-x="1546" 
d="M444 1550l293 283h78l295 -283h-109l-225 205l-223 -205h-109zM1364 1444v-864q0 -256 -157 -422t-435 -166t-434 165t-156 423v864h117v-842q0 -225 124 -361q124 -137 350 -137t350 138t124 360v842h117z" />
    <glyph glyph-name="Udieresis" unicode="&#xdc;" horiz-adv-x="1546" 
d="M611 1585q-29 0 -51 22q-22 21 -22 51t22 52q21 22 51 21q30 0 52 -22q21 -21 21 -51t-22 -52t-51 -21zM942 1731q31 0 51 -22q21 -21 21 -51t-20 -52t-52 -21q-31 0 -51 22q-21 21 -21 51t20 52t52 21zM1364 1444v-864q0 -256 -157 -422t-435 -166t-434 165t-156 423
v864h117v-842q0 -225 124 -361q124 -137 350 -137t350 138t124 360v842h117z" />
    <glyph glyph-name="Yacute" unicode="&#xdd;" horiz-adv-x="1347" 
d="M1077 1864l-346 -314h-92l303 326zM735 0h-121v498l-569 946h137l492 -821l491 821h140l-570 -946v-498z" />
    <glyph glyph-name="Thorn" unicode="&#xde;" horiz-adv-x="1345" 
d="M305 360h393q203 0 322 96t119 276q1 180 -97 282t-303 102h-434v-756zM186 0v1444h119v-223h440q259 0 387 -131t128 -340q0 -250 -151 -372t-409 -122h-395v-256h-119z" />
    <glyph glyph-name="germandbls" unicode="&#xdf;" horiz-adv-x="1312" 
d="M1212 459q0 -219 -141 -343t-354 -124q-131 0 -221 31l14 102q90 -29 195 -29q169 0 281 95t112 268q0 133 -100 238t-281 106h-51v96h39q104 0 178 74q73 75 73 201t-94 202t-242 76t-242 -113q-93 -113 -93 -295v-1390h-117v1374q0 240 128 383t324 143t323 -103
q126 -103 126 -290q0 -106 -53 -186t-137 -113q157 -32 245 -150t88 -253z" />
    <glyph glyph-name="agrave" unicode="&#xe0;" horiz-adv-x="1368" 
d="M645 1262l-346 313l135 12l303 -325h-92zM215 560q0 -190 137 -326t334 -136q249 1 399 144v628q-154 147 -399 148q-199 0 -335 -134t-136 -324zM1085 1104h115v-1104h-115v123q-171 -131 -413 -131t-407 167t-165 400t165 400t409 167t411 -137v115z" />
    <glyph glyph-name="aacute" unicode="&#xe1;" horiz-adv-x="1368" 
d="M1083 1575l-346 -313h-92l303 325zM215 560q0 -190 137 -326t334 -136q249 1 399 144v628q-154 147 -399 148q-199 0 -335 -134t-136 -324zM1085 1104h115v-1104h-115v123q-171 -131 -413 -131t-407 167t-165 400t165 400t409 167t411 -137v115z" />
    <glyph glyph-name="acircumflex" unicode="&#xe2;" horiz-adv-x="1368" 
d="M369 1262l293 282h77l295 -282h-108l-226 204l-223 -204h-108zM215 560q0 -190 137 -326t334 -136q249 1 399 144v628q-154 147 -399 148q-199 0 -335 -134t-136 -324zM1085 1104h115v-1104h-115v123q-171 -131 -413 -131t-407 167t-165 400t165 400t409 167t411 -137
v115z" />
    <glyph glyph-name="atilde" unicode="&#xe3;" horiz-adv-x="1368" 
d="M525 1509q79 0 191 -48t161 -48t89 40t52 114l72 -11q-14 -113 -72 -174t-128 -61q-72 0 -184 48t-157 48q-125 1 -160 -155l-72 8q13 117 71 178t137 61zM215 560q0 -190 137 -326t334 -136q249 1 399 144v628q-154 147 -399 148q-199 0 -335 -134t-136 -324zM1085 1104
h115v-1104h-115v123q-171 -131 -413 -131t-407 167t-165 400t165 400t409 167t411 -137v115z" />
    <glyph glyph-name="adieresis" unicode="&#xe4;" horiz-adv-x="1368" 
d="M538 1442q30 0 52 -22t20 -52q0 -30 -22 -50q-22 -22 -50 -22q-30 0 -52 22t-22 52t22 50q22 22 52 22zM868 1442q32 0 52 -22t20 -52t-20 -50q-20 -22 -52 -22t-51 22q-20 22 -20 52t20 50q20 22 51 22zM215 560q0 -190 137 -326t334 -136q249 1 399 144v628
q-154 147 -399 148q-199 0 -335 -134t-136 -324zM1085 1104h115v-1104h-115v123q-171 -131 -413 -131t-407 167t-165 400t165 400t409 167t411 -137v115z" />
    <glyph glyph-name="aring" unicode="&#xe5;" horiz-adv-x="1368" 
d="M698 1362q47 0 82 34t35 81t-35 82t-82 35t-82 -36q-34 -34 -34 -81t34 -81t82 -34zM514 1477q0 74 55 128t129 54t129 -54t55 -128t-54 -128q-56 -55 -130 -55t-129 54t-55 129zM215 560q0 -190 137 -326t334 -136q249 1 399 144v628q-154 147 -399 148
q-199 0 -335 -134t-136 -324zM1085 1104h115v-1104h-115v123q-171 -131 -413 -131t-407 167t-165 400t165 400t409 167t411 -137v115z" />
    <glyph glyph-name="ae" unicode="&#xe6;" horiz-adv-x="2312" 
d="M1673 1028q-184 0 -307 -120t-137 -302h868q-14 190 -127 306t-297 116zM215 558q0 -194 138 -327t335 -133q249 1 399 144v628q-154 147 -399 148q-197 0 -335 -133t-138 -327zM1202 0h-115v123q-171 -131 -411 -131t-408 164t-168 404t168 402t413 162t406 -135v115
h115v-260q66 129 191 206t282 76q248 -2 391 -162t144 -415v-33h-981q10 -184 137 -305t320 -121q256 0 403 176l76 -61q-170 -213 -482 -213q-165 0 -291 76t-190 206v-274z" />
    <glyph glyph-name="ccedilla" unicode="&#xe7;" horiz-adv-x="1202" 
d="M98 564q0 228 176 394t423 166t411 -190l-80 -72q-129 156 -329 156t-343 -134t-143 -326t143 -326t342 -134t330 162l76 -74q-150 -182 -377 -192l-53 -113q47 0 79 -31q31 -30 31 -86t-52 -100t-136 -45q-84 0 -125 12l-14 2l6 58q143 -33 201 14q35 29 34 68
q0 73 -147 73l96 148q-231 18 -390 180t-159 390z" />
    <glyph glyph-name="egrave" unicode="&#xe8;" horiz-adv-x="1296" 
d="M610 1262l-346 313l135 12l303 -325h-92zM663 1026q-185 0 -309 -119t-139 -297h864q-11 186 -121 301t-295 115zM1194 549v-33h-979q21 -182 153 -300t310 -118q119 0 222 45t169 129l80 -65q-78 -99 -206 -157t-281 -58q-246 0 -405 164t-159 402t159 403
q159 163 404 163t389 -160t144 -415z" />
    <glyph glyph-name="eacute" unicode="&#xe9;" horiz-adv-x="1296" 
d="M1049 1575l-347 -313h-92l303 325zM663 1026q-185 0 -309 -119t-139 -297h864q-11 186 -121 301t-295 115zM1194 549v-33h-979q21 -182 153 -300t310 -118q119 0 222 45t169 129l80 -65q-78 -99 -206 -157t-281 -58q-246 0 -405 164t-159 402t159 403q159 163 404 163
t389 -160t144 -415z" />
    <glyph glyph-name="ecircumflex" unicode="&#xea;" horiz-adv-x="1296" 
d="M319 1262l293 282h78l295 -282h-108l-226 204l-223 -204h-109zM663 1026q-185 0 -309 -119t-139 -297h864q-11 186 -121 301t-295 115zM1194 549v-33h-979q21 -182 153 -300t310 -118q119 0 222 45t169 129l80 -65q-78 -99 -206 -157t-281 -58q-246 0 -405 164t-159 402
t159 403q159 163 404 163t389 -160t144 -415z" />
    <glyph glyph-name="edieresis" unicode="&#xeb;" horiz-adv-x="1296" 
d="M486 1296q-30 0 -52 22t-20 52q0 30 21 50q21 22 51 22t52 -22t22 -52t-22 -50q-22 -22 -52 -22zM817 1442q31 0 51 -22t20 -52t-20 -50q-20 -22 -51 -22t-51 22t-20 52t20 50q20 22 51 22zM663 1026q-185 0 -309 -119t-139 -297h864q-11 186 -121 301t-295 115z
M1194 549v-33h-979q21 -182 153 -300t310 -118q119 0 222 45t169 129l80 -65q-78 -99 -206 -157t-281 -58q-246 0 -405 164t-159 402t159 403q159 163 404 163t389 -160t144 -415z" />
    <glyph glyph-name="igrave" unicode="&#xec;" horiz-adv-x="460" 
d="M172 0v1104h117v-1104h-117zM190 1241l-346 313l136 13l303 -326h-93z" />
    <glyph glyph-name="iacute" unicode="&#xed;" horiz-adv-x="460" 
d="M172 0v1104h117v-1104h-117zM631 1554l-346 -313h-92l303 326z" />
    <glyph glyph-name="icircumflex" unicode="&#xee;" horiz-adv-x="460" 
d="M-100 1241l293 283h77l295 -283h-108l-226 205l-223 -205h-108zM172 0v1104h117v-1104h-117z" />
    <glyph glyph-name="idieresis" unicode="&#xef;" horiz-adv-x="460" 
d="M172 0v1104h117v-1104h-117zM67 1421q29 1 51 -21t22 -52t-22 -51t-52 -21t-51 22t-21 51q0 30 21 51q22 21 52 21zM397 1421q31 0 52 -21q20 -22 20 -52t-20 -51q-19 -21 -51 -21t-52 22t-20 51q0 30 20 51t51 21z" />
    <glyph glyph-name="eth" unicode="&#xf0;" horiz-adv-x="1355" 
d="M670 98q201 0 343 127t142 307t-146 289t-344 109t-340 -117q-143 -117 -143 -291t144 -299t344 -125zM1270 516q0 -215 -178 -370q-178 -154 -424 -154t-423 156t-177 370q0 213 165 364q165 150 405 150t386 -133q-123 180 -307 361l-348 -121l-50 69l340 119l-215 217
h138q145 -139 184 -180l293 102l47 -69l-281 -99q203 -210 324 -404t121 -378z" />
    <glyph glyph-name="ntilde" unicode="&#xf1;" horiz-adv-x="1310" 
d="M834 1393q49 0 89 40t52 113l72 -10q-13 -113 -71 -174q-58 -62 -129 -62t-183 48t-158 49q-125 0 -160 -156l-72 8q14 117 72 178t136 61q79 0 191 -47q112 -48 161 -48zM670 1124q236 0 364 -126q129 -126 129 -365v-633h-114v633q-1 185 -105 285t-270 100
q-233 0 -391 -141v-877h-115v1104h115v-119q151 139 387 139z" />
    <glyph glyph-name="ograve" unicode="&#xf2;" horiz-adv-x="1396" 
d="M645 1241l-346 313l135 13l303 -326h-92zM698 98q201 0 343 134q143 134 143 326t-142 326t-344 134q-201 0 -344 -134t-143 -326t143 -326t344 -134zM96 558q0 236 176 400q176 166 425 166t425 -166t176 -402t-176 -400t-425 -164t-425 165t-176 401z" />
    <glyph glyph-name="oacute" unicode="&#xf3;" horiz-adv-x="1396" 
d="M1083 1554l-346 -313h-92l303 326zM698 98q201 0 343 134q143 134 143 326t-142 326t-344 134q-201 0 -344 -134t-143 -326t143 -326t344 -134zM96 558q0 236 176 400q176 166 425 166t425 -166t176 -402t-176 -400t-425 -164t-425 165t-176 401z" />
    <glyph glyph-name="ocircumflex" unicode="&#xf4;" horiz-adv-x="1396" 
d="M358 1241l293 283h78l295 -283h-109l-225 205l-223 -205h-109zM698 98q201 0 343 134q143 134 143 326t-142 326t-344 134q-201 0 -344 -134t-143 -326t143 -326t344 -134zM96 558q0 236 176 400q176 166 425 166t425 -166t176 -402t-176 -400t-425 -164t-425 165
t-176 401z" />
    <glyph glyph-name="otilde" unicode="&#xf5;" horiz-adv-x="1396" 
d="M866 1393q48 0 89 40q40 40 53 113l71 -10q-14 -113 -71 -174q-56 -62 -128 -62t-184 48t-157 49q-125 0 -160 -156l-72 8q13 117 71 178t136 61t192 -47q112 -48 160 -48zM698 98q201 0 343 134q143 134 143 326t-142 326t-344 134q-201 0 -344 -134t-143 -326t143 -326
t344 -134zM96 558q0 236 176 400q176 166 425 166t425 -166t176 -402t-176 -400t-425 -164t-425 165t-176 401z" />
    <glyph glyph-name="odieresis" unicode="&#xf6;" horiz-adv-x="1396" 
d="M525 1421q30 1 52 -21q21 -22 21 -52t-22 -51t-51 -21t-51 22t-22 51q0 30 22 51q21 21 51 21zM856 1421q31 1 51 -21q21 -22 21 -52t-20 -51t-52 -21q-31 0 -51 22q-21 22 -21 51q0 30 20 51t52 21zM698 98q201 0 343 134q143 134 143 326t-142 326t-344 134
q-201 0 -344 -134t-143 -326t143 -326t344 -134zM96 558q0 236 176 400q176 166 425 166t425 -166t176 -402t-176 -400t-425 -164t-425 165t-176 401z" />
    <glyph glyph-name="divide" unicode="&#xf7;" horiz-adv-x="1077" 
d="M530 84q-34 0 -56 22t-22 55t24 55q22 22 54 22t55 -23q21 -23 21 -55t-21 -54q-22 -22 -55 -22zM530 1079q-34 0 -56 22q-22 23 -22 55t24 54q22 22 54 23q32 0 55 -23q21 -24 21 -56t-22 -54t-54 -21zM983 729v-98h-885v98h885z" />
    <glyph glyph-name="oslash" unicode="&#xf8;" horiz-adv-x="1398" 
d="M211 558q0 -192 147 -322l619 696q-125 86 -279 86q-201 0 -344 -134t-143 -326zM698 98q201 0 343 134q143 134 143 326t-154 323l-614 -695q118 -88 282 -88zM698 1124q199 0 353 -108l90 102h100l-133 -149q190 -168 190 -408q0 -241 -176 -405t-424 -164
q-199 0 -356 108l-92 -100h-98l131 150q-187 164 -187 404t176 404q176 166 426 166z" />
    <glyph glyph-name="ugrave" unicode="&#xf9;" horiz-adv-x="1327" 
d="M623 1241l-347 313l136 13l303 -326h-92zM1042 1104h115v-1104h-115v131q-156 -139 -421 -139q-217 0 -347 126q-129 126 -129 365v621h115v-621q0 -182 104 -283t271 -102q244 0 407 142v864z" />
    <glyph glyph-name="uacute" unicode="&#xfa;" horiz-adv-x="1327" 
d="M1061 1554l-346 -313h-92l303 326zM1042 1104h115v-1104h-115v131q-156 -139 -421 -139q-217 0 -347 126q-129 126 -129 365v621h115v-621q0 -182 104 -283t271 -102q244 0 407 142v864z" />
    <glyph glyph-name="ucircumflex" unicode="&#xfb;" horiz-adv-x="1327" 
d="M317 1241l293 283h78l295 -283h-109l-225 205l-223 -205h-109zM1042 1104h115v-1104h-115v131q-156 -139 -421 -139q-217 0 -347 126q-129 126 -129 365v621h115v-621q0 -182 104 -283t271 -102q244 0 407 142v864z" />
    <glyph glyph-name="udieresis" unicode="&#xfc;" horiz-adv-x="1327" 
d="M482 1421q30 1 52 -21t22 -52t-22 -51t-52 -21t-52 22t-20 51q0 30 21 51t51 21zM813 1421q31 1 51 -21t20 -52t-20 -51t-51 -21t-51 22t-20 51q0 30 20 51t51 21zM1042 1104h115v-1104h-115v131q-156 -139 -421 -139q-217 0 -347 126q-129 126 -129 365v621h115v-621
q0 -182 104 -283t271 -102q244 0 407 142v864z" />
    <glyph glyph-name="yacute" unicode="&#xfd;" horiz-adv-x="1249" 
d="M1036 1554l-346 -313h-92l303 326zM123 -283q387 0 491 283h-55l-496 1104h125l439 -969h45l385 969h123l-467 -1163q-53 -133 -173 -212t-268 -100q-63 -8 -184 -8l10 96h25z" />
    <glyph glyph-name="thorn" unicode="&#xfe;" horiz-adv-x="1372" 
d="M682 98q197 0 335 133t138 327t-138 327t-335 133q-246 0 -399 -148v-628q149 -144 399 -144zM691 1124q243 0 411 -162t168 -403q0 -239 -168 -403t-411 -164t-408 127v-477h-115v1902h115v-553q165 133 408 133z" />
    <glyph glyph-name="ydieresis" unicode="&#xff;" horiz-adv-x="1249" 
d="M401 1349q-1 30 21 51t52 21q30 1 52 -21t21 -52q0 -30 -22 -51q-21 -21 -51 -21t-52 22t-21 51zM805 1421q31 1 51 -21t20 -52t-20 -51t-51 -21t-51 22t-20 51q0 30 20 51t51 21zM123 -283q387 0 491 283h-55l-496 1104h125l439 -969h45l385 969h123l-467 -1163
q-53 -133 -173 -212t-268 -100q-63 -8 -184 -8l10 96h25z" />
    <glyph glyph-name="Amacron" unicode="&#x100;" horiz-adv-x="1480" 
d="M416 1614v86h647v-86h-647zM739 1284l-350 -790h703zM1309 0l-174 393h-791l-172 -393h-127l657 1444h76l658 -1444h-127z" />
    <glyph glyph-name="amacron" unicode="&#x101;" horiz-adv-x="1368" 
d="M360 1325v86h648v-86h-648zM215 560q0 -190 137 -326t334 -136q249 1 399 144v628q-154 147 -399 148q-199 0 -335 -134t-136 -324zM1085 1104h115v-1104h-115v123q-171 -131 -413 -131t-407 167t-165 400t165 400t409 167t411 -137v115z" />
    <glyph glyph-name="Abreve" unicode="&#x102;" horiz-adv-x="1480" 
d="M740 1587q-132 0 -212 68t-90 200l84 9q18 -188 218 -188t221 188l83 -9q-10 -133 -91 -201t-213 -67zM739 1284l-350 -790h703zM1309 0l-174 393h-791l-172 -393h-127l657 1444h76l658 -1444h-127z" />
    <glyph glyph-name="abreve" unicode="&#x103;" horiz-adv-x="1368" 
d="M687 1298q-132 0 -212 68t-90 201l84 8q18 -189 218 -189t220 189l84 -8q-10 -133 -91 -201t-213 -68zM215 560q0 -190 137 -326t334 -136q249 1 399 144v628q-154 147 -399 148q-199 0 -335 -134t-136 -324zM1085 1104h115v-1104h-115v123q-171 -131 -413 -131t-407 167
t-165 400t165 400t409 167t411 -137v115z" />
    <glyph glyph-name="Aogonek" unicode="&#x104;" horiz-adv-x="1480" 
d="M739 1284l-350 -790h703zM1315 -196q-1 -28 23 -52t63 -24t90 8l8 -74q-63 -12 -129 -12t-108 37t-43 102q0 96 122 211h-32l-174 393h-791l-172 -393h-127l657 1444h76l658 -1444q-15 -12 -44 -46q-77 -86 -77 -150z" />
    <glyph glyph-name="aogonek" unicode="&#x105;" horiz-adv-x="1368" 
d="M215 560q0 -190 137 -326t334 -136q249 1 399 144v628q-154 147 -399 148q-199 0 -335 -134t-136 -324zM1135 -350q-66 0 -109 37t-43 102q0 96 123 211h-21v123q-171 -131 -413 -131t-407 167t-165 400t165 400t409 167t411 -137v115h115v-1104q-118 -118 -121 -190
q0 -35 24 -58q25 -24 63 -24t89 8l9 -74q-63 -12 -129 -12z" />
    <glyph glyph-name="Cacute" unicode="&#x106;" horiz-adv-x="1562" 
d="M1243 1864l-346 -314h-92l303 326zM870 106q150 0 279 62t219 174l92 -80q-106 -127 -260 -199t-330 -71q-313 0 -534 213t-221 516t221 517t534 214q174 0 329 -73t261 -199l-92 -80q-90 111 -219 174t-279 63q-262 0 -447 -179t-185 -436q0 -256 185 -436t447 -180z
" />
    <glyph glyph-name="cacute" unicode="&#x107;" horiz-adv-x="1202" 
d="M1069 1575l-346 -313h-92l303 325zM700 -8q-250 0 -426 165t-176 401t176 400q176 166 423 166t411 -190l-80 -72q-129 156 -329 156t-343 -134t-143 -326t143 -326t342 -134t330 162l76 -74q-74 -92 -180 -143t-224 -51z" />
    <glyph glyph-name="Ccircumflex" unicode="&#x108;" horiz-adv-x="1562" 
d="M514 1550l293 283h78l295 -283h-109l-225 205l-223 -205h-109zM870 106q150 0 279 62t219 174l92 -80q-106 -127 -260 -199t-330 -71q-313 0 -534 213t-221 516t221 517t534 214q174 0 329 -73t261 -199l-92 -80q-90 111 -219 174t-279 63q-262 0 -447 -179t-185 -436
q0 -256 185 -436t447 -180z" />
    <glyph glyph-name="ccircumflex" unicode="&#x109;" horiz-adv-x="1202" 
d="M338 1262l293 282h78l295 -282h-109l-225 204l-224 -204h-108zM700 -8q-250 0 -426 165t-176 401t176 400q176 166 423 166t411 -190l-80 -72q-129 156 -329 156t-343 -134t-143 -326t143 -326t342 -134t330 162l76 -74q-74 -92 -180 -143t-224 -51z" />
    <glyph glyph-name="Cdotaccent" unicode="&#x10a;" horiz-adv-x="1562" 
d="M862 1731q31 0 51 -22q21 -21 21 -51t-20 -52t-52 -21q-31 0 -51 22q-20 21 -20 51t20 52t51 21zM870 106q150 0 279 62t219 174l92 -80q-106 -127 -260 -199t-330 -71q-313 0 -534 213t-221 516t221 517t534 214q174 0 329 -73t261 -199l-92 -80q-90 111 -219 174
t-279 63q-262 0 -447 -179t-185 -436q0 -256 185 -436t447 -180z" />
    <glyph glyph-name="cdotaccent" unicode="&#x10b;" horiz-adv-x="1202" 
d="M688 1442q31 0 51 -22q21 -22 21 -52t-20 -50q-20 -22 -52 -22q-31 0 -51 22q-21 22 -21 52t20 50q20 22 52 22zM700 -8q-250 0 -426 165t-176 401t176 400q176 166 423 166t411 -190l-80 -72q-129 156 -329 156t-343 -134t-143 -326t143 -326t342 -134t330 162l76 -74
q-74 -92 -180 -143t-224 -51z" />
    <glyph glyph-name="Ccaron" unicode="&#x10c;" horiz-adv-x="1562" 
d="M823 1550l-293 283h109l223 -207l225 207h109l-295 -283h-78zM870 106q150 0 279 62t219 174l92 -80q-106 -127 -260 -199t-330 -71q-313 0 -534 213t-221 516t221 517t534 214q174 0 329 -73t261 -199l-92 -80q-90 111 -219 174t-279 63q-262 0 -447 -179t-185 -436
q0 -256 185 -436t447 -180z" />
    <glyph glyph-name="ccaron" unicode="&#x10d;" horiz-adv-x="1202" 
d="M629 1262l-293 282h108l224 -207l225 207h108l-294 -282h-78zM700 -8q-250 0 -426 165t-176 401t176 400q176 166 423 166t411 -190l-80 -72q-129 156 -329 156t-343 -134t-143 -326t143 -326t342 -134t330 162l76 -74q-74 -92 -180 -143t-224 -51z" />
    <glyph glyph-name="Dcaron" unicode="&#x10e;" horiz-adv-x="1497" 
d="M625 1550l-293 283h108l224 -207l225 207h108l-295 -283h-77zM303 111h389q238 18 405 194t167 423t-178 426t-431 179h-352v-1222zM1382 727q0 -293 -198 -501t-482 -226h-516v1444h469q301 0 514 -212t213 -505z" />
    <glyph glyph-name="dcaron" unicode="&#x10f;" horiz-adv-x="1525" 
d="M1440 1444q82 0 82 -110t-60 -180q-60 -71 -176 -71l-18 54q164 4 166 151q-29 4 -49 26q-19 22 -19 54t22 54t52 22zM688 98q246 0 397 148v628q-154 143 -397 144q-197 0 -335 -134t-138 -327t138 -326t335 -133zM1085 1544h117v-1544h-117v123q-165 -133 -407 -133
t-410 165t-168 405t168 402t409 162t408 -129v549z" />
    <glyph glyph-name="Dcroat" unicode="&#x110;" horiz-adv-x="1529" 
d="M338 1614v86h647v-86h-647zM336 111h389q233 0 402 183t169 432t-178 428t-430 179h-352v-561h401v-100h-401v-561zM8 672v100h211v672h469q301 0 514 -212t213 -507t-200 -510t-480 -215h-516v672h-211z" />
    <glyph glyph-name="dcroat" unicode="&#x111;" horiz-adv-x="1370" 
d="M688 98q246 0 397 148v628q-154 143 -397 144q-197 0 -335 -134t-138 -327t138 -326t335 -133zM1464 1343v-100h-262v-1243h-117v123q-165 -133 -407 -133t-410 165t-168 405t168 402t409 162t408 -129v248h-260v100h260v201h117v-201h262z" />
    <glyph glyph-name="Emacron" unicode="&#x112;" 
d="M358 1614v86h648v-86h-648zM303 106h899v-106h-1016v1444h973v-107h-856v-583h729v-107h-729v-541z" />
    <glyph glyph-name="emacron" unicode="&#x113;" horiz-adv-x="1296" 
d="M342 1325v86h647v-86h-647zM663 1026q-185 0 -309 -119t-139 -297h864q-11 186 -121 301t-295 115zM1194 549v-33h-979q21 -182 153 -300t310 -118q119 0 222 45t169 129l80 -65q-78 -99 -206 -157t-281 -58q-246 0 -405 164t-159 402t159 403q159 163 404 163t389 -160
t144 -415z" />
    <glyph glyph-name="Ebreve" unicode="&#x114;" 
d="M685 1587q-132 0 -212 68t-90 200l84 9q18 -188 218 -188t220 188l84 -9q-10 -133 -91 -201t-213 -67zM303 106h899v-106h-1016v1444h973v-107h-856v-583h729v-107h-729v-541z" />
    <glyph glyph-name="ebreve" unicode="&#x115;" horiz-adv-x="1296" 
d="M652 1298q-132 0 -212 68t-90 201l84 8q18 -189 218 -189t220 189l84 -8q-10 -133 -91 -201t-213 -68zM663 1026q-185 0 -309 -119t-139 -297h864q-11 186 -121 301t-295 115zM1194 549v-33h-979q21 -182 153 -300t310 -118q119 0 222 45t169 129l80 -65
q-78 -99 -206 -157t-281 -58q-246 0 -405 164t-159 402t159 403q159 163 404 163t389 -160t144 -415z" />
    <glyph glyph-name="Edotaccent" unicode="&#x116;" 
d="M684 1731q31 0 51 -22q21 -21 21 -51t-20 -52t-52 -21q-31 0 -51 22q-21 21 -21 51t20 52t52 21zM303 106h899v-106h-1016v1444h973v-107h-856v-583h729v-107h-729v-541z" />
    <glyph glyph-name="edotaccent" unicode="&#x117;" horiz-adv-x="1296" 
d="M651 1442q31 0 51 -22t20 -52t-20 -50q-20 -22 -51 -22t-51 22t-20 52t20 50q20 22 51 22zM663 1026q-185 0 -309 -119t-139 -297h864q-11 186 -121 301t-295 115zM1194 549v-33h-979q21 -182 153 -300t310 -118q119 0 222 45t169 129l80 -65q-78 -99 -206 -157t-281 -58
q-246 0 -405 164t-159 402t159 403q159 163 404 163t389 -160t144 -415z" />
    <glyph glyph-name="Eogonek" unicode="&#x118;" 
d="M1137 -350q-66 0 -109 37t-43 102q0 96 123 211h-922v1444h973v-107h-856v-583h729v-107h-729v-541h899v-106q-34 -29 -77 -87q-42 -57 -43 -98q-1 -40 23 -63q25 -24 63 -24t89 8l9 -74q-63 -12 -129 -12z" />
    <glyph glyph-name="eogonek" unicode="&#x119;" horiz-adv-x="1296" 
d="M663 1026q-185 0 -309 -119t-139 -297h864q-11 186 -121 301t-295 115zM742 -344q-66 0 -109 37t-43 102q0 90 108 199q-12 -2 -36 -2q-246 0 -405 164t-159 402t159 403q159 163 404 163t389 -160t144 -415v-33h-979q21 -182 153 -300t310 -118q119 0 222 45t169 129
l80 -65q-121 -156 -342 -201l-44 -46q-77 -86 -77 -150q0 -28 24 -52t62 -24t90 8l8 -74q-62 -12 -128 -12z" />
    <glyph glyph-name="Ecaron" unicode="&#x11a;" 
d="M645 1550l-293 283h109l223 -207l225 207h109l-295 -283h-78zM303 106h899v-106h-1016v1444h973v-107h-856v-583h729v-107h-729v-541z" />
    <glyph glyph-name="ecaron" unicode="&#x11b;" horiz-adv-x="1296" 
d="M612 1262l-293 282h109l223 -207l226 207h108l-295 -282h-78zM663 1026q-185 0 -309 -119t-139 -297h864q-11 186 -121 301t-295 115zM1194 549v-33h-979q21 -182 153 -300t310 -118q119 0 222 45t169 129l80 -65q-78 -99 -206 -157t-281 -58q-246 0 -405 164t-159 402
t159 403q159 163 404 163t389 -160t144 -415z" />
    <glyph glyph-name="Gcircumflex" unicode="&#x11c;" horiz-adv-x="1632" 
d="M516 1550l293 283h78l295 -283h-109l-225 205l-223 -205h-109zM840 680h659v-479q-262 -209 -625 -209q-315 0 -537 213t-222 516t222 516q223 213 555 213t554 -205l-78 -86q-190 178 -494 178q-264 0 -451 -181t-187 -437t187 -437q187 -182 463 -182t494 162v313h-540
v105z" />
    <glyph glyph-name="gcircumflex" unicode="&#x11d;" horiz-adv-x="1368" 
d="M356 1262l293 282h78l295 -282h-109l-225 204l-223 -204h-109zM213 562q0 -190 138 -326t335 -136q252 0 399 142v630q-152 145 -399 146q-197 0 -335 -132q-138 -134 -138 -324zM1085 1104h115v-979q0 -217 -136 -361t-398 -143q-171 -1 -224 9t-86 18t-43 11t-50 14
t-54 16l24 92q127 -37 203 -50t211 -14q209 -1 319 103t115 256v43q-167 -127 -407 -127t-408 168t-168 404t168 399q168 161 411 161t408 -133v113z" />
    <glyph glyph-name="Gbreve" unicode="&#x11e;" horiz-adv-x="1632" 
d="M849 1587q-132 0 -212 68t-90 200l84 9q18 -188 218 -188t220 188l84 -9q-10 -133 -91 -201t-213 -67zM840 680h659v-479q-262 -209 -625 -209q-315 0 -537 213t-222 516t222 516q223 213 555 213t554 -205l-78 -86q-190 178 -494 178q-264 0 -451 -181t-187 -437
t187 -437q187 -182 463 -182t494 162v313h-540v105z" />
    <glyph glyph-name="gbreve" unicode="&#x11f;" horiz-adv-x="1368" 
d="M689 1298q-132 0 -212 68t-90 201l84 8q18 -189 218 -189t220 189l84 -8q-10 -133 -91 -201t-213 -68zM213 562q0 -190 138 -326t335 -136q252 0 399 142v630q-152 145 -399 146q-197 0 -335 -132q-138 -134 -138 -324zM1085 1104h115v-979q0 -217 -136 -361t-398 -143
q-171 -1 -224 9t-86 18t-43 11t-50 14t-54 16l24 92q127 -37 203 -50t211 -14q209 -1 319 103t115 256v43q-167 -127 -407 -127t-408 168t-168 404t168 399q168 161 411 161t408 -133v113z" />
    <glyph glyph-name="Gdotaccent" unicode="&#x120;" horiz-adv-x="1632" 
d="M848 1731q31 0 51 -22q21 -21 21 -51t-20 -52t-52 -21q-31 0 -51 22q-21 21 -21 51t20 52t52 21zM840 680h659v-479q-262 -209 -625 -209q-315 0 -537 213t-222 516t222 516q223 213 555 213t554 -205l-78 -86q-190 178 -494 178q-264 0 -451 -181t-187 -437t187 -437
q187 -182 463 -182t494 162v313h-540v105z" />
    <glyph glyph-name="gdotaccent" unicode="&#x121;" horiz-adv-x="1368" 
d="M688 1442q31 0 51 -22q21 -22 21 -52t-20 -50q-20 -22 -52 -22q-31 0 -51 22q-21 22 -21 52t20 50q20 22 52 22zM213 562q0 -190 138 -326t335 -136q252 0 399 142v630q-152 145 -399 146q-197 0 -335 -132q-138 -134 -138 -324zM1085 1104h115v-979q0 -217 -136 -361
t-398 -143q-171 -1 -224 9t-86 18t-43 11t-50 14t-54 16l24 92q127 -37 203 -50t211 -14q209 -1 319 103t115 256v43q-167 -127 -407 -127t-408 168t-168 404t168 399q168 161 411 161t408 -133v113z" />
    <glyph glyph-name="Gcommaaccent" unicode="&#x122;" horiz-adv-x="1632" 
d="M868 -139q82 1 82 -109t-60 -181t-173 -71l-19 54q164 8 166 153q-29 2 -49 24q-20 21 -20 53t22 54t51 23zM840 680h659v-479q-262 -209 -625 -209q-315 0 -537 213t-222 516t222 516q223 213 555 213t554 -205l-78 -86q-190 178 -494 178q-264 0 -451 -181t-187 -437
t187 -437q187 -182 463 -182t494 162v313h-540v105z" />
    <glyph glyph-name="gcommaaccent" unicode="&#x123;" horiz-adv-x="1368" 
d="M696 1317q-82 -1 -82 109t60 181t174 70l18 -53q-164 -8 -166 -154q29 -2 50 -23q20 -21 20 -53t-22 -55q-23 -22 -52 -22zM213 562q0 -190 138 -326t335 -136q252 0 399 142v630q-152 145 -399 146q-197 0 -335 -132q-138 -134 -138 -324zM1085 1104h115v-979
q0 -217 -136 -361t-398 -143q-171 -1 -224 9t-86 18t-43 11t-50 14t-54 16l24 92q127 -37 203 -50t211 -14q209 -1 319 103t115 256v43q-167 -127 -407 -127t-408 168t-168 404t168 399q168 161 411 161t408 -133v113z" />
    <glyph glyph-name="Hcircumflex" unicode="&#x124;" horiz-adv-x="1497" 
d="M449 1550l292 283h78l295 -283h-108l-226 205l-223 -205h-108zM1194 1444h117v-1444h-117v582h-891v-582h-117v1444h117v-756h891v756z" />
    <glyph glyph-name="hcircumflex" unicode="&#x125;" 
d="M303 1550l293 283h78l295 -283h-109l-225 205l-223 -205h-109zM670 1124q236 0 364 -126q129 -126 129 -365v-633h-114v633q-1 182 -105 283t-270 102q-233 0 -391 -139v-879h-115v1544h115v-555q151 135 387 135z" />
    <glyph glyph-name="Hbar" unicode="&#x126;" horiz-adv-x="1497" 
d="M303 688h891v483h-891v-483zM94 1171v91h92v182h117v-182h891v182h117v-182h92v-91h-92v-1171h-117v582h-891v-582h-117v1171h-92z" />
    <glyph glyph-name="hbar" unicode="&#x127;" 
d="M-49 1171v91h217v282h115v-282h217v-91h-217v-182q152 135 387 135t364 -126t129 -365v-633h-114v633q-1 182 -105 283t-270 102q-233 0 -391 -139v-879h-115v1171h-217z" />
    <glyph glyph-name="Itilde" unicode="&#x128;" horiz-adv-x="495" 
d="M424 1729q49 -1 89 39t52 114l72 -10q-13 -113 -71 -174q-58 -62 -129 -62t-183 48t-158 49q-124 0 -159 -156l-72 8q13 117 71 178t136 61t191 -47q112 -48 161 -48zM309 1444v-1444h-121v1444h121z" />
    <glyph glyph-name="itilde" unicode="&#x129;" horiz-adv-x="460" 
d="M172 0v1104h117v-1104h-117zM406 1393q49 0 89 40t52 113l71 -10q-14 -113 -71 -174q-57 -62 -128 -62t-183 48t-158 49q-125 0 -160 -156l-72 8q14 117 72 178t136 61q79 0 191 -47q112 -48 161 -48z" />
    <glyph glyph-name="Imacron" unicode="&#x12a;" horiz-adv-x="495" 
d="M-76 1640v86h647v-86h-647zM309 1444v-1444h-121v1444h121z" />
    <glyph glyph-name="imacron" unicode="&#x12b;" horiz-adv-x="460" 
d="M172 0v1104h117v-1104h-117zM-94 1305v86h647v-86h-647z" />
    <glyph glyph-name="Ibreve" unicode="&#x12c;" horiz-adv-x="495" 
d="M247 1614q-132 0 -212 68t-90 200l84 8q18 -188 218 -188t220 188l84 -8q-10 -132 -91 -200t-213 -68zM309 1444v-1444h-121v1444h121z" />
    <glyph glyph-name="ibreve" unicode="&#x12d;" horiz-adv-x="460" 
d="M172 0v1104h117v-1104h-117zM230 1278q-132 0 -212 68t-90 200l84 8q18 -188 218 -188t221 188l84 -8q-9 -132 -91 -200t-214 -68z" />
    <glyph glyph-name="Iogonek" unicode="&#x12e;" horiz-adv-x="495" 
d="M242 -350q-64 0 -107 37t-43 102q0 96 123 211h-27v1444h121v-1444q-34 -29 -77 -87q-42 -57 -43 -98q-1 -40 23 -63q24 -24 63 -24t90 8l8 -74q-67 -12 -131 -12z" />
    <glyph glyph-name="iogonek" unicode="&#x12f;" horiz-adv-x="460" 
d="M229 1317q-33 -1 -57 23t-22 58q0 34 24 58t56 23q32 0 56 -24q24 -23 24 -57t-24 -58q-24 -23 -57 -23zM172 0v1104h117v-1104q-31 -24 -76 -86q-45 -61 -45 -100t23 -62q24 -24 63 -24t90 8l8 -74q-66 -12 -130 -12t-107 37t-43 102q0 96 123 211h-23z" />
    <glyph glyph-name="Idotaccent" unicode="&#x130;" horiz-adv-x="495" 
d="M250 1757q31 1 51 -21q21 -22 21 -52t-20 -52t-52 -20q-31 0 -51 22q-21 22 -21 50q0 30 20 52t52 21zM309 1444v-1444h-121v1444h121z" />
    <glyph glyph-name="dotlessi" unicode="&#x131;" horiz-adv-x="460" 
d="M172 0v1104h117v-1104h-117z" />
    <glyph glyph-name="IJ" unicode="&#x132;" horiz-adv-x="1722" 
d="M1454 1444h119v-854q0 -276 -128 -437t-382 -161q-188 0 -329 121q-140 121 -169 303l107 10q28 -139 136 -230t253 -92q193 0 293 126t100 335v879zM309 1444v-1444h-121v1444h121z" />
    <glyph glyph-name="ij" unicode="&#x133;" horiz-adv-x="923" 
d="M691 1317q-33 -1 -57 23t-24 57t25 57t57 25q32 0 57 -25q23 -26 23 -58t-23 -56q-24 -23 -58 -23zM635 -14v1118h117v-1157q0 -156 -88 -241t-224 -85q-61 0 -104 6v101q18 -2 67 -2q232 0 232 260zM229 1317q-33 -1 -57 23t-22 58q0 34 24 58t56 23q32 0 56 -24
q24 -23 24 -57t-24 -58q-24 -23 -57 -23zM172 0v1104h117v-1104h-117z" />
    <glyph glyph-name="Jcircumflex" unicode="&#x134;" horiz-adv-x="1232" 
d="M389 1550l293 283h78l295 -283h-109l-225 205l-223 -205h-109zM948 1444h119v-854q0 -276 -128 -437t-382 -161q-188 0 -329 121q-140 121 -169 303l107 10q28 -139 136 -230t253 -92q193 0 293 126t100 335v879z" />
    <glyph glyph-name="jcircumflex" unicode="&#x135;" horiz-adv-x="458" 
d="M-100 1262l293 282h77l295 -282h-108l-226 204l-223 -204h-108zM170 -14v1118h117v-1157q0 -156 -88 -241t-224 -85q-61 0 -104 6v101q18 -2 68 -2q231 0 231 260z" />
    <glyph glyph-name="Kcommaaccent" unicode="&#x136;" horiz-adv-x="1413" 
d="M684 -139q82 1 82 -109t-60 -181t-174 -71l-18 54q164 8 166 153q-29 2 -49 24q-21 21 -21 53t22 54t52 23zM303 0h-117v1444h117v-926l858 926h150l-643 -701l661 -743h-162l-579 653l-285 -305v-348z" />
    <glyph glyph-name="kcommaaccent" unicode="&#x137;" horiz-adv-x="1251" 
d="M625 -139q82 1 82 -109q-1 -110 -61 -181t-173 -71l-18 54q164 8 166 153q-29 2 -50 24q-20 21 -20 53q1 32 23 54t51 23zM285 0h-117v1544h117v-1163l768 723h147l-438 -422l438 -682h-131l-387 594l-397 -369v-225z" />
    <glyph glyph-name="kgreenlandic" unicode="&#x138;" horiz-adv-x="1251" 
d="M285 0h-117v1104h117v-723l768 723h147l-438 -422l438 -682h-131l-387 594l-397 -369v-225z" />
    <glyph glyph-name="Lacute" unicode="&#x139;" horiz-adv-x="1216" 
d="M641 1864l-346 -314h-92l303 326zM305 104h828v-104h-947v1444h119v-1340z" />
    <glyph glyph-name="lacute" unicode="&#x13a;" horiz-adv-x="456" 
d="M635 1964l-346 -313h-92l303 325zM170 0v1544h117v-1544h-117z" />
    <glyph glyph-name="Lcommaaccent" unicode="&#x13b;" horiz-adv-x="1216" 
d="M659 -139q82 1 82 -109t-60 -181t-173 -71l-19 54q164 8 166 153q-29 2 -49 24q-20 21 -20 53t22 54t51 23zM305 104h828v-104h-947v1444h119v-1340z" />
    <glyph glyph-name="lcommaaccent" unicode="&#x13c;" horiz-adv-x="456" 
d="M219 -139q82 1 82 -109t-60 -181t-173 -71l-19 54q164 8 166 153q-29 2 -49 24q-20 21 -20 53t22 54t51 23zM170 0v1544h117v-1544h-117z" />
    <glyph glyph-name="Lcaron" unicode="&#x13d;" horiz-adv-x="1216" 
d="M618 1446q82 0 82 -110t-60 -180q-60 -71 -175 -71l-19 54q164 4 166 151q-29 4 -48 26t-19 54t22 54t51 22zM305 104h828v-104h-947v1444h119v-1340z" />
    <glyph glyph-name="lcaron" unicode="&#x13e;" horiz-adv-x="659" 
d="M580 1444q82 0 82 -110t-60 -180q-60 -71 -176 -71l-18 54q164 4 165 151q-29 4 -48 26t-19 54t22 54t52 22zM170 0v1544h117v-1544h-117z" />
    <glyph glyph-name="Ldot" unicode="&#x13f;" horiz-adv-x="1216" 
d="M604 1053q0 -33 -24 -57t-57 -24t-57 24t-24 57t24 57t58 23q34 1 56 -23q24 -24 24 -57zM305 104h828v-104h-947v1444h119v-1340z" />
    <glyph glyph-name="ldot" unicode="&#x140;" horiz-adv-x="575" 
d="M557 1053q1 -33 -23 -57t-58 -24t-58 24t-23 57q0 33 24 57q23 24 57 23q34 1 58 -23t23 -57zM170 0v1544h117v-1544h-117z" />
    <glyph glyph-name="Lslash" unicode="&#x141;" horiz-adv-x="1216" 
d="M186 1444h119v-666l486 142v-117l-486 -141v-558h828v-104h-947v627l-194 -56v115l194 55v703z" />
    <glyph glyph-name="lslash" unicode="&#x142;" horiz-adv-x="649" 
d="M227 1544h119v-749l285 82v-115l-285 -84v-678h-119v643l-268 -78v115l268 78v786z" />
    <glyph glyph-name="Nacute" unicode="&#x143;" horiz-adv-x="1579" 
d="M1188 1864l-346 -314h-92l303 326zM1274 1444h119v-1444h-70l-1018 1217v-1217h-119v1444h68l1020 -1219v1219z" />
    <glyph glyph-name="nacute" unicode="&#x144;" horiz-adv-x="1310" 
d="M1038 1554l-346 -313h-92l303 326zM670 1124q236 0 364 -126q129 -126 129 -365v-633h-114v633q-1 185 -105 285t-270 100q-233 0 -391 -141v-877h-115v1104h115v-119q151 139 387 139z" />
    <glyph glyph-name="Ncommaaccent" unicode="&#x145;" horiz-adv-x="1579" 
d="M805 -139q82 1 82 -109q-1 -110 -61 -181t-173 -71l-18 54q164 8 166 153q-29 2 -49 24q-20 21 -20 53t22 54t51 23zM1274 1444h119v-1444h-70l-1018 1217v-1217h-119v1444h68l1020 -1219v1219z" />
    <glyph glyph-name="ncommaaccent" unicode="&#x146;" horiz-adv-x="1310" 
d="M684 -139q82 1 82 -109t-60 -181t-174 -71l-18 54q164 8 166 153q-29 2 -49 24q-21 21 -21 53t22 54t52 23zM670 1124q236 0 364 -126q129 -126 129 -365v-633h-114v633q-1 185 -105 285t-270 100q-233 0 -391 -141v-877h-115v1104h115v-119q151 139 387 139z" />
    <glyph glyph-name="Ncaron" unicode="&#x147;" horiz-adv-x="1579" 
d="M752 1550l-293 283h108l224 -207l225 207h108l-295 -283h-77zM1274 1444h119v-1444h-70l-1018 1217v-1217h-119v1444h68l1020 -1219v1219z" />
    <glyph glyph-name="ncaron" unicode="&#x148;" horiz-adv-x="1310" 
d="M602 1241l-293 283h109l223 -207l225 207h109l-295 -283h-78zM670 1124q236 0 364 -126q129 -126 129 -365v-633h-114v633q-1 185 -105 285t-270 100q-233 0 -391 -141v-877h-115v1104h115v-119q151 139 387 139z" />
    <glyph glyph-name="napostrophe" unicode="&#x149;" horiz-adv-x="1310" 
d="M279 1593q82 0 81 -120q0 -98 -60 -169t-173 -71l-18 53q164 8 165 154q-29 2 -49 24t-20 53q0 32 22 54q23 22 52 22zM670 1124q236 0 364 -126q129 -126 129 -365v-633h-114v633q-1 185 -105 285t-270 100q-233 0 -391 -141v-877h-115v1104h115v-119q151 139 387 139z
" />
    <glyph glyph-name="Eng" unicode="&#x14a;" horiz-adv-x="1579" 
d="M1274 1444h119v-1432q0 -254 -133 -406t-379 -153q-188 0 -329 121q-140 121 -169 303l109 12q28 -139 136 -230t251 -91q393 0 393 483l-967 1176v-1227h-119v1444h68l1020 -1227v1227z" />
    <glyph glyph-name="eng" unicode="&#x14b;" horiz-adv-x="1310" 
d="M670 1124q236 0 364 -126q129 -126 129 -365v-686q0 -156 -87 -241t-222 -85q-59 0 -106 6v101q20 -2 67 -2q106 0 170 61q63 61 64 182v664q-1 185 -105 285t-270 100q-233 0 -391 -141v-877h-115v1104h115v-119q151 139 387 139z" />
    <glyph glyph-name="Omacron" unicode="&#x14c;" horiz-adv-x="1748" 
d="M555 1614v86h647v-86h-647zM874 104q264 0 452 182t187 435q0 254 -187 435q-188 181 -452 181t-451 -181t-187 -435q0 -253 187 -435t451 -182zM874 1452q316 0 538 -214t222 -517t-222 -516t-538 -213t-538 213q-223 213 -223 516t223 517t538 214z" />
    <glyph glyph-name="omacron" unicode="&#x14d;" horiz-adv-x="1396" 
d="M377 1305v86h647v-86h-647zM698 98q201 0 343 134q143 134 143 326t-142 326t-344 134q-201 0 -344 -134t-143 -326t143 -326t344 -134zM96 558q0 236 176 400q176 166 425 166t425 -166t176 -402t-176 -400t-425 -164t-425 165t-176 401z" />
    <glyph glyph-name="Obreve" unicode="&#x14e;" horiz-adv-x="1748" 
d="M865 1587q-132 0 -212 68t-90 200l84 9q18 -188 218 -188t220 188l84 -9q-10 -133 -91 -201t-213 -67zM874 104q264 0 452 182t187 435q0 254 -187 435q-188 181 -452 181t-451 -181t-187 -435q0 -253 187 -435t451 -182zM874 1452q316 0 538 -214t222 -517t-222 -516
t-538 -213t-538 213q-223 213 -223 516t223 517t538 214z" />
    <glyph glyph-name="obreve" unicode="&#x14f;" horiz-adv-x="1396" 
d="M695 1278q-132 0 -212 68t-90 200l84 8q18 -188 218 -188t220 188l84 -8q-10 -132 -91 -200t-213 -68zM698 98q201 0 343 134q143 134 143 326t-142 326t-344 134q-201 0 -344 -134t-143 -326t143 -326t344 -134zM96 558q0 236 176 400q176 166 425 166t425 -166
t176 -402t-176 -400t-425 -164t-425 165t-176 401z" />
    <glyph glyph-name="Ohungarumlaut" unicode="&#x150;" horiz-adv-x="1748" 
d="M967 1554l188 316l117 -39l-209 -277h-96zM850 1870l113 -37l-205 -279h-96zM874 104q264 0 452 182t187 435q0 254 -187 435q-188 181 -452 181t-451 -181t-187 -435q0 -253 187 -435t451 -182zM874 1452q316 0 538 -214t222 -517t-222 -516t-538 -213t-538 213
q-223 213 -223 516t223 517t538 214z" />
    <glyph glyph-name="ohungarumlaut" unicode="&#x151;" horiz-adv-x="1396" 
d="M786 1245l189 316l117 -39l-209 -277h-97zM670 1561l112 -37l-204 -279h-97zM698 98q201 0 343 134q143 134 143 326t-142 326t-344 134q-201 0 -344 -134t-143 -326t143 -326t344 -134zM96 558q0 236 176 400q176 166 425 166t425 -166t176 -402t-176 -400t-425 -164
t-425 165t-176 401z" />
    <glyph glyph-name="OE" unicode="&#x152;" horiz-adv-x="2093" 
d="M874 106h99v1231h-109q-260 0 -445 -167q-185 -166 -185 -450t188 -449t452 -165zM113 723q0 299 220 510t531 211h1082v-107h-856v-583h729v-107h-729v-541h899v-106h-1133q-307 0 -525 212t-218 511z" />
    <glyph glyph-name="oe" unicode="&#x153;" horiz-adv-x="2377" 
d="M1741 1028q-184 0 -307 -120t-140 -302h869q-12 190 -125 306t-297 116zM698 98q203 0 343 134q141 134 141 326t-142 326t-344 134q-203 0 -343 -134t-140 -326t141 -326t344 -134zM694 -10q-248 0 -422 166t-174 402t175 400q175 166 423 166q186 0 336 -98t203 -252
q49 156 186 253t322 97q248 0 391 -160t143 -415v-33h-981q10 -184 138 -305t317 -121q260 0 403 176l76 -61q-168 -215 -481 -215q-186 0 -326 97q-139 97 -188 253q-53 -154 -204 -252t-337 -98z" />
    <glyph glyph-name="Racute" unicode="&#x154;" horiz-adv-x="1384" 
d="M1055 1864l-346 -314h-93l304 326zM305 1337v-762h391q211 1 331 99t120 276t-97 282q-97 105 -307 105h-438zM698 471h-393v-471h-119v1444h572q266 0 390 -134t124 -337q0 -375 -338 -471l377 -502h-146l-352 479q-47 -8 -115 -8z" />
    <glyph glyph-name="racute" unicode="&#x155;" horiz-adv-x="888" 
d="M641 1575l-346 -313h-92l303 325zM285 1104v-242q51 123 146 193t224 69q88 0 166 -39l-16 -118q-86 37 -170 37q-158 0 -254 -125t-96 -310v-569h-117v1104h117z" />
    <glyph glyph-name="Rcommaaccent" unicode="&#x156;" horiz-adv-x="1384" 
d="M723 -139q82 1 82 -109q-1 -110 -61 -181t-173 -71l-18 54q164 8 166 153q-29 2 -49 24q-20 21 -20 53t22 54t51 23zM305 1337v-762h391q211 1 331 99t120 276t-97 282q-97 105 -307 105h-438zM698 471h-393v-471h-119v1444h572q266 0 390 -134t124 -337
q0 -375 -338 -471l377 -502h-146l-352 479q-47 -8 -115 -8z" />
    <glyph glyph-name="rcommaaccent" unicode="&#x157;" horiz-adv-x="888" 
d="M233 -139q82 1 82 -109t-60 -181t-173 -71l-19 54q164 8 166 153q-29 2 -49 24q-20 21 -20 53t22 54t51 23zM285 1104v-242q51 123 146 193t224 69q88 0 166 -39l-16 -118q-86 37 -170 37q-158 0 -254 -125t-96 -310v-569h-117v1104h117z" />
    <glyph glyph-name="Rcaron" unicode="&#x158;" horiz-adv-x="1384" 
d="M635 1550l-293 283h109l223 -207l225 207h109l-295 -283h-78zM305 1337v-762h391q211 1 331 99t120 276t-97 282q-97 105 -307 105h-438zM698 471h-393v-471h-119v1444h572q266 0 390 -134t124 -337q0 -375 -338 -471l377 -502h-146l-352 479q-47 -8 -115 -8z" />
    <glyph glyph-name="rcaron" unicode="&#x159;" horiz-adv-x="888" 
d="M426 1262l-293 282h109l223 -207l225 207h109l-295 -282h-78zM285 1104v-242q51 123 146 193t224 69q88 0 166 -39l-16 -118q-86 37 -170 37q-158 0 -254 -125t-96 -310v-569h-117v1104h117z" />
    <glyph glyph-name="Sacute" unicode="&#x15a;" horiz-adv-x="1304" 
d="M1038 1864l-346 -314h-92l303 326zM246 1075q0 -144 179 -216q106 -45 232 -74q125 -30 192 -50q164 -49 253 -132q90 -83 90 -222q0 -185 -141 -287t-381 -102q-178 0 -284 24t-275 109l47 96q154 -77 255 -99t272 -22t279 72t108 200t-114 189q-113 62 -258 97t-212 54
q-176 50 -271 134q-94 84 -94 223q0 171 135 277t363 106q133 0 275 -31t237 -82q-45 -89 -52 -98q-88 45 -220 74t-243 28q-172 1 -272 -73t-100 -195z" />
    <glyph glyph-name="sacute" unicode="&#x15b;" horiz-adv-x="1091" 
d="M909 1554l-346 -313h-92l303 326zM548 90q178 0 259 62q80 62 80 150q0 89 -88 136q-87 47 -277 87t-298 109q-108 70 -108 196t116 210t308 84t394 -84l-39 -90q-170 76 -373 76q-129 0 -213 -55t-84 -139t82 -128q83 -44 277 -83t303 -109t109 -205t-110 -225
q-108 -90 -334 -90t-456 100l45 92q229 -94 407 -94z" />
    <glyph glyph-name="Scircumflex" unicode="&#x15c;" horiz-adv-x="1304" 
d="M313 1550l293 283h78l295 -283h-109l-225 205l-223 -205h-109zM246 1075q0 -144 179 -216q106 -45 232 -74q125 -30 192 -50q164 -49 253 -132q90 -83 90 -222q0 -185 -141 -287t-381 -102q-178 0 -284 24t-275 109l47 96q154 -77 255 -99t272 -22t279 72t108 200
t-114 189q-113 62 -258 97t-212 54q-176 50 -271 134q-94 84 -94 223q0 171 135 277t363 106q133 0 275 -31t237 -82q-45 -89 -52 -98q-88 45 -220 74t-243 28q-172 1 -272 -73t-100 -195z" />
    <glyph glyph-name="scircumflex" unicode="&#x15d;" horiz-adv-x="1091" 
d="M188 1241l293 283h78l295 -283h-109l-225 205l-223 -205h-109zM548 90q178 0 259 62q80 62 80 150q0 89 -88 136q-87 47 -277 87t-298 109q-108 70 -108 196t116 210t308 84t394 -84l-39 -90q-170 76 -373 76q-129 0 -213 -55t-84 -139t82 -128q83 -44 277 -83t303 -109
t109 -205t-110 -225q-108 -90 -334 -90t-456 100l45 92q229 -94 407 -94z" />
    <glyph glyph-name="Scedilla" unicode="&#x15e;" horiz-adv-x="1304" 
d="M246 1075q0 -144 179 -216q96 -40 226 -72q131 -32 198 -52q164 -49 253 -132q90 -83 90 -222q0 -172 -121 -272t-330 -115l-53 -113q47 0 79 -31q32 -30 32 -86q-1 -56 -53 -100t-136 -45q-84 0 -125 12l-14 2l6 58q144 -33 201 14q35 29 35 68q-1 73 -148 73l94 146
q-172 2 -278 26t-270 107l47 96q154 -77 255 -99t272 -22t279 72t108 200t-114 189q-113 62 -258 97t-212 54q-176 50 -271 134q-94 84 -94 223q0 171 135 277t363 106q133 0 275 -31t237 -82q-45 -89 -52 -98q-88 45 -220 74t-243 28q-172 1 -272 -73t-100 -195z" />
    <glyph glyph-name="scedilla" unicode="&#x15f;" horiz-adv-x="1091" 
d="M548 90q178 0 259 62q80 62 80 150q0 89 -88 136q-87 47 -277 87t-298 109q-108 70 -108 196t116 210t308 84t394 -84l-39 -90q-170 76 -373 76q-129 0 -213 -55t-84 -139t82 -128q83 -44 277 -83t303 -109t109 -202t-98 -220q-97 -88 -296 -96l-53 -113q47 0 79 -31
q32 -30 32 -86t-53 -100q-51 -44 -135 -45q-84 0 -126 12l-14 2l6 58q143 -33 201 14q35 29 34 68q0 73 -147 73l96 146q-217 8 -426 100l45 92q229 -94 407 -94z" />
    <glyph glyph-name="Scaron" unicode="&#x160;" horiz-adv-x="1304" 
d="M602 1550l-293 283h109l223 -207l225 207h109l-295 -283h-78zM246 1075q0 -144 179 -216q106 -45 232 -74q125 -30 192 -50q164 -49 253 -132q90 -83 90 -222q0 -185 -141 -287t-381 -102q-178 0 -284 24t-275 109l47 96q154 -77 255 -99t272 -22t279 72t108 200
t-114 189q-113 62 -258 97t-212 54q-176 50 -271 134q-94 84 -94 223q0 171 135 277t363 106q133 0 275 -31t237 -82q-45 -89 -52 -98q-88 45 -220 74t-243 28q-172 1 -272 -73t-100 -195z" />
    <glyph glyph-name="scaron" unicode="&#x161;" horiz-adv-x="1091" 
d="M485 1241l-292 283h108l223 -207l226 207h108l-295 -283h-78zM548 90q178 0 259 62q80 62 80 150q0 89 -88 136q-87 47 -277 87t-298 109q-108 70 -108 196t116 210t308 84t394 -84l-39 -90q-170 76 -373 76q-129 0 -213 -55t-84 -139t82 -128q83 -44 277 -83t303 -109
t109 -205t-110 -225q-108 -90 -334 -90t-456 100l45 92q229 -94 407 -94z" />
    <glyph glyph-name="Tcedilla" unicode="&#x162;" horiz-adv-x="1351" 
d="M618 0v1337h-509v107h1144v-107h-514v-1337h-2l-55 -119q47 0 79 -31q32 -30 32 -86q-1 -56 -53 -100t-136 -45q-83 0 -125 12l-14 2l6 58q143 -33 201 14q35 29 35 68q-1 73 -148 73l100 154h-41z" />
    <glyph glyph-name="tcedilla" unicode="&#x163;" horiz-adv-x="808" 
d="M551 -8q-135 0 -223 85t-88 240v687h-195v100h195v440h116v-440h408v-100h-408v-627q0 -281 232 -281q88 0 172 19v-97q-25 -10 -80 -18l-55 -119q47 0 79 -31q32 -30 31 -86q0 -56 -52 -100q-51 -44 -135 -45q-84 0 -126 12l-14 2l6 58q143 -33 200 14q35 29 35 68
q0 73 -147 73l96 148q-16 -2 -47 -2z" />
    <glyph glyph-name="Tcaron" unicode="&#x164;" horiz-adv-x="1351" 
d="M643 1550l-293 283h109l223 -207l225 207h109l-295 -283h-78zM1253 1444v-107h-514v-1337h-121v1337h-509v107h1144z" />
    <glyph glyph-name="tcaron" unicode="&#x165;" horiz-adv-x="880" 
d="M866 1526q82 0 82 -110t-60 -180q-60 -71 -175 -71l-19 54q164 4 166 151q-29 4 -48 26t-19 54t22 54t51 22zM764 1004h-408v-627q0 -281 232 -281q88 0 172 19v-97q-86 -26 -215 -26t-217 85t-88 240v687h-195v100h195v440h116v-440h408v-100z" />
    <glyph glyph-name="Tbar" unicode="&#x166;" horiz-adv-x="1351" 
d="M356 719v86h262v532h-509v107h1144v-107h-514v-532h265v-86h-265v-719h-121v719h-262z" />
    <glyph glyph-name="tbar" unicode="&#x167;" horiz-adv-x="808" 
d="M82 684v86h158v234h-195v100h195v440h116v-440h408v-100h-408v-234h373v-86h-373v-307q0 -281 232 -281q88 0 172 19v-97q-86 -26 -215 -26t-217 85t-88 240v367h-158z" />
    <glyph glyph-name="Utilde" unicode="&#x168;" horiz-adv-x="1546" 
d="M600 1798q78 0 192 -48q112 -48 160 -48t89 40q40 40 53 113l71 -10q-14 -113 -71 -174t-128 -61t-184 48t-157 48q-125 0 -160 -156l-72 9q13 117 71 178t136 61zM1364 1444v-864q0 -256 -157 -422t-435 -166t-434 165t-156 423v864h117v-842q0 -225 124 -361
q124 -137 350 -137t350 138t124 360v842h117z" />
    <glyph glyph-name="utilde" unicode="&#x169;" horiz-adv-x="1327" 
d="M834 1393q49 0 89 40t52 113l72 -10q-13 -113 -71 -174q-58 -62 -129 -62t-183 48t-158 49q-125 0 -160 -156l-72 8q14 117 72 178t136 61q79 0 191 -47q112 -48 161 -48zM1042 1104h115v-1104h-115v131q-156 -139 -421 -139q-217 0 -347 126q-129 126 -129 365v621h115
v-621q0 -182 104 -283t271 -102q244 0 407 142v864z" />
    <glyph glyph-name="Umacron" unicode="&#x16a;" horiz-adv-x="1546" 
d="M451 1614v86h647v-86h-647zM1364 1444v-864q0 -256 -157 -422t-435 -166t-434 165t-156 423v864h117v-842q0 -225 124 -361q124 -137 350 -137t350 138t124 360v842h117z" />
    <glyph glyph-name="umacron" unicode="&#x16b;" horiz-adv-x="1327" 
d="M334 1305v86h647v-86h-647zM1042 1104h115v-1104h-115v131q-156 -139 -421 -139q-217 0 -347 126q-129 126 -129 365v621h115v-621q0 -182 104 -283t271 -102q244 0 407 142v864z" />
    <glyph glyph-name="Ubreve" unicode="&#x16c;" horiz-adv-x="1546" 
d="M777 1587q-132 0 -212 68t-90 200l84 9q18 -188 218 -188t220 188l84 -9q-10 -133 -91 -201t-213 -67zM1364 1444v-864q0 -256 -157 -422t-435 -166t-434 165t-156 423v864h117v-842q0 -225 124 -361q124 -137 350 -137t350 138t124 360v842h117z" />
    <glyph glyph-name="ubreve" unicode="&#x16d;" horiz-adv-x="1327" 
d="M656 1278q-132 0 -212 68t-90 200l84 8q18 -188 218 -188t221 188l84 -8q-9 -132 -91 -200t-214 -68zM1042 1104h115v-1104h-115v131q-156 -139 -421 -139q-217 0 -347 126q-129 126 -129 365v621h115v-621q0 -182 104 -283t271 -102q244 0 407 142v864z" />
    <glyph glyph-name="Uring" unicode="&#x16e;" horiz-adv-x="1546" 
d="M776 1462q47 0 82 34t35 81t-35 82t-82 35t-82 -35t-35 -82t35 -81t82 -34zM592 1577q0 74 55 128t129 54t129 -54t55 -128t-54 -128q-56 -54 -130 -54t-129 54t-55 128zM1364 1444v-864q0 -256 -157 -422t-435 -166t-434 165t-156 423v864h117v-842q0 -225 124 -361
q124 -137 350 -137t350 138t124 360v842h117z" />
    <glyph glyph-name="uring" unicode="&#x16f;" horiz-adv-x="1327" 
d="M666 1362q47 0 82 34t34 81q0 47 -34 82q-35 35 -82 35t-82 -36q-35 -34 -35 -81t35 -81t82 -34zM481 1477q-1 74 55 128t130 54t129 -54t55 -128t-55 -128q-55 -55 -129 -55t-130 54t-55 129zM1042 1104h115v-1104h-115v131q-156 -139 -421 -139q-217 0 -347 126
q-129 126 -129 365v621h115v-621q0 -182 104 -283t271 -102q244 0 407 142v864z" />
    <glyph glyph-name="Uhungarumlaut" unicode="&#x170;" horiz-adv-x="1546" 
d="M879 1554l188 316l117 -39l-209 -277h-96zM762 1870l112 -37l-204 -279h-97zM1364 1444v-864q0 -256 -157 -422t-435 -166t-434 165t-156 423v864h117v-842q0 -225 124 -361q124 -137 350 -137t350 138t124 360v842h117z" />
    <glyph glyph-name="uhungarumlaut" unicode="&#x171;" horiz-adv-x="1327" 
d="M750 1245l188 316l117 -39l-209 -277h-96zM633 1561l112 -37l-204 -279h-97zM1042 1104h115v-1104h-115v131q-156 -139 -421 -139q-217 0 -347 126q-129 126 -129 365v621h115v-621q0 -182 104 -283t271 -102q244 0 407 142v864z" />
    <glyph glyph-name="Uogonek" unicode="&#x172;" horiz-adv-x="1546" 
d="M813 -350q-67 0 -109 37t-42 102q0 100 114 203h-4q-278 0 -434 165t-156 423v864h117v-842q0 -225 124 -361q124 -137 350 -137t350 138t124 360v842h117v-864q0 -228 -128 -390t-359 -192q-119 -119 -119 -188q0 -35 24 -58q24 -24 62 -24q39 0 90 8l8 -74
q-63 -12 -129 -12z" />
    <glyph glyph-name="uogonek" unicode="&#x173;" horiz-adv-x="1327" 
d="M1090 -350q-64 0 -107 37t-43 102q0 96 123 211h-21v131q-156 -139 -421 -139q-217 0 -347 126q-129 126 -129 365v621h115v-621q0 -182 104 -283t271 -102q244 0 407 142v864h115v-1104q-34 -29 -77 -87q-42 -57 -43 -98q-1 -40 23 -63q24 -24 62 -24t90 8l9 -74
q-67 -12 -131 -12z" />
    <glyph glyph-name="Wcircumflex" unicode="&#x174;" horiz-adv-x="2287" 
d="M801 1550l293 283h77l295 -283h-108l-225 205l-224 -205h-108zM2208 1444l-551 -1444h-60l-462 1237l-463 -1237h-60l-551 1444h129l455 -1219l457 1219h65l455 -1219l457 1219h129z" />
    <glyph glyph-name="wcircumflex" unicode="&#x175;" horiz-adv-x="1742" 
d="M539 1223l292 282h78l295 -282h-108l-226 204l-223 -204h-108zM1587 1104h119l-428 -1104h-72l-336 915l-333 -915h-72l-428 1104h119l352 -907l328 907h69l332 -907z" />
    <glyph glyph-name="Ycircumflex" unicode="&#x176;" horiz-adv-x="1347" 
d="M344 1550l293 283h78l295 -283h-109l-225 205l-223 -205h-109zM735 0h-121v498l-569 946h137l492 -821l491 821h140l-570 -946v-498z" />
    <glyph glyph-name="ycircumflex" unicode="&#x177;" horiz-adv-x="1249" 
d="M307 1241l293 283h78l295 -283h-109l-225 205l-223 -205h-109zM123 -283q387 0 491 283h-55l-496 1104h125l439 -969h45l385 969h123l-467 -1163q-53 -133 -173 -212t-268 -100q-63 -8 -184 -8l10 96h25z" />
    <glyph glyph-name="Ydieresis" unicode="&#x178;" horiz-adv-x="1347" 
d="M511 1731q29 0 51 -22q22 -21 22 -51t-22 -52t-52 -21q-30 0 -50 22q-22 21 -22 51t22 52t51 21zM842 1731q31 0 51 -22q20 -21 20 -51t-20 -52t-51 -21q-31 0 -51 22q-21 21 -21 51t20 52t52 21zM735 0h-121v498l-569 946h137l492 -821l491 821h140l-570 -946v-498z" />
    <glyph glyph-name="Zacute" unicode="&#x179;" horiz-adv-x="1343" 
d="M1104 1864l-346 -314h-92l303 326zM1235 1444v-55l-959 -1283h971v-106h-1147v53l959 1284h-905v107h1081z" />
    <glyph glyph-name="zacute" unicode="&#x17a;" horiz-adv-x="1200" 
d="M971 1554l-346 -313h-93l304 326zM1116 100v-100h-1018v66l842 938h-809v100h989v-60l-846 -944h842z" />
    <glyph glyph-name="Zdotaccent" unicode="&#x17b;" horiz-adv-x="1343" 
d="M692 1731q31 0 51 -22q21 -21 21 -51t-20 -52t-52 -21q-31 0 -51 22q-20 21 -20 51t20 52t51 21zM1235 1444v-55l-959 -1283h971v-106h-1147v53l959 1284h-905v107h1081z" />
    <glyph glyph-name="zdotaccent" unicode="&#x17c;" horiz-adv-x="1200" 
d="M612 1421q31 0 52 -21q20 -22 20 -52t-20 -51t-52 -21t-51 22q-20 22 -20 51q0 30 20 51t51 21zM1116 100v-100h-1018v66l842 938h-809v100h989v-60l-846 -944h842z" />
    <glyph glyph-name="Zcaron" unicode="&#x17d;" horiz-adv-x="1343" 
d="M649 1550l-293 283h109l223 -207l225 207h109l-295 -283h-78zM1235 1444v-55l-959 -1283h971v-106h-1147v53l959 1284h-905v107h1081z" />
    <glyph glyph-name="zcaron" unicode="&#x17e;" horiz-adv-x="1200" 
d="M586 1241l-293 283h108l224 -207l225 207h108l-294 -283h-78zM1116 100v-100h-1018v66l842 938h-809v100h989v-60l-846 -944h842z" />
    <glyph glyph-name="florin" unicode="&#x192;" horiz-adv-x="1132" 
d="M924 1434q-94 0 -166 -64t-96 -188l-33 -168h334v-101h-353l-94 -505q-29 -156 -134 -241t-241 -85q-37 0 -92 18v99q33 -12 74 -13q109 0 185 69t100 200l86 458h-228v101h248l37 198q29 156 134 241t229 85t169 -45v-94q-66 35 -159 35z" />
    <glyph glyph-name="Aringacute" unicode="&#x1fa;" horiz-adv-x="1480" 
d="M743 1462q47 0 82 34t35 81t-35 82t-82 35t-81 -35t-35 -82q1 -47 35 -81t81 -34zM739 1284l-350 -790h703zM928 1577q0 -59 -37 -109t-94 -65l639 -1403h-127l-174 393h-791l-172 -393h-127l639 1405q-55 18 -90 66t-35 114t55 120t129 54l15 -2l248 266l135 -12
l-307 -276q94 -55 94 -158z" />
    <glyph glyph-name="aringacute" unicode="&#x1fb;" horiz-adv-x="1368" 
d="M690 1362q47 0 82 34t35 81t-35 82t-82 35t-82 -36q-35 -34 -35 -81t35 -81t82 -34zM874 1477q0 -74 -55 -128q-55 -55 -129 -55t-129 54t-55 129q0 74 55 128t129 54q14 0 21 -2l245 264l136 -12l-308 -279q90 -51 90 -153zM215 560q0 -190 137 -326t334 -136
q249 1 399 144v628q-154 147 -399 148q-199 0 -335 -134t-136 -324zM1085 1104h115v-1104h-115v123q-171 -131 -413 -131t-407 167t-165 400t165 400t409 167t411 -137v115z" />
    <glyph glyph-name="AEacute" unicode="&#x1fc;" horiz-adv-x="2035" 
d="M1325 1864l-346 -314h-92l303 326zM915 494v835h-53l-444 -835h497zM1032 106h899v-106h-1016v393h-546l-207 -393h-129l768 1444h1087v-107h-856v-583h729v-107h-729v-541z" />
    <glyph glyph-name="aeacute" unicode="&#x1fd;" horiz-adv-x="2312" 
d="M1546 1575l-346 -313h-92l303 325zM1673 1028q-184 0 -307 -120t-137 -302h868q-14 190 -127 306t-297 116zM215 558q0 -194 138 -327t335 -133q249 1 399 144v628q-154 147 -399 148q-197 0 -335 -133t-138 -327zM1202 0h-115v123q-171 -131 -411 -131t-408 164
t-168 404t168 402t413 162t406 -135v115h115v-260q66 129 191 206t282 76q248 -2 391 -162t144 -415v-33h-981q10 -184 137 -305t320 -121q256 0 403 176l76 -61q-170 -213 -482 -213q-165 0 -291 76t-190 206v-274z" />
    <glyph glyph-name="Oslashacute" unicode="&#x1fe;" horiz-adv-x="1751" 
d="M874 104q264 0 452 182t187 438q0 257 -198 433l-811 -936q165 -117 370 -117zM236 717q0 -258 204 -441l813 938q-166 123 -379 123q-264 0 -451 -181t-187 -439zM874 1452q254 0 455 -147l121 139h111l-166 -193q239 -217 239 -525t-222 -521t-538 -213
q-252 0 -448 139l-113 -131h-108l157 182q-118 102 -184 242t-65 297q0 303 223 517t538 214zM1245 1864l-346 -314h-92l303 326z" />
    <glyph glyph-name="oslashacute" unicode="&#x1ff;" horiz-adv-x="1394" 
d="M211 558q0 -192 147 -322l619 696q-125 86 -279 86q-201 0 -344 -134t-143 -326zM698 98q201 0 343 134q143 134 143 326t-154 323l-614 -695q118 -88 282 -88zM698 1124q199 0 353 -108l90 102h100l-133 -149q190 -168 190 -408q0 -241 -176 -405t-424 -164
q-199 0 -356 108l-92 -100h-98l131 150q-187 164 -187 404t176 404q176 166 426 166zM1067 1575l-346 -313h-92l303 325z" />
    <glyph glyph-name="Scommaaccent" unicode="&#x218;" horiz-adv-x="1304" 
d="M674 -139q82 1 82 -109t-60 -181t-174 -71l-18 54q164 8 166 153q-29 2 -49 24q-21 21 -21 53t22 54t52 23zM246 1075q0 -144 179 -216q106 -45 232 -74q125 -30 192 -50q164 -49 253 -132q90 -83 90 -222q0 -185 -141 -287t-381 -102q-178 0 -284 24t-275 109l47 96
q154 -77 255 -99t272 -22t279 72t108 200t-114 189q-113 62 -258 97t-212 54q-176 50 -271 134q-94 84 -94 223q0 171 135 277t363 106q133 0 275 -31t237 -82q-45 -89 -52 -98q-88 45 -220 74t-243 28q-172 1 -272 -73t-100 -195z" />
    <glyph glyph-name="scommaaccent" unicode="&#x219;" horiz-adv-x="1091" 
d="M563 -139q82 1 82 -109t-60 -181t-173 -71l-19 54q164 8 166 153q-29 2 -49 24q-20 21 -20 53t22 54t51 23zM548 90q178 0 259 62q80 62 80 150q0 89 -88 136q-87 47 -277 87t-298 109q-108 70 -108 196t116 210t308 84t394 -84l-39 -90q-170 76 -373 76q-129 0 -213 -55
t-84 -139t82 -128q83 -44 277 -83t303 -109t109 -205t-110 -225q-108 -90 -334 -90t-456 100l45 92q229 -94 407 -94z" />
    <glyph glyph-name="uni021A" unicode="&#x21a;" horiz-adv-x="1351" 
d="M674 -139q82 1 82 -109t-60 -181t-174 -71l-18 54q164 8 166 153q-29 2 -49 24q-21 21 -21 53t22 54t52 23zM1253 1444v-107h-514v-1337h-121v1337h-509v107h1144z" />
    <glyph glyph-name="uni021B" unicode="&#x21b;" horiz-adv-x="808" 
d="M489 -139q82 1 82 -109t-60 -181t-173 -71l-19 54q164 8 166 153q-29 2 -49 24q-20 21 -20 53t22 54t51 23zM764 1004h-408v-627q0 -281 232 -281q88 0 172 19v-97q-86 -26 -215 -26t-217 85t-88 240v687h-195v100h195v440h116v-440h408v-100z" />
    <glyph glyph-name="dotlessj" unicode="&#x237;" horiz-adv-x="458" 
d="M170 -14v1118h117v-1157q0 -156 -88 -241t-224 -85q-61 0 -104 6v101q18 -2 68 -2q231 0 231 260z" />
    <glyph glyph-name="circumflex" unicode="&#x2c6;" horiz-adv-x="1024" 
d="M176 1550l293 283h78l295 -283h-109l-225 205l-223 -205h-109z" />
    <glyph glyph-name="caron" unicode="&#x2c7;" horiz-adv-x="1024" 
d="M469 1550l-293 283h109l223 -207l225 207h109l-295 -283h-78z" />
    <glyph glyph-name="breve" unicode="&#x2d8;" horiz-adv-x="1024" 
d="M513 1587q-132 0 -212 68t-90 200l84 9q18 -188 218 -188t220 188l84 -9q-10 -133 -91 -201t-213 -67z" />
    <glyph glyph-name="dotaccent" unicode="&#x2d9;" horiz-adv-x="776" 
d="M360 1731q32 0 52 -22q20 -21 20 -51t-20 -52t-52 -21q-32 0 -51 22q-20 21 -20 51t20 52t51 21z" />
    <glyph glyph-name="ring" unicode="&#x2da;" horiz-adv-x="1024" 
d="M510 1462q47 0 82 34t35 81t-35 82t-82 35t-82 -35t-35 -82t35 -81t82 -34zM326 1577q0 74 55 128t129 54t129 -54t55 -128t-55 -128t-129 -54t-129 54t-55 128z" />
    <glyph glyph-name="ogonek" unicode="&#x2db;" horiz-adv-x="1024" 
d="M473 -190q0 -35 24 -58q25 -24 63 -24t89 8l8 -74q-63 -12 -129 -12t-108 37q-43 37 -43 100t64 150q11 14 25 28t23 25q10 11 23 20l82 -10q-121 -121 -121 -190z" />
    <glyph glyph-name="tilde" unicode="&#x2dc;" horiz-adv-x="1024" 
d="M328 1798q78 0 191 -48q112 -48 161 -48t89 40t52 113l72 -10q-13 -113 -71 -174t-129 -61t-183 48t-158 48q-124 0 -159 -156l-72 9q13 117 71 178t136 61z" />
    <glyph glyph-name="hungarumlaut" unicode="&#x2dd;" horiz-adv-x="1024" 
d="M483 1554l189 316l116 -39l-208 -277h-97zM367 1870l112 -37l-205 -279h-96z" />
    <glyph glyph-name="uni037E" unicode="&#x37e;" horiz-adv-x="413" 
d="M123 72q-1 34 23 58t58 24t56 -29t23 -76q0 -135 -65 -218t-167 -87l-18 55q61 5 110 59t52 134q-31 4 -52 25q-20 22 -20 55zM201 938q-33 0 -57 24t-24 58t24 56q24 24 57 24t57 -24t23 -58q1 -34 -23 -56q-24 -24 -57 -24z" />
    <glyph glyph-name="tonos" unicode="&#x384;" horiz-adv-x="845" 
d="M735 1446l-362 -320h-99l328 332z" />
    <glyph glyph-name="dieresistonos" unicode="&#x385;" horiz-adv-x="1167" 
d="M520 1206l135 385l97 -18l-152 -367h-80zM879 1407q31 0 51 -22q20 -23 20 -53t-20 -50t-51 -20t-52 20q-20 20 -20 51q1 31 21 53t51 21zM283 1407q31 0 51 -22q20 -23 20 -53t-20 -50t-51 -20t-52 20q-20 20 -20 51q1 31 21 53t51 21z" />
    <glyph glyph-name="Alphatonos" unicode="&#x386;" horiz-adv-x="1480" 
d="M500 1446l-363 -320h-98l328 332zM739 1284l-350 -790h703zM1309 0l-174 393h-791l-172 -393h-127l657 1444h76l658 -1444h-127z" />
    <glyph glyph-name="anoteleia" unicode="&#x387;" horiz-adv-x="374" 
d="M242 1003q0 -34 -24 -58q-24 -23 -56 -23t-57 24q-23 24 -23 57t22 57t58 24t58 -24q22 -23 22 -57z" />
    <glyph glyph-name="Epsilontonos" unicode="&#x388;" 
d="M303 106h899v-106h-1016v1444h973v-107h-856v-583h729v-107h-729v-541zM53 1446l-362 -320h-99l328 332z" />
    <glyph glyph-name="Etatonos" unicode="&#x389;" horiz-adv-x="1497" 
d="M53 1446l-362 -320h-99l328 332zM1194 1444h117v-1444h-117v582h-891v-582h-117v1444h117v-756h891v756z" />
    <glyph glyph-name="Iotatonos" unicode="&#x38a;" horiz-adv-x="495" 
d="M53 1446l-362 -320h-99l328 332zM309 1444v-1444h-121v1444h121z" />
    <glyph glyph-name="Omicrontonos" unicode="&#x38c;" horiz-adv-x="1748" 
d="M874 104q264 0 452 182t187 435q0 254 -187 435q-188 181 -452 181t-451 -181t-187 -435q0 -253 187 -435t451 -182zM874 1452q316 0 538 -214t222 -517t-222 -516t-538 -213t-538 213q-223 213 -223 516t223 517t538 214zM242 1446l-363 -320h-98l328 332z" />
    <glyph glyph-name="Upsilontonos" unicode="&#x38e;" horiz-adv-x="1347" 
d="M735 0h-121v498l-569 946h137l492 -821l491 821h140l-570 -946v-498zM-29 1446l-362 -320h-98l327 332z" />
    <glyph glyph-name="Omegatonos" unicode="&#x38f;" horiz-adv-x="1716" 
d="M233 1446l-362 -320h-98l327 332zM1602 743q0 -227 -122 -394t-288 -245h387v-104h-584v113q159 38 314 195q76 77 124 192t48 243q0 291 -175 447q-176 156 -448 156t-448 -156t-177 -447q1 -129 49 -243q82 -193 282 -319q81 -50 157 -68v-113h-584v104h383
q-164 78 -286 245t-121 394q0 345 210 527q209 182 535 182t535 -182t209 -527z" />
    <glyph glyph-name="iotadieresistonos" unicode="&#x390;" horiz-adv-x="460" 
d="M174 1192l135 385l97 -18l-152 -367h-80zM532 1393q32 0 52 -22q20 -23 20 -53t-20 -50t-52 -20t-51 20q-20 20 -20 51t20 53t51 21zM-63 1393q31 0 51 -22q20 -23 20 -53t-20 -50t-51 -20t-51 20t-21 51q1 31 21 53t51 21zM172 0v1104h117v-1104h-117z" />
    <glyph glyph-name="Alpha" unicode="&#x391;" horiz-adv-x="1480" 
d="M739 1284l-350 -790h703zM1309 0l-174 393h-791l-172 -393h-127l657 1444h76l658 -1444h-127z" />
    <glyph glyph-name="Beta" unicode="&#x392;" horiz-adv-x="1427" 
d="M303 106h545q172 0 265 104t93 254t-94 260t-262 110h-547v-728zM303 1337v-407h453q92 0 136 63t44 145t-69 141q-69 58 -173 58h-391zM725 1444q135 0 229 -83t95 -221q0 -138 -109 -220q178 -18 284 -152t107 -318q0 -182 -116 -316t-320 -134h-709v1444h539z" />
    <glyph glyph-name="Gamma" unicode="&#x393;" horiz-adv-x="1218" 
d="M1133 1444v-107h-828v-1337h-119v1444h947z" />
    <glyph glyph-name="uni0394" unicode="&#x394;" horiz-adv-x="1478" 
d="M737 1280l-520 -1176h1043zM776 1444l656 -1444h-1385l655 1444h74z" />
    <glyph glyph-name="Epsilon" unicode="&#x395;" 
d="M303 106h899v-106h-1016v1444h973v-107h-856v-583h729v-107h-729v-541z" />
    <glyph glyph-name="Zeta" unicode="&#x396;" horiz-adv-x="1343" 
d="M1235 1444v-55l-959 -1283h971v-106h-1147v53l959 1284h-905v107h1081z" />
    <glyph glyph-name="Eta" unicode="&#x397;" horiz-adv-x="1497" 
d="M1194 1444h117v-1444h-117v582h-891v-582h-117v1444h117v-756h891v756z" />
    <glyph glyph-name="Theta" unicode="&#x398;" horiz-adv-x="1748" 
d="M397 672v102h953v-102h-953zM874 104q264 0 452 182t187 435q0 254 -187 435q-188 181 -452 181t-451 -181t-187 -435q0 -253 187 -435t451 -182zM874 1452q316 0 538 -214t222 -517t-222 -516t-538 -213t-538 213q-223 213 -223 516t223 517t538 214z" />
    <glyph glyph-name="Iota" unicode="&#x399;" horiz-adv-x="495" 
d="M309 1444v-1444h-121v1444h121z" />
    <glyph glyph-name="Kappa" unicode="&#x39a;" horiz-adv-x="1413" 
d="M303 0h-117v1444h117v-926l858 926h150l-643 -701l661 -743h-162l-579 653l-285 -305v-348z" />
    <glyph glyph-name="Lambda" unicode="&#x39b;" horiz-adv-x="1474" 
d="M774 1444l651 -1444h-125l-563 1276l-563 -1276h-125l651 1444h74z" />
    <glyph glyph-name="Mu" unicode="&#x39c;" horiz-adv-x="1787" 
d="M1602 1444v-1444h-119v1171l-590 -946l-588 946v-1171h-119v1444h68l639 -1014l639 1014h70z" />
    <glyph glyph-name="Nu" unicode="&#x39d;" horiz-adv-x="1579" 
d="M1274 1444h119v-1444h-70l-1018 1217v-1217h-119v1444h68l1020 -1219v1219z" />
    <glyph glyph-name="Xi" unicode="&#x39e;" horiz-adv-x="1390" 
d="M1174 676h-934v100h934v-100zM1266 1444v-105h-1119v105h1119zM129 104h1155v-104h-1155v104z" />
    <glyph glyph-name="Omicron" unicode="&#x39f;" horiz-adv-x="1748" 
d="M874 104q264 0 452 182t187 435q0 254 -187 435q-188 181 -452 181t-451 -181t-187 -435q0 -253 187 -435t451 -182zM874 1452q316 0 538 -214t222 -517t-222 -516t-538 -213t-538 213q-223 213 -223 516t223 517t538 214z" />
    <glyph glyph-name="Pi" unicode="&#x3a0;" horiz-adv-x="1525" 
d="M186 1444h1155v-1444h-116v1339h-922v-1339h-117v1444z" />
    <glyph glyph-name="Rho" unicode="&#x3a1;" horiz-adv-x="1329" 
d="M305 575h379q211 1 331 99t120 276q1 178 -97 282q-98 105 -307 105h-426v-762zM186 1444h559q267 0 391 -134t124 -337q0 -258 -153 -380t-415 -122h-387v-471h-119v1444z" />
    <glyph glyph-name="Sigma" unicode="&#x3a3;" horiz-adv-x="1327" 
d="M1229 106v-106h-1133v55l506 666l-500 668v55h1123v-107h-949l463 -616l-465 -615h955z" />
    <glyph glyph-name="Tau" unicode="&#x3a4;" horiz-adv-x="1351" 
d="M1253 1444v-107h-514v-1337h-121v1337h-509v107h1144z" />
    <glyph glyph-name="Upsilon" unicode="&#x3a5;" horiz-adv-x="1347" 
d="M735 0h-121v498l-569 946h137l492 -821l491 821h140l-570 -946v-498z" />
    <glyph glyph-name="Phi" unicode="&#x3a6;" horiz-adv-x="1835" 
d="M977 1241v-1016h84q219 -1 382 143t163 361t-160 365t-383 147h-86zM772 1241q-223 1 -383 -147t-160 -365t162 -360t381 -144h86v1016h-86zM1722 725q0 -172 -95 -313t-246 -218t-318 -77h-86v-117h-119v117h-86q-258 0 -459 173t-200 435v18q2 250 197 428
q196 178 462 179h86v94h119v-94h86q265 0 461 -178t198 -429v-18z" />
    <glyph glyph-name="Chi" unicode="&#x3a7;" horiz-adv-x="1505" 
d="M758 815l534 629h140l-596 -721l600 -723h-142l-536 633l-535 -633h-141l598 723l-594 721h141z" />
    <glyph glyph-name="Psi" unicode="&#x3a8;" horiz-adv-x="1767" 
d="M1507 1444h117v-529q0 -249 -183 -423t-427 -175h-72v-317h-119v317h-69q-244 -1 -427 175t-184 423v529h117v-529q0 -205 146 -347t348 -142h69v1018h119v-1018h72q203 0 348 142t145 347v529z" />
    <glyph glyph-name="uni03A9" unicode="&#x3a9;" horiz-adv-x="1716" 
d="M1602 743q0 -227 -122 -394t-288 -245h387v-104h-584v113q159 38 314 195q76 77 124 192t48 243q0 291 -175 447q-176 156 -448 156t-448 -156t-177 -447q1 -129 49 -243q82 -193 282 -319q81 -50 157 -68v-113h-584v104h383q-164 78 -286 245t-121 394q0 345 210 527
q209 182 535 182t535 -182t209 -527z" />
    <glyph glyph-name="Iotadieresis" unicode="&#x3aa;" horiz-adv-x="495" 
d="M85 1757q29 1 51 -21t22 -52t-22 -52t-52 -20q-30 0 -50 22q-22 22 -22 50q0 30 22 52t51 21zM416 1757q31 1 51 -21t20 -52t-20 -52t-51 -20q-31 0 -51 22q-21 22 -21 50q0 30 20 52t52 21zM309 1444v-1444h-121v1444h121z" />
    <glyph glyph-name="Upsilondieresis" unicode="&#x3ab;" horiz-adv-x="1347" 
d="M511 1757q29 1 51 -21t22 -52t-22 -52t-52 -20q-30 0 -50 22q-22 22 -22 50q0 30 22 52t51 21zM842 1757q31 1 51 -21t20 -52t-20 -52t-51 -20q-31 0 -51 22q-21 22 -21 50q0 30 20 52t52 21zM735 0h-121v498l-569 946h137l492 -821l491 821h140l-570 -946v-498z" />
    <glyph glyph-name="alphatonos" unicode="&#x3ac;" horiz-adv-x="1370" 
d="M1094 1552l-363 -319h-98l328 332zM217 558q0 -194 137 -327t334 -133q249 1 399 144v628q-154 147 -399 148q-197 0 -334 -133t-137 -327zM1087 1104h115v-1104h-115v123q-167 -131 -409 -131t-410 164t-168 404t168 403t412 163t407 -137v115z" />
    <glyph glyph-name="epsilontonos" unicode="&#x3ad;" horiz-adv-x="1200" 
d="M600 -8q-500 0 -500 317q0 84 58 156t157 102q-80 37 -127 107t-47 135q0 174 125 245q124 70 344 70t469 -129l-47 -82q-225 113 -403 113q-179 0 -277 -51t-98 -176q0 -61 63 -127t166 -66h308v-90h-349q-96 0 -162 -62t-65 -137q0 -227 387 -227q124 0 220 30t231 101
l47 -84q-143 -77 -251 -111t-249 -34zM1073 1552l-362 -319h-99l328 332z" />
    <glyph glyph-name="etatonos" unicode="&#x3ae;" 
d="M1094 1552l-363 -319h-98l328 332zM670 1124q236 0 364 -126q129 -126 129 -365v-633h-114v633q-1 185 -105 285t-270 100q-233 0 -391 -141v-877h-115v1104h115v-119q151 139 387 139z" />
    <glyph glyph-name="iotatonos" unicode="&#x3af;" horiz-adv-x="460" 
d="M639 1552l-363 -319h-98l328 332zM172 0v1104h117v-1104h-117z" />
    <glyph glyph-name="upsilondieresistonos" unicode="&#x3b0;" horiz-adv-x="1294" 
d="M590 1206l135 385l96 -18l-151 -367h-80zM948 1407q31 0 51 -22q21 -23 21 -53t-20 -50t-52 -20q-31 0 -51 20t-20 51t20 53t51 21zM352 1407q31 0 51 -22q21 -23 21 -53t-20 -50t-52 -20q-31 0 -51 20t-20 51t20 53t51 21zM1153 1104v-655q0 -209 -148 -333t-358 -124
q-125 0 -237 49t-191 157q-78 108 -78 251v655h117v-639q0 -172 115 -270q115 -99 279 -99t274 100q111 100 110 269v639h117z" />
    <glyph glyph-name="alpha" unicode="&#x3b1;" horiz-adv-x="1370" 
d="M217 558q0 -194 137 -327t334 -133q249 1 399 144v628q-154 147 -399 148q-197 0 -334 -133t-137 -327zM1087 1104h115v-1104h-115v123q-167 -131 -409 -131t-410 164t-168 404t168 403t412 163t407 -137v115z" />
    <glyph glyph-name="beta" unicode="&#x3b2;" horiz-adv-x="1310" 
d="M702 96q170 0 283 95t113 268q0 133 -100 238t-281 106h-432v-543q149 -164 417 -164zM618 1448q-150 0 -241 -110q-92 -110 -92 -294v-145h420q104 0 178 73q73 72 73 200t-94 202t-244 74zM1212 459q0 -219 -141 -343t-354 -124q-264 0 -432 141v-479h-117v1374
q0 240 128 381t324 141t323 -101q126 -101 126 -300t-178 -287q153 -38 237 -154t84 -249z" />
    <glyph glyph-name="gamma" unicode="&#x3b3;" horiz-adv-x="1243" 
d="M680 -346h-117v350l-512 1100h123l447 -944l446 944h123l-510 -1102v-348z" />
    <glyph glyph-name="delta" unicode="&#x3b4;" horiz-adv-x="1392" 
d="M696 98q201 0 343 125q143 125 143 296t-144 291t-343 120q-200 0 -343 -120t-143 -291t143 -296t344 -125zM1143 1444h-699q555 -428 592 -463q152 -141 205 -243t53 -222q0 -215 -176 -370q-176 -154 -423 -154t-424 156t-177 374q0 148 89 268t219 179t249 59t236 -41
l-666 502v55h922v-100z" />
    <glyph glyph-name="epsilon" unicode="&#x3b5;" horiz-adv-x="1200" 
d="M600 -8q-500 0 -500 317q0 84 58 156t157 102q-80 37 -127 107t-47 135q0 174 125 245q124 70 344 70t469 -129l-47 -82q-225 113 -403 113q-179 0 -277 -51t-98 -176q0 -61 63 -127t166 -66h308v-90h-349q-96 0 -162 -62t-65 -137q0 -227 387 -227q124 0 220 30t231 101
l47 -84q-143 -77 -251 -111t-249 -34z" />
    <glyph glyph-name="zeta" unicode="&#x3b6;" horiz-adv-x="1052" 
d="M1038 1544v-65q-291 -240 -527 -486q-298 -309 -298 -522q0 -72 58 -121q59 -48 147 -70t189 -46t189 -48t147 -78q58 -54 58 -124q0 -128 -125 -224t-245 -129l-41 76q115 45 204 112t89 139t-81 112q-81 38 -197 62q-117 24 -233 54t-197 101q-81 70 -81 178
q0 365 762 979h-752v100h934z" />
    <glyph glyph-name="eta" unicode="&#x3b7;" 
d="M670 1124q236 0 364 -126q129 -126 129 -365v-633h-114v633q-1 185 -105 285t-270 100q-233 0 -391 -141v-877h-115v1104h115v-119q151 139 387 139z" />
    <glyph glyph-name="theta" unicode="&#x3b8;" horiz-adv-x="1345" 
d="M672 1450q-192 0 -322 -179q-131 -179 -135 -458h920q-3 283 -137 460t-326 177zM675 92q193 0 323 171t137 450q-918 0 -920 -2q2 -281 134 -450t326 -169zM675 1550q245 0 409 -215t163 -572q0 -357 -164 -564q-163 -207 -409 -207t-409 207t-163 564t164 572t409 215z
" />
    <glyph glyph-name="iota" unicode="&#x3b9;" horiz-adv-x="460" 
d="M172 0v1104h117v-1104h-117z" />
    <glyph glyph-name="kappa" unicode="&#x3ba;" horiz-adv-x="1251" 
d="M285 0h-117v1104h117v-723l768 723h147l-438 -422l438 -682h-131l-387 594l-397 -369v-225z" />
    <glyph glyph-name="lambda" unicode="&#x3bb;" horiz-adv-x="1253" 
d="M203 1446h-49v98h53q182 0 331 -82t210 -243l462 -1219h-125l-387 1049l-65 -56l-436 -993h-127l501 1100l84 67q-49 139 -176 209t-276 70z" />
    <glyph glyph-name="uni03BC" unicode="&#x3bc;" horiz-adv-x="1349" 
d="M1065 1104h115v-1104h-115v129q-154 -137 -414 -137q-123 0 -220 53t-148 154v-545h-115v1452h115v-623q0 -184 104 -284t270 -101q244 0 408 142v864z" />
    <glyph glyph-name="nu" unicode="&#x3bd;" horiz-adv-x="1247" 
d="M1069 1104h127l-541 -1104h-61l-543 1104h127l447 -914z" />
    <glyph glyph-name="xi" unicode="&#x3be;" horiz-adv-x="1046" 
d="M981 1544v-86q-340 -6 -507 -101t-167 -229q0 -98 84 -170q160 -137 498 -137v-90q-297 -4 -485 -82t-187 -205q0 -96 78 -151q79 -55 191 -78t224 -45q267 -51 267 -211q0 -68 -43 -129q-42 -61 -106 -101q-121 -76 -183 -91l-57 73q98 33 183 99t85 132t-78 99t-190 53
t-224 51t-190 106t-78 197t119 212q119 89 322 128q-158 41 -252 126t-95 210q0 225 293 320h-411v100h909z" />
    <glyph glyph-name="omicron" unicode="&#x3bf;" horiz-adv-x="1398" 
d="M698 98q201 0 344 134q144 134 144 326t-144 326t-344 134q-201 0 -343 -134t-142 -326t142 -326t343 -134zM98 558q0 236 176 400q176 166 425 166t425 -166t176 -402t-176 -400t-425 -164t-425 165t-176 401z" />
    <glyph glyph-name="pi" unicode="&#x3c0;" horiz-adv-x="1366" 
d="M168 1104h1030v-1104h-119v1001h-794v-1001h-117v1104z" />
    <glyph glyph-name="rho" unicode="&#x3c1;" horiz-adv-x="1341" 
d="M655 98q199 0 336 132t137 327t-137 328t-336 133q-157 0 -277 -106t-120 -265v-405q147 -144 397 -144zM676 1124q228 0 398 -162t169 -404q0 -242 -168 -404q-167 -162 -409 -162t-408 127v-465h-117v985q0 203 153 344q154 141 382 141z" />
    <glyph glyph-name="uni03C2" unicode="&#x3c2;" horiz-adv-x="1159" 
d="M981 -134q0 -87 -78 -154t-184 -103q-29 49 -45 69q193 100 192 183q0 37 -32 65t-62 40q-30 11 -114 41q-319 113 -439 248q-51 56 -86 139t-35 179q0 229 175 391t411 160q127 0 238 -53t184 -151q-8 -8 -40 -36t-40 -36q-132 170 -332 170t-340 -130t-141 -315
q0 -85 32 -155t76 -115q43 -45 121 -88t134 -65t162 -59q106 -38 174 -88t69 -137z" />
    <glyph glyph-name="sigma" unicode="&#x3c3;" horiz-adv-x="1402" 
d="M698 98q201 0 344 134q144 134 144 322t-144 317q-144 130 -344 130q-201 0 -343 -130t-142 -317q0 -188 142 -322t343 -134zM1329 1104v-100h-325q128 -56 210 -174t82 -281q0 -229 -175 -393t-423 -164t-424 165t-176 396t176 391t424 160h631z" />
    <glyph glyph-name="tau" unicode="&#x3c4;" horiz-adv-x="1079" 
d="M1022 1104v-100h-422v-1004h-117v1004h-426v100h965z" />
    <glyph glyph-name="upsilon" unicode="&#x3c5;" horiz-adv-x="1294" 
d="M1153 1104v-655q0 -209 -148 -333t-358 -124q-125 0 -237 49t-191 157q-78 108 -78 251v655h117v-639q0 -172 115 -270q115 -99 279 -99t274 100q111 100 110 269v639h117z" />
    <glyph glyph-name="phi" unicode="&#x3c6;" horiz-adv-x="1683" 
d="M897 1028v-938h12q240 0 401 130t160 329q0 239 -160 359t-405 120h-8zM1587 547q0 -248 -205 -402t-485 -153v-338h-111v338q-280 0 -484 154t-204 401q0 180 111 324t293 219l39 -93q-152 -59 -240 -179t-88 -269q0 -199 162 -329t399 -130h12v1032q30 6 134 6t227 -32
q275 -73 382 -282q58 -115 58 -267z" />
    <glyph glyph-name="chi" unicode="&#x3c7;" horiz-adv-x="1189" 
d="M600 461l-401 -461h-136l467 555l-464 549h137l397 -461l395 461h138l-465 -549l467 -555h-136z" />
    <glyph glyph-name="psi" unicode="&#x3c8;" horiz-adv-x="1648" 
d="M1391 1104h116v-655q-1 -225 -159 -341t-467 -116v-338h-113v338q-309 0 -468 117t-159 340v655h117v-639q0 -365 490 -369h20v1153h113v-1153h20q489 0 490 369v639z" />
    <glyph glyph-name="omega" unicode="&#x3c9;" horiz-adv-x="1824" 
d="M1726 548q0 -254 -128 -405q-128 -152 -353 -151q-115 0 -204 68t-130 171q-41 -104 -130 -172t-203 -67q-225 0 -353 151q-127 152 -127 406q0 253 140 405t354 168l6 -108q-170 -18 -278 -142t-107 -326q0 -202 97 -325t274 -123q116 0 194 96t78 216v272h113v-272
q0 -121 79 -216t193 -96q176 0 272 123q97 123 97 326t-108 326t-275 141l6 108q215 -16 354 -168t139 -406z" />
    <glyph glyph-name="iotadieresis" unicode="&#x3ca;" horiz-adv-x="460" 
d="M67 1421q29 1 51 -21t22 -52t-22 -51t-52 -21t-51 22t-21 51q0 30 21 51q22 21 52 21zM397 1421q31 0 52 -21q20 -22 20 -52t-20 -51q-19 -21 -51 -21t-52 22t-20 51q0 30 20 51t51 21zM172 0v1104h117v-1104h-117z" />
    <glyph glyph-name="upsilondieresis" unicode="&#x3cb;" horiz-adv-x="1294" 
d="M399 1349q-1 30 21 51t52 21q30 1 52 -21t21 -52q0 -30 -22 -51q-21 -21 -51 -21t-52 22t-21 51zM803 1421q31 1 51 -21t20 -52t-20 -51t-51 -21t-51 22t-20 51q0 30 20 51t51 21zM1153 1104v-655q0 -209 -148 -333t-358 -124q-125 0 -237 49t-191 157q-78 108 -78 251
v655h117v-639q0 -172 115 -270q115 -99 279 -99t274 100q111 100 110 269v639h117z" />
    <glyph glyph-name="omicrontonos" unicode="&#x3cc;" horiz-adv-x="1398" 
d="M698 98q201 0 344 134q144 134 144 326t-144 326t-344 134q-201 0 -343 -134t-142 -326t142 -326t343 -134zM98 558q0 236 176 400q176 166 425 166t425 -166t176 -402t-176 -400t-425 -164t-425 165t-176 401zM1096 1552l-363 -319h-98l328 332z" />
    <glyph glyph-name="upsilontonos" unicode="&#x3cd;" horiz-adv-x="1294" 
d="M1153 1104v-655q0 -209 -148 -333t-358 -124q-125 0 -237 49t-191 157q-78 108 -78 251v655h117v-639q0 -172 115 -270q115 -99 279 -99t274 100q111 100 110 269v639h117zM1051 1552l-363 -319h-98l328 332z" />
    <glyph glyph-name="omegatonos" unicode="&#x3ce;" horiz-adv-x="1824" 
d="M1321 1552l-363 -319h-98l328 332zM1726 548q0 -254 -128 -405q-128 -152 -353 -151q-115 0 -204 68t-130 171q-41 -104 -130 -172t-203 -67q-225 0 -353 151q-127 152 -127 406q0 253 140 405t354 168l6 -108q-170 -18 -278 -142t-107 -326q0 -202 97 -325t274 -123
q116 0 194 96t78 216v272h113v-272q0 -121 79 -216t193 -96q176 0 272 123q97 123 97 326t-108 326t-275 141l6 108q215 -16 354 -168t139 -406z" />
    <glyph glyph-name="Wgrave" unicode="&#x1e80;" horiz-adv-x="2287" 
d="M1090 1550l-347 314l136 12l303 -326h-92zM2208 1444l-551 -1444h-60l-462 1237l-463 -1237h-60l-551 1444h129l455 -1219l457 1219h65l455 -1219l457 1219h129z" />
    <glyph glyph-name="wgrave" unicode="&#x1e81;" horiz-adv-x="1742" 
d="M821 1223l-346 313l135 12l303 -325h-92zM1587 1104h119l-428 -1104h-72l-336 915l-333 -915h-72l-428 1104h119l352 -907l328 907h69l332 -907z" />
    <glyph glyph-name="Wacute" unicode="&#x1e82;" horiz-adv-x="2287" 
d="M1530 1864l-346 -314h-92l303 326zM2208 1444l-551 -1444h-60l-462 1237l-463 -1237h-60l-551 1444h129l455 -1219l457 1219h65l455 -1219l457 1219h129z" />
    <glyph glyph-name="wacute" unicode="&#x1e83;" horiz-adv-x="1742" 
d="M1274 1536l-346 -313h-92l303 325zM1587 1104h119l-428 -1104h-72l-336 915l-333 -915h-72l-428 1104h119l352 -907l328 907h69l332 -907z" />
    <glyph glyph-name="Wdieresis" unicode="&#x1e84;" horiz-adv-x="2287" 
d="M968 1731q30 0 52 -22q22 -21 20 -51q0 -30 -22 -52t-50 -21q-30 0 -52 22q-22 21 -22 51t22 52t52 21zM1298 1731q32 0 52 -22q20 -21 20 -51t-20 -52t-52 -21q-32 0 -51 22q-20 21 -20 51t20 52t51 21zM2208 1444l-551 -1444h-60l-462 1237l-463 -1237h-60l-551 1444
h129l455 -1219l457 1219h65l455 -1219l457 1219h129z" />
    <glyph glyph-name="wdieresis" unicode="&#x1e85;" horiz-adv-x="1742" 
d="M708 1403q30 0 52 -22q22 -21 20 -51q0 -30 -22 -52t-50 -21q-30 0 -52 22q-22 21 -22 51t22 52t52 21zM1038 1403q32 0 52 -22q20 -21 20 -51t-20 -52t-52 -21q-32 0 -51 22q-20 21 -20 51t20 52t51 21zM1587 1104h119l-428 -1104h-72l-336 915l-333 -915h-72l-428 1104
h119l352 -907l328 907h69l332 -907z" />
    <glyph glyph-name="Ygrave" unicode="&#x1ef2;" horiz-adv-x="1347" 
d="M612 1550l-346 314l135 12l304 -326h-93zM735 0h-121v498l-569 946h137l492 -821l491 821h140l-570 -946v-498z" />
    <glyph glyph-name="ygrave" unicode="&#x1ef3;" horiz-adv-x="1249" 
d="M598 1241l-346 313l135 13l303 -326h-92zM123 -283q387 0 491 283h-55l-496 1104h125l439 -969h45l385 969h123l-467 -1163q-53 -133 -173 -212t-268 -100q-63 -8 -184 -8l10 96h25z" />
    <glyph glyph-name="endash" unicode="&#x2013;" horiz-adv-x="1081" 
d="M983 729v-100h-885v100h885z" />
    <glyph glyph-name="emdash" unicode="&#x2014;" horiz-adv-x="1839" 
d="M1737 729v-100h-1639v100h1639z" />
    <glyph glyph-name="quoteleft" unicode="&#x2018;" horiz-adv-x="397" 
d="M195 1083q-82 -1 -82 109t60 181t173 71l19 -53q-164 -8 -166 -154q29 -2 49 -24q20 -21 20 -53t-22 -54t-51 -23z" />
    <glyph glyph-name="quoteright" unicode="&#x2019;" horiz-adv-x="370" 
d="M219 1444q82 0 82 -110t-60 -180q-60 -71 -175 -71l-19 54q164 4 166 151q-29 4 -48 26t-19 54t22 54t51 22z" />
    <glyph glyph-name="quotesinglbase" unicode="&#x201a;" horiz-adv-x="405" 
d="M195 156q82 0 81 -123q0 -98 -60 -169t-175 -71l-18 53q164 8 165 154q-29 4 -48 26t-19 54q1 32 23 54t51 22z" />
    <glyph glyph-name="quotedblleft" unicode="&#x201c;" horiz-adv-x="706" 
d="M176 1081q-82 -1 -82 109t60 181t174 71l18 -53q-160 -4 -166 -152q31 -2 50 -25q20 -22 20 -54t-22 -54t-52 -23zM494 1081q-82 -1 -82 109t60 181t173 71l19 -53q-164 -4 -166 -152q29 -4 49 -26q20 -21 20 -53t-22 -54t-51 -23z" />
    <glyph glyph-name="quotedblright" unicode="&#x201d;" horiz-adv-x="692" 
d="M539 1444q82 0 82 -110q-1 -110 -61 -180q-60 -71 -173 -71l-18 54q160 4 166 151q-31 2 -51 25q-19 23 -19 55q1 32 23 54t51 22zM221 1444q82 0 82 -110t-60 -180q-60 -71 -173 -71l-19 54q164 4 166 151q-29 4 -49 26t-20 54t22 54t51 22z" />
    <glyph glyph-name="quotedblbase" unicode="&#x201e;" horiz-adv-x="694" 
d="M516 156q82 0 82 -123q0 -98 -60 -169t-173 -71l-19 53q164 8 166 154q-29 4 -49 26q-21 22 -21 54t22 54t52 22zM199 156q82 0 82 -123q-1 -98 -61 -169t-173 -71l-18 53q164 8 166 154q-29 4 -50 26q-20 22 -20 52q1 30 23 54t51 24z" />
    <glyph glyph-name="dagger" unicode="&#x2020;" horiz-adv-x="839" 
d="M455 1116v-254l10 -319h-82l8 319l-2 254h-51l-236 -10v88l236 -10h49l-2 233h80l-8 -233h43l239 10v-88l-239 10h-45z" />
    <glyph glyph-name="daggerdbl" unicode="&#x2021;" horiz-adv-x="880" 
d="M475 301h45l240 10v-86l-240 8h-43l8 -233h-79l2 233h-50l-235 -10v88l235 -10h52l2 227l-2 191l2 172l-2 227h-52l-235 -10v88l235 -10h50l-5 233h82l-8 -233h43l240 10v-88l-238 10h-47v-227l2 -172l-2 -191v-227z" />
    <glyph glyph-name="bullet" unicode="&#x2022;" horiz-adv-x="792" 
d="M610 720q0 -90 -62 -152t-152 -62t-153 62t-63 152t62 151q62 63 153 63t153 -62t62 -152z" />
    <glyph glyph-name="ellipsis" unicode="&#x2026;" horiz-adv-x="1114" 
d="M940 154q32 0 56 -24t24 -58t-23 -58q-23 -22 -57 -22t-56 24q-24 24 -24 56q0 34 24 58t56 24zM546 154q34 0 58 -25t23 -57q0 -32 -24 -57q-23 -23 -57 -23t-58 24t-24 57t24 57t58 24zM160 154q32 0 56 -24t24 -58t-24 -58q-24 -22 -56 -22t-57 22q-24 22 -23 58
q0 34 24 58t56 24z" />
    <glyph glyph-name="perthousand" unicode="&#x2030;" horiz-adv-x="2615" 
d="M1341 1436h97l-989 -1436h-97zM2168 76q116 0 194 85t79 226q0 141 -78 226q-79 85 -195 85t-195 -85t-79 -226t79 -226t195 -85zM2168 782q155 0 257 -106t102 -288t-102 -290q-102 -106 -256 -106t-257 106q-104 106 -104 288t102 290q102 106 258 106zM1361 76
q117 0 195 85t78 226t-79 226t-195 85t-195 -85q-78 -85 -78 -226t79 -226t195 -85zM1361 782q155 0 257 -106t102 -288t-103 -290q-103 -106 -257 -106t-256 106t-102 288t102 290q102 106 257 106zM154 1057q0 -141 78 -227q79 -85 195 -85t195 85q78 84 78 226t-78 227
q-79 85 -196 85q-116 0 -194 -85t-78 -226zM786 1057q0 -183 -103 -289t-257 -106t-256 106t-102 288t102 290q102 106 257 106t257 -106t102 -289z" />
    <glyph glyph-name="guilsinglleft" unicode="&#x2039;" horiz-adv-x="612" 
d="M422 18l-356 527l356 526l78 -57l-324 -469l324 -469z" />
    <glyph glyph-name="guilsinglright" unicode="&#x203a;" horiz-adv-x="575" 
d="M145 1071l357 -526l-357 -527l-77 58l323 469l-323 469z" />
    <glyph glyph-name="fraction" unicode="&#x2044;" horiz-adv-x="915" 
d="M920 1436h96l-989 -1436h-97z" />
    <glyph glyph-name="Euro" unicode="&#x20ac;" horiz-adv-x="1441" 
d="M872 104q264 0 437 228l86 -72q-91 -125 -229 -197t-294 -71q-236 0 -416 154t-233 397h-143v75h131q-6 50 -6 100t6 99h-131v74h143q51 245 231 401t418 156q156 0 293 -72t230 -198l-86 -72q-172 227 -437 227q-186 0 -330 -125t-192 -317h598v-74h-614q-8 -43 -8 -99
t8 -100h614v-75h-598q50 -191 194 -315t328 -124z" />
    <glyph glyph-name="uni2117" unicode="&#x2117;" horiz-adv-x="1771" 
 />
    <glyph glyph-name="trademark" unicode="&#x2122;" horiz-adv-x="1423" 
d="M1360 1432v-639h-70v475l-266 -379l-266 379v-475h-70v639h31l305 -431l305 431h31zM588 1432v-66h-242v-573h-70v573h-243v66h555z" />
    <glyph glyph-name="Omega" unicode="&#x2126;" horiz-adv-x="1716" 
d="M1602 743q0 -227 -122 -394t-288 -245h387v-104h-584v113q159 38 314 195q76 77 124 192t48 243q0 291 -175 447q-176 156 -448 156t-448 -156t-177 -447q1 -129 49 -243q82 -193 282 -319q81 -50 157 -68v-113h-584v104h383q-164 78 -286 245t-121 394q0 345 210 527
q209 182 535 182t535 -182t209 -527z" />
    <glyph glyph-name="partialdiff" unicode="&#x2202;" horiz-adv-x="1355" 
d="M672 823q-190 0 -321 -92q-132 -92 -132 -259t138 -273t341 -107q164 0 294 120t130 272t-130 246q-130 93 -320 93zM657 928q175 0 313 -62t173 -182q0 6 2 19t0 24q-19 322 -155 470q-136 149 -357 149t-379 -58l-53 94q173 70 447 70t442 -206t167 -638
q1 -282 -159 -450t-407 -168t-418 132t-171 349t162 337t393 120z" />
    <glyph glyph-name="Delta" unicode="&#x2206;" horiz-adv-x="1478" 
d="M737 1280l-520 -1176h1043zM776 1444l656 -1444h-1385l655 1444h74z" />
    <glyph glyph-name="product" unicode="&#x220f;" horiz-adv-x="1505" 
d="M178 -330v1774h1155v-1774h-116v1669h-922v-1669h-117z" />
    <glyph glyph-name="summation" unicode="&#x2211;" horiz-adv-x="1351" 
d="M137 1444h1123v-107h-953l492 -778l-490 -782h951v-107h-1123v56l525 833l-525 830v55z" />
    <glyph glyph-name="minus" unicode="&#x2212;" horiz-adv-x="1081" 
d="M965 729v-100h-852v100h852z" />
    <glyph glyph-name="radical" unicode="&#x221a;" horiz-adv-x="1636" 
d="M74 1141v102h348l487 -1063l799 1694h117l-885 -1874h-70l-530 1141h-266z" />
    <glyph glyph-name="infinity" unicode="&#x221e;" horiz-adv-x="1765" 
d="M482 487q110 0 187 66t156 195q-81 130 -157 196t-186 66t-186 -67q-77 -67 -77 -195t77 -194q76 -67 186 -67zM1266 487q110 0 187 67t77 195q0 129 -77 195t-187 66t-185 -62q-74 -62 -157 -200q82 -137 156 -199q76 -62 186 -62zM1626 748q0 -168 -102 -262t-262 -93
q-117 0 -206 67t-182 210q-90 -139 -181 -208t-206 -69q-160 0 -262 94q-102 95 -102 263t102 261t262 93q115 0 206 -70t181 -209q94 145 182 212t206 67q160 0 262 -94t102 -262z" />
    <glyph glyph-name="integral" unicode="&#x222b;" horiz-adv-x="671" 
d="M-27 -373q-8 0 -24 1t-27 1l10 97h19q104 0 138 61t63 248l167 1069q37 265 100 345q63 79 161 81l100 -4l-10 -92q-95 0 -152 -45q-38 -30 -62 -151q-7 -36 -20 -120l-160 -1003q-49 -299 -102 -393t-201 -95z" />
    <glyph glyph-name="approxequal" unicode="&#x2248;" horiz-adv-x="1282" 
d="M913 985q117 0 240 111l33 -95q-133 -121 -271 -120q-79 0 -233 56t-242 56q-156 0 -274 -90l-33 90q139 104 305 105q104 0 248 -56t227 -57zM913 391q117 0 240 111l33 -94q-129 -121 -271 -121q-79 0 -233 55t-242 55q-152 0 -274 -88l-33 90q139 104 305 105
q104 0 248 -56t227 -57z" />
    <glyph glyph-name="notequal" unicode="&#x2260;" horiz-adv-x="1308" 
d="M166 352v101h299l256 493h-555v101h606l131 253h92l-129 -253h273v-101h-324l-256 -493h580v-101h-631l-133 -260h-94l133 260h-248z" />
    <glyph glyph-name="lessequal" unicode="&#x2264;" horiz-adv-x="1286" 
d="M1135 1360v-113l-830 -401l830 -402v-110l-985 481v62zM1135 100v-100h-985v100h985z" />
    <glyph glyph-name="greaterequal" unicode="&#x2265;" horiz-adv-x="1284" 
d="M150 334v110l829 402l-829 401v113l985 -483v-62zM1135 100v-100h-985v100h985z" />
    <glyph glyph-name="lozenge" unicode="&#x25ca;" horiz-adv-x="968" 
d="M178 772l297 -598l297 598l-297 598zM449 1544h51l383 -772l-383 -772h-51l-381 772z" />
    <glyph glyph-name="NULL" horiz-adv-x="0" 
 />
    <glyph glyph-name="CR" horiz-adv-x="567" 
 />
    <glyph glyph-name="intelligentdesign" horiz-adv-x="1980" 
d="M1700 -311q0 8 8 8t8 -8t-8 -8t-8 8zM461 -311q0 8 8 8t8 -8t-8 -8t-8 8zM1493 -231h8v-86h-8v86zM905 -231h8v-86h-8v86zM500 -231h8v-86h-8v86zM770 -231h8v-78h41v-8h-49v86zM838 -231h8v-78h41v-8h-49v86zM1210 -240h-26v9h61v-9h-26v-77h-9v77zM643 -240h-27v9h62
v-9h-27v-77h-8v77zM1473 -293q0 -25 -25 -24q-23 0 -31 18l6 4q5 -14 23 -14t18 16q0 11 -20 19t-21 22q0 23 23 23q16 0 22 -15l-6 -4q-6 10 -18 10t-12 -12t20 -19t21 -24zM1829 -291h14q25 4 25 28t-25 23h-14v-51zM1028 -231h53v-9h-45v-36h41v-9h-41v-24h45v-8h-53v86z
M1350 -231h53v-9h-45v-36h41v-9h-41v-24h45v-8h-53v86zM698 -231h54v-9h-45v-36h41v-9h-41v-24h45v-8h-54v86zM1774 -291v8h28v-22q-12 -12 -32 -12q-43 0 -46 43q0 18 14 31q31 30 62 -1l-6 -6q-8 12 -24 12t-27 -11q-10 -11 -10 -25t11 -24t25 -11l25 8v10h-20zM1569 -291
v8h28v-22q-12 -12 -32 -12t-33 12q-12 13 -12 31t13 31q32 32 62 -1l-6 -6q-10 12 -25 12q-16 0 -26 -11t-10 -25t11 -24t26 -11l24 8v10h-20zM981 -291v8h29v-22q-12 -12 -32 -12t-34 12q-12 13 -12 31t13 31q31 31 63 -1l-7 -6q-10 12 -25 12q-16 0 -26 -11t-10 -25
t11 -24t26 -11l24 8v10h-20zM590 -231h8v-86h-8l-51 73v-73h-9v86h9l51 -72v72zM1677 -231h9v-86h-9l-51 73v-73h-8v86h8l51 -72v72zM1159 -231h8v-86h-8l-51 73v-73h-8v86h8l51 -72v72zM174 -305l25 76h8l-29 -86h-8l-18 71l-17 -71h-8l-29 86h8l25 -76l16 76h9zM424 -305
l25 76h8l-29 -86h-8l-19 71l-16 -71h-8l-29 86h8l25 -76l16 76h9zM297 -305l25 76h8l-29 -86h-8l-19 71l-16 -71h-8l-29 86h8l25 -76l16 76h9zM1288 -309q14 0 25 10q10 11 10 25t-10 24t-25 10h-16v-69h16zM1331 184h-26v-65h22q35 1 35 33t-31 32zM1829 -299v-18h-8v86h22
q13 -1 23 -11t10 -28t-18 -25l20 -22h-12l-17 18h-20zM1135 88h14q16 0 28 13q11 13 11 33t-12 32q-12 14 -29 14h-12v-92zM1288 -231q18 1 30 -13t13 -31q0 -17 -13 -29t-30 -13h-24v86h24zM585 86q19 0 32 14t13 34t-12 34q-14 14 -33 14t-33 -13t-13 -33q0 -20 13 -36
q14 -14 33 -14zM479 225v-41h-37v-65h35v-35h-35v-39h-49v39h-10v35h10v106h86zM1524 45h-49v59l-68 119h55l37 -65l37 65h55l-67 -119v-59zM815 223h49v-106q0 -33 -24 -55t-59 -22q-33 0 -59 22t-26 55v106h49v-94q0 -43 35 -43t35 43v94zM1008 225h49v-180h-23l-96 92
v-92h-49v180h22l97 -94v94zM1237 135q0 -37 -25 -63t-59 -27h-68v180h62q39 -1 65 -27t25 -63zM1305 84v-39h-50v180h84q74 0 74 -69q1 -40 -24 -58q10 -10 30 -20l-18 -43q-37 14 -66 49h-30zM586 227q40 -1 68 -27t28 -65t-29 -67t-67 -27q-38 0 -68 28q-29 29 -29 67
t28 64t69 27zM944 965v274h-141v-274h141zM944 602v275h-141v-275h141zM1032 877v-269q98 18 164 94t66 175h-230zM1032 965h230q0 98 -66 175t-164 93v-268zM1569 921q0 -116 -65 -210t-169 -138q-43 -104 -137 -169q-94 -64 -211 -64t-211 64t-137 169q-104 43 -169 137
q-64 94 -64 211q0 116 64 211q65 95 169 136q43 104 137 169t211 65t211 -66q94 -64 137 -168q104 -41 169 -136t65 -211z" />
    </font>
</defs>
</svg>
